<svg xmlns="http://www.w3.org/2000/svg" viewBox="0 0 512 512" style="height: 256px; width: 256px;"><path d="M0 0h512v512H0z" fill="#000"></path><g class="" transform="translate(0,0)" style="touch-action: none;"><g><path class="" fill="#1fd301" d="M18 18L18 28.477C22.607 35.967 28.433 45.244 34.867 54.965C42.217 66.071 50.26 77.62 57.984 87.405C60.014 89.975 61.981 92.41 63.92 94.699C69.014 91.616 74.507 88.454 80.14 85.675C77.62 82.945 74.874 79.751 72.113 76.253C64.896 67.11 57.06 55.88 49.877 45.03C43.274 35.053 37.295 25.51 32.687 18L18 18Z"></path><path class="" fill="#1fd301" d="M152.072 18C151.352 23.552 149.712 35.603 147.307 49.28C145.779 57.968 143.844 67.322 141.77 75.785C147.916 76.305 153.972 77.245 159.775 78.662C161.801 70.038 163.522 60.989 165.033 52.395C168.065 35.152 169.863 20.901 170.219 18L152.07 18Z"></path><path class="" fill="#1fd301" d="M128.832 93.62C120.462 93.56 112.112 94.244 104.612 95.697C99.742 96.642 92.054 99.941 84.282 103.951C95.417 106.124 106.465 111.969 115.372 120.907C135.504 141.107 139.842 172.192 121.588 190.384C120.42 191.547 119.2 192.617 117.934 193.597C120.541 195.143 123.178 196.671 125.838 198.171C148.213 210.789 172.054 221.777 191.154 229.954C200.576 233.988 208.624 237.244 214.967 239.764C214.401 234.822 213.681 229.211 212.592 222.806C210.122 208.282 206.442 190.686 202.018 173.426C197.593 156.169 192.398 139.209 187.058 126.128C181.715 113.046 174.845 104.073 173.566 103.341L173.459 103.278L173.351 103.214C163.897 97.444 148.337 94.219 132.417 93.694C131.223 93.654 130.027 93.631 128.831 93.622Z"></path><path class="" fill="#ff0005" d="M189.942 93.79C195.672 100.116 199.475 108.925 203.722 119.322C207.219 127.89 210.527 137.62 213.6 147.854C222.57 138.042 221.074 118.844 206.744 104.464C201.556 99.259 195.731 95.744 189.941 93.789Z"></path><path class="" fill="#ff0004" d="M74.343 121.075C68.116 121.207 62.537 123.305 58.623 127.205C48.993 136.805 50.239 156.533 64.883 171.225C79.525 185.918 99.249 187.235 108.883 177.635C118.513 168.035 117.267 148.305 102.623 133.612C93.93 124.888 83.443 120.882 74.343 121.075Z"></path><path class="" fill="#1fd301" d="M54.89 186.525C43.886 192.165 31.206 200.019 18.744 208.782C18.494 208.957 18.249 209.14 18 209.315L18 278.169C36.57 258.959 51.836 240.963 62.793 225.345C69.543 215.722 74.658 206.985 78.049 199.615C69.819 197.16 61.823 192.708 54.889 186.525Z"></path><path class="" fill="#1fd301" d="M411.55 187.343L406.363 193.97C408.393 198.3 410.328 202.653 412.197 207.02C414.353 206.752 416.447 206.628 418.422 206.65C421.079 206.68 423.526 206.95 425.814 207.44C424.594 205.445 423.39 203.51 422.23 201.715C418.01 195.185 414.28 190.302 411.55 187.345Z"></path><path class="" fill="#1fd301" d="M387.273 195.466C370.355 209.323 353.396 228.881 337.333 251.364C356.559 235.398 376.088 221.972 395.156 212.647C392.834 207.263 390.41 201.914 387.84 196.63L387.273 195.467Z"></path><path class="" fill="#ff0008" d="M227.926 206.62C228.813 211.184 229.626 215.606 230.338 219.787C231.27 225.265 232.055 230.242 232.664 234.747C247.102 235.959 254.479 255.587 262.447 264.117C262.385 238.089 249.387 215.254 227.927 206.619Z"></path><path class="" fill="#1fd301" d="M418.221 224.65C414.508 224.61 409.751 225.427 405.608 227.564L405.462 227.639L405.316 227.709C357.158 250.397 299.846 307.351 256.594 362.109C234.968 389.489 216.714 416.339 204.494 437.862C198.384 448.622 193.784 458.077 191.059 465.332C188.557 471.992 188.286 476.622 188.201 477.232C192.427 485.438 198.011 489.919 213.028 492.602C271.525 453.988 327.308 389.05 366.248 331.62C386.048 302.417 401.556 275.133 410.966 254.574C415.671 244.294 418.838 235.644 420.256 229.734C420.791 227.498 420.864 226.194 420.95 224.964C420.097 224.832 419.384 224.664 418.22 224.65Z"></path><path class="selected" fill="#ff0005" d="M431.487 225.207L423.807 228.645C420.722 293.299 402.382 354.782 393.675 402.178C396.288 404.568 400.015 407.793 404.815 410.918C398.929 423.392 393.192 430.796 386.431 437.468C378.436 445.354 368.457 452.338 355.696 463.92L367.794 477.248C379.717 466.425 389.634 459.592 399.071 450.281C410.264 438.655 423.404 418.323 426.431 404.411C427.801 397.907 429.129 389.155 430.304 379.091C432.654 358.961 434.414 333.514 435.187 308.801C435.959 284.085 435.731 260.011 434.222 242.901C433.539 235.156 432.52 229.099 431.488 225.208Z"></path><path class="" fill="#1fd301" d="M82.068 228.98C80.621 231.18 79.126 233.406 77.528 235.682C76.428 237.252 75.278 238.847 74.105 240.452C96.931 271.615 124.915 312.52 174.01 393.479C181.65 400.731 189.602 407.533 197.89 413.809C202.616 406.211 207.853 398.245 213.533 390.024C145.2 300.133 110.34 259.675 82.068 228.98Z"></path><path class="" fill="#ff0005" d="M155.858 233.81C152.223 258.678 167.941 282.24 193.141 293.94C187.859 280.982 167.734 262.113 184.471 246.668L184.071 246.5C175.457 242.812 165.864 238.535 155.861 233.81Z"></path><path class="" fill="#1fd301" d="M62.6 255.345C58.403 260.522 53.914 265.825 49.12 271.247C76.458 345.061 114.188 417.661 173.063 462.114C173.427 461.101 173.81 460.064 174.21 459.001C176.178 453.763 178.79 447.981 181.968 441.726C120.502 338.563 88.078 290.362 62.601 255.346Z"></path><path class="" fill="#ff0005" d="M453.18 258.161C453.795 273.541 453.746 291.245 453.18 309.358C452.943 316.921 452.607 324.528 452.2 332.055C455.064 342.422 457.873 352.305 460.756 361.49C464.431 362.447 469.696 363.65 475.946 364.115C478.548 377.331 478.344 386.563 476.918 395.818C475.208 406.918 471.366 418.474 468.038 435.383L485.698 438.861C488.483 424.725 491.871 414.101 494.002 402.639L494.002 363.389C493.275 358.299 492.218 353.296 490.764 348.169C488.937 341.779 486.026 333.419 482.364 323.972C475.044 305.075 464.716 281.747 453.857 259.532C453.633 259.072 453.405 258.62 453.18 258.162Z"></path><path class="" fill="#1fd301" d="M319.05 421.782C298.8 444.562 276.817 466.264 253.754 484.992C258.746 486.425 264.271 487.486 269.384 488.018C287.4 468.825 304.047 446.083 319.051 421.783Z"></path></g></g><!-- react-empty: 6 --></svg>