<?xml version="1.0" encoding="UTF-8"?>
<svg xmlns="http://www.w3.org/2000/svg" xmlns:xlink="http://www.w3.org/1999/xlink" viewBox="0 0 24 24" version="1.1" width="96px" height="96px">
<g id="surface1">
<path style=" " d="M 5.4375 2.40625 C 4.667969 2.40625 3.894531 2.699219 3.3125 3.28125 L 3.28125 3.3125 C 2.113281 4.480469 2.113281 6.394531 3.28125 7.5625 C 3.28125 7.5625 3.5 7.757813 3.6875 7.9375 C 2.636719 9.492188 2 11.308594 2 13 C 2 17.125 7.875 22 12 22 C 16.125 22 22 17.125 22 13 C 22 11.320313 21.347656 9.515625 20.28125 7.96875 C 20.484375 7.773438 20.71875 7.5625 20.71875 7.5625 C 21.886719 6.394531 21.886719 4.480469 20.71875 3.3125 L 20.6875 3.28125 C 19.519531 2.113281 17.605469 2.113281 16.4375 3.28125 C 16.4375 3.28125 15.714844 4.039063 15.53125 4.25 C 14.988281 4.085938 14.433594 4 13.875 4 L 10 4 C 9.484375 4 8.96875 4.078125 8.46875 4.21875 C 8.464844 4.214844 8.441406 4.222656 8.4375 4.21875 C 8.273438 4.035156 7.5625 3.28125 7.5625 3.28125 C 6.980469 2.699219 6.207031 2.40625 5.4375 2.40625 Z M 10 6 L 13.875 6 C 16.679688 6 20 9.792969 20 13 C 20 15.8125 15.214844 20 12 20 C 8.785156 20 4 15.8125 4 13 C 4 9.730469 7.195313 6 10 6 Z M 8.9375 9.84375 C 8.230469 9.921875 7.472656 10.410156 6.96875 11.25 C 6.164063 12.59375 6.257813 14.285156 7.1875 15.03125 C 8.117188 15.777344 9.695313 15.34375 10.5 14 C 10.871094 13.378906 11.007813 12.640625 11 12 C 10.992188 11.253906 10.625 10.585938 10.125 10.1875 C 9.777344 9.90625 9.363281 9.796875 8.9375 9.84375 Z M 14.53125 9.90625 C 14.269531 9.941406 14.035156 10.070313 13.8125 10.25 C 13.320313 10.644531 12.992188 11.257813 13 12 C 13.007813 12.597656 13.15625 13.457031 13.5 14.03125 C 14.269531 15.316406 15.703125 15.621094 16.59375 14.90625 C 17.480469 14.191406 17.582031 12.566406 16.8125 11.28125 C 16.234375 10.316406 15.320313 9.796875 14.53125 9.90625 Z M 9.5 11.5 C 10.050781 11.5 10.5 11.949219 10.5 12.5 C 10.5 13.050781 10.050781 13.5 9.5 13.5 C 8.949219 13.5 8.5 13.050781 8.5 12.5 C 8.5 11.949219 8.949219 11.5 9.5 11.5 Z M 14.5 11.5 C 15.050781 11.5 15.5 11.949219 15.5 12.5 C 15.5 13.050781 15.050781 13.5 14.5 13.5 C 13.949219 13.5 13.5 13.050781 13.5 12.5 C 13.5 11.949219 13.949219 11.5 14.5 11.5 Z M 10.5625 16 C 10.375 16.015625 10.25 16.101563 10.25 16.3125 C 10.25 16.875 11.492188 18 12 18 C 12.671875 18 13.75 16.875 13.75 16.3125 C 13.75 15.84375 12.964844 16.125 12 16.125 C 11.398438 16.125 10.878906 15.972656 10.5625 16 Z "/>
</g>
</svg>
