<svg xmlns="http://www.w3.org/2000/svg" viewBox="0 0 512 512" style="height: 256px; width: 256px;"><path d="M0 0h512v512H0z" fill="#000"></path><g class="" transform="translate(0,0)" style="touch-action: none;"><g><path class="" fill="#1fd301" d="M425.479 25.666C426.174 25.696 426.712 25.901 427.079 26.303C455.235 57.159 450.829 84.84 445.439 113.74C443.069 118.576 440.956 122.541 438.649 125.81C433.575 132.998 427.304 138.287 411.975 145.951L420.025 162.049C436.696 153.713 446.425 146.002 453.352 136.189C454.039 135.211 454.702 134.218 455.342 133.209C478.823 162.847 492.981 198.824 495.504 238.899C485.031 227.823 475.182 224.516 462.639 222.035C458.984 204.662 451.569 187.093 439.199 170.602L424.801 181.398C447.145 211.191 450.753 244.346 445.176 272.234C439.598 300.123 423.682 322.098 411.975 327.951C394.365 336.756 381.637 349.637 371.637 359.637C366.637 364.637 362.284 368.924 358.783 371.602C358.608 371.735 358.45 371.842 358.281 371.967C357.429 367.11 356.184 362.081 354.611 356.891C349.298 339.357 339.989 319.823 327.717 299.369L312.283 308.631C324.011 328.177 332.702 346.643 337.389 362.109C342.076 377.576 342.377 389.827 339.645 396.659C336.912 403.489 332.425 407.082 319.701 407.506C308.619 407.876 291.938 404.514 269.76 395.902C317.866 378.86 305.89 348.962 304 320C288 352 272 352 256 352C240 352 224 352 208 320C206.11 348.962 194.134 378.859 242.24 395.902C220.062 404.514 203.38 407.875 192.299 407.506C179.575 407.082 175.088 403.489 172.355 396.658C169.623 389.828 169.925 377.576 174.611 362.109C179.298 346.643 187.989 328.177 199.717 308.631L184.283 299.369C172.011 319.823 162.702 339.357 157.389 356.891C155.816 362.081 154.571 367.111 153.719 371.967C153.55 371.843 153.392 371.735 153.217 371.602C149.716 368.924 145.363 364.637 140.363 359.637C130.363 349.637 117.635 336.757 100.025 327.951C88.318 322.098 72.402 300.123 66.825 272.234C61.247 244.346 64.855 211.191 87.199 181.398L72.801 170.602C60.431 187.093 53.016 204.662 49.361 222.035C36.818 224.515 26.969 227.823 16.496 238.898C19.019 198.824 33.176 162.848 56.658 133.209C57.298 134.218 57.961 135.211 58.648 136.189C65.575 146.002 75.304 153.713 91.975 162.049L100.025 145.951C84.696 138.287 78.425 132.998 73.352 125.811C71.044 122.541 68.932 118.576 66.561 113.741C61.171 84.841 56.765 57.159 84.921 26.303C85.288 25.901 85.826 25.696 86.521 25.666C95.618 25.272 131.738 54.616 165.572 61.26C185.223 55.145 206.419 51.04 228.904 49.166L233.352 64.734C219.432 66.609 205.009 70.178 189.154 75.463L194.846 92.537C210.993 87.155 224.969 83.627 238.271 81.953L242.734 97.573C236.722 98.09 230.876 98.961 225.439 100.24C216.059 102.447 207.758 105.516 201.637 111.637L214.363 124.363C216.243 122.484 221.941 119.553 229.561 117.76C234.948 116.492 241.242 115.646 247.787 115.254L256 144L264.213 115.254C270.758 115.646 277.052 116.492 282.439 117.76C290.059 119.553 295.758 122.484 297.637 124.363L310.363 111.637C304.243 105.516 295.941 102.447 286.561 100.24C281.124 98.961 275.278 98.09 269.266 97.572L273.729 81.953C287.031 83.626 301.007 87.155 317.154 92.537L322.846 75.463C306.991 70.178 292.568 66.609 278.648 64.734L283.096 49.166C305.581 51.039 326.776 55.146 346.428 61.26C380.262 54.617 416.382 25.272 425.478 25.666Z"></path><path class="" fill="#ff0000" d="M332.659 135.645C292.659 151.645 273.6 159.002 256 159.002C238.4 159.002 219.342 151.645 179.342 135.645L172.658 152.355C212.658 168.355 233.6 176.998 256 176.998C278.4 176.998 299.342 168.355 339.342 152.355Z"></path><path class="selected" fill="#000000" d="M375.951 139.975C361.561 168.755 331.975 183.951 299.975 199.951L307.563 215.123C302.745 221.644 298.639 229.419 295.629 238.605C295.629 238.605 288 272 287.123 286.521L304.877 289.479C304 272 304 256 312.527 244.664C317.7 251.688 325.933 256.299 335.221 256.299C350.906 256.299 363.588 243.149 363.588 227.436C363.588 218.331 359.324 210.094 352.691 204.77C365.008 201.095 377.023 200.998 384 200.998L384 183.002C379.283 183.002 371.292 182.97 361.871 184.365C373.987 174.684 384.546 163.03 392.049 148.025Z"></path><path class="" fill="#000000" d="M136.049 139.975L119.951 148.025C127.454 163.03 138.013 174.684 150.129 184.365C140.708 182.97 132.717 183.002 128 183.002L128 200.998C134.977 200.998 146.992 201.095 159.309 204.77C152.676 210.094 148.412 218.331 148.412 227.436C148.412 243.148 161.094 256.299 176.779 256.299C186.067 256.299 194.3 251.688 199.473 244.664C208 256 208 272 207.123 289.48L224.877 286.522C224 272.001 216.371 238.606 216.371 238.606C213.361 229.42 209.255 221.646 204.437 215.124L212.025 199.952C180.025 183.952 150.439 168.756 136.049 139.976Z"></path><path class="" fill="#ff0000" d="M408.537 189.155L391.463 194.845C394.799 204.854 394.013 213.375 390.799 222.158C387.585 230.942 381.669 239.766 374.896 248.475C368.123 257.183 360.558 265.721 354.367 274.604C348.177 283.486 343.002 293 343.002 304L360.998 304C360.998 299 363.824 292.514 369.133 284.896C374.442 277.279 381.877 268.816 389.103 259.526C396.33 250.234 403.415 240.058 407.701 228.342C411.988 216.626 413.201 203.146 408.537 189.154Z"></path><path class="" fill="#ff0000" d="M103.463 189.155C98.799 203.146 100.013 216.625 104.299 228.342C108.585 240.058 115.669 250.234 122.896 259.525C130.123 268.817 137.558 277.279 142.867 284.896C148.177 292.514 151.002 299 151.002 304L168.998 304C168.998 293 163.824 283.486 157.633 274.604C151.442 265.721 143.877 257.184 137.103 248.474C130.33 239.766 124.415 230.942 121.201 222.158C117.988 213.374 117.201 204.854 120.537 194.846Z"></path><path class="" fill="#ff0000" d="M335.221 216.568C340.929 216.568 345.59 221.206 345.59 227.436C345.59 233.665 340.93 238.301 335.22 238.301C329.512 238.301 324.852 233.665 324.852 227.436C324.852 221.206 329.512 216.568 335.221 216.568Z"></path><path class="" fill="#ff0000" d="M176.779 216.568C182.488 216.568 187.149 221.206 187.149 227.436C187.149 233.665 182.488 238.301 176.779 238.301C171.071 238.301 166.41 233.665 166.41 227.436C166.41 221.206 171.07 216.568 176.78 216.568Z"></path><path class="" fill="#1fd301" d="M463.844 228.602C499.508 289.222 495.39 352.61 480 368C470.213 352.619 459.876 340.184 448 336C457.426 372.059 448 400 432 416C432 400 428.568 392.314 416 384C419.293 423.931 397.768 440.793 384 448C377.972 436.35 366.52 423.567 350.725 412.506C353.109 409.794 355.013 406.694 356.355 403.342C357.815 399.694 358.722 395.842 359.184 391.816C363.08 390.528 366.544 388.325 369.717 385.898C374.716 382.076 379.363 377.363 384.363 372.363C394.363 362.363 405.635 351.243 420.025 344.049C440.318 333.902 456.402 307.877 462.825 275.766C465.76 261.089 466.424 245.006 463.844 228.602Z"></path><path class="" fill="#1fd301" d="M48.156 228.602C45.576 245.005 46.24 261.089 49.176 275.766C55.598 307.877 71.682 333.902 91.975 344.049C106.365 351.244 117.637 362.363 127.637 372.363C132.637 377.363 137.284 382.076 142.283 385.898C145.456 388.325 148.92 390.528 152.816 391.816C153.278 395.843 154.186 399.694 155.645 403.342C156.987 406.694 158.891 409.794 161.275 412.506C145.48 423.566 134.028 436.35 128 448C114.232 440.793 92.707 423.931 96 384C83.432 392.314 80 400 80 416C64 400 54.574 372.059 64 336C52.124 340.184 41.787 352.619 32 368C16.61 352.61 12.492 289.222 48.156 228.602Z"></path><path class="" fill="#ff0000" d="M424.998 256L407.002 256C407.002 267.5 396.892 282.464 385.168 296.143C379.306 302.982 373.278 309.488 368.414 315.703C363.55 321.918 359.002 327.501 359.002 336L376.998 336C376.998 336.5 378.45 332.082 382.586 326.797C386.722 321.512 392.694 315.018 398.832 307.857C411.108 293.536 424.998 276.499 424.998 256Z"></path><path class="" fill="#ff0000" d="M104.998 256L87.002 256C87.002 276.5 100.892 293.536 113.168 307.857C119.306 315.018 125.278 321.512 129.414 326.797C133.55 332.082 135.002 336.499 135.002 336L152.998 336C152.998 327.5 148.45 321.918 143.586 315.703C138.722 309.488 132.694 302.982 126.832 296.143C115.108 282.464 104.998 267.501 104.998 256Z"></path><path class="" fill="#1fd301" d="M306.723 424.805C311.546 425.405 316.063 425.635 320.299 425.495C322.1 425.43 323.897 425.275 325.682 425.029C323.156 433.928 319.053 442.395 312.914 449.762C301.151 463.877 282 472.998 256 472.998C230 472.998 210.849 463.878 199.086 449.762C192.946 442.395 188.844 433.928 186.318 425.029C188.07 425.265 189.858 425.433 191.701 425.494C195.937 425.635 200.454 425.406 205.277 424.804C207.137 429.769 209.65 434.322 212.914 438.238C221.151 448.123 234 455.002 256 455.002C278 455.002 290.849 448.122 299.086 438.238C302.35 434.322 304.862 429.768 306.723 424.805Z"></path></g></g><!-- react-empty: 11 --></svg>