<?xml version="1.0"?>
<svg xmlns="http://www.w3.org/2000/svg" xmlns:xlink="http://www.w3.org/1999/xlink" version="1.1" viewBox="0 0 252 252" width="80px" height="80px"><g transform="translate(-5.04,-5.04) scale(1.04,1.04)"><g fill="none" fill-rule="nonzero" stroke="none" stroke-width="none" stroke-linecap="none" stroke-linejoin="miter" stroke-miterlimit="10" stroke-dasharray="" stroke-dashoffset="0" font-family="none" font-weight="none" font-size="none" text-anchor="none" style="mix-blend-mode: normal"><path d="M0,252v-252h252v252z" fill="none" stroke="none" stroke-width="1" stroke-linecap="butt"/><g id="Layer_1"><g stroke="none" stroke-width="1" stroke-linecap="butt"><g fill="#c2e8ff"><path d="M189,168.525c-23.4486,0 -42.525,-19.0764 -42.525,-42.525c0,-23.4486 19.0764,-42.525 42.525,-42.525c23.4486,0 42.525,19.0764 42.525,42.525c0,23.4486 -19.0764,42.525 -42.525,42.525zM189,92.925c-18.2385,0 -33.075,14.8365 -33.075,33.075c0,18.2385 14.8365,33.075 33.075,33.075c18.2385,0 33.075,-14.8365 33.075,-33.075c0,-18.2385 -14.8365,-33.075 -33.075,-33.075z"/></g><g fill="#7496c4"><path d="M189,85.05c22.5792,0 40.95,18.3708 40.95,40.95c0,22.5792 -18.3708,40.95 -40.95,40.95c-22.5792,0 -40.95,-18.3708 -40.95,-40.95c0,-22.5792 18.3708,-40.95 40.95,-40.95M189,160.65c19.10475,0 34.65,-15.54525 34.65,-34.65c0,-19.10475 -15.54525,-34.65 -34.65,-34.65c-19.10475,0 -34.65,15.54525 -34.65,34.65c0,19.10475 15.54525,34.65 34.65,34.65M189,81.9c-24.3558,0 -44.1,19.7442 -44.1,44.1c0,24.3558 19.7442,44.1 44.1,44.1c24.3558,0 44.1,-19.7442 44.1,-44.1c0,-24.3558 -19.7442,-44.1 -44.1,-44.1zM189,157.5c-17.39745,0 -31.5,-14.10255 -31.5,-31.5c0,-17.39745 14.10255,-31.5 31.5,-31.5c17.39745,0 31.5,14.10255 31.5,31.5c0,17.39745 -14.10255,31.5 -31.5,31.5z"/></g></g><g stroke="none" stroke-width="1" stroke-linecap="butt"><path d="M58.32225,244.125c0.819,-14.03325 12.4929,-25.2 26.72775,-25.2h63c14.23485,0 25.9119,11.16675 26.72775,25.2z" fill="#c2e8ff"/><g fill="#7496c4"><path d="M148.05,220.5c12.82995,0 23.4486,9.63585 25.0047,22.05h-113.0094c1.5561,-12.41415 12.17475,-22.05 25.0047,-22.05h63M148.05,217.35h-63c-15.65865,0 -28.35,12.69135 -28.35,28.35h119.7c0,-15.65865 -12.69135,-28.35 -28.35,-28.35z"/></g></g><g stroke="none" stroke-width="1" stroke-linecap="butt"><path d="M103.0743,218.925c-21.45465,0 -39.59865,-16.0587 -42.21,-37.34955l-21.28455,-173.70045h153.9405l-21.28455,173.70045c-2.61135,21.294 -20.75535,37.34955 -42.21,37.34955z" fill="#c2e8ff"/><path d="M191.7405,9.45l-21.07035,171.93015c-2.5137,20.5065 -19.98675,35.96985 -40.64445,35.96985h-26.94825c-20.6577,0 -38.1339,-15.46335 -40.64445,-35.96985l-21.0735,-171.93015h150.381M195.3,6.3h-157.5l21.5019,175.46445c2.71215,22.11615 21.49245,38.73555 43.7724,38.73555h26.94825c22.27995,0 41.0634,-16.6194 43.7724,-38.73555l21.50505,-175.46445z" fill="#7496c4"/></g><g stroke="none" stroke-width="1" stroke-linecap="butt"><path d="M103.07745,218.925c-21.45465,0 -39.6018,-16.0587 -42.21,-37.34955l-15.8823,-129.60045h143.1297l-15.8823,129.60045c-2.61135,21.294 -20.75535,37.34955 -42.21,37.34955z" fill="#a6714e"/><g fill="#7a4f34"><path d="M186.3351,53.55l-15.66495,127.83015c-2.5137,20.5065 -19.98675,35.96985 -40.64445,35.96985h-26.94825c-20.6577,0 -38.1339,-15.46335 -40.6476,-35.96985l-15.66495,-127.83015h139.5702M189.8946,50.4h-146.6892l16.09965,131.36445c2.709,22.11615 21.4893,38.73555 43.76925,38.73555h26.94825c22.27995,0 41.0634,-16.6194 43.7724,-38.73555l16.09965,-131.36445z"/></g></g><path d="M85.05,173.25l-12.6,-138.6" fill="none" stroke="#f7fcff" stroke-width="6.3" stroke-linecap="round"/></g></g></g></svg>
