<?xml version="1.0" encoding="UTF-8"?>
<svg xmlns="http://www.w3.org/2000/svg" xmlns:xlink="http://www.w3.org/1999/xlink" viewBox="0 0 64 64" version="1.1" width="80px" height="80px">
<g id="surface1">
<path style=" fill:#FAEFDE;" d="M 0 32 C 0 32 14.328125 9 32 9 C 49.671875 9 64 32 64 32 C 64 32 49.671875 55 32 55 C 14.328125 55 0 32 0 32 Z "/>
<path style=" fill:#FFF7F0;" d="M 63.921875 32.128906 L 64 32 C 64 32 49.671875 9 32 9 C 14.328125 9 0 32 0 32 L 0.078125 32.128906 C 10.617188 34.011719 21.296875 34.96875 32 35 C 42.703125 34.96875 53.382813 34.011719 63.921875 32.128906 Z "/>
<path style=" fill:#EFD8BE;" d="M 32 16 C 44.601563 16 55.800781 23.871094 62.929688 30.410156 C 59.308594 25.199219 46.839844 9 32 9 C 17.160156 9 4.691406 25.199219 1.070313 30.410156 C 8.199219 23.871094 19.398438 16 32 16 Z "/>
<path style=" fill:#85CBF8;" d="M 49 32 C 49 41.390625 41.390625 49 32 49 C 22.609375 49 15 41.390625 15 32 C 15 22.609375 22.609375 15 32 15 C 41.390625 15 49 22.609375 49 32 Z "/>
<path style=" fill:#8B8E98;" d="M 37 32 C 37 34.761719 34.761719 37 32 37 C 29.238281 37 27 34.761719 27 32 C 27 29.238281 29.238281 27 32 27 C 34.761719 27 37 29.238281 37 32 Z "/>
<path style=" fill:#8D6C9F;" d="M 63.339844 29 C 63.199219 28.699219 63.039063 28.410156 62.859375 28.128906 C 58.859375 22.101563 47.878906 8 32 8 C 16.121094 8 5.140625 22.101563 1.148438 28.160156 C 0.972656 28.429688 0.808594 28.710938 0.671875 29 C -0.351563 31.195313 -0.167969 33.765625 1.160156 35.789063 C 5.140625 41.898438 16.121094 56 32 56 C 47.878906 56 58.859375 41.898438 62.851563 35.839844 C 64.195313 33.800781 64.382813 31.210938 63.339844 29 Z M 32 10 C 43.441406 10 52.261719 17.929688 57.460938 24.238281 C 50.671875 19.378906 41.828125 15 32 15 C 22.171875 15 13.328125 19.378906 6.539063 24.238281 C 11.738281 17.929688 20.558594 10 32 10 Z M 48 32 C 47.996094 39.816406 42.34375 46.488281 34.636719 47.773438 C 26.925781 49.0625 19.414063 44.589844 16.871094 37.199219 C 14.328125 29.804688 17.5 21.65625 24.371094 17.929688 C 29.367188 16.703125 34.585938 16.703125 39.578125 17.929688 C 44.757813 20.714844 47.992188 26.117188 48 32 Z M 61.179688 34.738281 C 57.371094 40.53125 46.898438 54 32 54 C 17.101563 54 6.628906 40.53125 2.820313 34.738281 C 1.914063 33.347656 1.757813 31.601563 2.398438 30.070313 C 7.285156 25.679688 12.875 22.144531 18.941406 19.621094 C 12.1875 26.746094 12.390625 37.964844 19.390625 44.84375 C 26.394531 51.722656 37.617188 51.722656 44.617188 44.84375 C 51.621094 37.964844 51.820313 26.746094 45.070313 19.621094 C 51.128906 22.144531 56.71875 25.679688 61.601563 30.070313 C 62.242188 31.601563 62.085938 33.347656 61.179688 34.738281 Z "/>
<path style=" fill:#8D6C9F;" d="M 21 33 C 21.550781 33 22 32.550781 22 32 C 22 31.449219 21.550781 31 21 31 L 19 31 C 18.449219 31 18 31.449219 18 32 C 18 32.550781 18.449219 33 19 33 Z "/>
<path style=" fill:#8D6C9F;" d="M 32 42 C 31.449219 42 31 42.449219 31 43 L 31 45 C 31 45.550781 31.449219 46 32 46 C 32.550781 46 33 45.550781 33 45 L 33 43 C 33 42.449219 32.550781 42 32 42 Z "/>
<path style=" fill:#8D6C9F;" d="M 23.511719 39.070313 L 22.101563 40.488281 C 21.816406 40.734375 21.691406 41.117188 21.777344 41.484375 C 21.867188 41.847656 22.152344 42.132813 22.515625 42.222656 C 22.882813 42.308594 23.265625 42.183594 23.511719 41.898438 L 24.921875 40.488281 C 25.261719 40.09375 25.238281 39.5 24.867188 39.132813 C 24.5 38.761719 23.90625 38.738281 23.511719 39.078125 Z "/>
<path style=" fill:#8D6C9F;" d="M 23.511719 22.101563 C 23.113281 21.761719 22.523438 21.78125 22.152344 22.152344 C 21.78125 22.523438 21.761719 23.113281 22.101563 23.511719 L 23.511719 24.921875 C 23.90625 25.261719 24.5 25.238281 24.867188 24.867188 C 25.238281 24.5 25.261719 23.90625 24.921875 23.511719 Z "/>
<path style=" fill:#8D6C9F;" d="M 22.730469 35.75 C 22.523438 35.238281 21.941406 34.992188 21.429688 35.199219 L 19.578125 35.949219 C 19.226563 36.066406 18.96875 36.371094 18.910156 36.738281 C 18.851563 37.105469 19 37.476563 19.300781 37.699219 C 19.597656 37.921875 19.996094 37.960938 20.328125 37.800781 L 22.171875 37 C 22.65625 36.796875 22.902344 36.25 22.730469 35.75 Z "/>
<path style=" fill:#8D6C9F;" d="M 28.089844 41.210938 C 27.582031 40.996094 26.996094 41.230469 26.78125 41.738281 L 26 43.578125 C 25.808594 44.082031 26.050781 44.644531 26.542969 44.855469 C 27.039063 45.066406 27.613281 44.847656 27.839844 44.359375 L 28.621094 42.519531 C 28.835938 42.011719 28.597656 41.425781 28.089844 41.210938 Z "/>
<path style=" fill:#8D6C9F;" d="M 19.640625 27.839844 L 21.480469 28.621094 C 21.8125 28.777344 22.203125 28.738281 22.496094 28.519531 C 22.792969 28.304688 22.945313 27.941406 22.894531 27.578125 C 22.847656 27.21875 22.601563 26.910156 22.261719 26.78125 L 20.421875 26 C 19.917969 25.808594 19.355469 26.050781 19.144531 26.542969 C 18.933594 27.039063 19.152344 27.613281 19.640625 27.839844 Z "/>
<path style=" fill:#8D6C9F;" d="M 26 32 C 26 35.3125 28.6875 38 32 38 C 35.3125 38 38 35.3125 38 32 C 38 28.6875 35.3125 26 32 26 C 28.6875 26 26 28.6875 26 32 Z M 36.378906 32 C 36.386719 34.421875 34.425781 36.386719 32.007813 36.390625 C 29.585938 36.394531 27.621094 34.433594 27.621094 32.011719 C 27.617188 29.59375 29.578125 27.628906 32 27.628906 C 34.414063 27.628906 36.375 29.585938 36.378906 32 Z "/>
<path style=" fill:#8D6C9F;" d="M 26.609375 19.078125 C 26.097656 19.292969 25.855469 19.878906 26.070313 20.390625 C 26.28125 20.902344 26.867188 21.144531 27.378906 20.929688 C 29.617188 19.992188 32.085938 19.757813 34.460938 20.261719 C 35.011719 20.375 35.550781 20.015625 35.664063 19.464844 C 35.777344 18.914063 35.421875 18.375 34.871094 18.261719 C 32.097656 17.6875 29.214844 17.972656 26.609375 19.078125 Z "/>
<path style=" fill:#8D6C9F;" d="M 43 36.78125 C 41.738281 39.703125 39.363281 42 36.398438 43.160156 C 35.96875 43.40625 35.785156 43.933594 35.96875 44.394531 C 36.152344 44.859375 36.644531 45.117188 37.128906 45 C 40.855469 43.527344 43.769531 40.535156 45.140625 36.773438 C 46.511719 33.011719 46.203125 28.839844 44.300781 25.320313 C 44.023438 24.835938 43.40625 24.664063 42.921875 24.941406 C 42.433594 25.214844 42.265625 25.835938 42.539063 26.320313 C 44.296875 29.550781 44.464844 33.410156 43 36.78125 Z "/>
<path style=" fill:#8D6C9F;" d="M 38.21875 21.730469 C 38.851563 22.097656 39.445313 22.523438 40 23 C 40.414063 23.367188 41.046875 23.328125 41.414063 22.914063 C 41.78125 22.5 41.746094 21.867188 41.328125 21.5 C 40.710938 20.941406 40.039063 20.4375 39.328125 20 C 39.023438 19.757813 38.605469 19.71875 38.257813 19.894531 C 37.910156 20.074219 37.695313 20.4375 37.710938 20.824219 C 37.726563 21.214844 37.96875 21.5625 38.328125 21.710938 Z "/>
</g>
</svg>
