<?xml version="1.0"?>
<svg xmlns="http://www.w3.org/2000/svg" xmlns:xlink="http://www.w3.org/1999/xlink" version="1.1" viewBox="0 0 252 252" width="80px" height="80px"><g transform="translate(-15.12,-15.12) scale(1.12,1.12)"><g fill="none" fill-rule="nonzero" stroke="none" stroke-width="1" stroke-linecap="butt" stroke-linejoin="miter" stroke-miterlimit="10" stroke-dasharray="" stroke-dashoffset="0" font-family="none" font-weight="none" font-size="none" text-anchor="none" style="mix-blend-mode: normal"><path d="M0,252v-252h252v252z" fill="none"/><g><g id="surface1"><path d="M153.5625,208.6875c0,13.04297 -10.58203,23.625 -23.625,23.625c-13.04297,0 -23.625,-10.58203 -23.625,-23.625c0,-13.04297 10.58203,-23.625 23.625,-23.625c13.04297,0 23.625,10.58203 23.625,23.625z" fill="#c2cde7"/><path d="M227.86743,205.10376c-0.69214,1.33814 -2.0918,2.15332 -3.58374,2.12256h-188.84619c-1.55347,0.07691 -2.99927,-0.76904 -3.69141,-2.15332c-0.69214,-1.38428 -0.52295,-3.06079 0.46143,-4.2605l17.44189,-26.14746l4.64502,-8.10571c1.98413,-4.13745 3.30688,-8.53637 3.9375,-13.07373l8.70556,-70.39819c3.32227,-26.36279 25.7168,-46.14258 52.29492,-46.18872h21.41016c26.57813,0.04614 48.97266,19.82593 52.29492,46.18872l8.85938,70.4751c0.87671,6.87525 3.32227,13.44287 7.16748,19.21069l18.70313,28.03931c0.90747,1.26123 0.98438,2.95313 0.19995,4.29126z" fill="#f9e3ae"/><path d="M180.44824,55.125c-9.98218,-11.56641 -24.51709,-18.21094 -39.80566,-18.22632h-21.41016c-15.28857,0.01538 -29.82349,6.65991 -39.80566,18.22632z" fill="#faefde"/><path d="M221.13061,208.6875h-182.38623c-2.93775,0 -5.64478,-1.63037 -6.99829,-4.24512c-1.35352,-2.59936 -1.15357,-5.75244 0.53833,-8.15185l18.90308,-26.97803h157.5l18.90308,26.97803c1.6919,2.39941 1.89185,5.55249 0.53833,8.15185c-1.35352,2.61475 -4.06055,4.24512 -6.99829,4.24512z" fill="#f6d397"/><path d="M231.37427,194.27564l-18.19556,-27.28565c-3.06079,-4.58349 -4.99878,-9.81299 -5.67554,-15.27319l-8.58252,-68.47559c-3.1377,-24.90161 -21.65625,-45.09668 -46.18872,-50.35693l-5.27564,-10.59742c-1.99951,-4.0144 -6.1062,-6.55224 -10.58203,-6.53686h-13.87354c-4.46045,0 -8.55176,2.53784 -10.55127,6.53686l-5.3064,10.59742c-24.53247,5.26025 -43.05103,25.45532 -46.18872,50.35693l-8.58252,68.47559c-0.67676,5.46021 -2.61474,10.6897 -5.67554,15.27319l-18.19556,27.28565c-2.39941,3.62988 -2.61474,8.29028 -0.56909,12.12012c2.06104,3.84521 6.06006,6.22925 10.41284,6.22925h64.33814c2.06104,13.45825 13.64282,23.40967 27.25488,23.40967c13.61206,0 25.19385,-9.95142 27.25488,-23.40967h64.33814c4.35278,0 8.35181,-2.38403 10.41284,-6.22925c2.04565,-3.82983 1.83032,-8.49023 -0.56909,-12.12012zM119.46314,25.7937c0.67676,-1.33813 2.04565,-2.18408 3.5376,-2.1687h13.9043c1.49195,0 2.84546,0.84595 3.50684,2.1687l2.90699,5.7063c-0.98437,0 -1.96875,0 -2.98389,0h-20.79492c-1.01513,0 -1.99951,0 -2.98388,0zM129.9375,228.375c-9.35156,0 -17.42651,-6.58301 -19.2876,-15.75h38.5752c-1.86109,9.16699 -9.93604,15.75 -19.2876,15.75zM224.99121,202.6582c-0.69214,1.29199 -2.01489,2.0918 -3.46069,2.0918h-183.18604c-1.43042,0 -2.76855,-0.7998 -3.44531,-2.07642c-0.67676,-1.27661 -0.61523,-2.81469 0.18457,-4.02978l16.88819,-25.3938h110.25c2.18408,0 3.9375,-1.7688 3.9375,-3.9375c0,-2.1687 -1.75342,-3.9375 -3.9375,-3.9375h-105.71265c1.86108,-4.0144 3.12231,-8.29028 3.69141,-12.67383l8.55176,-68.47559c3.19922,-25.62451 24.97852,-44.85059 50.7876,-44.85059h20.79492c25.80908,0 47.58838,19.22608 50.7876,44.85059l8.55176,68.47559c0.83056,6.67529 3.19922,13.05835 6.92138,18.65698l18.19556,27.28565c0.7998,1.19971 0.87671,2.73779 0.19995,4.0144z" fill="#8d6c9f"/><path d="M171.68115,90.5625h0.35376c2.15332,-0.18457 3.75293,-2.0918 3.58374,-4.24512c-0.36914,-4.32202 -1.46118,-8.53638 -3.22998,-12.48926c-0.52295,-1.3689 -1.75342,-2.33789 -3.2146,-2.52246c-1.4458,-0.16919 -2.8916,0.47681 -3.72217,1.67651c-0.83056,1.21509 -0.92285,2.78394 -0.23071,4.07593c1.39966,3.1377 2.27637,6.49072 2.55322,9.92065c0.18457,2.01489 1.87647,3.56836 3.90674,3.58374z" fill="#8d6c9f"/><path d="M137.33569,51.1875c-2.1687,0 -3.9375,1.7688 -3.9375,3.9375c0,2.1687 1.7688,3.9375 3.9375,3.9375c7.10596,0.01538 13.9812,2.4917 19.45679,7.01367c1.67651,1.38428 4.15283,1.15357 5.55249,-0.52295c1.38428,-1.66113 1.15357,-4.15283 -0.50757,-5.55249c-6.89062,-5.69092 -15.55005,-8.81323 -24.50171,-8.81323z" fill="#8d6c9f"/><path d="M193.61426,165.375h-16.73437c-2.18408,0 -3.9375,1.7688 -3.9375,3.9375c0,2.1687 1.75342,3.9375 3.9375,3.9375h16.73438c2.1687,0 3.9375,-1.7688 3.9375,-3.9375c0,-2.1687 -1.7688,-3.9375 -3.9375,-3.9375z" fill="#8d6c9f"/><path d="M70.875,181.125c-2.1687,0 -3.9375,1.7688 -3.9375,3.9375v7.875c0,2.1687 1.7688,3.9375 3.9375,3.9375c2.1687,0 3.9375,-1.7688 3.9375,-3.9375v-7.875c0,-2.1687 -1.7688,-3.9375 -3.9375,-3.9375z" fill="#8d6c9f"/><path d="M51.1875,181.125c-2.1687,0 -3.9375,1.7688 -3.9375,3.9375v7.875c0,2.1687 1.7688,3.9375 3.9375,3.9375c2.1687,0 3.9375,-1.7688 3.9375,-3.9375v-7.875c0,-2.1687 -1.7688,-3.9375 -3.9375,-3.9375z" fill="#8d6c9f"/><path d="M90.5625,181.125c-2.1687,0 -3.9375,1.7688 -3.9375,3.9375v7.875c0,2.1687 1.7688,3.9375 3.9375,3.9375c2.1687,0 3.9375,-1.7688 3.9375,-3.9375v-7.875c0,-2.1687 -1.7688,-3.9375 -3.9375,-3.9375z" fill="#8d6c9f"/><path d="M110.25,181.125c-2.1687,0 -3.9375,1.7688 -3.9375,3.9375v7.875c0,2.1687 1.7688,3.9375 3.9375,3.9375c2.1687,0 3.9375,-1.7688 3.9375,-3.9375v-7.875c0,-2.1687 -1.7688,-3.9375 -3.9375,-3.9375z" fill="#8d6c9f"/><path d="M129.9375,181.125c-2.1687,0 -3.9375,1.7688 -3.9375,3.9375v7.875c0,2.1687 1.7688,3.9375 3.9375,3.9375c2.1687,0 3.9375,-1.7688 3.9375,-3.9375v-7.875c0,-2.1687 -1.7688,-3.9375 -3.9375,-3.9375z" fill="#8d6c9f"/><path d="M149.625,181.125c-2.1687,0 -3.9375,1.7688 -3.9375,3.9375v7.875c0,2.1687 1.7688,3.9375 3.9375,3.9375c2.1687,0 3.9375,-1.7688 3.9375,-3.9375v-7.875c0,-2.1687 -1.7688,-3.9375 -3.9375,-3.9375z" fill="#8d6c9f"/><path d="M169.3125,181.125c-2.1687,0 -3.9375,1.7688 -3.9375,3.9375v7.875c0,2.1687 1.7688,3.9375 3.9375,3.9375c2.1687,0 3.9375,-1.7688 3.9375,-3.9375v-7.875c0,-2.1687 -1.7688,-3.9375 -3.9375,-3.9375z" fill="#8d6c9f"/><path d="M189,181.125c-2.1687,0 -3.9375,1.7688 -3.9375,3.9375v7.875c0,2.1687 1.7688,3.9375 3.9375,3.9375c2.1687,0 3.9375,-1.7688 3.9375,-3.9375v-7.875c0,-2.1687 -1.7688,-3.9375 -3.9375,-3.9375z" fill="#8d6c9f"/><path d="M208.6875,181.125c-2.1687,0 -3.9375,1.7688 -3.9375,3.9375v7.875c0,2.1687 1.7688,3.9375 3.9375,3.9375c2.1687,0 3.9375,-1.7688 3.9375,-3.9375v-7.875c0,-2.1687 -1.7688,-3.9375 -3.9375,-3.9375z" fill="#8d6c9f"/></g></g></g></g></svg>
