<?xml version="1.0"?>
<svg xmlns="http://www.w3.org/2000/svg" xmlns:xlink="http://www.w3.org/1999/xlink" version="1.1" viewBox="0 0 252 252" width="80px" height="80px"><g transform="translate(-30.24,-30.24) scale(1.24,1.24)"><g fill="none" fill-rule="nonzero" stroke="none" stroke-width="1" stroke-linecap="butt" stroke-linejoin="miter" stroke-miterlimit="10" stroke-dasharray="" stroke-dashoffset="0" font-family="none" font-weight="none" font-size="none" text-anchor="none" style="mix-blend-mode: normal"><path d="M0,252v-252h252v252z" fill="none"/><g><g id="surface1"><path d="M117.26367,40.91309c2.52246,8.32617 9.22851,85.00488 9.22851,85.00488c0,0 -37.05762,-67.57324 -39.60059,-75.89941c-2.52246,-8.32617 2.21484,-17.12402 10.60254,-19.64649c8.38769,-2.50195 17.22656,2.21484 19.76953,10.54102z" fill="#d81b60"/><path d="M72.29004,59.37012c6.70606,5.59863 54.20215,66.50684 54.20215,66.50684c0,0 -67.96289,-36.81152 -74.64844,-42.41016c-6.68554,-5.61914 -7.54687,-15.56543 -1.88672,-22.20996c5.63965,-6.66504 15.64746,-7.50586 22.33301,-1.88672z" fill="#d81b60"/><path d="M44.625,99.31934c8.67481,1.10742 81.86719,26.55762 81.86719,26.55762c0,0 -77.1709,5.80371 -85.8457,4.71679c-8.67481,-1.10742 -14.84766,-8.98242 -13.74024,-17.61621c1.10742,-8.63379 9.04394,-14.74511 17.71875,-13.6582z" fill="#d81b60"/><path d="M42.94336,146.54883c7.93652,-3.65039 83.54883,-20.67187 83.54883,-20.67187c0,0 -62.30273,45.62988 -70.23926,49.28027c-7.93652,3.6709 -17.37012,0.22559 -21.06152,-7.66992c-3.6709,-7.91602 -0.20508,-17.28809 7.75196,-20.93848z" fill="#d81b60"/><path d="M67.81934,188.50781c4.63476,-7.36231 58.67285,-62.63086 58.67285,-62.63086c0,0 -27.17285,72.02344 -31.82812,79.38574c-4.65527,7.38281 -14.4375,9.59766 -21.84082,4.9834c-7.42383,-4.63476 -9.65918,-14.35547 -5.00391,-21.73828z" fill="#d81b60"/><path d="M164.43164,49.05469c-2.29687,8.38769 -37.93946,76.82227 -37.93946,76.82227c0,0 5.06543,-76.76074 7.36231,-85.14844c2.31738,-8.3877 11.05371,-13.33008 19.48242,-11.03321c8.44922,2.29688 13.41211,10.97168 11.09473,19.35938z" fill="#d81b60"/><path d="M200.38184,81.94922c-6.52149,5.78321 -73.88965,43.92774 -73.88965,43.92774c0,0 46.26563,-61.66699 52.78711,-67.4502c6.52148,-5.80371 16.5498,-5.22949 22.37402,1.27149c5.84473,6.50098 5.25,16.46777 -1.27148,22.25098z" fill="#d81b60"/><path d="M212.54297,128.27637c-8.63379,1.39453 -86.05078,-2.39941 -86.05078,-2.39941c0,0 72.33106,-27.2959 80.96484,-28.71094c8.63379,-1.39453 16.7959,4.45019 18.19043,13.02246c1.41504,8.59277 -4.45019,16.69336 -13.10449,18.08789z" fill="#d81b60"/><path d="M197.01856,174.95215c-7.97754,-3.54785 -70.54687,-49.07519 -70.54687,-49.07519c0,0 75.53027,16.75488 83.50781,20.30273c7.97754,3.56836 11.56641,12.89941 7.97754,20.83594c-3.56836,7.95703 -12.94043,11.50488 -20.93848,7.93652z" fill="#d81b60"/><path d="M159.94043,204.72949c-4.86035,-7.23926 -33.44824,-78.85254 -33.44824,-78.85254c0,0 54.96094,54.12011 59.82129,61.35937c4.86036,7.21875 2.89161,17.02148 -4.38867,21.86133c-7.28027,4.81934 -17.12402,2.87109 -21.98437,-4.36816z" fill="#d81b60"/><path d="M111.25488,210.12305c-0.10254,-8.71582 15.2168,-84.24609 15.2168,-84.24609c0,0 16.38574,75.18164 16.48828,83.87695c0.10254,8.69531 -6.91113,15.85254 -15.66797,15.93457c-8.75684,0.10254 -15.93457,-6.87011 -16.03711,-15.56543z" fill="#d81b60"/><path d="M141.85254,41.95899c0,8.69531 -15.85254,84.04101 -15.85254,84.04101c0,0 -15.85254,-75.3457 -15.85254,-84.04101c0,-8.69531 7.0957,-15.77051 15.85254,-15.77051c8.75684,0 15.85254,7.0752 15.85254,15.77051z" fill="#ff80ab"/><path d="M93.4541,46.7168c4.77832,7.28027 32.5459,79.22168 32.5459,79.22168c0,0 -54.3457,-54.73535 -59.12402,-62.03613c-4.77832,-7.28027 -2.70703,-17.04199 4.63477,-21.79981c7.34179,-4.75781 17.16504,-2.68652 21.94336,4.61426z" fill="#ff80ab"/><path d="M55.35059,77.02734c7.99804,3.52734 70.64941,48.91113 70.64941,48.91113c0,0 -75.55078,-16.59082 -83.54883,-20.13867c-7.99805,-3.52734 -11.58692,-12.8584 -8.03906,-20.79492c3.56836,-7.95703 12.94043,-11.52539 20.93848,-7.97754z" fill="#ff80ab"/><path d="M39.99024,121.75488c8.6748,-1.20996 86.00976,4.18359 86.00976,4.18359c0,0 -72.90527,25.79883 -81.55957,27.0293c-8.6543,1.20996 -16.69336,-4.79883 -17.92383,-13.41211c-1.23047,-8.61328 4.81934,-16.59082 13.47364,-17.80078z" fill="#ff80ab"/><path d="M51.63867,169.06641c6.58301,-5.72168 74.36133,-43.12793 74.36133,-43.12793c0,0 -46.94238,61.1543 -53.52539,66.87598c-6.60352,5.72168 -16.61133,5.04492 -22.37402,-1.51758c-5.76269,-6.5625 -5.06543,-16.50879 1.53809,-22.23047z" fill="#ff80ab"/><path d="M184.67285,63.30762c-4.65527,7.36231 -58.67285,62.63086 -58.67285,62.63086c0,0 27.15234,-72.02344 31.80762,-79.38574c4.65527,-7.36231 14.4375,-9.59766 21.86133,-4.9834c7.42383,4.63476 9.65918,14.35547 5.00391,21.73828z" fill="#ff80ab"/><path d="M209.50781,105.10254c-7.93652,3.6709 -83.50781,20.83594 -83.50781,20.83594c0,0 62.20019,-45.73242 70.13672,-49.40332c7.93652,-3.6709 17.37012,-0.24609 21.06152,7.64941c3.69141,7.875 0.24609,17.24707 -7.69043,20.91797z" fill="#ff80ab"/><path d="M207.70313,152.96777c-8.67481,-1.14844 -81.70312,-27.0293 -81.70312,-27.0293c0,0 77.19141,-5.35254 85.86621,-4.22461c8.67481,1.14844 14.78613,9.06445 13.63769,17.69824c-1.14844,8.63379 -9.12598,14.68359 -17.80078,13.55566z" fill="#ff80ab"/><path d="M179.25879,193.18359c-6.60351,-5.68066 -53.25879,-67.24512 -53.25879,-67.24512c0,0 67.42969,37.73438 74.03321,43.43555c6.62402,5.70117 7.34179,15.64746 1.59961,22.23047c-5.74219,6.58301 -15.77051,7.28027 -22.37402,1.5791z" fill="#ff80ab"/><path d="M135.10547,211.0459c-2.54297,-8.32617 -9.10547,-85.10742 -9.10547,-85.10742c0,0 36.89356,67.61426 39.45703,75.94043c2.54297,8.30566 -2.17383,17.12402 -10.56152,19.66699c-8.36719,2.52246 -17.22656,-2.17383 -19.79004,-10.5z" fill="#ff80ab"/><path d="M86.95313,202.22754c2.41992,-8.36719 39.04688,-76.28906 39.04688,-76.28906c0,0 -6.17285,76.67871 -8.61328,85.0459c-2.41992,8.34668 -11.21777,13.16602 -19.62598,10.74609c-8.40821,-2.41992 -13.24805,-11.15625 -10.80762,-19.50293z" fill="#ff80ab"/><path d="M126,104.91797c11.58691,0 21,9.41309 21,21c0,11.60742 -9.41309,21 -21,21c-11.58691,0 -21,-9.39258 -21,-21c0,-11.58691 9.41309,-21 21,-21" fill="#ffc107"/><path d="M126,112.81348c-2.05078,0 -4.10156,-0.84082 -5.55762,-2.29687c-1.47656,-1.47656 -2.31738,-3.52734 -2.31738,-5.57812c0,-2.09179 0.84082,-4.14258 2.31738,-5.59863c2.93262,-2.8916 8.18262,-2.8916 11.11524,0c1.47656,1.45606 2.31738,3.50684 2.31738,5.59863c0,2.05078 -0.84082,4.10156 -2.31738,5.57813c-1.45606,1.45606 -3.46582,2.29688 -5.55762,2.29688z" fill="#fff59d"/><path d="M118.22754,146.93848c0,-4.34766 3.46582,-7.875 7.83399,-7.91601c4.34766,0 7.875,3.50684 7.91601,7.875c0,4.34766 -3.50683,7.875 -7.81348,7.875c-0.06152,0 -0.06152,0 -0.06152,0c-4.34766,0 -7.875,-3.46582 -7.875,-7.83399zM105.73828,146.4668c-3.09668,-3.03516 -3.1582,-8.01856 -0.10254,-11.11524c3.09668,-3.11719 8.01856,-3.1582 11.11523,-0.12304c3.09668,3.09668 3.15821,8.10058 0.12305,11.13574c-1.5791,1.57911 -3.58887,2.3584 -5.61914,2.3584c-2.00976,0 -3.99902,-0.73828 -5.5166,-2.25586zM135.35156,146.32324c-3.11719,-3.09668 -3.11719,-8.10059 -0.06152,-11.13574c3.09668,-3.09668 8.08008,-3.1582 11.13574,-0.06152c3.09668,3.05567 3.09668,8.03906 0.04102,11.13574c-1.51758,1.5791 -3.56836,2.31738 -5.55762,2.31738c-2.05078,0 -4.04004,-0.73828 -5.55762,-2.25586zM97.125,126.16406c-0.06152,-4.36816 3.46582,-7.93652 7.81348,-7.93652c4.36817,-0.04101 7.875,3.46582 7.93652,7.77246c0.06152,4.34766 -3.46582,7.93652 -7.81348,7.97754h-0.06152c-4.30664,0 -7.81348,-3.50683 -7.875,-7.81348zM139.125,125.89746c0,-4.36816 3.52734,-7.875 7.81348,-7.875c4.36817,0 7.93652,3.50684 7.93652,7.875c0,4.30664 -3.52734,7.875 -7.875,7.875c-4.34766,0 -7.875,-3.52734 -7.875,-7.875zM105.47168,116.8125c-3.09668,-3.03516 -3.15821,-8.03906 -0.06152,-11.13574c3.05566,-3.09668 8.03906,-3.13769 11.13574,-0.10254c3.09668,3.05566 3.1582,8.03906 0.06152,11.13574c-1.51758,1.5791 -3.56836,2.3584 -5.57812,2.3584c-1.98926,0 -3.97852,-0.73828 -5.55762,-2.25586zM135.29004,116.64844c-3.09668,-3.09668 -3.09668,-8.08008 0,-11.11523c3.05567,-3.09668 8.03906,-3.09668 11.13574,-0.06152c3.03516,3.09668 3.03516,8.08008 0,11.17676c-1.5791,1.53809 -3.56836,2.31738 -5.57812,2.31738c-2.05078,0 -4.04004,-0.77929 -5.55762,-2.31738z" fill="#fff59d"/><path d="M126,112.81348c-2.05078,0 -4.10156,-0.84082 -5.55762,-2.29687c-1.47656,-1.47656 -2.31738,-3.52734 -2.31738,-5.57812c0,-2.09179 0.84082,-4.14258 2.31738,-5.59863c2.93262,-2.8916 8.18262,-2.8916 11.11524,0c1.47656,1.45606 2.31738,3.50684 2.31738,5.59863c0,2.05078 -0.84082,4.10156 -2.31738,5.57813c-1.45606,1.45606 -3.46582,2.29688 -5.55762,2.29688z" fill="#fff59d"/></g></g></g></g></svg>
