<?xml version="1.0"?>
<svg xmlns="http://www.w3.org/2000/svg" xmlns:xlink="http://www.w3.org/1999/xlink" version="1.1" viewBox="0 0 252 252" width="80px" height="80px"><g transform="translate(-7.56,-7.56) scale(1.06,1.06)"><g fill="none" fill-rule="nonzero" stroke="none" stroke-width="1" stroke-linecap="butt" stroke-linejoin="miter" stroke-miterlimit="10" stroke-dasharray="" stroke-dashoffset="0" font-family="none" font-weight="none" font-size="none" text-anchor="none" style="mix-blend-mode: normal"><path d="M0,252v-252h252v252z" fill="none"/><g><g id="surface1"><path d="M208.96436,103.20557l-16.33447,74.8125c-0.84595,3.76831 -2.04565,7.45972 -3.62988,10.98193c-4.07593,9.38233 -10.53589,17.5188 -18.74927,23.625c-1.86108,1.43042 -3.79907,2.73779 -5.81396,3.9375h-79.70362c-1.99951,-1.18433 -3.92212,-2.4917 -5.75244,-3.9375c-8.198,-6.09082 -14.64258,-14.24267 -18.70312,-23.625c-1.33814,-2.98388 -2.41479,-6.1062 -3.18384,-9.29004l-19.10303,-76.39673c-0.29224,-1.18433 -0.01538,-2.46094 0.76904,-3.41455c0.76904,-0.95362 1.93799,-1.49194 3.16846,-1.46118h163.17554c1.18433,0 2.32251,0.53833 3.07617,1.46118c0.73828,0.92285 1.03052,2.13794 0.78442,3.30689z" fill="#ed7899"/><path d="M181.55566,201.59692c-3.22998,4.16821 -7.02905,7.875 -11.25879,11.02808h-91.31616c-4.22974,-3.15308 -8.01343,-6.85986 -11.25879,-11.02808c-1.78418,-2.38403 -2.07642,-5.58325 -0.73828,-8.25952c1.35352,-2.67627 4.09131,-4.35278 7.0752,-4.3374h101.20605c2.9685,0 5.7063,1.6919 7.04443,4.35278c1.32276,2.66089 1.0459,5.86011 -0.75366,8.24414z" fill="#e0678f"/><path d="M39.375,98.4375h169.3125c0,8.70557 -7.04443,15.75 -15.75,15.75h-137.8125c-8.70556,0 -15.75,-7.04443 -15.75,-15.75z" fill="#f98cb3"/><path d="M205.50366,232.3125h-165.375c-7.44434,0 -14.44262,-3.50684 -18.90308,-9.44385l-4.72192,-6.30615h212.625l-4.69116,6.30615c-4.47583,5.95239 -11.4895,9.45923 -18.93384,9.44385z" fill="#85cbf8"/><path d="M193.44507,188.41553c13.31983,-2.44556 34.92993,-7.29053 42.57422,-15.16553c9.21314,-9.02857 10.92041,-23.24048 4.12207,-34.20703c-6.79834,-10.96655 -20.28735,-15.75 -32.48437,-11.50488l5.16797,-23.625c0.52295,-2.36865 -0.0769,-4.82959 -1.61499,-6.70605c-1.53809,-1.86108 -3.84521,-2.92236 -6.26001,-2.86084h-163.12939c-2.43018,0 -4.72192,1.1228 -6.21387,3.03003c-1.49194,1.92261 -2.03027,4.41431 -1.43042,6.76758l19.10303,76.39673c3.16846,12.39697 10.0437,23.54809 19.6875,31.96142h-56.46314c-1.49194,0 -2.86084,0.84595 -3.52222,2.18408c-0.67676,1.33813 -0.52295,2.92236 0.36914,4.12207l4.72192,6.30615c5.19873,6.93677 13.38135,11.0127 22.05615,11.0127h165.375c8.6748,0 16.84204,-4.07593 22.04077,-11.0127l4.76806,-6.1831c0.89209,-1.19971 1.0459,-2.79932 0.36914,-4.12207c-0.66138,-1.33814 -2.03027,-2.18408 -3.52222,-2.18408h-52.64868c7.49048,-6.61377 13.28906,-14.91943 16.93433,-24.20947zM230.4668,139.78125c3.73755,3.69141 5.84473,8.73633 5.84473,13.99658c0,5.26025 -2.10718,10.30517 -5.84473,13.99658c-4.81421,4.79883 -19.96435,9.21314 -34.29931,12.08936c0,-0.35376 0.19995,-0.66138 0.27685,-1.01514l9.09009,-41.5437c7.82886,-5.24487 18.28784,-4.21436 24.93237,2.47632zM205.50366,228.375h-165.375c-6.19848,0 -12.04321,-2.92236 -15.75,-7.875h196.875c-3.72217,4.95264 -9.55151,7.875 -15.75,7.875zM86.04053,212.625c-12.5354,-7.53662 -21.56397,-19.70288 -25.16309,-33.86865l-19.05689,-76.38135h163.2832l-16.33447,74.8125c-3.27612,14.82715 -12.50464,27.6394 -25.51684,35.4375z" fill="#8d6c9f"/><path d="M189,118.125c2.1687,0 3.9375,-1.7688 3.9375,-3.9375c0,-2.1687 -1.7688,-3.9375 -3.9375,-3.9375h-98.4375c-2.1687,0 -3.9375,1.7688 -3.9375,3.9375c0,2.1687 1.7688,3.9375 3.9375,3.9375z" fill="#8d6c9f"/><path d="M74.8125,110.25h-15.75c-2.1687,0 -3.9375,1.7688 -3.9375,3.9375c0,2.1687 1.7688,3.9375 3.9375,3.9375h15.75c2.1687,0 3.9375,-1.7688 3.9375,-3.9375c0,-2.1687 -1.7688,-3.9375 -3.9375,-3.9375z" fill="#8d6c9f"/><path d="M136.67432,18.07251c0.76904,1.16895 0.86133,2.67627 0.23071,3.9375l-3.9375,7.59814c-1.89184,3.78369 -1.63037,8.29028 0.70752,11.8125l2.47632,3.9375c0.89209,1.32276 0.89209,3.04541 0,4.36816l-2.07642,3.12232c-2.61474,3.9375 -2.61474,9.07471 0,13.02759l2.07642,3.18384c0.89209,1.32275 0.89209,3.04541 0,4.36816l-4.92187,7.21362c-0.93823,1.16895 -1.13818,2.78393 -0.49219,4.13745c0.63061,1.3689 1.99951,2.24561 3.50684,2.27637c1.50733,0.01538 2.8916,-0.81518 3.56836,-2.1687l4.92188,-7.19824c2.66089,-3.98364 2.66089,-9.16699 0,-13.15064l-2.0918,-3.19922c-0.86133,-1.30737 -0.86133,-3.01465 0,-4.32202l2.0918,-3.10694c2.63013,-3.96826 2.63013,-9.12085 0,-13.07373l-2.47632,-3.9375c-0.78442,-1.18433 -0.87671,-2.67627 -0.24609,-3.9375l3.9375,-7.59815c1.89185,-3.79907 1.59961,-8.30566 -0.73828,-11.8125l-5.39868,-7.84424c-0.73828,-1.24585 -2.12256,-1.99951 -3.56836,-1.92261c-1.46118,0.06152 -2.76855,0.93823 -3.38379,2.26098c-0.61523,1.30738 -0.46142,2.87622 0.41528,4.02979z" fill="#8d6c9f"/><path d="M112.69556,45.1582c0.87671,1.32276 0.87671,3.04541 0,4.36816l-2.0918,3.12232c-2.61475,3.95288 -2.61475,9.07471 0,13.02759l2.0918,3.18383c0.87671,1.32276 0.87671,3.06079 0,4.38355l-4.92187,7.19824c-1.03052,1.13818 -1.30737,2.75317 -0.70752,4.16821c0.58447,1.41504 1.93799,2.35327 3.4607,2.4148c1.53809,0.06152 2.95313,-0.76904 3.66064,-2.13794l4.92188,-7.19824c2.66089,-3.98364 2.66089,-9.16699 0,-13.15064l-2.0918,-3.19922c-0.86133,-1.30737 -0.86133,-3.01465 0,-4.32202l2.0918,-3.10694c2.63013,-3.96826 2.63013,-9.12085 0,-13.07373l-4.92187,-7.56738c-1.21509,-1.7688 -3.62988,-2.24561 -5.41406,-1.06128c-1.79956,1.18433 -2.30713,3.58374 -1.16895,5.39868z" fill="#8d6c9f"/><path d="M89.07056,68.86011c0.87671,1.32276 0.87671,3.06079 0,4.38355l-4.92187,7.19824c-1.03052,1.13818 -1.30737,2.75317 -0.70752,4.16821c0.58447,1.41504 1.93799,2.35327 3.4607,2.4148c1.53809,0.06152 2.95313,-0.76904 3.66064,-2.13794l4.92188,-7.19824c2.66089,-3.98364 2.66089,-9.16699 0,-13.15064l-4.92187,-7.52124c-0.76904,-1.19971 -2.10718,-1.89185 -3.5376,-1.83032c-1.41504,0.0769 -2.69165,0.92285 -3.32227,2.19946c-0.63062,1.27661 -0.52295,2.78393 0.27685,3.95288z" fill="#8d6c9f"/><path d="M158.25366,86.625c1.30738,0 2.52246,-0.64599 3.26074,-1.73804l4.92188,-7.19824c2.66089,-3.98364 2.66089,-9.16699 0,-13.15064l-2.0918,-3.19922c-0.87671,-1.32275 -0.87671,-3.04541 0,-4.36816l4.96802,-7.39819c1.06128,-1.79956 0.53833,-4.12207 -1.19971,-5.27564c-1.73804,-1.16895 -4.07593,-0.76904 -5.33716,0.90747l-4.96802,7.4751c-2.59936,3.95288 -2.59936,9.09009 0,13.04297l2.0918,3.18384c0.89209,1.32276 0.89209,3.04541 0,4.36816l-4.92187,7.21362c-0.81518,1.19971 -0.89209,2.76855 -0.21533,4.04517c0.69214,1.29199 2.03027,2.0918 3.49145,2.0918z" fill="#8d6c9f"/><path d="M74.8125,181.125c-2.1687,0 -3.9375,1.7688 -3.9375,3.9375v7.875c0,2.1687 1.7688,3.9375 3.9375,3.9375c2.1687,0 3.9375,-1.7688 3.9375,-3.9375v-7.875c0,-2.1687 -1.7688,-3.9375 -3.9375,-3.9375z" fill="#8d6c9f"/><path d="M94.5,181.125c-2.1687,0 -3.9375,1.7688 -3.9375,3.9375v7.875c0,2.1687 1.7688,3.9375 3.9375,3.9375c2.1687,0 3.9375,-1.7688 3.9375,-3.9375v-7.875c0,-2.1687 -1.7688,-3.9375 -3.9375,-3.9375z" fill="#8d6c9f"/><path d="M114.1875,181.125c-2.1687,0 -3.9375,1.7688 -3.9375,3.9375v7.875c0,2.1687 1.7688,3.9375 3.9375,3.9375c2.1687,0 3.9375,-1.7688 3.9375,-3.9375v-7.875c0,-2.1687 -1.7688,-3.9375 -3.9375,-3.9375z" fill="#8d6c9f"/><path d="M133.875,181.125c-2.1687,0 -3.9375,1.7688 -3.9375,3.9375v7.875c0,2.1687 1.7688,3.9375 3.9375,3.9375c2.1687,0 3.9375,-1.7688 3.9375,-3.9375v-7.875c0,-2.1687 -1.7688,-3.9375 -3.9375,-3.9375z" fill="#8d6c9f"/><path d="M153.5625,181.125c-2.1687,0 -3.9375,1.7688 -3.9375,3.9375v7.875c0,2.1687 1.7688,3.9375 3.9375,3.9375c2.1687,0 3.9375,-1.7688 3.9375,-3.9375v-7.875c0,-2.1687 -1.7688,-3.9375 -3.9375,-3.9375z" fill="#8d6c9f"/><path d="M177.1875,192.9375v-7.875c0,-2.1687 -1.7688,-3.9375 -3.9375,-3.9375c-2.1687,0 -3.9375,1.7688 -3.9375,3.9375v7.875c0,2.1687 1.7688,3.9375 3.9375,3.9375c2.1687,0 3.9375,-1.7688 3.9375,-3.9375z" fill="#8d6c9f"/></g></g></g></g></svg>
