<?xml version="1.0"?>
<svg xmlns="http://www.w3.org/2000/svg" xmlns:xlink="http://www.w3.org/1999/xlink" version="1.1" viewBox="0 0 252 252" width="80px" height="80px"><g transform="translate(-5.04,-5.04) scale(1.04,1.04)"><g fill="none" fill-rule="nonzero" stroke="none" stroke-width="1" stroke-linecap="butt" stroke-linejoin="miter" stroke-miterlimit="10" stroke-dasharray="" stroke-dashoffset="0" font-family="none" font-weight="none" font-size="none" text-anchor="none" style="mix-blend-mode: normal"><path d="M0,252v-252h252v252z" fill="none"/><g id="&#x421;&#x43B;&#x43E;&#x439;_1"><g><path d="M7.875,80.325v-31.5c0,-13.3119 10.4202,-24.34635 23.71635,-25.1244l1.323,-0.0756h179.71065v56.7z" fill="#ffc49c"/><path d="M211.05,25.2v53.55h-201.6v-29.925c0,-12.4803 9.765,-22.8249 22.2327,-23.5494l0.87255,-0.0756h178.49475M214.2,22.05h-182.7v0.07875c-14.049,0.819 -25.2,12.43935 -25.2,26.69625c0,0.53235 0,33.075 0,33.075h207.9v-59.85z" fill="#a16a4a"/></g><g><rect x="7.5" y="15.5" transform="scale(3.15,3.15)" width="65" height="49" fill="#bae0bd"/><g fill="#5e9c76"><path d="M226.8,50.4v151.2h-201.6v-151.2h201.6M229.95,47.25h-207.9v157.5h207.9v-157.5z"/></g></g><g><path d="M23.625,184.275v-122.85h61.33995c33.91605,0 61.51005,27.5562 61.51005,61.425c0,33.8688 -27.594,61.425 -61.51005,61.425z" fill="#ffffff"/><path d="M84.96495,63c33.0498,0 59.93505,26.84745 59.93505,59.85c0,33.00255 -26.88525,59.85 -59.93505,59.85h-59.76495v-119.7h59.76495M84.96495,59.85c-1.06155,0 -62.91495,0 -62.91495,0v126c0,0 56.0574,0 62.91495,0c34.84215,0 63.08505,-28.2051 63.08505,-63c0,-34.7949 -28.2429,-63 -63.08505,-63z" fill="#5e9c76"/></g><g><path d="M40.95,228.375c-1.0584,0 -2.0979,-0.063 -3.12795,-0.16065c-1.25685,0.10395 -2.205,0.16065 -3.17205,0.16065c-14.76405,0 -26.775,-12.01095 -26.775,-26.775c0,-0.96705 0.05985,-1.91835 0.1575,-2.8602c-0.0945,-1.3419 -0.1575,-2.38455 -0.1575,-3.4398v-143.325h0.04725c0.819,14.03325 12.49605,25.2 26.72775,25.2h177.975v151.2z" fill="#ffc49c"/><path d="M9.45,63.38115c4.7187,9.11925 14.2443,15.36885 25.2,15.36885h176.4v148.05h-170.1c-0.9198,0 -1.8963,-0.0504 -2.98305,-0.1512l-0.31185,-0.02835l-0.31185,0.03465c-0.9387,0.09765 -1.8207,0.1449 -2.69325,0.1449c-13.89465,0 -25.2,-11.30535 -25.2,-25.2c0,-0.87255 0.04725,-1.75455 0.14805,-2.6901l0.0315,-0.31185l-0.02835,-0.31185c-0.1008,-1.0899 -0.1512,-2.0664 -0.1512,-2.9862v-131.91885M9.45,50.4h-3.15v144.9c0,1.10565 0.063,2.19555 0.1638,3.276c-0.10395,0.9954 -0.1638,2.0034 -0.1638,3.024c0,15.65865 12.69135,28.35 28.35,28.35c1.0206,0 2.0286,-0.05985 3.024,-0.1638c1.08045,0.1008 2.17035,0.1638 3.276,0.1638h173.25v-154.35c0,0 -175.1274,0 -179.55,0c-13.9167,0 -25.2,-11.2833 -25.2,-25.2z" fill="#a16a4a"/></g><g><rect x="52.5" y="41.5" transform="scale(3.15,3.15)" width="25" height="14" fill="#ffc49c"/><g fill="#a16a4a"><path d="M242.55,132.3v40.95h-75.6v-40.95h75.6M245.7,129.15h-81.9v47.25h81.9v-47.25z"/></g></g><g fill="#a16a4a"><circle cx="60.5" cy="48.5" transform="scale(3.15,3.15)" r="2.5"/></g></g></g></g></svg>
