<?xml version="1.0"?>
<svg xmlns="http://www.w3.org/2000/svg" xmlns:xlink="http://www.w3.org/1999/xlink" version="1.1" viewBox="0 0 252 252" width="80px" height="80px"><g transform="translate(-10.08,-10.08) scale(1.08,1.08)"><g fill="none" fill-rule="nonzero" stroke="none" stroke-width="1" stroke-linecap="butt" stroke-linejoin="miter" stroke-miterlimit="10" stroke-dasharray="" stroke-dashoffset="0" font-family="none" font-weight="none" font-size="none" text-anchor="none" style="mix-blend-mode: normal"><path d="M0,252v-252h252v252z" fill="none"/><g><g id="surface1"><path d="M10.47949,52.5h231v141.75h-231z" fill="#eceff1"/><path d="M10.5,52.5h231v15.75h-231z" fill="#f44336"/><path d="M10.5,84h231v15.75h-231z" fill="#f44336"/><path d="M10.5,115.5h231v15.75h-231z" fill="#f44336"/><path d="M10.5,147h231v15.75h-231z" fill="#f44336"/><path d="M10.5,178.5h231v15.75h-231z" fill="#f44336"/><path d="M10.5,52.5h110.25v78.75h-110.25z" fill="#3f51b5"/><path d="M22.3125,63l2.44043,5.18848l5.43457,0.82031l-3.9375,4.04004l0.94336,5.70117l-4.88086,-2.68652l-4.88086,2.68652l0.94336,-5.70117l-3.9375,-4.04004l5.43457,-0.82031z" fill="#ffffff"/><path d="M43.3125,63l2.44043,5.18848l5.43457,0.82031l-3.9375,4.04004l0.94336,5.70117l-4.88086,-2.68652l-4.88086,2.68652l0.94336,-5.70117l-3.9375,-4.04004l5.43457,-0.82031z" fill="#ffffff"/><path d="M64.3125,63l2.44043,5.18848l5.43457,0.82031l-3.9375,4.04004l0.94336,5.70117l-4.88086,-2.68652l-4.88086,2.68652l0.94336,-5.70117l-3.9375,-4.04004l5.43457,-0.82031z" fill="#ffffff"/><path d="M85.3125,63l2.44043,5.18848l5.43457,0.82031l-3.9375,4.04004l0.94336,5.70117l-4.88086,-2.68652l-4.88086,2.68652l0.94336,-5.70117l-3.9375,-4.04004l5.43457,-0.82031z" fill="#ffffff"/><path d="M105,63l2.44043,5.18848l5.43457,0.82031l-3.9375,4.04004l0.94336,5.70117l-4.88086,-2.68652l-4.88086,2.68652l0.94336,-5.70117l-3.9375,-4.04004l5.43457,-0.82031z" fill="#ffffff"/><path d="M22.3125,105l2.44043,5.18848l5.43457,0.82031l-3.9375,4.04004l0.94336,5.70117l-4.88086,-2.68652l-4.88086,2.68652l0.94336,-5.70117l-3.9375,-4.04004l5.43457,-0.82031z" fill="#ffffff"/><path d="M43.3125,105l2.44043,5.18848l5.43457,0.82031l-3.9375,4.04004l0.94336,5.70117l-4.88086,-2.68652l-4.88086,2.68652l0.94336,-5.70117l-3.9375,-4.04004l5.43457,-0.82031z" fill="#ffffff"/><path d="M64.3125,105l2.44043,5.18848l5.43457,0.82031l-3.9375,4.04004l0.94336,5.70117l-4.88086,-2.68652l-4.88086,2.68652l0.94336,-5.70117l-3.9375,-4.04004l5.43457,-0.82031z" fill="#ffffff"/><path d="M85.3125,105l2.44043,5.18848l5.43457,0.82031l-3.9375,4.04004l0.94336,5.70117l-4.88086,-2.68652l-4.88086,2.68652l0.94336,-5.70117l-3.9375,-4.04004l5.43457,-0.82031z" fill="#ffffff"/><path d="M105,105l2.44043,5.18848l5.43457,0.82031l-3.9375,4.04004l0.94336,5.70117l-4.88086,-2.68652l-4.88086,2.68652l0.94336,-5.70117l-3.9375,-4.04004l5.43457,-0.82031z" fill="#ffffff"/><path d="M27.5625,84l2.44043,5.18848l5.43457,0.82031l-3.9375,4.04004l0.94336,5.70117l-4.88086,-2.68652l-4.88086,2.68652l0.94336,-5.70117l-3.9375,-4.04004l5.43457,-0.82031z" fill="#ffffff"/><path d="M48.5625,84l2.44043,5.18848l5.43457,0.82031l-3.9375,4.04004l0.94336,5.70117l-4.88086,-2.68652l-4.88086,2.68652l0.94336,-5.70117l-3.9375,-4.04004l5.43457,-0.82031z" fill="#ffffff"/><path d="M69.5625,84l2.44043,5.18848l5.43457,0.82031l-3.9375,4.04004l0.94336,5.70117l-4.88086,-2.68652l-4.88086,2.68652l0.94336,-5.70117l-3.9375,-4.04004l5.43457,-0.82031z" fill="#ffffff"/><path d="M90.5625,84l2.44043,5.18848l5.43457,0.82031l-3.9375,4.04004l0.94336,5.70117l-4.88086,-2.68652l-4.88086,2.68652l0.94336,-5.70117l-3.9375,-4.04004l5.43457,-0.82031z" fill="#ffffff"/><path d="M110.25,84l2.44043,5.18848l5.43457,0.82031l-3.9375,4.04004l0.94336,5.70117l-4.88086,-2.68652l-4.88086,2.68652l0.94336,-5.70117l-3.9375,-4.04004l5.43457,-0.82031z" fill="#ffffff"/></g></g></g></g></svg>
