<?xml version="1.0"?>
<svg xmlns="http://www.w3.org/2000/svg" xmlns:xlink="http://www.w3.org/1999/xlink" version="1.1" viewBox="0 0 252 252" width="80px" height="80px"><g transform="translate(-5.04,-5.04) scale(1.04,1.04)"><g fill="none" fill-rule="nonzero" stroke="none" stroke-width="none" stroke-linecap="none" stroke-linejoin="miter" stroke-miterlimit="10" stroke-dasharray="" stroke-dashoffset="0" font-family="none" font-weight="none" font-size="none" text-anchor="none" style="mix-blend-mode: normal"><path d="M0,252v-252h252v252z" fill="none" stroke="none" stroke-width="1" stroke-linecap="butt"/><g id="Layer_1"><path d="M59.85,154.35h-50.4" fill="none" stroke="#7a4f34" stroke-width="6.3" stroke-linecap="round"/><path d="M54.12015,117.9486c-19.33785,0 -38.37015,-26.67735 -38.37015,-58.0986c0,-9.4752 0,-4.08555 0,-12.6" fill="none" stroke="#7a4f34" stroke-width="6.3" stroke-linecap="round"/><path d="M15.75,245.7c0,-2.9421 0,-3.31065 0,-6.3c0,-29.0052 36.37935,-54.3816 79.88715,-54.3816" fill="none" stroke="#7a4f34" stroke-width="6.3" stroke-linecap="round"/><path d="M176.4,15.75c0,14.5026 -22.23585,25.54965 -48.825,25.54965c-26.58915,0 -48.825,-11.04705 -48.825,-25.54965" fill="none" stroke="#7a4f34" stroke-width="6.3" stroke-linecap="round"/><path d="M195.3,154.35h50.4" fill="none" stroke="#7a4f34" stroke-width="6.3" stroke-linecap="round"/><path d="M201.02985,117.9486c19.33785,0 38.37015,-26.67735 38.37015,-58.0986c0,-9.4752 0,-4.08555 0,-12.6" fill="none" stroke="#7a4f34" stroke-width="6.3" stroke-linecap="round"/><path d="M239.4,245.7c0,-2.9421 0,-3.31065 0,-6.3c0,-29.0052 -36.37935,-54.3816 -79.88715,-54.3816" fill="none" stroke="#7a4f34" stroke-width="6.3" stroke-linecap="round"/><g stroke="none" stroke-width="1" stroke-linecap="butt"><path d="M127.575,231.525c-41.68395,0 -75.6,-45.16785 -75.6,-100.68975c0,-3.8745 0.07245,-8.4231 0.6048,-12.8772l0.04095,-0.315c0.73395,-7.49385 2.08845,-13.00635 4.13595,-16.8525c2.53575,-5.4621 5.7645,-7.86555 10.5084,-7.86555c5.67,0 12.8457,3.41145 21.1554,7.36155c11.5353,5.481 24.6078,11.69595 39.15765,11.69595c14.54985,0 27.6255,-6.21495 39.15765,-11.69595c8.3097,-3.9501 15.48855,-7.36155 21.1554,-7.36155c4.7439,0 7.97265,2.40345 10.4706,7.78995c2.08215,3.92175 3.43665,9.43425 4.1706,16.93125l0.04095,0.315c0.53235,4.45725 0.6048,9.0027 0.6048,12.8772c-0.00315,55.51875 -33.9192,100.6866 -75.60315,100.6866z" fill="#bae0bd"/><path d="M187.88805,94.5c2.89485,0 6.2307,0.81585 9.0405,6.87645l0.0378,0.07875l0.04095,0.0756c1.9215,3.6099 3.2508,9.08145 3.969,16.35165c0.5481,4.46355 0.6237,9.0531 0.6237,12.9528c0,54.6525 -33.2073,99.11475 -74.025,99.11475c-40.8177,0 -74.025,-44.46225 -74.025,-99.11475c0,-3.8997 0.0756,-8.48925 0.6363,-13.03785c0.7056,-7.18515 2.03805,-12.65985 3.95955,-16.26975l0.04095,-0.0756l0.0378,-0.07875c2.80665,-6.05745 6.1425,-6.8733 9.03735,-6.8733c5.31405,0 12.3417,3.34215 20.4813,7.21035c11.68335,5.55345 24.92595,11.8503 39.83175,11.8503c14.90895,0 28.15155,-6.2937 39.8349,-11.8503c8.13645,-3.8682 15.1641,-7.21035 20.47815,-7.21035M187.88805,91.35c-14.0427,0 -35.44695,19.0575 -60.31305,19.0575c-24.86295,0 -46.2735,-19.0575 -60.31305,-19.0575c-4.92975,0 -8.9523,2.3499 -11.89755,8.7003c-2.0664,3.88395 -3.5343,9.51615 -4.31235,17.4384v0.00315v0.00315c-0.53865,4.3533 -0.65205,8.82 -0.65205,13.34025c0,56.4795 34.55235,102.26475 77.175,102.26475c42.62265,0 77.175,-45.78525 77.175,-102.26475c0,-4.52025 -0.1134,-8.98695 -0.65205,-13.34025v-0.00315v-0.00315c-0.77805,-7.92225 -2.24595,-13.55445 -4.31235,-17.4384c-2.9421,-6.3504 -6.9678,-8.7003 -11.89755,-8.7003z" fill="#7a4f34"/></g><path d="M123.1776,229.78305c1.47735,0.11025 2.9484,0.95445 4.3974,0.95445c1.449,0 2.92005,-0.8442 4.3974,-0.95445l-4.3974,-56.53305z" fill="#7a4f34" stroke="none" stroke-width="1" stroke-linecap="butt"/><g stroke="none" stroke-width="1" stroke-linecap="butt"><path d="M127.575,99.225c-19.10475,0 -34.65,-17.66205 -34.65,-39.375c0,-21.71295 15.54525,-39.375 34.65,-39.375c19.10475,0 34.65,17.66205 34.65,39.375c0,21.71295 -15.54525,39.375 -34.65,39.375z" fill="#a6714e"/><g fill="#7a4f34"><path d="M127.575,22.05c18.2385,0 33.075,16.95645 33.075,37.8c0,20.84355 -14.8365,37.8 -33.075,37.8c-18.2385,0 -33.075,-16.95645 -33.075,-37.8c0,-20.84355 14.8365,-37.8 33.075,-37.8M127.575,18.9c-20.00565,0 -36.225,18.333 -36.225,40.95c0,22.617 16.21935,40.95 36.225,40.95c20.00565,0 36.225,-18.333 36.225,-40.95c0,-22.617 -16.21935,-40.95 -36.225,-40.95z"/></g></g><g stroke="none" stroke-width="1" stroke-linecap="butt"><path d="M127.575,127.575c-33.00255,0 -59.85,-17.66205 -59.85,-39.375c0,-21.71295 26.84745,-39.375 59.85,-39.375c33.00255,0 59.85,17.66205 59.85,39.375c0,21.71295 -26.84745,39.375 -59.85,39.375z" fill="#d6aa70"/><g fill="#7a4f34"><path d="M127.575,50.4c32.13315,0 58.275,16.95645 58.275,37.8c0,20.84355 -26.14185,37.8 -58.275,37.8c-32.13315,0 -58.275,-16.95645 -58.275,-37.8c0,-20.84355 26.14185,-37.8 58.275,-37.8M127.575,47.25c-33.9255,0 -61.425,18.333 -61.425,40.95c0,22.617 27.4995,40.95 61.425,40.95c33.9255,0 61.425,-18.333 61.425,-40.95c0,-22.617 -27.4995,-40.95 -61.425,-40.95z"/></g></g></g></g></g></svg>
