<?xml version="1.0"?>
<svg xmlns="http://www.w3.org/2000/svg" xmlns:xlink="http://www.w3.org/1999/xlink" version="1.1" viewBox="0 0 252 252" width="80px" height="80px"><g transform="translate(-5.04,-5.04) scale(1.04,1.04)"><g fill="none" fill-rule="nonzero" stroke="none" stroke-width="none" stroke-linecap="none" stroke-linejoin="miter" stroke-miterlimit="10" stroke-dasharray="" stroke-dashoffset="0" font-family="none" font-weight="none" font-size="none" text-anchor="none" style="mix-blend-mode: normal"><path d="M0,252v-252h252v252z" fill="none" stroke="none" stroke-width="1" stroke-linecap="butt"/><g id="Layer_1"><g stroke="none" stroke-width="1" stroke-linecap="butt"><path d="M144.9,244.125c-6.30945,0 -11.025,-5.8212 -11.025,-11.025c0,-3.9438 -0.2835,-8.2467 -0.8442,-12.79215l-0.1701,-1.38285h-38.92455l-0.1701,1.38285c-0.55755,4.55175 -0.84105,8.85465 -0.84105,12.79215c0,5.2038 -4.71555,11.025 -11.025,11.025h-25.2c-6.30945,0 -11.025,-5.8212 -11.025,-11.025c0,-12.9906 -2.9673,-26.04105 -4.7376,-32.6655l-0.12285,-0.4599l-0.3591,-0.315c-16.7013,-14.6916 -26.28045,-35.7966 -26.28045,-57.9096c0,-42.55335 34.62165,-77.175 77.175,-77.175h50.4c3.02085,0 12.49605,0.24255 15.55155,0.60795l0.85995,0.10395l0.5481,-0.67095c12.27555,-15.02865 36.4014,-18.13455 45.5553,-18.774c-4.8069,5.7456 -14.8869,19.3851 -15.8193,33.67035l-0.05355,0.83475l0.65835,0.51345c7.6986,5.98815 14.12775,13.293 19.10475,21.70665l0.2016,0.34335l24.1164,14.4711c3.3012,1.98135 5.35185,5.60385 5.35185,9.45315v34.73505c0,4.53285 -2.7216,8.55225 -6.93,10.2375l-22.72095,9.08775l-0.27405,0.4536c-5.8212,9.702 -13.7403,18.1125 -22.90365,24.32115l-0.5166,0.34965l-0.13545,0.6111c-1.4679,6.5835 -3.2193,16.51545 -3.2193,26.46945c0,5.2038 -4.71555,11.025 -11.025,11.025z" fill="#f78f8f"/><path d="M200.73375,47.7351c-5.2794,6.88275 -13.03155,19.00395 -13.86315,31.67325l-0.11025,1.66635l1.3167,1.0269c7.54425,5.86845 13.8411,13.02525 18.7173,21.26565l0.40635,0.6867l0.68355,0.4095l23.77305,14.2632c2.835,1.701 4.5927,4.8069 4.5927,8.1081v34.73505c0,3.8871 -2.331,7.33005 -5.9409,8.77275l-22.22955,8.89245l-0.98595,0.39375l-0.54495,0.91035c-5.70465,9.50355 -13.45995,17.74395 -22.4343,23.8266l-1.0332,0.70245l-0.2709,1.21905c-1.48995,6.6591 -3.26025,16.7139 -3.26025,26.8128c0,4.36905 -4.1265,9.45 -9.45,9.45h-25.2c-5.3235,0 -9.45,-5.08095 -9.45,-9.45c0,-4.00365 -0.28665,-8.3727 -0.85365,-12.9843l-0.3402,-2.7657h-2.78775h-36.1368h-2.78775l-0.3402,2.7657c-0.567,4.6116 -0.85365,8.98065 -0.85365,12.9843c0,4.36905 -4.1265,9.45 -9.45,9.45h-25.2c-5.3235,0 -9.45,-5.08095 -9.45,-9.45c0,-13.17645 -3.00195,-26.37495 -4.79115,-33.07185l-0.2457,-0.92295l-0.71505,-0.63c-16.36425,-14.3892 -25.7481,-35.0658 -25.7481,-56.7252c0,-41.6871 33.9129,-75.6 75.6,-75.6h50.4c3.465,0 12.537,0.2583 15.36255,0.59535l1.7199,0.20475l1.0962,-1.3419c10.52415,-12.88035 30.21795,-16.7265 40.8051,-17.8731M207.9,44.1c0,0 -34.4799,0.01575 -50.4126,19.5174c-3.0996,-0.3717 -12.537,-0.6174 -15.7374,-0.6174c-8.82315,0 -41.57685,0 -50.4,0c-43.49205,0 -78.75,35.25795 -78.75,78.75c0,23.5683 10.4076,44.6607 26.81595,59.094c1.8648,6.9804 4.68405,19.60245 4.68405,32.256c0,6.3 5.64165,12.6 12.6,12.6h25.2c6.95835,0 12.6,-6.3 12.6,-12.6c0,-4.2777 0.33075,-8.5428 0.8316,-12.6c8.7255,0 24.8472,0 36.1368,0c0.50085,4.0572 0.8316,8.3223 0.8316,12.6c0,6.3 5.64165,12.6 12.6,12.6h25.2c6.95835,0 12.6,-6.3 12.6,-12.6c0,-9.513 1.59705,-19.02285 3.1815,-26.1261c9.5004,-6.44175 17.44785,-14.9499 23.3667,-24.8157l22.22955,-8.89245c4.78485,-1.91205 7.92225,-6.5457 7.92225,-11.69595v-34.73505c0,-4.42575 -2.32155,-8.52705 -6.1173,-10.8045l-23.77305,-14.2632c-5.0652,-8.5617 -11.6802,-16.0713 -19.4922,-22.14765c1.18125,-18.0684 17.88255,-35.5194 17.88255,-35.5194z" fill="#c74343"/></g><path d="M40.95,59.85c-13.9167,0 -25.2,11.2833 -25.2,25.2c0,6.867 2.7468,13.09455 7.20405,17.64c0.07245,0.07245 0.1449,0.1449 0.21735,0.21735c0.0378,0.03465 0.07245,0.07245 0.11025,0.1071" fill="none" stroke="#c74343" stroke-width="6.3" stroke-linecap="round"/><g stroke="none" stroke-width="1" stroke-linecap="butt"><path d="M113.39685,80.325c-19.97415,0 -36.225,-16.25085 -36.225,-36.225c0,-19.97415 16.25085,-36.225 36.225,-36.225c19.97415,0 36.225,16.25085 36.225,36.225c0,19.97415 -16.25085,36.225 -36.225,36.225z" fill="#ffeea3"/><g fill="#ba9b48"><path d="M113.39685,9.45c19.10475,0 34.65,15.54525 34.65,34.65c0,19.10475 -15.5421,34.65 -34.65,34.65c-19.1079,0 -34.65,-15.54525 -34.65,-34.65c0,-19.10475 15.54525,-34.65 34.65,-34.65M113.39685,6.3c-20.84355,0 -37.8,16.95645 -37.8,37.8c0,20.84355 16.9533,37.8 37.8,37.8c20.8467,0 37.8,-16.95645 37.8,-37.8c0,-20.84355 -16.95645,-37.8 -37.8,-37.8z"/></g></g><path d="M119.6937,63h-7.182v-28.9233l-8.568,2.76255v-6.02595l14.98455,-5.6133h0.7686v37.8z" fill="#967a44" stroke="none" stroke-width="1" stroke-linecap="butt"/><g fill="#36404d" stroke="none" stroke-width="1" stroke-linecap="butt"><circle cx="60" cy="35.999" transform="scale(3.15,3.15)" r="2"/></g><path d="M81.9,72.45c2.9988,0 60.00435,0 63,0c3.48075,0 6.3,-2.81925 6.3,-6.3h-75.6c0,3.48075 2.81925,6.3 6.3,6.3z" fill="#c74343" stroke="none" stroke-width="1" stroke-linecap="butt"/><rect x="27" y="23" transform="scale(3.15,3.15)" width="18" height="4" fill="#f78f8f" stroke="none" stroke-width="1" stroke-linecap="butt"/></g><path d="M0,252v-252h252v252z" fill="none" stroke="none" stroke-width="1" stroke-linecap="butt"/><path d="M5.04,246.96v-241.92h241.92v241.92z" fill="none" stroke="none" stroke-width="1" stroke-linecap="butt"/></g></g></svg>
