<?xml version="1.0"?>
<svg xmlns="http://www.w3.org/2000/svg" xmlns:xlink="http://www.w3.org/1999/xlink" version="1.1" viewBox="0 0 252 252" width="80px" height="80px"><g transform="translate(-7.56,-7.56) scale(1.06,1.06)"><g fill="none" fill-rule="nonzero" stroke="none" stroke-width="1" stroke-linecap="butt" stroke-linejoin="miter" stroke-miterlimit="10" stroke-dasharray="" stroke-dashoffset="0" font-family="none" font-weight="none" font-size="none" text-anchor="none" style="mix-blend-mode: normal"><path d="M0,252v-252h252v252z" fill="none"/><g><g id="surface1"><path d="M228.375,232.3125h-196.875v-112.89551l52.84863,-36.72949h144.02637z" fill="#ace3ff"/><path d="M142.05762,157.5c6.27539,0.01538 12.30469,-2.46094 16.73438,-6.89062l-94.88452,-94.8999c8.29028,-11.67407 6.26001,-27.77783 -4.69116,-37.02173c-10.95117,-9.2439 -27.1626,-8.55176 -37.2832,1.58423c-10.47437,11.39722 -9.70532,29.11597 1.69189,39.57495c4.95264,4.35278 11.32031,6.78296 17.9187,6.85986l83.82569,83.82569c4.41431,4.44507 10.42822,6.95215 16.68823,6.96753zM33.51489,47.48071c-4.62964,-4.59888 -4.62964,-12.08936 -0.01538,-16.70362c4.61426,-4.61426 12.10473,-4.61426 16.70361,0c4.61426,4.61426 4.61426,12.10474 0,16.70362c-4.61426,4.61426 -12.08935,4.61426 -16.68823,0z" fill="#b5c4e0"/><path d="M125.36939,22.40991l-83.82569,83.90259c-6.59839,0.04614 -12.95068,2.44556 -17.9187,6.76758c-5.53711,5.02954 -8.82861,12.05859 -9.15161,19.53369c-0.30762,7.4751 2.36865,14.76563 7.45972,20.24121c10.1206,10.13598 26.33203,10.82813 37.2832,1.58423c10.95117,-9.2439 12.98145,-25.33227 4.69116,-37.02173l94.88452,-94.8999c-4.42969,-4.42969 -10.4436,-6.92138 -16.70361,-6.92138c-6.27539,0 -12.28931,2.4917 -16.719,6.92138zM50.20313,125.44629c4.61426,4.61426 4.61426,12.08936 0,16.719c-4.59888,4.61426 -12.08935,4.61426 -16.70361,0c-4.61426,-4.62964 -4.61426,-12.10474 0.01538,-16.719c4.59888,-4.59888 12.07397,-4.59888 16.68823,0z" fill="#ced8ed"/><path d="M43.3125,23.625c-7.52124,0 -13.9812,5.32178 -15.44238,12.68921c-1.46118,7.36743 2.4917,14.75025 9.44385,17.61109c6.93676,2.87622 14.93481,0.44604 19.11841,-5.81397c4.16821,-6.24463 3.33765,-14.56567 -1.98413,-19.87207c-2.95312,-2.95312 -6.95215,-4.61426 -11.13574,-4.61426zM48.86499,44.92749c-1.47656,1.47656 -3.47607,2.30713 -5.56787,2.30713c-2.0918,0 -4.09131,-0.83057 -5.58325,-2.30713c-3.06079,-3.07617 -3.06079,-8.05957 0.01538,-11.13574c3.07617,-3.07617 8.05957,-3.07617 11.13574,0c3.07617,3.07617 3.07617,8.05957 0,11.13574z" fill="#8d6c9f"/><path d="M101.62134,86.625c0.26147,0.03076 0.50757,0.03076 0.75366,0h7.875c2.1687,0 3.9375,-1.7688 3.9375,-3.9375c0,-2.1687 -1.7688,-3.9375 -3.9375,-3.9375h-0.86133l53.46387,-53.46387c1.52271,-1.53809 1.52271,-4.02978 0,-5.55249c-10.7666,-10.7666 -28.20849,-10.7666 -38.9751,0l-44.54297,44.52759l-8.89014,-8.90552c7.27515,-12.35083 5.29102,-28.07007 -4.84497,-38.22143c-9.19775,-9.07471 -22.99438,-11.61255 -34.82227,-6.39844c-11.8125,5.21411 -19.25684,17.10352 -18.76465,30.02344c0.33838,8.52099 4.13745,16.5498 10.50513,22.24072c5.21411,4.6604 11.84326,7.42896 18.82617,7.875l15.75,15.75l-15.75,15.75c-6.96753,0.46143 -13.59668,3.22998 -18.82617,7.875c-6.33691,5.73706 -10.1206,13.76587 -10.47436,22.31763c-0.36914,8.53638 2.70703,16.8728 8.55176,23.11743c5.79858,6.09082 13.79663,9.58227 22.20996,9.68994h0.50757c8.36719,0.01538 16.396,-3.30689 22.28686,-9.25928c10.13599,-10.15137 12.12012,-25.87061 4.84497,-38.22144l9.09009,-9.10547l44.54297,44.77368c10.75122,10.7666 28.20849,10.7666 38.9751,0c1.52271,-1.53809 1.52271,-4.0144 0,-5.55249zM45.78882,64.13819c-0.7229,-0.7229 -1.72266,-1.13819 -2.75317,-1.13819c-5.7063,0 -11.19727,-2.0918 -15.47315,-5.86011c-4.7373,-4.32202 -7.552,-10.33594 -7.81348,-16.73437c-0.27685,-6.39844 2.01489,-12.62768 6.35229,-17.33423c4.42969,-4.64502 10.55127,-7.29053 16.98047,-7.32129h0.23071c8.93628,0.01538 17.10352,5.0603 21.10254,13.05835c3.99902,7.98267 3.1377,17.54956 -2.19946,24.70166c-1.18433,1.56885 -1.03051,3.76831 0.35376,5.15259l11.18189,11.18188l-11.15112,11.15113zM62.06177,119.78613c5.3064,7.12134 6.15234,16.64209 2.19946,24.60938c-3.96826,7.9519 -12.05859,13.02759 -20.94873,13.10449h-0.27685c-6.41382,0.01538 -12.55078,-2.63013 -16.96509,-7.27515c-4.42969,-4.6604 -6.73682,-10.92041 -6.38306,-17.33423c0.23071,-6.4292 3.07617,-12.48926 7.875,-16.78052c4.24512,-3.72217 9.67456,-5.79858 15.31934,-5.86011c1.03052,0 2.01489,-0.41528 2.75317,-1.13818l83.82568,-83.82569c6.61377,-6.62915 16.96509,-7.67505 24.77857,-2.52246l-91.82373,91.82373c-1.39966,1.38428 -1.55347,3.58374 -0.35376,5.15258zM143.56494,153.5625c-5.22949,0.01538 -10.24365,-2.06103 -13.93506,-5.75244l-44.74292,-44.57373l11.15112,-11.13574l58.38574,58.38574c-3.24536,2.06104 -7.01367,3.1377 -10.85888,3.07617z" fill="#8d6c9f"/><path d="M32.00757,122.73926c-6.13696,6.15234 -6.13696,16.11914 0.01538,22.2561c6.15234,6.15234 16.11914,6.15234 22.27148,0c6.15234,-6.13696 6.15234,-16.10376 0,-22.2561c-2.95312,-2.9685 -6.95215,-4.62964 -11.13574,-4.62964c-4.18359,0 -8.198,1.66113 -11.15113,4.62964zM48.71118,139.42749c-3.07617,3.07617 -8.05957,3.07617 -11.13574,0c-3.07617,-3.07617 -3.07617,-8.05957 0,-11.13574c3.07617,-3.07617 8.05957,-3.07617 11.13574,-0.01538c1.47656,1.49194 2.30713,3.49146 2.30713,5.58325c0,2.0918 -0.83056,4.09131 -2.30713,5.56787z" fill="#8d6c9f"/><path d="M244.125,228.375h-11.8125v-27.5625c0,-2.1687 -1.7688,-3.9375 -3.9375,-3.9375c-2.1687,0 -3.9375,1.7688 -3.9375,3.9375v27.5625h-27.5625c-2.1687,0 -3.9375,1.7688 -3.9375,3.9375c0,2.1687 1.7688,3.9375 3.9375,3.9375h27.5625v11.8125c0,2.1687 1.7688,3.9375 3.9375,3.9375c2.1687,0 3.9375,-1.7688 3.9375,-3.9375v-11.8125h11.8125c2.1687,0 3.9375,-1.7688 3.9375,-3.9375c0,-2.1687 -1.7688,-3.9375 -3.9375,-3.9375z" fill="#8d6c9f"/><path d="M181.125,228.375h-7.875c-2.1687,0 -3.9375,1.7688 -3.9375,3.9375c0,2.1687 1.7688,3.9375 3.9375,3.9375h7.875c2.1687,0 3.9375,-1.7688 3.9375,-3.9375c0,-2.1687 -1.7688,-3.9375 -3.9375,-3.9375z" fill="#8d6c9f"/><path d="M181.125,78.75h-7.875c-2.1687,0 -3.9375,1.7688 -3.9375,3.9375c0,2.1687 1.7688,3.9375 3.9375,3.9375h7.875c2.1687,0 3.9375,-1.7688 3.9375,-3.9375c0,-2.1687 -1.7688,-3.9375 -3.9375,-3.9375z" fill="#8d6c9f"/><path d="M149.625,78.75c-2.1687,0 -3.9375,1.7688 -3.9375,3.9375c0,2.1687 1.7688,3.9375 3.9375,3.9375h7.875c2.1687,0 3.9375,-1.7688 3.9375,-3.9375c0,-2.1687 -1.7688,-3.9375 -3.9375,-3.9375z" fill="#8d6c9f"/><path d="M126,78.75c-2.1687,0 -3.9375,1.7688 -3.9375,3.9375c0,2.1687 1.7688,3.9375 3.9375,3.9375h7.875c2.1687,0 3.9375,-1.7688 3.9375,-3.9375c0,-2.1687 -1.7688,-3.9375 -3.9375,-3.9375z" fill="#8d6c9f"/><path d="M157.5,228.375h-7.875c-2.1687,0 -3.9375,1.7688 -3.9375,3.9375c0,2.1687 1.7688,3.9375 3.9375,3.9375h7.875c2.1687,0 3.9375,-1.7688 3.9375,-3.9375c0,-2.1687 -1.7688,-3.9375 -3.9375,-3.9375z" fill="#8d6c9f"/><path d="M133.875,228.375h-7.875c-2.1687,0 -3.9375,1.7688 -3.9375,3.9375c0,2.1687 1.7688,3.9375 3.9375,3.9375h7.875c2.1687,0 3.9375,-1.7688 3.9375,-3.9375c0,-2.1687 -1.7688,-3.9375 -3.9375,-3.9375z" fill="#8d6c9f"/><path d="M110.25,228.375h-7.875c-2.1687,0 -3.9375,1.7688 -3.9375,3.9375c0,2.1687 1.7688,3.9375 3.9375,3.9375h7.875c2.1687,0 3.9375,-1.7688 3.9375,-3.9375c0,-2.1687 -1.7688,-3.9375 -3.9375,-3.9375z" fill="#8d6c9f"/><path d="M86.625,228.375h-7.875c-2.1687,0 -3.9375,1.7688 -3.9375,3.9375c0,2.1687 1.7688,3.9375 3.9375,3.9375h7.875c2.1687,0 3.9375,-1.7688 3.9375,-3.9375c0,-2.1687 -1.7688,-3.9375 -3.9375,-3.9375z" fill="#8d6c9f"/><path d="M63,228.375h-27.5625v-27.5625c0,-2.1687 -1.7688,-3.9375 -3.9375,-3.9375c-2.1687,0 -3.9375,1.7688 -3.9375,3.9375v27.5625h-11.8125c-2.1687,0 -3.9375,1.7688 -3.9375,3.9375c0,2.1687 1.7688,3.9375 3.9375,3.9375h11.8125v11.8125c0,2.1687 1.7688,3.9375 3.9375,3.9375c2.1687,0 3.9375,-1.7688 3.9375,-3.9375v-11.8125h27.5625c2.1687,0 3.9375,-1.7688 3.9375,-3.9375c0,-2.1687 -1.7688,-3.9375 -3.9375,-3.9375z" fill="#8d6c9f"/><path d="M196.875,86.625h27.5625v27.5625c0,2.1687 1.7688,3.9375 3.9375,3.9375c2.1687,0 3.9375,-1.7688 3.9375,-3.9375v-27.5625h11.8125c2.1687,0 3.9375,-1.7688 3.9375,-3.9375c0,-2.1687 -1.7688,-3.9375 -3.9375,-3.9375h-11.8125v-11.8125c0,-2.1687 -1.7688,-3.9375 -3.9375,-3.9375c-2.1687,0 -3.9375,1.7688 -3.9375,3.9375v11.8125h-27.5625c-2.1687,0 -3.9375,1.7688 -3.9375,3.9375c0,2.1687 1.7688,3.9375 3.9375,3.9375z" fill="#8d6c9f"/><path d="M31.5,189c2.1687,0 3.9375,-1.7688 3.9375,-3.9375v-7.875c0,-2.1687 -1.7688,-3.9375 -3.9375,-3.9375c-2.1687,0 -3.9375,1.7688 -3.9375,3.9375v7.875c0,2.1687 1.7688,3.9375 3.9375,3.9375z" fill="#8d6c9f"/><path d="M232.3125,153.5625c0,-2.1687 -1.7688,-3.9375 -3.9375,-3.9375c-2.1687,0 -3.9375,1.7688 -3.9375,3.9375v7.875c0,2.1687 1.7688,3.9375 3.9375,3.9375c2.1687,0 3.9375,-1.7688 3.9375,-3.9375z" fill="#8d6c9f"/><path d="M228.375,173.25c-2.1687,0 -3.9375,1.7688 -3.9375,3.9375v7.875c0,2.1687 1.7688,3.9375 3.9375,3.9375c2.1687,0 3.9375,-1.7688 3.9375,-3.9375v-7.875c0,-2.1687 -1.7688,-3.9375 -3.9375,-3.9375z" fill="#8d6c9f"/><path d="M232.3125,129.9375c0,-2.1687 -1.7688,-3.9375 -3.9375,-3.9375c-2.1687,0 -3.9375,1.7688 -3.9375,3.9375v7.875c0,2.1687 1.7688,3.9375 3.9375,3.9375c2.1687,0 3.9375,-1.7688 3.9375,-3.9375z" fill="#8d6c9f"/></g></g></g></g></svg>
