<?xml version="1.0"?>
<svg xmlns="http://www.w3.org/2000/svg" xmlns:xlink="http://www.w3.org/1999/xlink" version="1.1" viewBox="0 0 252 252" width="100px" height="100px"><g transform="translate(-10.08,-10.08) scale(1.08,1.08)"><g fill="none" fill-rule="nonzero" stroke="none" stroke-width="1" stroke-linecap="butt" stroke-linejoin="miter" stroke-miterlimit="10" stroke-dasharray="" stroke-dashoffset="0" font-family="none" font-weight="none" font-size="none" text-anchor="none" style="mix-blend-mode: normal"><path d="M0,252v-252h252v252z" fill="none"/><g><g id="surface1"><path d="M241.5,110.25h-15.75v-15.75h-15.75v-15.75h31.5z" fill="#b0bec5"/><path d="M241.5,189h-15.75v15.75h-15.75v15.75h31.5z" fill="#b0bec5"/><path d="M84,189h-15.75v31.5h31.5v-15.75h-15.75z" fill="#b0bec5"/><path d="M68.25,157.5h15.75v15.75h-15.75z" fill="#b0bec5"/><path d="M68.25,126h15.75v15.75h-15.75z" fill="#b0bec5"/><path d="M225.75,157.5h15.75v15.75h-15.75z" fill="#b0bec5"/><path d="M225.75,126h15.75v15.75h-15.75z" fill="#b0bec5"/><path d="M178.5,78.75h15.75v15.75h-15.75z" fill="#b0bec5"/><path d="M178.5,204.75h15.75v15.75h-15.75z" fill="#b0bec5"/><path d="M147,78.75h15.75v15.75h-15.75z" fill="#b0bec5"/><path d="M115.5,78.75h15.75v15.75h-15.75z" fill="#b0bec5"/><path d="M147,204.75h15.75v15.75h-15.75z" fill="#b0bec5"/><path d="M115.5,204.75h15.75v15.75h-15.75z" fill="#b0bec5"/><path d="M10.5,47.25c0,11.60742 9.39258,21 21,21c11.60742,0 21,-9.39258 21,-21c0,-11.60742 -9.39258,-21 -21,-21c-11.60742,0 -21,9.39258 -21,21zM23.33789,40.01074c1.8457,-2.07129 4.53223,-3.26074 7.38281,-3.26074c5.84473,0 10.54101,3.99902 11.19726,9.51563c0.36914,3.07617 -0.55371,6.13184 -2.52246,8.36719c-1.78418,2.00977 -4.18359,3.11719 -6.80859,3.11719c-5.68066,0 -10.84863,-4.59375 -11.50488,-10.21289c-0.34863,-2.80957 0.47168,-5.47559 2.25586,-7.52637z" fill="#1565c0"/><path d="M31.5,66.73242c-0.14356,0 -0.2666,-0.06152 -0.41016,-0.06152c10.82813,4.28613 21.96387,8.85938 31.17188,25.59375c0.20508,0.36914 0.49219,0.69726 0.84082,0.94336l54.40723,38.02149c0.2666,0.20508 8.20313,5.25 17.96484,5.25c5.31152,0 10.15136,-0.84082 14.35547,-4.28613l2.41992,-2.74805l-76.53516,-55.47363c-1.02539,-0.65625 -20.46679,-12.48926 -25.12207,-14.99121c-0.18457,-0.10254 -0.98437,-0.55371 -1.98926,-1.14844c-3.81446,5.37305 -10.02832,8.90039 -17.10352,8.90039z" fill="#1565c0"/><path d="M31.5,146.97949c11.60742,0 21,-9.41309 21,-21c0,-11.60742 -9.39258,-21 -21,-21c-11.60742,0 -21,9.39258 -21,21c0,11.58691 9.39258,21 21,21zM21.08203,125.69238c0.65625,-5.61914 5.82422,-10.21289 11.50488,-10.21289c2.625,0 5.02442,1.10742 6.80859,3.11719c1.96875,2.23535 2.89161,5.29101 2.52246,8.36719c-0.65625,5.5166 -5.35254,9.51563 -11.19726,9.51563c-2.85059,0 -5.53711,-1.18946 -7.38281,-3.26074c-1.78418,-2.05078 -2.60449,-4.71679 -2.25586,-7.52637z" fill="#2196f3"/><path d="M149.83008,41.03613c-4.20411,-3.44531 -9.04395,-4.28613 -14.35547,-4.28613c-9.76172,0 -17.69824,5.04492 -17.96484,5.22949l-54.40723,38.04199c-0.34863,0.24609 -0.63574,0.57422 -0.84082,0.94336c-9.20801,16.73438 -20.34375,21.30762 -31.17187,25.59375c0.14356,0 0.2666,-0.06152 0.41016,-0.06152c7.07519,0 13.28906,3.52734 17.10352,8.87989c1.02539,-0.57422 1.80469,-1.02539 2.00976,-1.12793c4.63477,-2.50196 24.07617,-14.33496 25.10156,-14.99121l76.53516,-55.47363zM75.20215,89.22949c-1.94824,0 -3.54785,-1.59961 -3.54785,-3.54785c0,-1.94824 1.59961,-3.54786 3.54785,-3.54786c1.94824,0 3.54785,1.59961 3.54785,3.54786c0,1.94824 -1.59961,3.54785 -3.54785,3.54785z" fill="#2196f3"/></g></g></g></g></svg>
