<?xml version="1.0"?>
<svg xmlns="http://www.w3.org/2000/svg" xmlns:xlink="http://www.w3.org/1999/xlink" version="1.1" viewBox="0 0 252 252" width="80px" height="80px"><g transform="translate(-2.52,-2.52) scale(1.02,1.02)"><g fill="none" fill-rule="nonzero" stroke="none" stroke-width="1" stroke-linecap="butt" stroke-linejoin="miter" stroke-miterlimit="10" stroke-dasharray="" stroke-dashoffset="0" font-family="none" font-weight="none" font-size="none" text-anchor="none" style="mix-blend-mode: normal"><path d="M0,252v-252h252v252z" fill="none"/><g id="Layer_1"><path d="M220.26375,145.0575c-1.4175,1.7325 -2.00812,3.97688 -1.69313,6.18188l3.66188,22.91625c0.59062,3.70125 -1.49625,7.245 -4.96125,8.58375l-21.65625,8.30812c-2.08688,0.82688 -3.74063,2.48063 -4.5675,4.5675l-8.30812,21.65625c-1.33875,3.465 -4.8825,5.55187 -8.58375,4.96125l-22.91625,-3.66188c-2.205,-0.315 -4.44938,0.27563 -6.18188,1.69313l-18.03375,14.60813c-2.91375,2.32313 -7.00875,2.32313 -9.9225,0l-13.89938,-11.26125l-4.13438,-3.34688c-1.7325,-1.4175 -3.97688,-2.00812 -6.18187,-1.69313l-22.91625,3.66188c-3.70125,0.59062 -7.245,-1.49625 -8.58375,-4.96125l-3.03187,-7.875l-4.37062,-11.37938l-0.90563,-2.40187c-0.82688,-2.08688 -2.48063,-3.74063 -4.5675,-4.5675l-8.07187,-3.11062l-11.37938,-4.37062l-2.205,-0.82688c-3.465,-1.33875 -5.55188,-4.8825 -4.96125,-8.58375l0.59063,-3.70125l3.07125,-19.215c0.315,-2.205 -0.27563,-4.44938 -1.69312,-6.18188l-14.60812,-18.03375c-2.32312,-2.91375 -2.32312,-7.00875 0,-9.9225l14.60813,-18.03375c1.4175,-1.7325 2.00812,-3.97688 1.69312,-6.18187l-3.66187,-22.91625c-0.59063,-3.70125 1.49625,-7.245 4.96125,-8.58375l21.65625,-8.30812c2.08687,-0.82688 3.74063,-2.48063 4.5675,-4.5675l8.30812,-21.65625c1.33875,-3.465 4.8825,-5.55188 8.58375,-4.96125l22.91625,3.66187c2.205,0.315 4.44937,-0.27563 6.18187,-1.69312l18.03375,-14.60812c2.91375,-2.32312 7.00875,-2.32312 9.9225,0l18.03375,14.60813c1.7325,1.4175 3.97688,2.00812 6.18188,1.69312l19.215,-3.07125l3.70125,-0.59063c3.70125,-0.59063 7.245,1.49625 8.58375,4.96125l0.82688,2.205l4.37062,11.37938l3.11062,8.07187c0.82688,2.08687 2.48063,3.74063 4.5675,4.5675l2.40187,0.90563l11.37938,4.37062l7.875,3.03187c3.465,1.33875 5.55187,4.8825 4.96125,8.58375l-3.66188,22.91625c-0.315,2.205 0.27563,4.44937 1.69313,6.18187l3.34688,4.13438l11.26125,13.89938c2.32313,2.91375 2.32313,7.00875 0,9.9225z" fill="#f6d397"/><path d="M69.54806,69.93394l-4.87462,8.9145l-8.9145,4.87856l8.9145,4.87462l4.87462,8.9145l4.87462,-8.9145l8.9145,-4.87462l-8.9145,-4.87856z" fill="#fff8f8"/><path d="M223.61063,103.20188l-120.40875,120.40875l-4.13438,-3.34688c-1.7325,-1.4175 -3.97688,-2.00812 -6.18187,-1.69313l-22.91625,3.66188c-3.70125,0.59062 -7.245,-1.49625 -8.58375,-4.96125l-3.03187,-7.875l151.0425,-151.0425l7.875,3.03187c3.465,1.33875 5.55187,4.8825 4.96125,8.58375l-3.66188,22.91625c-0.315,2.205 0.27563,4.44937 1.69313,6.18187z" fill="#ffefca"/><path d="M198.01688,53.98313l-144.03375,144.03375l-0.90563,-2.40187c-0.82688,-2.08688 -2.48063,-3.74063 -4.5675,-4.5675l-8.07187,-3.11062l147.49875,-147.49875l3.11062,8.07187c0.82688,2.08687 2.48063,3.74063 4.5675,4.5675z" fill="#ffefca"/><path d="M183.56625,29.05875l-154.5075,154.5075l-2.205,-0.82688c-3.465,-1.33875 -5.55188,-4.8825 -4.96125,-8.58375l0.59063,-3.70125l147.97125,-147.97125l3.70125,-0.59063c3.70125,-0.59063 7.245,1.49625 8.58375,4.96125z" fill="#ffefca"/><g fill="#8d6c9f"><path d="M237.91556,129.4965c3.48469,-4.30763 3.48469,-10.56037 0,-14.868l-14.60813,-18.03375c-0.70087,-0.86625 -1.00406,-1.99238 -0.82688,-3.09488l3.63431,-22.92019c0.86625,-5.481 -2.26012,-10.89506 -7.434,-12.87956l-21.66806,-8.31206c-1.0395,-0.40163 -1.86638,-1.2285 -2.26406,-2.268l-8.316,-21.66806c-1.9845,-5.16994 -7.39856,-8.30025 -12.87956,-7.434l-22.92413,3.63431c-1.09462,0.1575 -2.22469,-0.126 -3.09488,-0.83081l-18.03769,-14.60812c-4.31156,-3.49256 -10.56431,-3.49256 -14.868,0l-18.03375,14.60812c-0.86625,0.70481 -1.9845,1.00013 -3.09488,0.83081l-22.92412,-3.63431c-5.46919,-0.88594 -10.89113,2.26013 -12.87562,7.434l-8.316,21.66806c-0.40162,1.04344 -1.2285,1.87031 -2.268,2.268l-21.66412,8.31206c-5.17781,1.9845 -8.30419,7.39856 -7.43794,12.87956l3.63431,22.92412c0.17325,1.09856 -0.126,2.22469 -0.82688,3.09094l-14.60812,18.03769c-3.48469,4.30763 -3.48469,10.56037 0,14.868l14.60812,18.03375c0.70087,0.86625 1.00406,1.99238 0.82688,3.09488l-3.63431,22.92019c-0.86625,5.481 2.26012,10.89506 7.434,12.87956l21.66806,8.31206c1.0395,0.40162 1.86638,1.2285 2.26406,2.268l8.316,21.66806c1.9845,5.166 7.371,8.29237 12.87956,7.434l22.92412,-3.63431c1.08675,-0.16931 2.22469,0.126 3.09488,0.83081l18.03769,14.60813c2.15381,1.74431 4.79588,2.61844 7.434,2.61844c2.63813,0 5.28019,-0.87412 7.434,-2.61844l18.03375,-14.60813c0.86625,-0.70087 2.00419,-0.98831 3.09488,-0.83081l22.92413,3.63431c5.481,0.90169 10.89112,-2.26012 12.87562,-7.434l8.316,-21.66806c0.40162,-1.04344 1.2285,-1.87031 2.268,-2.268l21.66413,-8.31206c5.17781,-1.9845 8.30419,-7.39856 7.43794,-12.87956l-3.63431,-22.92413c-0.17325,-1.09856 0.126,-2.22469 0.82688,-3.09094zM217.18856,142.57294c-2.10656,2.59875 -3.01612,5.98894 -2.4885,9.28462l3.63431,22.92019c0.29137,1.827 -0.75206,3.63431 -2.47669,4.29581l-21.66413,8.31206c-3.12244,1.197 -5.59912,3.67763 -6.80006,6.80006l-8.316,21.66806c-0.6615,1.72463 -2.47275,2.76019 -4.29188,2.48063l-22.92413,-3.63431c-3.29569,-0.5355 -6.68194,0.38194 -9.28462,2.48456l-18.03769,14.60813c-1.43719,1.16944 -3.52012,1.16944 -4.95731,0l-18.03769,-14.60812c-2.11444,-1.71281 -4.75256,-2.63025 -7.43794,-2.63025c-0.61425,0 -1.23244,0.04725 -1.84669,0.14569l-22.92019,3.63431c-1.83881,0.2835 -3.63038,-0.75206 -4.29188,-2.48063l-8.316,-21.66806c-1.20094,-3.12244 -3.67762,-5.60306 -6.79613,-6.80006l-21.66806,-8.31206c-1.72462,-0.6615 -2.76806,-2.46881 -2.47669,-4.29581l3.63431,-22.91625c0.52369,-3.30356 -0.38194,-6.68981 -2.4885,-9.28856l-14.60812,-18.02981c-1.16156,-1.43719 -1.16156,-3.52406 0,-4.95731l14.60812,-18.03375c2.10656,-2.59875 3.01613,-5.98894 2.4885,-9.28463l-3.63431,-22.92412c-0.29137,-1.827 0.75206,-3.63431 2.47669,-4.29581l21.66413,-8.31206c3.12244,-1.197 5.59913,-3.67762 6.80006,-6.80006l8.316,-21.66806c0.6615,-1.72462 2.48062,-2.75625 4.29188,-2.48062l22.92412,3.63431c3.3075,0.54337 6.68587,-0.38588 9.28463,-2.48456l18.03769,-14.60812c1.43719,-1.16944 3.52012,-1.16944 4.95731,0l18.03769,14.60813c2.59875,2.10262 5.98894,3.01613 9.28069,2.48456l22.92019,-3.63431c1.85063,-0.26775 3.63037,0.756 4.29188,2.48063l8.316,21.66806c1.20094,3.12244 3.67762,5.60306 6.79612,6.80006l21.66806,8.31206c1.72463,0.6615 2.76806,2.46881 2.47669,4.29581l-3.63431,22.91625c-0.52369,3.30356 0.38194,6.68981 2.4885,9.28856l14.60419,18.02981c1.16156,1.43719 1.16156,3.52406 0,4.95731z"/><path d="M172.179,75.8835c1.008,0 2.016,-0.38587 2.78775,-1.15369l5.56763,-5.57156c1.53563,-1.53956 1.53563,-4.032 0,-5.56762c-1.53956,-1.53956 -4.032,-1.53956 -5.57156,0l-5.56763,5.57156c-1.53562,1.53956 -1.53562,4.032 0,5.56763c0.76781,0.77175 1.77581,1.15369 2.78381,1.15369z"/><path d="M197.11125,97.87444l-7.60725,2.03963c-2.10262,0.56306 -3.34687,2.72081 -2.78381,4.82344c0.4725,1.76006 2.05931,2.91769 3.79969,2.91769c0.33469,0 0.68119,-0.04331 1.01981,-0.13388l7.60725,-2.03963c2.10263,-0.56306 3.34688,-2.72081 2.78381,-4.82344c-0.55912,-2.10262 -2.72081,-3.34687 -4.8195,-2.78381z"/><path d="M163.40625,50.45119c-1.88606,-1.09069 -4.29188,-0.441 -5.37862,1.44112l-3.9375,6.81581c-1.08675,1.88606 -0.44494,4.29187 1.44112,5.37862c0.61819,0.35831 1.29544,0.52763 1.96481,0.52763c1.36237,0 2.68537,-0.70481 3.41381,-1.96875l3.9375,-6.81581c1.08675,-1.88213 0.44494,-4.28794 -1.44112,-5.37862z"/><path d="M180.03038,88.59375c0.73238,1.26394 2.05144,1.96875 3.41381,1.96875c0.66544,0 1.34662,-0.16931 1.96481,-0.52763l6.81975,-3.9375c1.88606,-1.08675 2.52788,-3.4965 1.44112,-5.37862c-1.09069,-1.88606 -3.50044,-2.53575 -5.37862,-1.44112l-6.81975,3.9375c-1.88213,1.08675 -2.52787,3.49256 -1.44112,5.37863z"/><path d="M82.6875,133.875h-15.75c-2.1735,0 -3.9375,1.76006 -3.9375,3.9375v39.375c0,2.17744 1.764,3.9375 3.9375,3.9375c2.1735,0 3.9375,-1.76006 3.9375,-3.9375v-11.8125h7.875c2.1735,0 3.9375,-1.76006 3.9375,-3.9375c0,-2.17744 -1.764,-3.9375 -3.9375,-3.9375h-7.875v-15.75h11.8125c2.1735,0 3.9375,-1.76006 3.9375,-3.9375c0,-2.17744 -1.764,-3.9375 -3.9375,-3.9375z"/><path d="M153.5625,141.75c2.1735,0 3.9375,-1.76006 3.9375,-3.9375c0,-2.17744 -1.764,-3.9375 -3.9375,-3.9375h-15.75c-2.1735,0 -3.9375,1.76006 -3.9375,3.9375v39.375c0,2.17744 1.764,3.9375 3.9375,3.9375h15.75c2.1735,0 3.9375,-1.76006 3.9375,-3.9375c0,-2.17744 -1.764,-3.9375 -3.9375,-3.9375h-11.8125v-15.75h11.8125c2.1735,0 3.9375,-1.76006 3.9375,-3.9375c0,-2.17744 -1.764,-3.9375 -3.9375,-3.9375h-11.8125v-7.875z"/><path d="M114.1875,133.875h-15.75c-2.1735,0 -3.9375,1.76006 -3.9375,3.9375v39.375c0,2.17744 1.764,3.9375 3.9375,3.9375c2.1735,0 3.9375,-1.76006 3.9375,-3.9375v-11.8125h5.90625l10.63125,14.175c0.77175,1.03556 1.95694,1.575 3.15394,1.575c0.819,0 1.64981,-0.25594 2.35856,-0.7875c1.74037,-1.30331 2.09081,-3.77212 0.7875,-5.50856l-7.5285,-10.04063c4.79981,-1.50019 8.316,-5.93775 8.316,-11.22581v-7.875c0,-6.51263 -5.29987,-11.8125 -11.8125,-11.8125zM118.125,153.5625c0,2.1735 -1.76794,3.9375 -3.9375,3.9375h-11.8125v-15.75h11.8125c2.16956,0 3.9375,1.764 3.9375,3.9375z"/><path d="M185.0625,141.75c2.1735,0 3.9375,-1.76006 3.9375,-3.9375c0,-2.17744 -1.764,-3.9375 -3.9375,-3.9375h-15.75c-2.1735,0 -3.9375,1.76006 -3.9375,3.9375v39.375c0,2.17744 1.764,3.9375 3.9375,3.9375h15.75c2.1735,0 3.9375,-1.76006 3.9375,-3.9375c0,-2.17744 -1.764,-3.9375 -3.9375,-3.9375h-11.8125v-15.75h11.8125c2.1735,0 3.9375,-1.76006 3.9375,-3.9375c0,-2.17744 -1.764,-3.9375 -3.9375,-3.9375h-11.8125v-7.875z"/><path d="M110.25,110.25c-2.1735,0 -3.9375,1.76006 -3.9375,3.9375c0,2.17744 1.764,3.9375 3.9375,3.9375h23.625c2.1735,0 3.9375,-1.76006 3.9375,-3.9375c0,-2.17744 -1.764,-3.9375 -3.9375,-3.9375h-7.875v-63c0,-1.59075 -0.96075,-3.03187 -2.42944,-3.63825c-1.47656,-0.61819 -3.16575,-0.27562 -4.29187,0.85444l-11.8125,11.8125c-1.53956,1.53956 -1.53956,4.02806 0,5.56763c1.53956,1.53956 4.02806,1.53956 5.56762,0l5.09119,-5.09119v53.49488z"/></g><path d="M203.73412,113.26612l-3.36656,6.15431l-6.15825,3.36656l6.15825,3.3705l3.36656,6.15431l3.36656,-6.15431l6.15825,-3.3705l-6.15825,-3.36656z" fill="#fff8f8"/><path d="M117.37294,198.72563l-2.29556,4.19344l-4.19344,2.29556l4.19344,2.29163l2.29556,4.19737l2.29162,-4.19737l4.19738,-2.29163l-4.19738,-2.29556z" fill="#fff8f8"/></g></g></g></svg>
