<?xml version="1.0"?>
<svg xmlns="http://www.w3.org/2000/svg" xmlns:xlink="http://www.w3.org/1999/xlink" version="1.1" viewBox="0 0 252 252" width="96px" height="96px"><g transform="translate(-12.6,-12.6) scale(1.1,1.1)"><g fill="none" fill-rule="nonzero" stroke="none" stroke-width="1" stroke-linecap="butt" stroke-linejoin="miter" stroke-miterlimit="10" stroke-dasharray="" stroke-dashoffset="0" font-family="none" font-weight="none" font-size="none" text-anchor="none" style="mix-blend-mode: normal"><path d="M0,252v-252h252v252z" fill="none"/><g id="Layer_1"><path d="M126,10.5l23.6565,26.40225l34.0935,-10.65225l7.69125,34.30875l34.30875,7.69125l-10.5,34.0935l26.25,23.6565l-26.25,23.6565l10.5,34.0935l-34.30875,7.69125l-7.69125,34.30875l-34.0935,-10.65225l-23.6565,26.40225l-23.6565,-26.40225l-34.0935,10.65225l-7.69125,-34.30875l-34.30875,-7.69125l10.5,-34.0935l-26.25,-23.6565l26.25,-23.6565l-10.5,-34.0935l34.30875,-7.69125l7.69125,-34.30875l34.0935,10.65225z" fill="#f44336"/><g id="surface1_4_" fill="#ffffff"><path d="M105,169.58025l-8.91975,-5.25l50.91975,-81.9105l8.91975,5.25z"/><path d="M99.75,73.5c-9.45525,0 -21,5.7855 -21,21v5.25c0,9.45525 5.7855,21 21,21c11.0355,0 21,-7.3395 21,-21v-5.25c0,-13.125 -8.91975,-21 -21,-21zM109.20525,99.75c0,6.83025 -3.66975,10.5 -9.45525,10.5c-4.7145,0 -9.45525,-3.1605 -9.45525,-10.5v-5.25c0,-7.3395 4.7355,-11.0355 9.45525,-11.0355c7.3395,0 9.45525,6.83025 9.45525,11.0355z"/><path d="M152.25,178.5c9.45525,0 21,-5.7855 21,-21v-5.25c0,-9.45525 -5.7855,-21 -21,-21c-11.0355,0 -21,7.3395 -21,21v5.25c0,13.125 8.91975,21 21,21zM142.79475,152.25c0,-6.83025 3.66975,-10.5 9.45525,-10.5c4.7145,0 9.45525,3.1605 9.45525,10.5v5.25c0,7.3395 -4.7355,11.0355 -9.45525,11.0355c-7.3395,0 -9.45525,-6.83025 -9.45525,-11.0355z"/></g></g></g></g></svg>
