<?xml version="1.0" encoding="iso-8859-1"?>
<!-- Generator: Adobe Illustrator 19.2.1, SVG Export Plug-In . SVG Version: 6.00 Build 0)  -->
<svg xmlns="http://www.w3.org/2000/svg" xmlns:xlink="http://www.w3.org/1999/xlink" version="1.1" id="Layer_1" x="0px" y="0px" viewBox="0 0 80 80" style="enable-background:new 0 0 80 80;" xml:space="preserve" width="80px" height="80px">
<g>
	<path style="fill:#8BB7F0;" d="M40,77.244c-0.438,0-0.864-0.152-1.202-0.429l-6.653-5.446l-8.436,1.727   c-0.133,0.029-0.263,0.043-0.392,0.043c-0.752,0-1.433-0.456-1.735-1.162l-3.36-7.915l-8.265-2.383   c-0.861-0.251-1.436-1.083-1.363-1.979l0.7-8.574l-6.209-5.954c-0.65-0.621-0.772-1.623-0.291-2.383l4.607-7.267l-2.736-8.158   c-0.284-0.851,0.075-1.795,0.854-2.243l7.455-4.3l1.37-8.49c0.144-0.888,0.898-1.558,1.796-1.594l8.597-0.339l5.158-6.884   c0.357-0.474,0.927-0.758,1.521-0.758c0.283,0,0.556,0.062,0.811,0.184l7.771,3.697l7.77-3.697   c0.256-0.123,0.528-0.185,0.811-0.185c0.596,0,1.164,0.283,1.521,0.759l5.161,6.884l8.597,0.339c0.896,0.036,1.652,0.706,1.8,1.595   l1.371,8.488l7.454,4.299c0.777,0.447,1.137,1.392,0.854,2.245l-2.734,8.157l4.606,7.266c0.479,0.76,0.356,1.764-0.293,2.385   l-6.21,5.954l0.701,8.575c0.072,0.895-0.501,1.727-1.365,1.978l-8.263,2.383l-3.361,7.917c-0.3,0.704-0.982,1.159-1.737,1.159   c-0.129,0-0.259-0.014-0.385-0.041l-8.438-1.728l-6.654,5.446C40.858,77.096,40.442,77.244,40,77.244z"/>
	<g>
		<path style="fill:#4E7AB5;" d="M48.579,3.256L48.579,3.256c0.439,0,0.858,0.209,1.12,0.559l5.018,6.693l0.285,0.381l0.475,0.019    l8.358,0.329c0.661,0.027,1.219,0.522,1.327,1.173l1.333,8.256l0.076,0.469l0.412,0.237l7.249,4.18    c0.572,0.33,0.836,1.026,0.629,1.652l-2.659,7.933l-0.151,0.451l0.255,0.402l4.477,7.064c0.354,0.561,0.264,1.299-0.216,1.757    L70.531,50.6l-0.343,0.329l0.039,0.474l0.681,8.339c0.054,0.659-0.369,1.272-1.003,1.456l-8.036,2.317l-0.457,0.132l-0.186,0.438    l-3.268,7.697c-0.222,0.52-0.723,0.856-1.278,0.856c-0.094,0-0.188-0.01-0.288-0.031l-8.2-1.68l-0.466-0.095l-0.368,0.301    l-6.471,5.296c-0.253,0.207-0.559,0.316-0.886,0.316s-0.633-0.109-0.885-0.315l-6.47-5.296l-0.368-0.301l-0.466,0.095    l-8.213,1.682c-0.092,0.02-0.187,0.03-0.28,0.03c-0.552,0-1.053-0.337-1.275-0.856l-3.268-7.698l-0.186-0.438l-0.457-0.132    l-8.033-2.316c-0.636-0.185-1.059-0.798-1.006-1.457l0.681-8.338l0.039-0.474L9.469,50.6L3.43,44.81    c-0.478-0.457-0.568-1.194-0.214-1.753l4.479-7.065l0.255-0.402l-0.151-0.451l-2.66-7.932c-0.209-0.627,0.055-1.322,0.629-1.653    l7.249-4.18l0.412-0.237l0.076-0.469l1.333-8.256c0.106-0.654,0.662-1.148,1.321-1.174l8.359-0.329l0.475-0.019l0.285-0.381    l5.014-6.69c0.265-0.351,0.685-0.56,1.123-0.56c0.208,0,0.408,0.045,0.597,0.136l7.554,3.594l0.43,0.204l0.43-0.204l7.559-3.596    C48.172,3.301,48.372,3.256,48.579,3.256 M48.579,2.256c-0.347,0-0.698,0.076-1.026,0.234l-7.554,3.594L32.444,2.49    c-0.329-0.157-0.68-0.233-1.027-0.233c-0.735,0-1.455,0.339-1.922,0.958l-5.016,6.693l-8.359,0.329    c-1.138,0.046-2.087,0.887-2.269,2.014l-1.333,8.256l-7.249,4.18c-0.986,0.568-1.439,1.754-1.078,2.836l2.66,7.933l-4.479,7.065    c-0.61,0.961-0.458,2.223,0.367,3.012l6.038,5.789L8.096,59.66c-0.092,1.138,0.63,2.18,1.723,2.499l8.036,2.317l3.268,7.698    c0.383,0.895,1.256,1.465,2.195,1.465c0.163,0,0.327-0.017,0.492-0.053l8.202-1.68l6.47,5.296    c0.442,0.361,0.979,0.542,1.518,0.542c0.54,0,1.077-0.181,1.518-0.542l6.471-5.296l8.2,1.68c0.163,0.035,0.327,0.052,0.489,0.052    c0.939,0,1.816-0.567,2.198-1.464l3.268-7.698l8.036-2.317c1.096-0.318,1.816-1.36,1.723-2.499l-0.681-8.338l6.038-5.789    c0.825-0.789,0.977-2.05,0.369-3.013l-4.478-7.065l2.659-7.933c0.358-1.081-0.092-2.267-1.078-2.836l-7.249-4.18L66.15,12.25    c-0.187-1.126-1.135-1.967-2.274-2.013l-8.359-0.329l-5.018-6.693C50.035,2.596,49.314,2.256,48.579,2.256L48.579,2.256z"/>
	</g>
</g>
<path style="fill:#FFFFFF;" d="M42.538,16.673v21.092h-4.532v-15.97c-0.249,0.221-1.783,1.381-4.388,1.798v-3.827  c2.931-0.818,5.328-2.451,6.172-3.093H42.538z"/>
<path style="fill:#FFFFFF;" d="M25.457,47.511h-4.966v3.993h4.577v1.862h-4.577v5.559h-2.205V45.639h7.171V47.511z"/>
<path style="fill:#FFFFFF;" d="M39.408,58.925h-2.576l-2.122-3.558c-0.76-1.178-1.276-1.834-2.483-1.834h-0.889v5.392h-2.196V45.639  h4.373c2.274,0,4.336,1.012,4.336,3.586c0,2.788-2.495,3.505-2.946,3.623v0.037C36.194,53.561,37.002,55.131,39.408,58.925z   M31.339,47.427v4.317h1.834c1.002,0,2.353-0.584,2.353-2.288c0-1.392-0.948-2.029-2.335-2.029H31.339z"/>
<path style="fill:#FFFFFF;" d="M50.173,58.925h-7.458V45.639h7.162v1.872h-4.957v3.762h4.568v1.862h-4.568v3.928h5.253V58.925z"/>
<path style="fill:#FFFFFF;" d="M61.03,58.925h-7.458V45.639h7.162v1.872h-4.957v3.762h4.568v1.862h-4.568v3.928h5.253V58.925z"/>
</svg>
