<?xml version="1.0"?>
<svg xmlns="http://www.w3.org/2000/svg" xmlns:xlink="http://www.w3.org/1999/xlink" version="1.1" viewBox="0 0 252 252" width="100px" height="100px"><g transform="translate(-17.64,-17.64) scale(1.14,1.14)"><g fill="none" fill-rule="nonzero" stroke="none" stroke-width="1" stroke-linecap="butt" stroke-linejoin="miter" stroke-miterlimit="10" stroke-dasharray="" stroke-dashoffset="0" font-family="none" font-weight="none" font-size="none" text-anchor="none" style="mix-blend-mode: normal"><path d="M0,252v-252h252v252z" fill="none"/><g fill="#000000"><g id="surface1"><path d="M126.18457,16.05761c-1.90723,0 -3.81446,0.67676 -5.29102,2.03029l-19.07226,17.22656l-25.16308,-5.41406c-3.9375,-0.86134 -7.875,1.47656 -9.10547,5.29101l-7.875,24.48634l-24.48634,7.875c-3.81445,1.23047 -6.09082,5.16797 -5.22949,9.10547l0.43067,2.09179h21.41016l16.5498,-5.29101c2.39942,-0.79982 4.30663,-2.70703 5.10645,-5.10645l6.89063,-21.53321l22.14844,4.73732c2.3994,0.55371 5.04491,-0.12305 6.89063,-1.84571l16.73438,-15.13476l16.79589,15.13476c1.8457,1.66114 4.49121,2.3379 6.95214,1.84571l22.08692,-4.73732l6.95214,21.53321c0.73828,2.39942 2.64551,4.30663 5.04493,5.10645l16.5498,5.29101h21.47168l0.43067,-2.09179c0.7998,-3.9375 -1.47656,-7.875 -5.35254,-9.10547l-24.4248,-7.875l-7.875,-24.48634c-1.23047,-3.81445 -5.16797,-6.15234 -9.16699,-5.29101l-25.10156,5.41406l-19.07227,-17.22656c-1.47656,-1.35352 -3.32226,-2.03029 -5.22949,-2.03029zM23.625,94.5c-4.36817,0 -7.875,3.50683 -7.875,7.875v15.75c0,2.95313 1.66114,5.72168 4.30665,7.01368l27.19335,13.59668v3.01464h-31.5v15.75h39.375c4.36817,0 7.875,-3.50683 7.875,-7.875v-15.75c0,-2.95312 -1.66114,-5.72168 -4.30663,-7.01366l-27.19337,-13.59669v-3.01464h31.5v-15.75zM86.625,94.5c-4.36817,0 -7.875,3.50683 -7.875,7.875v55.125h15.75v-15.75h15.75v15.75h15.75v-39.375c0,-2.09179 -0.86132,-4.06054 -2.33788,-5.5371l-15.75,-15.75c-1.47656,-1.47656 -3.44531,-2.3379 -5.53712,-2.3379zM141.75,94.5v55.125c0,4.36817 3.50683,7.875 7.875,7.875h23.625v-15.75h-15.75v-47.25zM196.875,94.5c-4.36817,0 -7.875,3.50683 -7.875,7.875v47.25c0,4.36817 3.50683,7.875 7.875,7.875h39.375v-15.75h-31.5v-2.39942l26.39355,-9.90527c3.07618,-1.16895 5.10645,-4.12207 5.10645,-7.38281v-19.6875c0,-4.36817 -3.50683,-7.875 -7.875,-7.875zM94.5,110.25h4.61426l11.13574,11.13574v4.61426h-15.75zM204.75,110.25h15.75v6.33692l-15.75,5.90625zM30.45411,173.25l-0.49219,2.39942c-0.86134,3.9375 1.41504,7.875 5.22949,9.10547l24.48634,7.875l7.875,24.4248c1.23047,3.87598 5.22949,6.09082 9.10547,5.35254l25.16308,-5.41406l19.01074,17.22656c1.53808,1.35351 3.44531,2.03027 5.29102,2.03027c1.90721,0 3.81445,-0.67676 5.29101,-2.03027l19.07227,-17.22656l25.16308,5.41406c3.99902,0.73828 7.875,-1.47656 9.10547,-5.35254l7.875,-24.4248l24.4248,-7.875c3.87598,-1.23047 6.15234,-5.16797 5.35254,-9.10547l-0.49219,-2.39942h-20.42578l-17.47266,5.66016c-2.46094,0.73828 -4.30665,2.64551 -5.10645,5.04493l-6.89062,21.5332l-22.14844,-4.7373c-2.46094,-0.55371 -5.04491,0.12304 -6.89062,1.78418l-16.85741,15.25781l-16.73438,-15.19629c-1.47656,-1.35351 -3.32227,-2.03027 -5.29102,-2.03027c-0.49219,0 -1.10741,0.06152 -1.5996,0.18457l-22.14844,4.7373l-6.89062,-21.47168c-0.79982,-2.46094 -2.70703,-4.30665 -5.10645,-5.10645l-17.53418,-5.66016z"/></g></g></g></g></svg>
