<?xml version="1.0"?>
<svg xmlns="http://www.w3.org/2000/svg" xmlns:xlink="http://www.w3.org/1999/xlink" version="1.1" viewBox="0 0 252 252" width="80px" height="80px"><g transform="translate(-37.8,-37.8) scale(1.3,1.3)"><g fill="none" fill-rule="nonzero" stroke="none" stroke-width="1" stroke-linecap="butt" stroke-linejoin="miter" stroke-miterlimit="10" stroke-dasharray="" stroke-dashoffset="0" font-family="none" font-weight="none" font-size="none" text-anchor="none" style="mix-blend-mode: normal"><path d="M0,252v-252h252v252z" fill="none"/><g id="Layer_1"><path d="M68.25,52.5c0,11.55 9.45,21 21,21c11.55,0 21,-9.45 21,-21c0,-11.55 -9.45,-21 -21,-21c-11.55,0 -21,9.45 -21,21zM89.775,42c5.775,0.525 9.975,5.775 9.975,11.55c0,2.625 -1.05,5.25 -3.15,6.825c-2.1,2.1 -5.25,2.625 -8.4,2.625c-5.775,-0.525 -9.45,-5.25 -9.45,-11.025c0,-2.625 1.05,-5.775 3.15,-7.35c2.1,-2.1 4.725,-2.625 7.875,-2.625z" fill="#ff9800"/><path d="M110.25,52.5c1.575,0.525 -1.575,0 -1.575,0c0,6.825 -3.675,13.125 -8.925,17.325c0.525,1.05 1.05,1.575 1.05,2.1c2.625,4.725 14.175,24.15 15.225,25.2l7.875,16.275l47.775,59.85l2.625,-2.625c3.675,-4.2 4.2,-8.925 4.2,-14.175c0,-9.975 -5.25,-17.85 -5.25,-17.85l-37.8,-54.6c0,-0.525 -0.525,-0.525 -1.05,-1.05c-16.8,-8.925 -19.95,-19.425 -24.15,-30.45z" fill="#ff9800"/><rect x="6" y="22" transform="scale(5.25,5.25)" width="36" height="20" fill="#a5d6a7"/><path d="M31.5,115.5v105h189v-105zM42,210v-84h168v84z" fill="#388e3c"/><circle cx="13" cy="32" transform="scale(5.25,5.25)" r="2" fill="#388e3c"/><circle cx="35" cy="32" transform="scale(5.25,5.25)" r="2" fill="#388e3c"/><circle cx="24" cy="32" transform="scale(5.25,5.25)" r="6" fill="#388e3c"/><rect x="23" y="37" transform="scale(5.25,5.25)" width="2" height="5" fill="#1b5e20"/><rect x="23" y="29" transform="scale(5.25,5.25)" width="2" height="6" fill="#1b5e20"/><rect x="23" y="22" transform="scale(5.25,5.25)" width="2" height="5" fill="#1b5e20"/><path d="M168,31.5c-11.55,0 -21,9.45 -21,21c0,11.55 9.45,21 21,21c11.55,0 21,-9.45 21,-21c0,-11.55 -9.45,-21 -21,-21zM175.35,44.1c2.1,2.1 3.15,4.725 3.15,7.875c0,5.775 -4.2,10.5 -9.45,11.025c-3.15,0.525 -6.3,-0.525 -8.4,-2.625c-2.1,-1.575 -3.15,-4.2 -3.15,-6.825c0,-5.775 4.725,-11.025 9.975,-11.55c3.15,0 5.775,0.525 7.875,2.1z" fill="#fbc02d"/><path d="M122.85,83.475c-0.525,0 -0.525,0.525 -1.05,1.05l-37.8,54.075c0,0.525 -5.25,8.4 -5.25,17.85c0,5.25 1.05,9.975 4.2,14.175l2.625,2.625l55.65,-76.65c0.525,-1.05 12.6,-20.475 15.225,-25.2c0,0 0.525,-1.05 1.05,-2.1c-5.25,-3.675 -8.925,-9.975 -8.925,-17.325c0,0 -3.15,0.525 -1.575,0c-4.2,11.55 -7.35,22.05 -24.15,31.5z" fill="#fbc02d"/><circle cx="24.3" cy="18.4" transform="scale(5.25,5.25)" r="0.8" fill="#ffa000"/><path d="M44.625,194.25c-2.96625,0 -5.67525,1.02375 -7.875,2.68275v18.31725h18.312c1.66425,-2.19975 2.688,-4.90875 2.688,-7.88025c0,-7.245 -5.87475,-13.11975 -13.125,-13.11975z" fill="#388e3c"/><path d="M36.75,139.06725c2.19975,1.659 4.90875,2.68275 7.875,2.68275c7.25025,0 13.125,-5.87475 13.125,-13.125c0,-2.9715 -1.02375,-5.67525 -2.68275,-7.875h-18.31725z" fill="#388e3c"/><path d="M215.25,196.93275c-2.19975,-1.659 -4.90875,-2.68275 -7.875,-2.68275c-7.25025,0 -13.125,5.87475 -13.125,13.11975c0,2.9715 1.02375,5.6805 2.688,7.88025h18.312z" fill="#388e3c"/><path d="M207.375,141.75c2.96625,0 5.67525,-1.02375 7.875,-2.68275v-18.31725h-18.31725c-1.659,2.19975 -2.68275,4.90875 -2.68275,7.875c0,7.25025 5.87475,13.125 13.125,13.125z" fill="#388e3c"/></g></g></g></svg>
