<?xml version="1.0"?>
<svg xmlns="http://www.w3.org/2000/svg" xmlns:xlink="http://www.w3.org/1999/xlink" version="1.1" viewBox="0 0 252 252" width="96px" height="96px"><g transform="translate(-2.52,-2.52) scale(1.02,1.02)"><g fill="none" fill-rule="nonzero" stroke="none" stroke-width="1" stroke-linecap="butt" stroke-linejoin="miter" stroke-miterlimit="10" stroke-dasharray="" stroke-dashoffset="0" font-family="none" font-weight="none" font-size="none" text-anchor="none" style="mix-blend-mode: normal"><path d="M0,252v-252h252v252z" fill="none"/><g><g id="surface1"><path d="M219.86939,143.16504c-2.15332,2.67627 -3.09155,6.13696 -2.55322,9.53613l3.73755,23.625c0.33838,1.89185 -0.73828,3.75293 -2.5686,4.39893l-22.28686,8.55176c-3.2146,1.23047 -5.75244,3.75293 -6.99829,6.96753l-8.55176,22.28686c-0.64599,1.81494 -2.50708,2.90698 -4.39892,2.55322l-23.625,-3.73755c-3.39917,-0.52295 -6.85987,0.3999 -9.53613,2.5686l-18.54932,14.99633c-1.46118,1.23047 -3.6145,1.23047 -5.07568,0l-18.54932,-14.99633c-2.66089,-2.1687 -6.13696,-3.09156 -9.52075,-2.5686l-23.625,3.73755c-1.90723,0.35376 -3.76831,-0.73828 -4.41431,-2.55322l-8.53638,-22.28686c-1.23047,-3.2146 -3.76831,-5.76782 -6.98291,-7.01367l-22.19458,-8.53638c-1.83032,-0.64599 -2.90698,-2.50708 -2.5686,-4.41431l3.73755,-23.625c0.53833,-3.39917 -0.3999,-6.85986 -2.55322,-9.52075l-14.99633,-18.51855c-1.24585,-1.46118 -1.24585,-3.59912 0,-5.07569l14.99633,-18.54931c2.15332,-2.66089 3.09156,-6.12158 2.55322,-9.52075l-3.73755,-23.625c-0.33838,-1.90723 0.73828,-3.76831 2.5686,-4.41431l22.28686,-8.53638c3.2146,-1.23047 5.75244,-3.76831 6.99829,-6.96753l8.55176,-22.28686c0.64599,-1.83032 2.50708,-2.90698 4.39892,-2.5686l23.625,3.73755c3.39917,0.53833 6.85987,-0.3999 9.53613,-2.55322l18.54932,-14.99633c1.46118,-1.24585 3.6145,-1.24585 5.07568,0l18.54932,14.99633c2.66089,2.15332 6.13696,3.09156 9.52075,2.55322l23.625,-3.73755c1.90723,-0.33838 3.76831,0.73828 4.4143,2.5686l8.53638,22.28686c1.23047,3.2146 3.76831,5.75244 6.98291,6.99829l22.28686,8.55176c1.81494,0.64599 2.8916,2.50708 2.55322,4.39892l-3.73755,23.625c-0.53833,3.39917 0.3999,6.85987 2.55322,9.53613l15.01172,18.54932c1.23047,1.46118 1.23047,3.6145 0,5.07568z" fill="#ed7899"/><path d="M196.875,122.0625c0,41.31299 -33.49951,74.8125 -74.8125,74.8125c-41.31299,0 -74.8125,-33.49951 -74.8125,-74.8125c0,-41.31299 33.49951,-74.8125 74.8125,-74.8125c41.31299,0 74.8125,33.49951 74.8125,74.8125z" fill="#f283a5"/><path d="M122.0625,189c-2.1687,0 -3.9375,1.7688 -3.9375,3.9375v7.875c0,2.1687 1.7688,3.9375 3.9375,3.9375c2.1687,0 3.9375,-1.7688 3.9375,-3.9375v-7.875c0,-2.1687 -1.7688,-3.9375 -3.9375,-3.9375z" fill="#8d6c9f"/><path d="M122.0625,55.125c2.1687,0 3.9375,-1.7688 3.9375,-3.9375v-7.875c0,-2.1687 -1.7688,-3.9375 -3.9375,-3.9375c-2.1687,0 -3.9375,1.7688 -3.9375,3.9375v7.875c0,2.1687 1.7688,3.9375 3.9375,3.9375z" fill="#8d6c9f"/><path d="M200.8125,118.125h-7.875c-2.1687,0 -3.9375,1.7688 -3.9375,3.9375c0,2.1687 1.7688,3.9375 3.9375,3.9375h7.875c2.1687,0 3.9375,-1.7688 3.9375,-3.9375c0,-2.1687 -1.7688,-3.9375 -3.9375,-3.9375z" fill="#8d6c9f"/><path d="M51.1875,126c2.1687,0 3.9375,-1.7688 3.9375,-3.9375c0,-2.1687 -1.7688,-3.9375 -3.9375,-3.9375h-7.875c-2.1687,0 -3.9375,1.7688 -3.9375,3.9375c0,2.1687 1.7688,3.9375 3.9375,3.9375z" fill="#8d6c9f"/><path d="M69.13696,169.3125l-5.55249,5.55249c-1.12281,0.969 -1.59961,2.47632 -1.26123,3.90674c0.35376,1.4458 1.47656,2.5686 2.90698,2.90698c1.4458,0.35376 2.95313,-0.13843 3.90674,-1.26123l5.67554,-5.42945c1.56885,-1.56885 1.56885,-4.10669 0,-5.67554c-1.56885,-1.56885 -4.10669,-1.56885 -5.67554,0z" fill="#8d6c9f"/><path d="M172.18872,75.87378c1.0459,0.01538 2.04565,-0.3999 2.79931,-1.13818l5.55249,-5.55249c1.33813,-1.56885 1.24585,-3.89136 -0.21533,-5.35254c-1.4458,-1.4458 -3.78369,-1.53809 -5.33716,-0.19995l-5.67554,5.50635c-1.13818,1.13818 -1.47656,2.83008 -0.86133,4.30664c0.61523,1.47656 2.06104,2.44556 3.66065,2.43017z" fill="#8d6c9f"/><path d="M174.98804,169.3125c-1.56885,-1.56885 -4.10669,-1.56885 -5.67554,0c-1.56885,1.56885 -1.56885,4.10669 0,5.67554l5.55249,5.55249c1.56885,1.33813 3.89136,1.24585 5.33716,-0.21533c1.46118,-1.4458 1.55347,-3.78369 0.21533,-5.33716z" fill="#8d6c9f"/><path d="M69.13696,63.58447c-1.55347,-1.33814 -3.89136,-1.24585 -5.33716,0.21533c-1.46118,1.4458 -1.55347,3.78369 -0.21533,5.33716l5.55249,5.67554c1.56885,1.56885 4.10669,1.56885 5.67554,0c1.56885,-1.56885 1.56885,-4.10669 0,-5.67554z" fill="#8d6c9f"/><path d="M144.19556,189.50757c-0.63061,-2.03027 -2.73779,-3.19922 -4.79883,-2.64551c-2.04565,0.55371 -3.29151,2.63013 -2.79932,4.69117l2.04566,7.59814c0.323,1.41504 1.38428,2.52246 2.76855,2.90698c1.38428,0.38452 2.87622,-0.01538 3.87598,-1.0459c1.01513,-1.03051 1.3689,-2.52246 0.95361,-3.90674z" fill="#8d6c9f"/><path d="M99.92944,54.61743c0.63062,2.03027 2.73779,3.19922 4.79883,2.64551c2.04566,-0.55371 3.29151,-2.63013 2.79932,-4.69116l-2.04565,-7.59815c-0.323,-1.41504 -1.38428,-2.52246 -2.76855,-2.90698c-1.38428,-0.38452 -2.87622,0.01538 -3.87598,1.0459c-1.01514,1.03052 -1.3689,2.52246 -0.95362,3.90674z" fill="#8d6c9f"/><path d="M186.72363,104.74365c0.55371,2.0918 2.69165,3.33765 4.79883,2.78393l7.59815,-2.04565c1.39966,-0.323 2.50708,-1.38428 2.8916,-2.76855c0.3999,-1.38428 0,-2.87622 -1.03052,-3.87598c-1.03052,-1.01514 -2.53784,-1.3689 -3.90674,-0.95362l-7.59814,2.04565c-2.0918,0.58447 -3.30689,2.72242 -2.75317,4.81421z" fill="#8d6c9f"/><path d="M57.40137,139.38135c-0.55371,-2.0918 -2.69165,-3.33765 -4.79883,-2.78394l-7.59814,2.04566c-1.39966,0.323 -2.50708,1.38428 -2.8916,2.76855c-0.3999,1.38428 0,2.87622 1.03051,3.87598c1.03052,1.01513 2.53784,1.3689 3.90674,0.95361l7.59814,-2.04565c2.0918,-0.58447 3.30689,-2.72241 2.75317,-4.81421z" fill="#8d6c9f"/><path d="M88.59375,180.01758c-0.90747,-0.52295 -1.98413,-0.66138 -2.99927,-0.38452c-1.01513,0.26147 -1.87646,0.93823 -2.39941,1.8457l-3.9375,6.81372c-0.96899,1.86108 -0.30762,4.18359 1.52271,5.22949c1.83032,1.06128 4.16821,0.49219 5.29102,-1.29199l3.9375,-6.81372c0.53833,-0.90747 0.67676,-1.98413 0.41528,-2.98389c-0.26147,-1.01513 -0.92285,-1.87646 -1.83032,-2.41479z" fill="#8d6c9f"/><path d="M163.40625,50.43384c-0.90747,-0.52295 -1.98413,-0.66138 -2.99927,-0.38452c-1.01513,0.27685 -1.87646,0.93823 -2.39941,1.8457l-3.9375,6.81372c-0.96899,1.87647 -0.30762,4.18359 1.52271,5.22949c1.83032,1.06128 4.16821,0.49219 5.29102,-1.29199l3.9375,-6.81372c0.53833,-0.90747 0.67676,-1.98413 0.41528,-2.98389c-0.26147,-1.01513 -0.92285,-1.87646 -1.83032,-2.41479z" fill="#8d6c9f"/><path d="M192.22998,158.00757l-6.81372,-3.9375c-1.21509,-0.76904 -2.76855,-0.81518 -4.02979,-0.10766c-1.26123,0.70752 -2.04565,2.04565 -2.01489,3.49145c0.01538,1.4458 0.83056,2.76855 2.10718,3.42993l6.81372,3.9375c1.86108,0.98438 4.18359,0.30762 5.22949,-1.52271c1.06128,-1.81494 0.49219,-4.15283 -1.29199,-5.29102z" fill="#8d6c9f"/><path d="M51.89502,86.11743l6.81372,3.9375c1.87647,0.969 4.18359,0.30762 5.22949,-1.52271c1.06128,-1.83032 0.49219,-4.16821 -1.29199,-5.29102l-6.81372,-3.9375c-1.21509,-0.78442 -2.76855,-0.81518 -4.02979,-0.12305c-1.26123,0.70752 -2.04565,2.04565 -2.01489,3.49146c0.01538,1.4458 0.83057,2.76855 2.10718,3.44531z" fill="#8d6c9f"/><path d="M160.92993,181.47876c-1.13819,-1.78418 -3.47608,-2.35327 -5.29102,-1.29199c-1.83032,1.0459 -2.50708,3.35303 -1.52271,5.22949l3.9375,6.81372c0.66138,1.27661 1.98413,2.0918 3.42993,2.10718c1.4458,0.03076 2.78393,-0.75366 3.49146,-2.01489c0.70752,-1.26123 0.66137,-2.8147 -0.10767,-4.02978z" fill="#8d6c9f"/><path d="M83.19507,62.64624c1.13819,1.78418 3.47608,2.35327 5.29102,1.29199c1.83032,-1.0459 2.50708,-3.35303 1.52271,-5.22949l-3.9375,-6.81372c-1.1228,-1.78418 -3.46069,-2.35327 -5.29102,-1.29199c-1.83032,1.0459 -2.4917,3.36841 -1.52271,5.22949z" fill="#8d6c9f"/><path d="M180.01758,88.59375c0.52295,0.90747 1.38428,1.58423 2.39941,1.8457c1.01514,0.27686 2.0918,0.13843 2.99927,-0.38452l6.81372,-3.9375c1.27661,-0.67676 2.0918,-1.99951 2.10718,-3.44531c0.03076,-1.4458 -0.75366,-2.78393 -2.01489,-3.49146c-1.26123,-0.69214 -2.8147,-0.66138 -4.02978,0.12305l-6.81372,3.9375c-1.87647,1.07666 -2.52246,3.47608 -1.46118,5.35254z" fill="#8d6c9f"/><path d="M64.10742,155.53125c-0.52295,-0.90747 -1.38428,-1.58423 -2.39941,-1.8457c-1.01513,-0.27685 -2.0918,-0.13843 -2.99927,0.38452l-6.81372,3.9375c-1.78418,1.13819 -2.35327,3.47608 -1.29199,5.29102c1.0459,1.83032 3.36841,2.50708 5.22949,1.52271l6.81372,-3.9375c1.87647,-1.07666 2.52246,-3.47607 1.46118,-5.35254z" fill="#8d6c9f"/><path d="M104.74365,186.72363c-2.10718,-0.55371 -4.24512,0.69214 -4.81421,2.78393l-2.04565,7.59815c-0.41528,1.38428 -0.06152,2.87622 0.95362,3.90674c0.99975,1.03052 2.4917,1.43042 3.87598,1.0459c1.38428,-0.38452 2.44555,-1.49194 2.76855,-2.90698l2.04565,-7.59814c0.27685,-0.99976 0.13843,-2.0918 -0.38452,-2.99927c-0.52295,-0.90747 -1.38428,-1.56885 -2.39941,-1.83032z" fill="#8d6c9f"/><path d="M139.38135,57.40137c2.10718,0.55371 4.24512,-0.69214 4.81421,-2.78393l2.04565,-7.59815c0.41528,-1.38428 0.06152,-2.87622 -0.95361,-3.90674c-0.99976,-1.03052 -2.4917,-1.43042 -3.87598,-1.0459c-1.38428,0.38452 -2.44556,1.49194 -2.76855,2.90698l-2.04566,7.59815c-0.27685,0.99975 -0.13843,2.0918 0.38452,2.99926c0.52295,0.90747 1.38428,1.56885 2.39941,1.83032z" fill="#8d6c9f"/><path d="M199.15137,138.64307l-7.59814,-2.04566c-2.06104,-0.49219 -4.13745,0.75367 -4.69117,2.79932c-0.55371,2.06103 0.61523,4.16821 2.64551,4.79883l7.59815,2.04565c1.38428,0.41528 2.87622,0.06152 3.90674,-0.95361c1.03052,-0.99976 1.43042,-2.4917 1.0459,-3.87598c-0.38452,-1.38428 -1.49194,-2.44556 -2.90698,-2.76855z" fill="#8d6c9f"/><path d="M44.97363,105.48194l7.59815,2.04565c2.06103,0.49219 4.13745,-0.75366 4.69116,-2.79932c0.55371,-2.06103 -0.61523,-4.16821 -2.64551,-4.79883l-7.59815,-2.04565c-1.38428,-0.41528 -2.87622,-0.06152 -3.90674,0.95362c-1.03052,0.99975 -1.43042,2.4917 -1.0459,3.87598c0.38452,1.38428 1.49194,2.44555 2.90698,2.76855z" fill="#8d6c9f"/><path d="M237.91113,129.50684c3.50684,-4.3374 3.50684,-10.55127 0,-14.88867l-14.61181,-18.02637c-0.70752,-0.87671 -1.01514,-2.01489 -0.83057,-3.12232l3.62988,-22.9021c0.86133,-5.52173 -2.2456,-10.88965 -7.44434,-12.88916l-21.7793,-8.30566c-1.0459,-0.3999 -1.87646,-1.23047 -2.27637,-2.27637l-8.32104,-21.65625c-1.98413,-5.21411 -7.35205,-8.32105 -12.87378,-7.44434l-22.91748,3.6145c-1.10742,0.18457 -2.23022,-0.10766 -3.10693,-0.81518l-17.87256,-14.58105c-4.3374,-3.50684 -10.55127,-3.50684 -14.88867,0l-18.02637,14.61182c-0.87671,0.70752 -2.01489,1.01513 -3.12232,0.83056l-22.9021,-3.62988c-5.52173,-0.86133 -10.88965,2.24561 -12.88916,7.44434l-8.30566,21.7793c-0.3999,1.0459 -1.23047,1.87647 -2.27637,2.27637l-21.65625,8.32104c-5.21411,1.98413 -8.32105,7.35205 -7.44434,12.87378l3.6145,22.91748c0.18457,1.10742 -0.10766,2.23022 -0.81518,3.10694l-14.58105,17.87256c-3.50684,4.3374 -3.50684,10.55127 0,14.88867l14.61182,18.02637c0.70752,0.87671 1.01513,2.01489 0.83056,3.12232l-3.62988,22.9021c-0.86133,5.52173 2.24561,10.88965 7.44434,12.88916l21.7793,8.30566c1.0459,0.3999 1.87647,1.23047 2.27637,2.27637l8.32104,21.65625c1.98413,5.21411 7.35205,8.32104 12.87378,7.44434l22.91748,-3.6145c1.10742,-0.18457 2.23022,0.10767 3.10694,0.81518l18.02637,14.61182c4.3374,3.52222 10.55127,3.52222 14.88867,0l18.04175,-14.61182c0.86133,-0.70752 1.99951,-0.99975 3.10693,-0.81518l22.91748,3.6145c5.50635,0.87671 10.87427,-2.23023 12.87378,-7.44434l8.15186,-21.81006c0.3999,-1.0459 1.23047,-1.87646 2.27637,-2.27637l21.65625,-8.32104c5.21411,-1.98413 8.32104,-7.35205 7.44434,-12.87378l-3.6145,-22.91748c-0.18457,-1.10742 0.10767,-2.23022 0.81518,-3.10693zM217.19311,142.58057c-2.10718,2.59936 -3.01465,5.98315 -2.47632,9.29004l3.6145,22.91748c0.29224,1.83032 -0.73828,3.62988 -2.47632,4.29126l-21.65625,8.30566c-3.1377,1.19971 -5.61402,3.67603 -6.81372,6.81372l-8.30566,21.65625c-0.66138,1.73804 -2.46094,2.76855 -4.29126,2.47632l-22.91748,-3.6145c-3.30689,-0.53833 -6.69067,0.36914 -9.29004,2.47632l-18.04175,14.61182c-1.4458,1.16895 -3.50684,1.16895 -4.95263,0l-18.04175,-14.61182c-2.59937,-2.10718 -5.98316,-3.01465 -9.29004,-2.47632l-22.91748,3.6145c-1.83032,0.29224 -3.62988,-0.73828 -4.29126,-2.47632l-8.30566,-21.65625c-1.19971,-3.1377 -3.67602,-5.61402 -6.81372,-6.81372l-21.65625,-8.30566c-1.73804,-0.66138 -2.76855,-2.46094 -2.47632,-4.29126l3.6145,-22.91748c0.53833,-3.30689 -0.36914,-6.69067 -2.47632,-9.29004l-14.61182,-18.04175c-1.16895,-1.4458 -1.16895,-3.50684 0,-4.95263l14.61182,-18.04175c2.10718,-2.59937 3.01465,-5.98316 2.47632,-9.29004l-3.6145,-22.91748c-0.29223,-1.83032 0.73828,-3.62988 2.47632,-4.29126l21.65625,-8.30566c3.1377,-1.19971 5.61401,-3.67602 6.81372,-6.81372l8.30566,-21.65625c0.66138,-1.73804 2.46094,-2.76855 4.29126,-2.47632l22.91748,3.6145c3.30688,0.53833 6.69067,-0.36914 9.29004,-2.47632l18.04175,-14.61182c1.4458,-1.16895 3.50684,-1.16895 4.95263,0l18.04175,14.61182c2.59936,2.10718 5.98315,3.01465 9.29004,2.47632l22.91748,-3.6145c1.83032,-0.29223 3.62988,0.73828 4.29126,2.47632l8.30566,21.65625c1.19971,3.1377 3.67603,5.61401 6.81372,6.81372l21.65625,8.30566c1.73804,0.66138 2.76855,2.46094 2.47632,4.29126l-3.6145,22.91748c-0.53833,3.30688 0.36914,6.69067 2.47632,9.29004l14.61182,18.04175c1.16895,1.4458 1.16895,3.50684 0,4.95263z" fill="#8d6c9f"/><path d="M110.25,106.3125v-11.8125c0,-6.52148 -5.29102,-11.8125 -11.8125,-11.8125h-3.9375c-6.52148,0 -11.8125,5.29102 -11.8125,11.8125v11.8125c0,6.52148 5.29102,11.8125 11.8125,11.8125h3.9375c6.52148,0 11.8125,-5.29102 11.8125,-11.8125zM90.5625,106.3125v-11.8125c0,-2.1687 1.7688,-3.9375 3.9375,-3.9375h3.9375c2.1687,0 3.9375,1.7688 3.9375,3.9375v11.8125c0,2.1687 -1.7688,3.9375 -3.9375,3.9375h-3.9375c-2.1687,0 -3.9375,-1.7688 -3.9375,-3.9375z" fill="#f9efde"/><path d="M157.5,149.625v-11.8125c0,-6.52148 -5.29102,-11.8125 -11.8125,-11.8125h-3.9375c-6.52148,0 -11.8125,5.29102 -11.8125,11.8125v11.8125c0,6.52148 5.29102,11.8125 11.8125,11.8125h3.9375c6.52148,0 11.8125,-5.29102 11.8125,-11.8125zM149.625,149.625c0,2.1687 -1.7688,3.9375 -3.9375,3.9375h-3.9375c-2.1687,0 -3.9375,-1.7688 -3.9375,-3.9375v-11.8125c0,-2.1687 1.7688,-3.9375 3.9375,-3.9375h3.9375c2.1687,0 3.9375,1.7688 3.9375,3.9375z" fill="#f9efde"/><path d="M101.94434,167.18994l43.3125,-86.625c0.95362,-1.92261 0.19995,-4.24512 -1.69189,-5.24488c-1.90723,-0.98437 -4.24512,-0.29223 -5.27564,1.58423l-43.3125,86.625c-0.95362,1.90723 -0.19995,4.22974 1.69189,5.22949c1.89185,0.99975 4.22974,0.29224 5.27564,-1.56885z" fill="#f9efde"/></g></g></g></g></svg>
