<?xml version="1.0"?>
<svg xmlns="http://www.w3.org/2000/svg" xmlns:xlink="http://www.w3.org/1999/xlink" version="1.1" viewBox="0 0 252 252" width="80px" height="80px"><g transform="translate(-5.04,-5.04) scale(1.04,1.04)"><g fill="none" fill-rule="nonzero" stroke="none" stroke-width="1" stroke-linecap="butt" stroke-linejoin="miter" stroke-miterlimit="10" stroke-dasharray="" stroke-dashoffset="0" font-family="none" font-weight="none" font-size="none" text-anchor="none" style="mix-blend-mode: normal"><path d="M0,252v-252h252v252z" fill="none"/><g id="Layer_1"><g><rect x="18.5" y="34.5" transform="scale(3.15,3.15)" width="59" height="43" fill="#d6e3ed"/><g fill="#788b9c"><path d="M242.55,110.25v132.3h-182.7v-132.3h182.7M245.7,107.1h-189v138.6h189v-138.6z"/></g></g><rect x="70" y="34" transform="scale(3.15,3.15)" width="4" height="44" fill="#d6e3ed"/><rect x="62" y="34" transform="scale(3.15,3.15)" width="4" height="44" fill="#d6e3ed"/><rect x="54" y="34" transform="scale(3.15,3.15)" width="4" height="44" fill="#d6e3ed"/><rect x="46" y="34" transform="scale(3.15,3.15)" width="4" height="44" fill="#d6e3ed"/><rect x="38" y="34" transform="scale(3.15,3.15)" width="4" height="44" fill="#d6e3ed"/><rect x="30" y="34" transform="scale(3.15,3.15)" width="4" height="44" fill="#d6e3ed"/><rect x="22" y="34" transform="scale(3.15,3.15)" width="4" height="44" fill="#d6e3ed"/><rect x="18" y="70" transform="scale(3.15,3.15)" width="60" height="4" fill="#d6e3ed"/><rect x="18" y="62" transform="scale(3.15,3.15)" width="60" height="4" fill="#d6e3ed"/><rect x="18" y="54" transform="scale(3.15,3.15)" width="60" height="4" fill="#d6e3ed"/><rect x="18" y="46" transform="scale(3.15,3.15)" width="60" height="4" fill="#d6e3ed"/><rect x="18" y="38" transform="scale(3.15,3.15)" width="60" height="4" fill="#d6e3ed"/><g><path d="M160.1082,168.525c-9.6768,0 -18.774,-3.7674 -25.6158,-10.6092l-91.31535,-91.31535l23.4234,-23.4234l125.34795,125.34795z" fill="#dcd5f2"/><g fill="#8b75a1"><path d="M66.60045,45.4041l121.5459,121.5459h-28.03815c-9.2547,0 -17.95815,-3.6036 -24.5007,-10.1493l-90.2034,-90.20025l21.19635,-21.19635M66.60045,40.95l-25.65045,25.65045l92.4273,92.4273c7.0875,7.0875 16.70445,11.07225 26.72775,11.07225h35.64225l-129.14685,-129.15z"/></g></g><g><g fill="#f78f8f"><path d="M43.69995,67.1202l-0.8064,0.1386c-1.827,0.315 -3.49335,0.4662 -5.09355,0.4662c-16.4997,0 -29.925,-13.4253 -29.925,-29.925c0,-16.4997 13.4253,-29.925 29.925,-29.925c16.4997,0 29.925,13.4253 29.925,29.925c0,1.59075 -0.15435,3.2571 -0.4662,5.09355l-0.13545,0.80325l14.3514,14.3514l-23.4234,23.4234zM37.8,23.625c-7.81515,0 -14.175,6.35985 -14.175,14.175c0,7.81515 6.35985,14.175 14.175,14.175c7.81515,0 14.175,-6.35985 14.175,-14.175c0,-7.81515 -6.35985,-14.175 -14.175,-14.175z"/></g><g fill="#c74343"><path d="M37.8,9.45c15.63345,0 28.35,12.71655 28.35,28.35c0,1.50885 -0.1449,3.09015 -0.44415,4.8258l-0.2772,1.6065l1.1529,1.1529l12.663,12.663l-21.19635,21.19635l-12.663,-12.663l-1.1529,-1.1529l-1.6065,0.2772c-1.73565,0.29925 -3.31695,0.44415 -4.8258,0.44415c-15.63345,0 -28.35,-12.71655 -28.35,-28.35c0,-15.63345 12.71655,-28.35 28.35,-28.35M37.8,53.55c8.68455,0 15.75,-7.06545 15.75,-15.75c0,-8.68455 -7.06545,-15.75 -15.75,-15.75c-8.68455,0 -15.75,7.06545 -15.75,15.75c0,8.68455 7.06545,15.75 15.75,15.75M37.8,6.3c-17.39745,0 -31.5,14.10255 -31.5,31.5c0,17.39745 14.10255,31.5 31.5,31.5c1.83015,0 3.6162,-0.189 5.3613,-0.48825l14.89005,14.89005l25.65045,-25.65045l-14.89005,-14.89005c0.29925,-1.7451 0.48825,-3.53115 0.48825,-5.3613c0,-17.39745 -14.10255,-31.5 -31.5,-31.5zM37.8,50.4c-6.95835,0 -12.6,-5.64165 -12.6,-12.6c0,-6.95835 5.64165,-12.6 12.6,-12.6c6.95835,0 12.6,5.64165 12.6,12.6c0,6.95835 -5.64165,12.6 -12.6,12.6z"/></g></g><g fill="#8b75a1"><rect x="-5.23239" y="41.41386" transform="rotate(-45) scale(3.14997,3.14997)" width="10.464" height="7.095"/></g><g><path d="M43.17705,116.09955l91.31535,-91.31535c6.8418,-6.8418 15.939,-10.6092 25.6158,-10.6092h31.83705l-125.3448,125.34795z" fill="#dcd5f2"/><g fill="#8b75a1"><path d="M188.14635,15.75l-121.5459,121.5459l-21.19635,-21.19635l90.2034,-90.20025c6.54255,-6.5457 15.246,-10.1493 24.5007,-10.1493h28.03815M195.75045,12.6h-35.64225c-10.02645,0 -19.64025,3.9816 -26.72775,11.07225l-92.43045,92.4273l25.65045,25.65045l129.15,-129.15z"/></g></g><g><g fill="#f78f8f"><path d="M37.8,174.825c-16.4997,0 -29.925,-13.4253 -29.925,-29.925c0,-16.4997 13.4253,-29.925 29.925,-29.925c1.6002,0 3.26655,0.1512 5.09355,0.4662l0.8064,0.1386l14.3514,-14.3514l23.4234,23.4234l-14.3514,14.3514l0.13545,0.80325c0.315,1.83645 0.4662,3.5028 0.4662,5.09355c0,16.4997 -13.4253,29.925 -29.925,29.925zM37.8,130.725c-7.81515,0 -14.175,6.35985 -14.175,14.175c0,7.81515 6.35985,14.175 14.175,14.175c7.81515,0 14.175,-6.35985 14.175,-14.175c0,-7.81515 -6.35985,-14.175 -14.175,-14.175z"/></g><g fill="#c74343"><path d="M58.05135,103.45545l21.19635,21.19635l-12.663,12.663l-1.1529,1.1529l0.2772,1.6065c0.2961,1.73565 0.441,3.31695 0.441,4.8258c0,15.63345 -12.71655,28.35 -28.35,28.35c-15.63345,0 -28.35,-12.71655 -28.35,-28.35c0,-15.63345 12.71655,-28.35 28.35,-28.35c1.50885,0 3.09015,0.1449 4.8258,0.44415l1.6065,0.2772l1.1529,-1.1529l12.66615,-12.663M37.8,160.65c8.68455,0 15.75,-7.06545 15.75,-15.75c0,-8.68455 -7.06545,-15.75 -15.75,-15.75c-8.68455,0 -15.75,7.06545 -15.75,15.75c0,8.68455 7.06545,15.75 15.75,15.75M58.05135,99.00135l-14.89005,14.89005c-1.7451,-0.3024 -3.53115,-0.4914 -5.3613,-0.4914c-17.39745,0 -31.5,14.10255 -31.5,31.5c0,17.39745 14.10255,31.5 31.5,31.5c17.39745,0 31.5,-14.10255 31.5,-31.5c0,-1.83015 -0.189,-3.6162 -0.48825,-5.3613l14.89005,-14.89005l-25.65045,-25.6473zM37.8,157.5c-6.95835,0 -12.6,-5.64165 -12.6,-12.6c0,-6.95835 5.64165,-12.6 12.6,-12.6c6.95835,0 12.6,5.64165 12.6,12.6c0,6.95835 -5.64165,12.6 -12.6,12.6z"/></g></g><g><circle cx="29.109" cy="29.109" transform="scale(3.15,3.15)" r="1.5" fill="#dcd5f2"/><path d="M91.69335,88.54335c1.73565,0 3.15,1.41435 3.15,3.15c0,1.73565 -1.41435,3.15 -3.15,3.15c-1.73565,0 -3.15,-1.41435 -3.15,-3.15c0,-1.73565 1.41435,-3.15 3.15,-3.15M91.69335,85.39335c-3.48075,0 -6.3,2.81925 -6.3,6.3c0,3.48075 2.81925,6.3 6.3,6.3c3.48075,0 6.3,-2.81925 6.3,-6.3c0,-3.48075 -2.81925,-6.3 -6.3,-6.3z" fill="#8b75a1"/></g></g></g></g></svg>
