<?xml version="1.0" encoding="UTF-8"?>
<svg xmlns="http://www.w3.org/2000/svg" xmlns:xlink="http://www.w3.org/1999/xlink" viewBox="0 0 40 40" version="1.1" width="96px" height="96px">
<g id="surface1">
<path style=" fill:#98CCFD;" d="M 20 38.371094 C 19.835938 38.371094 19.683594 38.316406 19.558594 38.214844 L 16.140625 35.414063 L 11.804688 36.304688 C 11.753906 36.3125 11.707031 36.320313 11.660156 36.320313 C 11.382813 36.320313 11.132813 36.152344 11.019531 35.890625 L 9.296875 31.824219 L 5.046875 30.597656 C 4.730469 30.507813 4.519531 30.199219 4.546875 29.871094 L 4.90625 25.464844 L 1.714844 22.40625 C 1.476563 22.175781 1.429688 21.808594 1.609375 21.527344 L 3.976563 17.796875 L 2.570313 13.601563 C 2.464844 13.289063 2.597656 12.941406 2.882813 12.777344 L 6.714844 10.566406 L 7.421875 6.203125 C 7.472656 5.878906 7.75 5.632813 8.078125 5.617188 L 12.496094 5.445313 L 15.148438 1.90625 C 15.277344 1.734375 15.488281 1.628906 15.707031 1.628906 C 15.8125 1.628906 15.910156 1.652344 16.007813 1.695313 L 20 3.59375 L 23.992188 1.695313 C 24.085938 1.648438 24.183594 1.628906 24.289063 1.628906 C 24.507813 1.628906 24.71875 1.730469 24.851563 1.90625 L 27.503906 5.445313 L 31.917969 5.617188 C 32.25 5.632813 32.527344 5.878906 32.582031 6.207031 L 33.285156 10.566406 L 37.117188 12.773438 C 37.402344 12.941406 37.535156 13.289063 37.433594 13.601563 L 36.027344 17.792969 L 38.394531 21.527344 C 38.570313 21.804688 38.523438 22.175781 38.285156 22.402344 L 35.09375 25.464844 L 35.453125 29.871094 C 35.480469 30.199219 35.269531 30.507813 34.953125 30.597656 L 30.707031 31.824219 L 28.980469 35.890625 C 28.867188 36.148438 28.617188 36.316406 28.339844 36.316406 C 28.292969 36.316406 28.246094 36.3125 28.199219 36.304688 L 23.863281 35.414063 L 20.445313 38.214844 C 20.316406 38.316406 20.164063 38.371094 20 38.371094 Z "/>
<path style=" fill:#4788C7;" d="M 24.289063 2.128906 C 24.351563 2.128906 24.414063 2.15625 24.449219 2.207031 L 26.960938 5.554688 L 27.242188 5.933594 L 27.71875 5.953125 L 31.898438 6.117188 C 31.992188 6.121094 32.070313 6.195313 32.085938 6.285156 L 32.753906 10.414063 L 32.828125 10.882813 L 33.242188 11.121094 L 36.867188 13.210938 C 36.949219 13.257813 36.984375 13.355469 36.957031 13.445313 L 35.628906 17.410156 L 35.476563 17.859375 L 35.730469 18.261719 L 37.96875 21.792969 C 38.019531 21.875 38.007813 21.980469 37.9375 22.046875 L 34.921875 24.9375 L 34.578125 25.269531 L 34.617188 25.742188 L 34.957031 29.910156 C 34.964844 30.007813 34.90625 30.089844 34.8125 30.117188 L 30.796875 31.277344 L 30.339844 31.40625 L 30.152344 31.847656 L 28.519531 35.695313 C 28.484375 35.773438 28.414063 35.8125 28.316406 35.8125 C 28.308594 35.8125 28.304688 35.8125 28.296875 35.8125 L 24.195313 34.972656 L 23.730469 34.878906 L 23.363281 35.179688 L 20.128906 37.824219 C 20.089844 37.855469 20.046875 37.871094 20 37.871094 C 19.953125 37.871094 19.910156 37.855469 19.875 37.824219 L 16.640625 35.179688 L 16.273438 34.878906 L 15.804688 34.972656 L 11.660156 35.816406 C 11.585938 35.816406 11.515625 35.765625 11.484375 35.695313 L 9.847656 31.847656 L 9.664063 31.40625 L 9.207031 31.277344 L 5.191406 30.117188 C 5.101563 30.089844 5.039063 30.003906 5.046875 29.910156 L 5.386719 25.742188 L 5.425781 25.265625 L 5.078125 24.9375 L 2.058594 22.042969 C 1.992188 21.980469 1.980469 21.875 2.03125 21.796875 L 4.269531 18.261719 L 4.523438 17.859375 L 4.375 17.410156 L 3.042969 13.445313 C 3.015625 13.355469 3.050781 13.257813 3.132813 13.210938 L 6.757813 11.121094 L 7.171875 10.882813 L 7.246094 10.414063 L 7.914063 6.285156 C 7.929688 6.191406 8.007813 6.121094 8.101563 6.117188 L 12.277344 5.953125 L 12.753906 5.933594 L 13.039063 5.554688 L 15.546875 2.210938 C 15.582031 2.15625 15.644531 2.128906 15.707031 2.128906 C 15.738281 2.128906 15.765625 2.132813 15.792969 2.148438 L 19.570313 3.945313 L 20 4.148438 L 20.429688 3.945313 L 24.210938 2.144531 C 24.234375 2.132813 24.261719 2.128906 24.289063 2.128906 M 24.289063 1.128906 C 24.113281 1.128906 23.941406 1.164063 23.777344 1.246094 L 20 3.042969 L 16.222656 1.246094 C 16.058594 1.164063 15.882813 1.128906 15.710938 1.128906 C 15.339844 1.128906 14.980469 1.300781 14.746094 1.609375 L 12.238281 4.953125 L 8.058594 5.117188 C 7.492188 5.140625 7.015625 5.5625 6.925781 6.125 L 6.257813 10.253906 L 2.636719 12.34375 C 2.140625 12.628906 1.914063 13.222656 2.097656 13.761719 L 3.425781 17.726563 L 1.1875 21.261719 C 0.882813 21.742188 0.957031 22.371094 1.371094 22.765625 L 4.390625 25.660156 L 4.050781 29.828125 C 4.003906 30.398438 4.363281 30.921875 4.910156 31.078125 L 8.929688 32.238281 L 10.5625 36.085938 C 10.753906 36.53125 11.191406 36.820313 11.660156 36.820313 C 11.742188 36.820313 11.824219 36.808594 11.90625 36.792969 L 16.007813 35.953125 L 19.242188 38.601563 C 19.464844 38.78125 19.730469 38.871094 20 38.871094 C 20.269531 38.871094 20.539063 38.78125 20.761719 38.601563 L 23.996094 35.953125 L 28.097656 36.792969 C 28.179688 36.808594 28.261719 36.820313 28.339844 36.820313 C 28.8125 36.820313 29.25 36.535156 29.441406 36.085938 L 31.074219 32.238281 L 35.09375 31.078125 C 35.640625 30.921875 36 30.398438 35.953125 29.832031 L 35.613281 25.660156 L 38.632813 22.769531 C 39.042969 22.375 39.121094 21.742188 38.816406 21.261719 L 36.578125 17.726563 L 37.90625 13.761719 C 38.085938 13.222656 37.859375 12.628906 37.367188 12.34375 L 33.742188 10.253906 L 33.074219 6.125 C 32.984375 5.5625 32.507813 5.144531 31.9375 5.121094 L 27.761719 4.953125 L 25.25 1.605469 C 25.015625 1.296875 24.65625 1.128906 24.289063 1.128906 Z "/>
<path style=" fill:#FFFFFF;" d="M 27.988281 21.433594 C 27.316406 20.691406 26.363281 20.316406 25.132813 20.316406 C 23.875 20.316406 22.863281 20.722656 22.113281 21.519531 C 21.375 22.316406 21 23.414063 21 24.808594 C 21 26.078125 21.347656 27.097656 22.058594 27.855469 C 22.761719 28.625 23.703125 29 24.894531 29 C 26.113281 29 27.105469 28.597656 27.863281 27.789063 C 28.625 26.980469 29 25.902344 29 24.558594 C 29 23.210938 28.664063 22.171875 27.988281 21.433594 Z M 26.511719 26.664063 C 26.144531 27.152344 25.652344 27.394531 25.019531 27.394531 C 24.386719 27.394531 23.886719 27.164063 23.53125 26.691406 C 23.164063 26.222656 22.980469 25.566406 22.980469 24.722656 C 22.980469 23.863281 23.164063 23.191406 23.539063 22.691406 C 23.90625 22.203125 24.414063 21.960938 25.058594 21.960938 C 25.675781 21.960938 26.15625 22.191406 26.511719 22.664063 C 26.867188 23.132813 27.050781 23.789063 27.050781 24.632813 C 27.046875 25.5 26.863281 26.171875 26.511719 26.664063 Z "/>
<path style=" fill:#FFFFFF;" d="M 17.988281 12.113281 C 17.308594 11.363281 16.355469 11 15.136719 11 C 13.867188 11 12.867188 11.394531 12.117188 12.203125 C 11.363281 13 11 14.097656 11 15.488281 C 11 16.757813 11.347656 17.777344 12.046875 18.539063 C 12.75 19.296875 13.703125 19.683594 14.886719 19.683594 C 16.117188 19.683594 17.105469 19.277344 17.867188 18.46875 C 18.625 17.664063 19 16.585938 19 15.238281 C 19 13.894531 18.664063 12.855469 17.988281 12.113281 Z M 16.5 17.347656 C 16.144531 17.835938 15.644531 18.078125 15.019531 18.078125 C 14.382813 18.078125 13.882813 17.847656 13.519531 17.375 C 13.152344 16.902344 12.980469 16.25 12.980469 15.402344 C 12.980469 14.546875 13.164063 13.867188 13.527344 13.375 C 13.902344 12.886719 14.414063 12.636719 15.046875 12.636719 C 15.664063 12.636719 16.152344 12.875 16.511719 13.347656 C 16.867188 13.808594 17.046875 14.472656 17.046875 15.308594 C 17.046875 16.183594 16.863281 16.855469 16.5 17.347656 Z "/>
<path style=" fill:#FFFFFF;" d="M 27 11 L 25 11 L 13.550781 29 L 15.539063 29 Z "/>
</g>
</svg>
