<?xml version="1.0"?>
<svg xmlns="http://www.w3.org/2000/svg" xmlns:xlink="http://www.w3.org/1999/xlink" version="1.1" viewBox="0 0 252 252" width="100px" height="100px"><g transform="translate(-37.8,-37.8) scale(1.3,1.3)"><g fill="none" fill-rule="nonzero" stroke="none" stroke-width="1" stroke-linecap="butt" stroke-linejoin="miter" stroke-miterlimit="10" stroke-dasharray="" stroke-dashoffset="0" font-family="none" font-weight="none" font-size="none" text-anchor="none" style="mix-blend-mode: normal"><path d="M0,252v-252h252v252z" fill="none"/><g><g id="surface1"><path d="M189,157.5h-126l-31.5,63h189z" fill="#8bc34a"/><path d="M115.5,189l47.25,-31.5h26.25l-56.1709,35.1709z" fill="#689f38"/><path d="M115.5,189v-147c0,-5.7832 4.7168,-10.5 10.5,-10.5c5.78321,0 10.5,4.7168 10.5,10.5v147c0,0 -1.0459,5.25 -10.5,5.25c-9.4541,0 -10.5,-5.25 -10.5,-5.25z" fill="#795548"/><path d="M42,52.5h168v73.5h-168z" fill="#ff3d00"/><path d="M79.7959,98.7041c0,-1.5791 -0.51269,-2.625 -1.5791,-3.1582c-1.0459,-1.0459 -2.625,-1.5791 -5.25,-2.625c-2.625,-1.0459 -4.7168,-1.5791 -6.2959,-2.625c-5.25,-2.625 -7.875,-6.2959 -7.875,-10.5c0,-2.0918 0.5332,-4.2041 2.11231,-5.76269c1.04589,-1.57911 3.13769,-3.15821 5.25,-4.20411c2.09179,-1.04589 5.25,-1.5791 7.875,-1.5791c2.625,0 5.25,0.53321 7.875,1.5791c2.09179,1.0459 4.18359,2.625 5.25,4.7168c1.04589,2.11231 2.09179,4.2041 2.09179,6.8291h-9.4541c0,-1.5791 -0.51269,-3.1582 -1.5791,-3.6709c-1.0459,-1.04589 -2.0918,-1.5791 -4.18359,-1.5791c-1.57911,0 -3.15821,0.53321 -4.20411,1.0459c-1.04589,0.5332 -1.5791,1.5791 -1.5791,3.1582c0,1.0459 0.53321,2.0918 1.5791,2.625c1.0459,1.0459 3.1377,1.57911 5.7627,2.625c2.625,1.0459 5.25,2.0918 6.8291,3.1377c4.2041,2.625 6.2959,6.31641 6.2959,10.5c0,3.69141 -1.55859,6.31641 -4.18359,8.4082c-2.625,2.0918 -6.31641,3.15821 -11.03321,3.15821c-3.1582,0 -6.2959,-0.53321 -8.9209,-1.57911c-2.625,-1.04589 -4.7373,-2.625 -5.7832,-4.7373c-1.5791,-2.0918 -2.0918,-4.18359 -2.0918,-7.3418h9.45411c0,2.0918 0.51269,3.6709 1.55859,4.7168c1.06641,1.06641 3.1582,1.5791 5.25,1.5791c1.5791,0 2.625,-0.51269 3.69141,-1.0459c2.625,-1.0459 3.13769,-2.09179 3.13769,-3.6709zM119.1709,102.375h-12.5918l-2.1123,7.875h-9.9668l14.1709,-42h8.4082l14.1709,42h-9.96679zM108.6709,94.5h8.4082l-4.2041,-14.7041zM146.4668,102.375h17.3291v7.875h-27.2959v-42h9.9668zM193.2041,92.40821h-15.75v9.96679h16.7959v7.875h-26.25v-42h26.25v7.875h-16.2832v8.9209h15.75v7.36231z" fill="#ffffff"/></g></g></g></g></svg>
