<?xml version="1.0" encoding="iso-8859-1"?>
<!-- Generator: Adobe Illustrator 19.1.1, SVG Export Plug-In . SVG Version: 6.00 Build 0)  -->
<svg xmlns="http://www.w3.org/2000/svg" xmlns:xlink="http://www.w3.org/1999/xlink" version="1.1" id="Layer_1" x="0px" y="0px" viewBox="0 0 80 80" style="enable-background:new 0 0 80 80;" xml:space="preserve" width="80px" height="80px">
<g>
	<path style="fill:#FFEEA3;" d="M40,77.5C19.322,77.5,2.5,60.678,2.5,40S19.322,2.5,40,2.5S77.5,19.322,77.5,40S60.678,77.5,40,77.5   z"/>
	<path style="fill:#C29653;" d="M40,3c20.402,0,37,16.598,37,37S60.402,77,40,77S3,60.402,3,40S19.598,3,40,3 M40,2   C19.013,2,2,19.013,2,40s17.013,38,38,38s38-17.013,38-38S60.987,2,40,2L40,2z"/>
</g>
<path style="fill:none;stroke:#C29653;stroke-miterlimit:10;" d="M24,61.507c0,0,6.286,0,16.286,0c18,0,20.414-8,20.414-8"/>
<g>
	<g>
		<path style="fill:#4E5E6D;" d="M54,47.5c-11.011,0-13.5-11.402-13.5-13.5h-1c0,2.098-2.489,13.5-13.5,13.5    c-11.04,0-15.5-9.527-15.5-13.5v-0.5h-2v-3h63v3h-2V34C69.5,37.973,65.04,47.5,54,47.5z"/>
	</g>
	<g>
		<path style="fill:#36404D;" d="M71,31v2h-1h-1v1c0,3.826-4.316,13-15,13c-10.603,0-13-10.98-13-13h-2c0,2.02-2.397,13-13,13    c-10.684,0-15-9.174-15-13v-1h-1H9v-2H71 M72,30H8v4h2c0,4.222,4.543,14,16,14c11.275,0,14-11.669,14-14c0,2.331,2.725,14,14,14    c11.457,0,16-9.778,16-14h2V30L72,30z"/>
	</g>
</g>
</svg>
