<?xml version="1.0"?>
<svg xmlns="http://www.w3.org/2000/svg" xmlns:xlink="http://www.w3.org/1999/xlink" version="1.1" viewBox="0 0 252 252" width="80px" height="80px"><g transform="translate(-5.04,-5.04) scale(1.04,1.04)"><g fill="none" fill-rule="nonzero" stroke="none" stroke-width="1" stroke-linecap="butt" stroke-linejoin="miter" stroke-miterlimit="10" stroke-dasharray="" stroke-dashoffset="0" font-family="none" font-weight="none" font-size="none" text-anchor="none" style="mix-blend-mode: normal"><path d="M0,252v-252h252v252z" fill="none"/><g id="&#x421;&#x43B;&#x43E;&#x439;_1"><g><path d="M231.525,230.3595c-60.42645,-34.1901 -194.9472,-36.477 -211.05,-36.62505v-110.25945h211.05z" fill="#bae0bd"/><path d="M229.95,85.05v142.64145c-60.77925,-32.6718 -185.8563,-35.31465 -207.9,-35.52255v-107.1189h15.16095h192.73905M233.1,81.9c0,0 -140.46795,0 -195.88905,0c-13.25205,0 -18.31095,0 -18.31095,0v113.4c0,0 151.2,0 214.2,37.8v-151.2z" fill="#5e9c76"/></g><g><path d="M237.825,199.6281c-76.84425,-17.2494 -207.80235,-18.41805 -223.65,-18.4968v-135.4563h223.65z" fill="#bae0bd"/><path d="M236.25,47.25v150.41565c-75.096,-16.40835 -199.1934,-17.955 -220.5,-18.0999v-132.31575h4.20525h216.29475M239.4,44.1c0,0 -174.0312,0 -219.44475,0c-6.678,0 -7.35525,0 -7.35525,0v138.6c0,0 144.9,0 226.8,18.9c0,-14.175 0,-157.5 0,-157.5z" fill="#5e9c76"/></g><g><rect x="2.5" y="10.5" transform="scale(3.15,3.15)" width="75" height="43" fill="#bae0bd"/><g fill="#5e9c76"><path d="M242.55,34.65v132.3h-233.1v-132.3h233.1M245.7,31.5h-239.4v138.6h239.4v-138.6z"/></g></g><g><path d="M126,149.625c-26.92305,0 -48.825,-21.90195 -48.825,-48.825c0,-26.92305 21.90195,-48.825 48.825,-48.825c26.92305,0 48.825,21.90195 48.825,48.825c0,26.92305 -21.90195,48.825 -48.825,48.825z" fill="#ffffff"/><g fill="#5e9c76"><path d="M126,53.55c26.05365,0 47.25,21.19635 47.25,47.25c0,26.05365 -21.19635,47.25 -47.25,47.25c-26.05365,0 -47.25,-21.19635 -47.25,-47.25c0,-26.05365 21.19635,-47.25 47.25,-47.25M126,50.4c-27.83655,0 -50.4,22.56345 -50.4,50.4c0,27.83655 22.56345,50.4 50.4,50.4c27.83655,0 50.4,-22.56345 50.4,-50.4c0,-27.83655 -22.56345,-50.4 -50.4,-50.4z"/></g></g><g><circle cx="66" cy="32" transform="scale(3.15,3.15)" r="5.5" fill="#ffffff"/><g fill="#5e9c76"><path d="M207.9,85.05c8.68455,0 15.75,7.06545 15.75,15.75c0,8.68455 -7.06545,15.75 -15.75,15.75c-8.68455,0 -15.75,-7.06545 -15.75,-15.75c0,-8.68455 7.06545,-15.75 15.75,-15.75M207.9,81.9c-10.4391,0 -18.9,8.4609 -18.9,18.9c0,10.4391 8.4609,18.9 18.9,18.9c10.4391,0 18.9,-8.4609 18.9,-18.9c0,-10.4391 -8.4609,-18.9 -18.9,-18.9z"/></g></g><g><circle cx="14" cy="32" transform="scale(3.15,3.15)" r="5.5" fill="#ffffff"/><g fill="#5e9c76"><path d="M44.1,85.05c8.68455,0 15.75,7.06545 15.75,15.75c0,8.68455 -7.06545,15.75 -15.75,15.75c-8.68455,0 -15.75,-7.06545 -15.75,-15.75c0,-8.68455 7.06545,-15.75 15.75,-15.75M44.1,81.9c-10.4391,0 -18.9,8.4609 -18.9,18.9c0,10.4391 8.4609,18.9 18.9,18.9c10.4391,0 18.9,-8.4609 18.9,-18.9c0,-10.4391 -8.4609,-18.9 -18.9,-18.9z"/></g></g></g></g></g></svg>
