<?xml version="1.0"?>
<svg xmlns="http://www.w3.org/2000/svg" xmlns:xlink="http://www.w3.org/1999/xlink" version="1.1" viewBox="0 0 252 252" width="80px" height="80px"><g transform="translate(-5.04,-5.04) scale(1.04,1.04)"><g fill="none" fill-rule="nonzero" stroke="none" stroke-width="1" stroke-linecap="butt" stroke-linejoin="miter" stroke-miterlimit="10" stroke-dasharray="" stroke-dashoffset="0" font-family="none" font-weight="none" font-size="none" text-anchor="none" style="mix-blend-mode: normal"><path d="M0,252v-252h252v252z" fill="none"/><g id="Layer_1"><g><path d="M110.25,48.825c-11.2896,0 -20.475,-9.1854 -20.475,-20.475c0,-11.2896 9.1854,-20.475 20.475,-20.475c11.2896,0 20.475,9.1854 20.475,20.475c0,11.2896 -9.1854,20.475 -20.475,20.475z" fill="#ffeea3"/><g fill="#ba9b48"><path d="M110.25315,9.45c10.4202,0 18.9,8.4798 18.9,18.9c0,10.4202 -8.4798,18.9 -18.9,18.9c-10.4202,0 -18.9,-8.4798 -18.9,-18.9c0,-10.4202 8.47665,-18.9 18.9,-18.9M110.25315,6.3c-12.1779,0 -22.05,9.8721 -22.05,22.05c0,12.1779 9.8721,22.05 22.05,22.05c12.1779,0 22.05,-9.8721 22.05,-22.05c0,-12.1779 -9.8721,-22.05 -22.05,-22.05z"/></g></g><g><path d="M215.775,159.34905v-43.78815l22.05,7.0875v13.7655l-18.9,-6.3v29.23515z" fill="#f78f8f"/><path d="M217.35315,117.7218l18.9,6.07635v10.4328l-14.7546,-4.91715l-4.1454,-1.38285v4.36905v25.47405v-40.05225M214.20315,113.4v47.52405h6.3v-28.62405l18.9,6.3v-17.10135l-25.2,-8.09865z" fill="#c74343"/></g><g><path d="M204.75,174.825c-7.81515,0 -14.175,-6.35985 -14.175,-14.175c0,-7.81515 6.35985,-14.175 14.175,-14.175c7.81515,0 14.175,6.35985 14.175,14.175c0,7.81515 -6.3567,14.175 -14.175,14.175z" fill="#f78f8f"/><path d="M204.75315,148.05c6.9489,0 12.6,5.6511 12.6,12.6c0,6.9489 -5.6511,12.6 -12.6,12.6c-6.9489,0 -12.6,-5.6511 -12.6,-12.6c0,-6.9489 5.6511,-12.6 12.6,-12.6M204.75315,144.9c-8.69715,0 -15.75,7.05285 -15.75,15.75c0,8.69715 7.05285,15.75 15.75,15.75c8.69715,0 15.75,-7.05285 15.75,-15.75c0,-8.69715 -7.05285,-15.75 -15.75,-15.75z" fill="#c74343"/></g><g fill="#93a8bc"><path d="M100.5795,245.7c-5.0904,0 -9.90675,-3.05235 -11.91015,-8.06715l-18.44955,-42.33285c-1.2663,-3.15945 -1.2222,-6.68745 0.11655,-9.8154l17.8668,-46.8846v-12.6h37.8l-29.99115,64.7073l16.47135,37.39995c2.63025,6.57405 -0.567,14.03955 -7.1442,16.6698c-1.5624,0.62685 -3.1752,0.92295 -4.75965,0.92295z"/></g><g><path d="M144.67635,237.825c-3.0051,0 -5.83065,-1.1718 -7.95375,-3.2949l-25.1055,-30.04785c-2.22075,-2.2302 -3.3894,-5.0526 -3.3894,-8.0577l-5.93145,-45.9585l-12.52125,-12.5181v-10.37295h40.95v64.09935l21.79485,26.8254c2.23335,2.2428 3.40515,5.06835 3.40515,8.07345c0,3.0051 -1.1718,5.83065 -3.2949,7.95375c-2.1231,2.12625 -4.94865,3.29805 -7.95375,3.29805z" fill="#e1ebf2"/><path d="M129.15,129.15v61.96365v1.11825l0.7056,0.8694l21.44205,26.39385l0.10395,0.126l0.11655,0.11655c1.827,1.827 2.835,4.25565 2.835,6.83865c0,2.583 -1.00485,5.0148 -2.835,6.8418c-1.827,1.827 -4.2588,2.835 -6.8418,2.835c-2.5389,0 -4.92975,-0.97335 -6.7473,-2.74365l-25.10235,-30.03525l-0.09135,-0.1071l-0.1008,-0.1008c-1.827,-1.827 -2.835,-4.2588 -2.835,-6.8418v-0.2016l-0.0252,-0.2016l-5.84955,-45.22455l-0.1386,-1.0647l-0.75915,-0.75915l-11.67705,-11.67705v-8.1459h37.8M132.3,126h-44.1c0,0 0,5.51565 0,12.6l12.6,12.6l5.84955,45.22455c0,3.402 1.35135,6.66225 3.75795,9.06885l25.2,30.14865c2.5074,2.50425 5.78655,3.75795 9.06885,3.75795c3.2823,0 6.56145,-1.2537 9.06885,-3.75795c5.0085,-5.00535 5.0085,-13.1292 0,-18.13455l-21.44205,-26.39385l-0.00315,-65.11365z" fill="#93a8bc"/></g><g><path d="M89.775,137.025v-50.4h-2.583l-22.68,21.95235c-2.0979,2.1042 -4.86045,3.25395 -7.80885,3.25395c-1.9971,0 -3.95955,-0.54495 -5.6763,-1.575l-31.5063,-18.9c-2.5263,-1.51515 -4.3092,-3.92175 -5.02425,-6.7788c-0.71505,-2.85705 -0.2709,-5.8212 1.24425,-8.34435c2.0097,-3.3516 5.54715,-5.355 9.4626,-5.355c1.98765,0 3.9438,0.54495 5.66055,1.575l24.12585,14.4711l25.4142,-25.4142c2.05695,-2.05695 4.89825,-3.23505 7.79625,-3.23505h44.1c2.90115,0 5.74245,1.1781 7.79625,3.22875l25.4142,25.41105l24.11955,-14.46795c1.7136,-1.03005 3.6729,-1.575 5.6574,-1.575c3.91545,0 7.4529,2.0034 9.46575,5.355c1.51515,2.52315 1.95615,5.4873 1.24425,8.34435c-0.71505,2.85705 -2.49795,5.26365 -5.02425,6.7788l-31.5,18.9c-1.71045,1.03005 -3.6729,1.57185 -5.66685,1.57185c-2.9484,0 -5.71725,-1.1466 -7.79625,-3.22875l-22.7241,-21.9681h-2.56095v50.4z" fill="#ffeea3"/><path d="M132.30315,59.85c2.48535,0 4.9203,1.008 6.68115,2.76885l24.5448,24.54165l1.7388,1.7388l2.10735,-1.2663l23.06745,-13.83795c1.4679,-0.87885 3.1437,-1.34505 4.84785,-1.34505c3.3579,0 6.39135,1.71675 8.1144,4.58955c1.2978,2.16405 1.6758,4.70295 1.0647,7.1505c-0.6111,2.44755 -2.142,4.51395 -4.30605,5.81175l-31.50315,18.9c-1.46475,0.882 -3.1437,1.3482 -4.85415,1.3482c-2.5263,0 -4.9014,-0.9828 -6.7221,-2.80665l-22.2453,-21.5082l-0.91665,-0.88515h-1.27575h-0.3465h-3.15v3.15v47.25h-37.8v-47.25v-3.15h-3.15h-0.3717h-1.27575l-0.91665,0.88515l-22.26105,21.54915c-1.7766,1.78605 -4.1454,2.76885 -6.6717,2.76885c-1.71045,0 -3.39255,-0.4662 -4.86675,-1.35135l-31.5063,-18.9c-2.16405,-1.2978 -3.6918,-3.36105 -4.30605,-5.8086c-0.6111,-2.44755 -0.2331,-4.9896 1.0647,-7.15365c1.72935,-2.87595 4.75965,-4.58955 8.11755,-4.58955c1.70415,0 3.37995,0.4662 4.851,1.3482l23.0706,13.8411l2.10735,1.2663l1.7388,-1.7388l24.5448,-24.5448c1.76085,-1.764 4.1958,-2.772 6.6843,-2.772h44.1M132.30315,56.7h-44.1c-3.34215,0 -6.5457,1.3293 -8.9082,3.6918l-24.5448,24.5448l-23.0706,-13.8411c-2.03175,-1.2159 -4.26825,-1.7955 -6.47325,-1.7955c-4.28085,0 -8.45145,2.18295 -10.81395,6.12045c-3.58155,5.96925 -1.6443,13.7088 4.3218,17.28405l31.5063,18.9c2.016,1.2096 4.2588,1.8018 6.48585,1.8018c3.2571,0 6.47955,-1.26315 8.9019,-3.69495l22.22325,-21.51135h0.3717v50.4h44.1v-50.4h0.3465l22.2453,21.5082c2.4255,2.4318 5.6511,3.6918 8.91135,3.6918c2.22705,0 4.4667,-0.58905 6.47955,-1.7955l31.5,-18.9c5.96925,-3.58155 7.90335,-11.3211 4.3218,-17.28405c-2.36565,-3.94065 -6.5394,-6.12045 -10.8171,-6.12045c-2.205,0 -4.4415,0.5796 -6.4701,1.79865l-23.0643,13.83795l-24.5448,-24.54165c-2.3625,-2.36565 -5.5692,-3.69495 -8.9082,-3.69495z" fill="#ba9b48"/></g><g><path d="M89.775,137.025v-50.4h-2.583l-5.55975,5.3802l-15.86655,-15.86655l14.6349,-14.6349c2.0601,-2.05065 4.9014,-3.22875 7.7994,-3.22875h44.1c2.90115,0 5.74245,1.1781 7.79625,3.22875l14.63805,14.6349l-15.876,15.876l-5.5755,-5.38965h-2.5578v50.4z" fill="#dcd5f2"/><g fill="#8b75a1"><path d="M132.30315,59.85c2.48535,0 4.9203,1.008 6.68115,2.76885l13.52295,13.52295l-13.6647,13.6647l-4.00365,-3.87135l-0.91665,-0.88515h-1.27575h-0.3465h-3.15v3.15v47.25h-37.8v-47.25v-3.15h-3.15h-0.3717h-1.27575l-0.91665,0.88515l-3.9879,3.85875l-13.65525,-13.65525l13.52295,-13.52295c1.764,-1.7577 4.19895,-2.7657 6.68745,-2.7657h44.1M132.30315,56.7h-44.1c-3.34215,0 -6.5457,1.3293 -8.9082,3.6918l-15.75,15.75l18.0747,18.0747l6.2118,-6.0165h0.3717v50.4h44.1v-50.4h0.3465l6.2307,6.0228l18.08415,-18.08415l-15.75,-15.75c-2.36565,-2.35935 -5.57235,-3.68865 -8.91135,-3.68865z"/></g></g></g></g></g></svg>
