<?xml version="1.0" encoding="iso-8859-1"?>
<!-- Generator: Adobe Illustrator 19.1.1, SVG Export Plug-In . SVG Version: 6.00 Build 0)  -->
<svg xmlns="http://www.w3.org/2000/svg" xmlns:xlink="http://www.w3.org/1999/xlink" version="1.1" id="Layer_1" x="0px" y="0px" viewBox="0 0 80 80" style="enable-background:new 0 0 80 80;" xml:space="preserve" width="80px" height="80px">
<g>
	<path style="fill:#FFEEA3;" d="M39.98,77.5c-20.478,0-36.935-16.044-37.467-36.525c-0.261-10.013,3.394-19.528,10.29-26.792   C19.699,6.917,29.012,2.773,39.025,2.513C39.356,2.504,39.69,2.5,40.02,2.5c20.478,0,36.935,16.044,37.467,36.525   c0.261,10.013-3.394,19.528-10.29,26.792c-6.896,7.265-16.208,11.409-26.222,11.669C40.644,77.496,40.31,77.5,39.98,77.5z"/>
	<path style="fill:#C29653;" d="M40.022,2v1h0C49.7,3,58.857,6.722,65.804,13.482c6.959,6.771,10.931,15.847,11.184,25.556   c0.53,20.395-15.63,37.419-36.025,37.949C40.635,76.996,40.306,77,39.981,77c-9.68,0-18.836-3.722-25.784-10.481   C7.237,59.748,3.265,50.672,3.013,40.962C2.482,20.567,18.643,3.543,39.038,3.013C39.365,3.004,39.694,3,40.019,3L40.022,2    M40.019,2c-0.334,0-0.671,0.004-1.007,0.013C18.032,2.559,1.467,20.008,2.013,40.988C2.55,61.632,19.452,78,39.981,78   c0.334,0,0.671-0.004,1.007-0.013c20.98-0.546,37.545-17.995,36.999-38.975C77.45,18.368,60.548,1.998,40.019,2L40.019,2z"/>
</g>
<path style="fill:none;stroke:#C29653;stroke-miterlimit:10;" d="M60.357,53.357c0,0-6.786,8.143-20.357,8.143  s-20.357-8.143-20.357-8.143"/>
<g>
	<path style="fill:#FFFFFF;" d="M54,41.5c-4.136,0-7.5-3.364-7.5-7.5s3.364-7.5,7.5-7.5s7.5,3.364,7.5,7.5S58.136,41.5,54,41.5z"/>
	<g>
		<path style="fill:#C29653;" d="M54,27c3.86,0,7,3.14,7,7s-3.14,7-7,7s-7-3.14-7-7S50.14,27,54,27 M54,26c-4.418,0-8,3.582-8,8    s3.582,8,8,8s8-3.582,8-8S58.418,26,54,26L54,26z"/>
	</g>
</g>
<circle style="fill:#36404D;" cx="54" cy="34" r="3"/>
<g>
	<path style="fill:#FFFFFF;" d="M26,41.5c-4.136,0-7.5-3.364-7.5-7.5s3.364-7.5,7.5-7.5s7.5,3.364,7.5,7.5S30.136,41.5,26,41.5z"/>
	<g>
		<path style="fill:#C29653;" d="M26,27c3.86,0,7,3.14,7,7s-3.14,7-7,7s-7-3.14-7-7S22.14,27,26,27 M26,26c-4.418,0-8,3.582-8,8    s3.582,8,8,8s8-3.582,8-8S30.418,26,26,26L26,26z"/>
	</g>
</g>
<circle style="fill:#36404D;" cx="26" cy="34" r="3"/>
</svg>
