<?xml version="1.0"?>
<svg xmlns="http://www.w3.org/2000/svg" xmlns:xlink="http://www.w3.org/1999/xlink" version="1.1" viewBox="0 0 252 252" width="80px" height="80px"><g transform="translate(-23.94,-23.94) scale(1.19,1.19)"><g fill="none" fill-rule="nonzero" stroke="none" stroke-width="none" stroke-linecap="butt" stroke-linejoin="miter" stroke-miterlimit="10" stroke-dasharray="" stroke-dashoffset="0" font-family="none" font-weight="none" font-size="none" text-anchor="none" style="mix-blend-mode: normal"><path d="M0,252v-252h252v252z" fill="none" stroke="none" stroke-width="1"/><g id="Layer_1"><path d="M231,126c0,57.981 -47.019,105 -105,105c-57.981,0 -105,-47.019 -105,-105c0,-57.981 47.019,-105 105,-105c57.981,0 105,47.019 105,105z" fill="#ffca28" stroke="none" stroke-width="1"/><path d="M110.25,120.75c0,11.60775 -9.39225,21 -21,21c-11.60775,0 -21,-9.39225 -21,-21c0,-11.60775 9.39225,-21 21,-21c11.60775,0 21,9.39225 21,21z" fill="#6d4c41" stroke="none" stroke-width="1"/><path d="M89.25,112.875c0,4.347 -3.528,7.875 -7.875,7.875c-4.347,0 -7.875,-3.528 -7.875,-7.875c0,-4.347 3.528,-7.875 7.875,-7.875c4.347,0 7.875,3.528 7.875,7.875z" fill="#ffffff" stroke="none" stroke-width="1"/><path d="M183.75,120.75c0,11.60775 -9.39225,21 -21,21c-11.60775,0 -21,-9.39225 -21,-21c0,-11.60775 9.39225,-21 21,-21c11.60775,0 21,9.39225 21,21z" fill="#6d4c41" stroke="none" stroke-width="1"/><path d="M162.75,112.875c0,4.347 -3.528,7.875 -7.875,7.875c-4.347,0 -7.875,-3.528 -7.875,-7.875c0,-4.347 3.528,-7.875 7.875,-7.875c4.347,0 7.875,3.528 7.875,7.875z" fill="#ffffff" stroke="none" stroke-width="1"/><path d="M147,168c0,11.60775 -9.39225,21 -21,21c-11.60775,0 -21,-9.39225 -21,-21" fill="none" stroke="#b76c09" stroke-width="10.5"/></g></g></g></svg>
