<?xml version="1.0"?>
<svg xmlns="http://www.w3.org/2000/svg" xmlns:xlink="http://www.w3.org/1999/xlink" version="1.1" viewBox="0 0 252 252" width="80px" height="80px"><g transform="translate(-6.3,-6.3) scale(1.05,1.05)"><g fill="none" fill-rule="nonzero" stroke="none" stroke-width="1" stroke-linecap="butt" stroke-linejoin="miter" stroke-miterlimit="10" stroke-dasharray="" stroke-dashoffset="0" font-family="none" font-weight="none" font-size="none" text-anchor="none" style="mix-blend-mode: normal"><path d="M0,252v-252h252v252z" fill="none"/><g><g id="surface1"><path d="M31.13086,131.45508c0,0 42.30761,-57.95508 94.52051,-57.95508c52.21289,0 94.47949,57.95508 94.47949,57.95508c0,0 -42.26661,57.54492 -94.47949,57.54492c-52.21289,0 -94.52051,-57.54492 -94.52051,-57.54492z" fill="#ffffff"/><path d="M125.65137,73.5c52.21289,0 94.47949,57.95508 94.47949,57.95508c0,0 -42.26661,57.54492 -94.47949,57.54492c-52.21289,0 -94.52051,-57.54492 -94.52051,-57.54492c0,0 42.30761,-57.95508 94.52051,-57.95508M125.65137,63c-56.88867,0 -101.14453,59.73926 -103.01074,62.28223l-4.53223,6.21387l4.55273,6.19336c1.86621,2.52246 46.12207,61.81054 102.99024,61.81054c56.86816,0 101.08301,-59.28809 102.92871,-61.81054l4.55273,-6.19336l-4.51172,-6.21387c-1.86621,-2.54297 -46.08106,-62.28223 -102.96973,-62.28223z" fill="#cfd8dc"/><path d="M78.40137,131.20899c0,-26.08594 21.18457,-47.20899 47.25,-47.20899c26.08594,0 47.25,21.12305 47.25,47.20899c0,26.14746 -21.16406,47.29101 -47.25,47.29101c-26.06543,0 -47.25,-21.14356 -47.25,-47.29101z" fill="#00acc1"/><path d="M104.65137,131.25c0,-11.62793 9.39258,-21 21,-21c11.58691,0 21,9.37207 21,21c0,11.64844 -9.41309,21 -21,21c-11.60742,0 -21,-9.35156 -21,-21z" fill="#006064"/><path d="M31.29492,131.25c2.74804,-3.6709 43.92773,-57.54492 94.35644,-57.54492c50.42871,0 91.56738,53.87402 94.31543,57.54492h26.02441l-8.9209,-12.18164c-1.98926,-2.72754 -49.28027,-66.36328 -111.41894,-66.36328c-62.13867,0 -109.47071,63.63574 -111.45996,66.34277l-8.94141,12.20215z" fill="#90a4ae"/></g></g></g></g></svg>
