<?xml version="1.0"?>
<svg xmlns="http://www.w3.org/2000/svg" xmlns:xlink="http://www.w3.org/1999/xlink" version="1.1" viewBox="0 0 252 252" width="80px" height="80px"><g transform="translate(-5.04,-5.04) scale(1.04,1.04)"><g fill="none" fill-rule="nonzero" stroke="none" stroke-width="1" stroke-linecap="butt" stroke-linejoin="miter" stroke-miterlimit="10" stroke-dasharray="" stroke-dashoffset="0" font-family="none" font-weight="none" font-size="none" text-anchor="none" style="mix-blend-mode: normal"><path d="M0,252v-252h252v252z" fill="none"/><g id="Layer_1"><g><g fill="#f78f8f"><path d="M126,122.976c-6.7032,-11.07855 -36.225,-60.88635 -36.225,-78.876c0,-19.97415 16.25085,-36.225 36.225,-36.225c19.97415,0 36.225,16.25085 36.225,36.225c0,17.9928 -29.5218,67.8006 -36.225,78.876z"/></g><g fill="#c74343"><path d="M126,9.45c19.10475,0 34.65,15.54525 34.65,34.65c0,16.5942 -26.0946,61.53525 -34.65,75.8205c-8.5554,-14.28525 -34.65,-59.2263 -34.65,-75.8205c0,-19.10475 15.54525,-34.65 34.65,-34.65M126,6.3c-20.87505,0 -37.8,16.92495 -37.8,37.8c0,20.87505 37.8,81.9 37.8,81.9c0,0 37.8,-61.02495 37.8,-81.9c0,-20.87505 -16.92495,-37.8 -37.8,-37.8z"/></g></g><path d="M132.3,69.3c0,3.4776 -6.3,25.2 -6.3,25.2c0,0 -6.3,-21.7224 -6.3,-25.2c0,-3.4776 2.8224,-6.3 6.3,-6.3c3.4776,0 6.3,2.8224 6.3,6.3z" fill="#c74343"/><g><g fill="#f78f8f"><path d="M126,244.125c-19.97415,0 -36.225,-16.25085 -36.225,-36.225c0,-17.9928 29.5218,-67.8006 36.225,-78.876c6.7032,11.07855 36.225,60.88635 36.225,78.876c0,19.97415 -16.25085,36.225 -36.225,36.225z"/></g><g fill="#c74343"><path d="M126,132.0795c8.5554,14.28525 34.65,59.2263 34.65,75.8205c0,19.10475 -15.54525,34.65 -34.65,34.65c-19.10475,0 -34.65,-15.54525 -34.65,-34.65c0,-16.5942 26.0946,-61.53525 34.65,-75.8205M126,126c0,0 -37.8,61.02495 -37.8,81.9c0,20.87505 16.92495,37.8 37.8,37.8c20.87505,0 37.8,-16.92495 37.8,-37.8c0,-20.87505 -37.8,-81.9 -37.8,-81.9z"/></g></g><path d="M119.7,182.7c0,-3.4776 6.3,-25.2 6.3,-25.2c0,0 6.3,21.7224 6.3,25.2c0,3.4776 -2.8224,6.3 -6.3,6.3c-3.4776,0 -6.3,-2.8224 -6.3,-6.3z" fill="#c74343"/><g><g fill="#f78f8f"><path d="M110.12715,124.62345c-22.02165,0 -60.8076,-1.06785 -73.1682,-8.2026c-17.29665,-9.9918 -23.247,-32.18985 -13.2615,-49.4865c6.45435,-11.1762 18.48735,-18.1188 31.4118,-18.1188c6.3189,0 12.5685,1.67895 18.0747,4.8573c15.58305,8.99955 43.95825,59.4783 50.1984,70.812c-2.71845,0.063 -7.4214,0.1386 -13.2552,0.1386z"/></g><g fill="#c74343"><path d="M55.10925,50.3937c6.04485,0 12.02355,1.6065 17.29035,4.6494c14.3703,8.2971 40.2444,53.37045 48.3399,67.9203c-2.71215,0.0441 -6.3567,0.08505 -10.6092,0.08505c-37.20465,0 -63.5859,-2.91375 -72.3807,-7.99155c-8.01675,-4.62735 -13.74975,-12.09915 -16.14375,-21.03885c-2.394,-8.9397 -1.1655,-18.2763 3.46185,-26.29305c6.1677,-10.6911 17.68095,-17.3313 30.04155,-17.3313M55.10925,47.2437c-13.06305,0 -25.77015,6.7788 -32.7726,18.9063c-10.4391,18.081 -4.24305,41.19885 13.8348,51.6348c12.6756,7.31745 51.7419,8.41365 73.9557,8.41365c9.4689,0 15.87285,-0.19845 15.87285,-0.19845c0,0 -33.94755,-63.24885 -52.02855,-73.6848c-5.95035,-3.43665 -12.45195,-5.0715 -18.8622,-5.0715z"/></g></g><path d="M80.0478,92.1942c3.0114,1.7388 18.6732,18.0558 18.6732,18.0558c0,0 -21.9618,-5.4054 -24.9732,-7.1442c-3.0114,-1.7388 -4.0446,-5.5944 -2.3058,-8.6058c1.7388,-3.0114 5.59125,-4.0446 8.6058,-2.3058z" fill="#c74343"/><g><g fill="#f78f8f"><path d="M196.89075,203.1813c-6.3189,0 -12.5685,-1.67895 -18.0747,-4.8573c-15.58305,-8.99955 -43.95825,-59.4783 -50.1984,-70.812c2.71845,-0.05985 7.41825,-0.13545 13.2552,-0.13545c22.02165,0 60.8076,1.06785 73.1682,8.2026c17.29665,9.9918 23.247,32.18985 13.2615,49.4865c-6.45435,11.17305 -18.4905,18.11565 -31.4118,18.11565z"/></g><g fill="#c74343"><path d="M141.87285,128.95155c37.2015,0 63.5859,2.91375 72.3807,7.99155c8.01675,4.62735 13.74975,12.09915 16.14375,21.03885c2.394,8.9397 1.1655,18.2763 -3.46185,26.29305c-6.17085,10.6911 -17.6841,17.3313 -30.04155,17.3313c-6.04485,0 -12.02355,-1.6065 -17.29035,-4.6494c-14.3703,-8.2971 -40.2444,-53.37045 -48.3399,-67.9203c2.71215,-0.0441 6.3567,-0.08505 10.6092,-0.08505M141.87285,125.80155c-9.4689,0 -15.87285,0.19845 -15.87285,0.19845c0,0 33.94755,63.24885 52.02855,73.6848c5.9535,3.43665 12.45195,5.0715 18.86535,5.0715c13.06305,0 25.77015,-6.7788 32.76945,-18.9063c10.4391,-18.081 4.24305,-41.19885 -13.8348,-51.6348c-12.67875,-7.3206 -51.7419,-8.41365 -73.9557,-8.41365z"/></g></g><path d="M171.9522,159.8058c-3.0114,-1.7388 -18.6732,-18.0558 -18.6732,-18.0558c0,0 21.9618,5.4054 24.9732,7.1442c3.0114,1.7388 4.0446,5.5944 2.3058,8.6058c-1.7388,3.0114 -5.59125,4.0446 -8.6058,2.3058z" fill="#c74343"/><g><g fill="#f78f8f"><path d="M55.10925,203.1813c-12.92445,0 -24.95745,-6.9426 -31.4118,-18.1188c-9.9855,-17.29665 -4.03515,-39.4947 13.2615,-49.4865c12.3606,-7.13475 51.1434,-8.2026 73.1682,-8.2026c5.8338,0 10.53675,0.0756 13.2552,0.13545c-6.237,11.33685 -34.61535,61.8156 -50.1984,70.812c-5.5062,3.1815 -11.7558,4.86045 -18.0747,4.86045z"/></g><g fill="#c74343"><path d="M110.12715,128.95155c4.24935,0 7.89705,0.04095 10.6092,0.08505c-8.0955,14.553 -33.9696,59.6232 -48.3399,67.9203c-5.2668,3.03975 -11.2455,4.6494 -17.29035,4.6494c-12.3606,0 -23.8707,-6.6402 -30.04155,-17.3313c-4.62735,-8.01675 -5.85585,-17.35335 -3.46185,-26.29305c2.394,-8.9397 8.13015,-16.4115 16.14375,-21.03885c8.79795,-5.0778 35.1792,-7.99155 72.3807,-7.99155M110.12715,125.80155c-22.2138,0 -61.27695,1.09305 -73.9557,8.41365c-18.07785,10.43595 -24.2739,33.5538 -13.8348,51.6348c7.00245,12.1275 19.7064,18.9063 32.76945,18.9063c6.4134,0 12.91185,-1.63485 18.86535,-5.0715c18.081,-10.43595 52.02855,-73.6848 52.02855,-73.6848c0,0 -6.4071,-0.19845 -15.87285,-0.19845z"/></g></g><path d="M73.7478,148.8942c3.0114,-1.7388 24.9732,-7.1442 24.9732,-7.1442c0,0 -15.6618,16.317 -18.6732,18.0558c-3.0114,1.7388 -6.867,0.7056 -8.6058,-2.3058c-1.74195,-3.0114 -0.70875,-6.867 2.3058,-8.6058z" fill="#c74343"/><g><g fill="#f78f8f"><path d="M141.87285,124.62345c-5.8338,0 -10.53675,-0.0756 -13.2552,-0.13545c6.237,-11.33685 34.61535,-61.8156 50.1984,-70.812c5.5062,-3.17835 11.7558,-4.8573 18.0747,-4.8573c12.92445,0 24.95745,6.9426 31.4118,18.1188c9.9855,17.29665 4.03515,39.4947 -13.2615,49.4865c-12.3606,7.13475 -51.14025,8.2026 -73.1619,8.2026c-0.00315,-0.00315 -0.00315,-0.00315 -0.0063,-0.00315z"/></g><g fill="#c74343"><path d="M196.89075,50.3937c12.3606,0 23.8707,6.6402 30.04155,17.3313c4.62735,8.01675 5.85585,17.35335 3.46185,26.29305c-2.394,8.9397 -8.13015,16.4115 -16.14375,21.03885c-8.7948,5.0778 -35.1792,7.99155 -72.3807,7.99155c-4.2588,0 -7.90965,-0.04095 -10.62495,-0.08505c10.9998,-19.8639 35.2611,-60.3603 48.35565,-67.9203c5.26995,-3.0429 11.24865,-4.6494 17.29035,-4.6494M196.89075,47.2437c-6.4134,0 -12.91185,1.63485 -18.86535,5.0715c-18.07785,10.43595 -52.0254,73.6848 -52.0254,73.6848c0,0 6.4071,0.19845 15.8697,0.19845c22.2138,0 61.2801,-1.09305 73.9557,-8.41365c18.081,-10.4391 24.2739,-33.55695 13.8348,-51.6348c-6.9993,-12.1275 -19.7064,-18.9063 -32.76945,-18.9063z"/></g></g><path d="M178.2522,103.1058c-3.0114,1.7388 -24.9732,7.1442 -24.9732,7.1442c0,0 15.6618,-16.317 18.6732,-18.0558c3.0114,-1.7388 6.867,-0.7056 8.6058,2.3058c1.74195,3.0114 0.70875,6.867 -2.3058,8.6058z" fill="#c74343"/><g fill="#ffeea3"><circle cx="40" cy="40" transform="scale(3.15,3.15)" r="12"/></g></g></g></g></svg>
