<?xml version="1.0" encoding="UTF-8"?>
<svg xmlns="http://www.w3.org/2000/svg" xmlns:xlink="http://www.w3.org/1999/xlink" viewBox="0 0 64 64" version="1.1" width="80px" height="80px">
<g id="surface1">
<path style=" fill:#FAEFDE;" d="M 3 11 L 61 11 C 62.105469 11 63 11.894531 63 13 L 63 51 C 63 52.105469 62.105469 53 61 53 L 3 53 C 1.894531 53 1 52.105469 1 51 L 1 13 C 1 11.894531 1.894531 11 3 11 Z "/>
<path style=" fill:#ED7899;" d="M 1 16 L 63 16 L 63 20 L 1 20 Z "/>
<path style=" fill:#ED7899;" d="M 1 24 L 63 24 L 63 28 L 1 28 Z "/>
<path style=" fill:#ED7899;" d="M 1 32 L 63 32 L 63 36 L 1 36 Z "/>
<path style=" fill:#ED7899;" d="M 1 40 L 63 40 L 63 44 L 1 44 Z "/>
<path style=" fill:#ED7899;" d="M 1 48 L 63 48 L 63 52 L 1 52 Z "/>
<path style=" fill:#85CBF8;" d="M 31 11 L 31 35 L 1 35 L 1 14 C 1 12.34375 2.34375 11 4 11 Z "/>
<path style=" fill:#FAEFDE;" d="M 4.769531 17.078125 L 4.578125 17.890625 C 4.535156 18.089844 4.613281 18.292969 4.78125 18.410156 C 4.949219 18.527344 5.167969 18.53125 5.339844 18.421875 L 6 18 L 6.648438 18.429688 C 6.820313 18.539063 7.042969 18.539063 7.207031 18.421875 C 7.375 18.304688 7.453125 18.097656 7.410156 17.898438 L 7.21875 17.089844 L 7.828125 16.53125 C 7.976563 16.398438 8.03125 16.1875 7.96875 16 C 7.90625 15.8125 7.738281 15.675781 7.539063 15.660156 L 6.75 15.578125 L 6.460938 14.828125 C 6.371094 14.652344 6.191406 14.542969 5.996094 14.542969 C 5.796875 14.542969 5.617188 14.652344 5.53125 14.828125 L 5.238281 15.578125 L 4.449219 15.660156 C 4.25 15.675781 4.082031 15.8125 4.019531 16 C 3.957031 16.1875 4.011719 16.398438 4.160156 16.53125 Z "/>
<path style=" fill:#FAEFDE;" d="M 12.769531 17.078125 L 12.578125 17.890625 C 12.535156 18.089844 12.613281 18.292969 12.78125 18.410156 C 12.949219 18.527344 13.167969 18.53125 13.339844 18.421875 L 14 18 L 14.648438 18.429688 C 14.820313 18.539063 15.042969 18.539063 15.207031 18.421875 C 15.375 18.304688 15.453125 18.097656 15.410156 17.898438 L 15.21875 17.089844 L 15.828125 16.53125 C 15.976563 16.398438 16.03125 16.1875 15.96875 16 C 15.90625 15.8125 15.738281 15.675781 15.539063 15.660156 L 14.75 15.578125 L 14.460938 14.828125 C 14.371094 14.652344 14.191406 14.542969 13.996094 14.542969 C 13.796875 14.542969 13.617188 14.652344 13.53125 14.828125 L 13.238281 15.578125 L 12.449219 15.660156 C 12.25 15.675781 12.082031 15.8125 12.019531 16 C 11.957031 16.1875 12.011719 16.398438 12.160156 16.53125 Z "/>
<path style=" fill:#FAEFDE;" d="M 20.769531 17.078125 L 20.578125 17.890625 C 20.535156 18.089844 20.613281 18.292969 20.78125 18.410156 C 20.949219 18.527344 21.167969 18.53125 21.339844 18.421875 L 22 18 L 22.648438 18.429688 C 22.820313 18.539063 23.042969 18.539063 23.207031 18.421875 C 23.375 18.304688 23.453125 18.097656 23.410156 17.898438 L 23.21875 17.089844 L 23.828125 16.53125 C 23.976563 16.398438 24.03125 16.1875 23.96875 16 C 23.90625 15.8125 23.738281 15.675781 23.539063 15.660156 L 22.75 15.578125 L 22.460938 14.828125 C 22.371094 14.652344 22.191406 14.542969 21.996094 14.542969 C 21.796875 14.542969 21.617188 14.652344 21.53125 14.828125 L 21.238281 15.578125 L 20.449219 15.660156 C 20.25 15.675781 20.082031 15.8125 20.019531 16 C 19.957031 16.1875 20.011719 16.398438 20.160156 16.53125 Z "/>
<path style=" fill:#FAEFDE;" d="M 4.769531 29.078125 L 4.578125 29.890625 C 4.535156 30.089844 4.613281 30.292969 4.78125 30.410156 C 4.949219 30.527344 5.167969 30.53125 5.339844 30.421875 L 6 30 L 6.648438 30.429688 C 6.820313 30.539063 7.042969 30.539063 7.207031 30.421875 C 7.375 30.304688 7.453125 30.097656 7.410156 29.898438 L 7.21875 29.089844 L 7.828125 28.53125 C 7.976563 28.398438 8.03125 28.1875 7.96875 28 C 7.90625 27.8125 7.738281 27.675781 7.539063 27.660156 L 6.75 27.578125 L 6.460938 26.828125 C 6.371094 26.652344 6.191406 26.542969 5.996094 26.542969 C 5.796875 26.542969 5.617188 26.652344 5.53125 26.828125 L 5.238281 27.578125 L 4.449219 27.660156 C 4.25 27.675781 4.082031 27.8125 4.019531 28 C 3.957031 28.1875 4.011719 28.398438 4.160156 28.53125 Z "/>
<path style=" fill:#FAEFDE;" d="M 12.769531 29.078125 L 12.578125 29.890625 C 12.535156 30.089844 12.613281 30.292969 12.78125 30.410156 C 12.949219 30.527344 13.167969 30.53125 13.339844 30.421875 L 14 30 L 14.648438 30.429688 C 14.820313 30.539063 15.042969 30.539063 15.207031 30.421875 C 15.375 30.304688 15.453125 30.097656 15.410156 29.898438 L 15.21875 29.089844 L 15.828125 28.53125 C 15.976563 28.398438 16.03125 28.1875 15.96875 28 C 15.90625 27.8125 15.738281 27.675781 15.539063 27.660156 L 14.75 27.578125 L 14.460938 26.828125 C 14.371094 26.652344 14.191406 26.542969 13.996094 26.542969 C 13.796875 26.542969 13.617188 26.652344 13.53125 26.828125 L 13.238281 27.578125 L 12.449219 27.660156 C 12.25 27.675781 12.082031 27.8125 12.019531 28 C 11.957031 28.1875 12.011719 28.398438 12.160156 28.53125 Z "/>
<path style=" fill:#FAEFDE;" d="M 20.769531 29.078125 L 20.578125 29.890625 C 20.535156 30.089844 20.613281 30.292969 20.78125 30.410156 C 20.949219 30.527344 21.167969 30.53125 21.339844 30.421875 L 22 30 L 22.648438 30.429688 C 22.820313 30.539063 23.042969 30.539063 23.207031 30.421875 C 23.375 30.304688 23.453125 30.097656 23.410156 29.898438 L 23.21875 29.089844 L 23.828125 28.53125 C 23.976563 28.398438 24.03125 28.1875 23.96875 28 C 23.90625 27.8125 23.738281 27.675781 23.539063 27.660156 L 22.75 27.578125 L 22.460938 26.828125 C 22.371094 26.652344 22.191406 26.542969 21.996094 26.542969 C 21.796875 26.542969 21.617188 26.652344 21.53125 26.828125 L 21.238281 27.578125 L 20.449219 27.660156 C 20.25 27.675781 20.082031 27.8125 20.019531 28 C 19.957031 28.1875 20.011719 28.398438 20.160156 28.53125 Z "/>
<path style=" fill:#FAEFDE;" d="M 8.769531 23.078125 L 8.578125 23.890625 C 8.535156 24.089844 8.613281 24.292969 8.78125 24.410156 C 8.949219 24.527344 9.167969 24.53125 9.339844 24.421875 L 10 24 L 10.648438 24.429688 C 10.820313 24.539063 11.042969 24.539063 11.207031 24.421875 C 11.375 24.304688 11.453125 24.097656 11.410156 23.898438 L 11.21875 23.089844 L 11.828125 22.53125 C 11.976563 22.398438 12.03125 22.1875 11.96875 22 C 11.90625 21.8125 11.738281 21.675781 11.539063 21.660156 L 10.75 21.578125 L 10.460938 20.828125 C 10.371094 20.652344 10.191406 20.542969 9.996094 20.542969 C 9.796875 20.542969 9.617188 20.652344 9.53125 20.828125 L 9.238281 21.578125 L 8.449219 21.660156 C 8.25 21.675781 8.082031 21.8125 8.019531 22 C 7.957031 22.1875 8.011719 22.398438 8.160156 22.53125 Z "/>
<path style=" fill:#FAEFDE;" d="M 16.769531 23.078125 L 16.578125 23.890625 C 16.535156 24.089844 16.613281 24.292969 16.78125 24.410156 C 16.949219 24.527344 17.167969 24.53125 17.339844 24.421875 L 18 24 L 18.648438 24.429688 C 18.820313 24.539063 19.042969 24.539063 19.207031 24.421875 C 19.375 24.304688 19.453125 24.097656 19.410156 23.898438 L 19.21875 23.089844 L 19.828125 22.53125 C 19.976563 22.398438 20.03125 22.1875 19.96875 22 C 19.90625 21.8125 19.738281 21.675781 19.539063 21.660156 L 18.75 21.578125 L 18.460938 20.828125 C 18.371094 20.652344 18.191406 20.542969 17.996094 20.542969 C 17.796875 20.542969 17.617188 20.652344 17.53125 20.828125 L 17.238281 21.578125 L 16.449219 21.660156 C 16.25 21.675781 16.082031 21.8125 16.019531 22 C 15.957031 22.1875 16.011719 22.398438 16.160156 22.53125 Z "/>
<path style=" fill:#FAEFDE;" d="M 24.769531 23.078125 L 24.578125 23.890625 C 24.535156 24.089844 24.613281 24.292969 24.78125 24.410156 C 24.949219 24.527344 25.167969 24.53125 25.339844 24.421875 L 26 24 L 26.648438 24.429688 C 26.820313 24.539063 27.042969 24.539063 27.207031 24.421875 C 27.375 24.304688 27.453125 24.097656 27.410156 23.898438 L 27.21875 23.089844 L 27.828125 22.53125 C 27.976563 22.398438 28.03125 22.1875 27.96875 22 C 27.90625 21.8125 27.738281 21.675781 27.539063 21.660156 L 26.75 21.578125 L 26.460938 20.828125 C 26.371094 20.652344 26.191406 20.542969 25.996094 20.542969 C 25.796875 20.542969 25.617188 20.652344 25.53125 20.828125 L 25.238281 21.578125 L 24.449219 21.660156 C 24.25 21.675781 24.082031 21.8125 24.019531 22 C 23.957031 22.1875 24.011719 22.398438 24.160156 22.53125 Z "/>
<path style=" fill:#8D6C9F;" d="M 7 46 C 6.449219 46 6 46.449219 6 47 L 6 49 C 6 49.550781 6.449219 50 7 50 C 7.550781 50 8 49.550781 8 49 L 8 47 C 8 46.449219 7.550781 46 7 46 Z "/>
<path style=" fill:#8D6C9F;" d="M 12 46 C 11.449219 46 11 46.449219 11 47 L 11 49 C 11 49.550781 11.449219 50 12 50 C 12.550781 50 13 49.550781 13 49 L 13 47 C 13 46.449219 12.550781 46 12 46 Z "/>
<path style=" fill:#8D6C9F;" d="M 22 46 C 21.449219 46 21 46.449219 21 47 L 21 49 C 21 49.550781 21.449219 50 22 50 C 22.550781 50 23 49.550781 23 49 L 23 47 C 23 46.449219 22.550781 46 22 46 Z "/>
<path style=" fill:#8D6C9F;" d="M 17 46 C 16.449219 46 16 46.449219 16 47 L 16 49 C 16 49.550781 16.449219 50 17 50 C 17.550781 50 18 49.550781 18 49 L 18 47 C 18 46.449219 17.550781 46 17 46 Z "/>
<path style=" fill:#8D6C9F;" d="M 27 46 C 26.449219 46 26 46.449219 26 47 L 26 49 C 26 49.550781 26.449219 50 27 50 C 27.550781 50 28 49.550781 28 49 L 28 47 C 28 46.449219 27.550781 46 27 46 Z "/>
<path style=" fill:#8D6C9F;" d="M 47 46 C 46.449219 46 46 46.449219 46 47 L 46 49 C 46 49.550781 46.449219 50 47 50 C 47.550781 50 48 49.550781 48 49 L 48 47 C 48 46.449219 47.550781 46 47 46 Z "/>
<path style=" fill:#8D6C9F;" d="M 52 46 C 51.449219 46 51 46.449219 51 47 L 51 49 C 51 49.550781 51.449219 50 52 50 C 52.550781 50 53 49.550781 53 49 L 53 47 C 53 46.449219 52.550781 46 52 46 Z "/>
<path style=" fill:#8D6C9F;" d="M 57 46 C 56.449219 46 56 46.449219 56 47 L 56 49 C 56 49.550781 56.449219 50 57 50 C 57.550781 50 58 49.550781 58 49 L 58 47 C 58 46.449219 57.550781 46 57 46 Z "/>
<path style=" fill:#8D6C9F;" d="M 32 46 C 31.449219 46 31 46.449219 31 47 L 31 49 C 31 49.550781 31.449219 50 32 50 C 32.550781 50 33 49.550781 33 49 L 33 47 C 33 46.449219 32.550781 46 32 46 Z "/>
<path style=" fill:#8D6C9F;" d="M 42 46 C 41.449219 46 41 46.449219 41 47 L 41 49 C 41 49.550781 41.449219 50 42 50 C 42.550781 50 43 49.550781 43 49 L 43 47 C 43 46.449219 42.550781 46 42 46 Z "/>
<path style=" fill:#8D6C9F;" d="M 37 46 C 36.449219 46 36 46.449219 36 47 L 36 49 C 36 49.550781 36.449219 50 37 50 C 37.550781 50 38 49.550781 38 49 L 38 47 C 38 46.449219 37.550781 46 37 46 Z "/>
<path style=" fill:#8D6C9F;" d="M 61 10 L 3 10 C 1.34375 10 0 11.34375 0 13 L 0 51 C 0 52.65625 1.34375 54 3 54 L 61 54 C 62.65625 54 64 52.65625 64 51 L 64 13 C 64 11.34375 62.65625 10 61 10 Z M 2 13 C 2 12.449219 2.449219 12 3 12 L 30 12 L 30 34 L 2 34 Z M 62 15 L 62 46 C 61.449219 46 61 46.449219 61 47 L 61 49 C 61 49.550781 61.449219 50 62 50 L 62 51 C 62 51.550781 61.550781 52 61 52 L 3 52 C 2.449219 52 2 51.550781 2 51 L 2 50 C 2.550781 50 3 49.550781 3 49 L 3 47 C 3 46.449219 2.550781 46 2 46 L 2 36 L 30 36 C 31.105469 36 32 35.105469 32 34 L 32 12 L 61 12 C 61.550781 12 62 12.449219 62 13 Z "/>
</g>
</svg>
