<?xml version="1.0"?>
<svg xmlns="http://www.w3.org/2000/svg" xmlns:xlink="http://www.w3.org/1999/xlink" version="1.1" viewBox="0 0 252 252" width="96px" height="96px"><g transform="translate(-30.24,-30.24) scale(1.24,1.24)"><g fill="none" fill-rule="nonzero" stroke="none" stroke-width="1" stroke-linecap="butt" stroke-linejoin="miter" stroke-miterlimit="10" stroke-dasharray="" stroke-dashoffset="0" font-family="none" font-weight="none" font-size="none" text-anchor="none" style="mix-blend-mode: normal"><path d="M0,252v-252h252v252z" fill="none"/><g><g id="surface1"><path d="M213.6709,174.2959l-71.9209,-61.4209l66.6709,-61.9541l-7.3418,-7.3418l-69.29589,64.57911l-65.11231,-69.82911l-7.3418,7.3418l63,67.73731l-82.42089,34.125l4.18359,9.43359l79.81641,-32.5459l-21.53321,89.7832l10.5,2.0918l22.5791,-95.01269l70.875,61.42089z" fill="#b0bec5"/><path d="M183.75,115.5c0,28.875 -23.625,52.5 -52.5,52.5c-28.875,0 -52.5,-23.625 -52.5,-52.5c0,-28.875 23.625,-52.5 52.5,-52.5c28.875,0 52.5,23.625 52.5,52.5" fill="#4caf50"/><path d="M149.0918,128.625c0,13.125 -12.5918,14.7041 -14.68359,14.7041v7.3418h-5.25v-7.3418c-2.11231,0 -15.75,-1.5791 -15.75,-17.3291h10.5c0,1.5791 0,8.9209 7.875,8.9209c6.80859,0 6.80859,-5.25 6.80859,-6.2959c0,-11.5459 -23.625,-6.8291 -23.625,-25.2041c0,-11.01269 9.9873,-14.7041 14.7041,-14.7041v-7.875h5.7832v7.875c3.6709,0.5332 13.6377,3.1582 13.6377,16.81641h-10.5c0,-3.15821 -0.5127,-8.94141 -6.80859,-8.94141c-5.78321,0.5332 -5.78321,5.7832 -5.78321,6.8291c0,11.0332 23.0918,6.8291 23.0918,25.2041" fill="#e8f5e9"/><path d="M84,44.625c0,9.9668 -8.4082,18.375 -18.375,18.375c-9.96679,0 -18.375,-8.4082 -18.375,-18.375c0,-9.96679 8.40821,-18.375 18.375,-18.375c9.9668,0 18.375,8.40821 18.375,18.375zM202.125,31.5c-9.96679,0 -18.375,8.40821 -18.375,18.375c0,9.9668 8.40821,18.375 18.375,18.375c9.9668,0 18.375,-8.4082 18.375,-18.375c0,-9.96679 -8.4082,-18.375 -18.375,-18.375zM44.625,131.25c-9.96679,0 -18.375,8.40821 -18.375,18.375c0,9.9668 8.40821,18.375 18.375,18.375c9.9668,0 18.375,-8.4082 18.375,-18.375c0,-9.96679 -8.4082,-18.375 -18.375,-18.375zM110.25,189c-9.96679,0 -18.375,8.40821 -18.375,18.375c0,9.9668 8.40821,18.375 18.375,18.375c9.9668,0 18.375,-8.4082 18.375,-18.375c0,-9.96679 -8.4082,-18.375 -18.375,-18.375zM207.375,157.5c-9.96679,0 -18.375,8.40821 -18.375,18.375c0,9.9668 8.40821,18.375 18.375,18.375c9.9668,0 18.375,-8.4082 18.375,-18.375c0,-9.96679 -8.4082,-18.375 -18.375,-18.375z" fill="#2196f3"/></g></g></g></g></svg>
