<?xml version="1.0" encoding="iso-8859-1"?>
<!-- Generator: Adobe Illustrator 21.0.2, SVG Export Plug-In . SVG Version: 6.00 Build 0)  -->
<svg xmlns="http://www.w3.org/2000/svg" xmlns:xlink="http://www.w3.org/1999/xlink" version="1.1" id="Layer_1" x="0px" y="0px" viewBox="0 0 80 80" style="enable-background:new 0 0 80 80;" xml:space="preserve" width="80px" height="80px">
<polyline style="fill:none;stroke:#66798F;stroke-width:2;stroke-miterlimit:10;" points="33,71 42,36.1 71,59 "/>
<line style="fill:none;stroke:#66798F;stroke-width:2;stroke-miterlimit:10;" x1="69" y1="11" x2="42" y2="36.1"/>
<polyline style="fill:none;stroke:#66798F;stroke-width:2;stroke-miterlimit:10;" points="17,9 42,36.1 9,49 "/>
<g>
	<path style="fill:#BAE0BD;" d="M42,55.5c-10.752,0-19.5-8.748-19.5-19.5S31.248,16.5,42,16.5S61.5,25.248,61.5,36   S52.752,55.5,42,55.5z"/>
	<path style="fill:#5E9C76;" d="M42,17c10.477,0,19,8.523,19,19s-8.523,19-19,19s-19-8.523-19-19S31.523,17,42,17 M42,16   c-11,0-20,9-20,20s9,20,20,20s20-9,20-20S53,16,42,16L42,16z"/>
</g>
<g>
	<path style="fill:#8BB7F0;" d="M17,15.5c-3.523,0-6.5-2.977-6.5-6.5s2.977-6.5,6.5-6.5s6.5,2.977,6.5,6.5S20.523,15.5,17,15.5z"/>
	<path style="fill:#4E7AB5;" d="M17,3c3.252,0,6,2.748,6,6s-2.748,6-6,6s-6-2.748-6-6S13.748,3,17,3 M17,2c-3.8,0-7,3.2-7,7   s3.2,7,7,7s7-3.2,7-7S20.8,2,17,2L17,2z"/>
</g>
<g>
	<path style="fill:#8BB7F0;" d="M69,17.5c-3.523,0-6.5-2.977-6.5-6.5s2.977-6.5,6.5-6.5s6.5,2.977,6.5,6.5S72.523,17.5,69,17.5z"/>
	<path style="fill:#4E7AB5;" d="M69,5c3.252,0,6,2.748,6,6s-2.748,6-6,6s-6-2.748-6-6S65.748,5,69,5 M69,4c-3.8,0-7,3.2-7,7   s3.2,7,7,7s7-3.2,7-7S72.8,4,69,4L69,4z"/>
</g>
<g>
	<path style="fill:#8BB7F0;" d="M9,55.5c-3.523,0-6.5-2.977-6.5-6.5s2.977-6.5,6.5-6.5s6.5,2.977,6.5,6.5S12.523,55.5,9,55.5z"/>
	<path style="fill:#4E7AB5;" d="M9,43c3.252,0,6,2.748,6,6s-2.748,6-6,6s-6-2.748-6-6S5.748,43,9,43 M9,42c-3.8,0-7,3.2-7,7   s3.2,7,7,7s7-3.2,7-7S12.8,42,9,42L9,42z"/>
</g>
<g>
	<path style="fill:#8BB7F0;" d="M33,77.5c-3.523,0-6.5-2.977-6.5-6.5s2.977-6.5,6.5-6.5s6.5,2.977,6.5,6.5S36.523,77.5,33,77.5z"/>
	<path style="fill:#4E7AB5;" d="M33,65c3.252,0,6,2.748,6,6s-2.748,6-6,6s-6-2.748-6-6S29.748,65,33,65 M33,64c-3.8,0-7,3.2-7,7   s3.2,7,7,7s7-3.2,7-7S36.8,64,33,64L33,64z"/>
</g>
<g>
	<path style="fill:#8BB7F0;" d="M71,65.5c-3.523,0-6.5-2.977-6.5-6.5s2.977-6.5,6.5-6.5s6.5,2.977,6.5,6.5S74.523,65.5,71,65.5z"/>
	<path style="fill:#4E7AB5;" d="M71,53c3.252,0,6,2.748,6,6s-2.748,6-6,6s-6-2.748-6-6S67.748,53,71,53 M71,52c-3.8,0-7,3.2-7,7   s3.2,7,7,7s7-3.2,7-7S74.8,52,71,52L71,52z"/>
</g>
<g>
	<path style="fill:#5E9C76;" d="M38.534,31.077c0-1.176,1.162-2.191,3.553-2.191c2.707,0,4.656,0.696,6.17,1.529v-3.969   c-1.125-0.568-2.827-0.902-5.106-1l-2.367,0.059c-1.978,0.176-3.564,0.807-4.764,1.889s-1.8,2.393-1.8,3.933   c0,6.082,11.249,6.269,11.249,9.601c0,1.186-1.639,2.103-3.464,2.103c-3.739,0-6.719-1.435-7.345-1.897v4.073   c1.89,0.892,3.932,1.343,6.126,1.353l2.367-0.088c2.128-0.215,3.765-0.82,4.911-1.815c1.143-0.995,1.716-2.307,1.716-3.934   C49.779,34.229,38.534,34.726,38.534,31.077z"/>
</g>
<g>
	<rect x="40.444" y="22" style="fill:#5E9C76;" width="3.112" height="4.668"/>
</g>
<g>
	<rect x="40.444" y="45.227" style="fill:#5E9C76;" width="3.112" height="4.668"/>
</g>
</svg>
