<?xml version="1.0"?>
<svg xmlns="http://www.w3.org/2000/svg" xmlns:xlink="http://www.w3.org/1999/xlink" version="1.1" viewBox="0 0 252 252" width="80px" height="80px"><defs><linearGradient x1="126" y1="21.16406" x2="126" y2="231.25646" gradientUnits="userSpaceOnUse" id="color-1"><stop offset="0" stop-color="#1a6dff"/><stop offset="1" stop-color="#c822ff"/></linearGradient><linearGradient x1="189" y1="48.89076" x2="189" y2="77.20256" gradientUnits="userSpaceOnUse" id="color-2"><stop offset="0" stop-color="#6dc7ff"/><stop offset="1" stop-color="#e6abff"/></linearGradient><linearGradient x1="63" y1="48.89076" x2="63" y2="77.20256" gradientUnits="userSpaceOnUse" id="color-3"><stop offset="0" stop-color="#6dc7ff"/><stop offset="1" stop-color="#e6abff"/></linearGradient><linearGradient x1="189" y1="172.92201" x2="189" y2="203.52386" gradientUnits="userSpaceOnUse" id="color-4"><stop offset="0" stop-color="#6dc7ff"/><stop offset="1" stop-color="#e6abff"/></linearGradient><linearGradient x1="63" y1="172.92201" x2="63" y2="203.52386" gradientUnits="userSpaceOnUse" id="color-5"><stop offset="0" stop-color="#6dc7ff"/><stop offset="1" stop-color="#e6abff"/></linearGradient><linearGradient x1="126" y1="93.02344" x2="126" y2="157.5" gradientUnits="userSpaceOnUse" id="color-6"><stop offset="0" stop-color="#6dc7ff"/><stop offset="1" stop-color="#e6abff"/></linearGradient></defs><g transform="translate(-27.72,-27.72) scale(1.22,1.22)"><g fill="none" fill-rule="nonzero" stroke="none" stroke-width="1" stroke-linecap="butt" stroke-linejoin="miter" stroke-miterlimit="10" stroke-dasharray="" stroke-dashoffset="0" font-family="none" font-weight="none" font-size="none" text-anchor="none" style="mix-blend-mode: normal"><path d="M0,252v-252h252v252z" fill="none"/><g id="&#x421;&#x43B;&#x43E;&#x439;_1"><path d="M189,161.4375c-6.18187,0 -11.87156,2.07113 -16.4745,5.52038l-4.914,-4.914c7.58363,-8.74125 12.4425,-19.87256 13.31269,-32.10638h8.63494c1.76006,6.77644 7.87106,11.8125 15.19087,11.8125c8.68613,0 15.75,-7.06387 15.75,-15.75c0,-8.68613 -7.06387,-15.75 -15.75,-15.75c-7.31981,0 -13.43081,5.03606 -15.19087,11.8125h-8.63494c-0.87019,-12.23381 -5.72906,-23.36513 -13.31269,-32.10637l4.914,-4.914c4.60294,3.44925 10.29262,5.52038 16.4745,5.52038c15.19481,0 27.5625,-12.36769 27.5625,-27.5625c0,-15.19481 -12.36769,-27.5625 -27.5625,-27.5625c-15.19481,0 -27.5625,12.36769 -27.5625,27.5625c0,6.17794 2.07113,11.87156 5.52038,16.4745l-4.914,4.914c-8.74125,-7.58362 -19.87256,-12.4425 -32.10638,-13.31269v-8.4735c8.97356,-1.83094 15.75,-9.78075 15.75,-19.28981c0,-10.85569 -8.83181,-19.6875 -19.6875,-19.6875c-10.85569,0 -19.6875,8.83181 -19.6875,19.6875c0,9.50906 6.77644,17.45888 15.75,19.28981v8.4735c-13.21819,0.94106 -25.15275,6.53625 -34.16962,15.18694l-4.63444,-4.63838c4.51631,-4.91006 7.30406,-11.43844 7.30406,-18.62437c0,-15.19481 -12.36769,-27.5625 -27.5625,-27.5625c-15.19481,0 -27.5625,12.36769 -27.5625,27.5625c0,15.19481 12.36769,27.5625 27.5625,27.5625c5.166,0 9.9855,-1.45294 14.11987,-3.9375l5.48887,5.49281c-6.56381,8.38687 -10.73756,18.69919 -11.53687,29.94469h-8.63494c-1.76006,-6.77644 -7.87106,-11.8125 -15.19088,-11.8125c-8.68612,0 -15.75,7.06387 -15.75,15.75c0,8.68613 7.06388,15.75 15.75,15.75c7.31981,0 13.43081,-5.03606 15.19088,-11.8125h8.63494c0.79931,11.24944 4.97306,21.56175 11.53687,29.94469l-5.48887,5.49281c-4.13831,-2.48456 -8.95781,-3.9375 -14.11987,-3.9375c-15.19481,0 -27.5625,12.36769 -27.5625,27.5625c0,15.19481 12.36769,27.5625 27.5625,27.5625c15.19481,0 27.5625,-12.36769 27.5625,-27.5625c0,-7.18594 -2.78775,-13.71431 -7.30406,-18.62438l4.63444,-4.63837c9.01687,8.65069 20.95144,14.24981 34.16962,15.18694v8.4735c-8.97356,1.83094 -15.75,9.78075 -15.75,19.28981c0,10.85569 8.83181,19.6875 19.6875,19.6875c10.85569,0 19.6875,-8.83181 19.6875,-19.6875c0,-9.50906 -6.77644,-17.45887 -15.75,-19.28981v-8.4735c12.23775,-0.87019 23.36512,-5.72906 32.10637,-13.31269l4.914,4.914c-3.44925,4.60294 -5.52037,10.29656 -5.52037,16.4745c0,15.19481 12.36769,27.5625 27.5625,27.5625c15.19481,0 27.5625,-12.36769 27.5625,-27.5625c0,-15.19481 -12.36769,-27.5625 -27.5625,-27.5625zM204.75,118.125c4.34306,0 7.875,3.53194 7.875,7.875c0,4.34306 -3.53194,7.875 -7.875,7.875c-4.34306,0 -7.875,-3.53194 -7.875,-7.875c0,-4.34306 3.53194,-7.875 7.875,-7.875zM47.25,133.875c-4.34306,0 -7.875,-3.53194 -7.875,-7.875c0,-4.34306 3.53194,-7.875 7.875,-7.875c4.34306,0 7.875,3.53194 7.875,7.875c0,4.34306 -3.53194,7.875 -7.875,7.875zM189,43.3125c10.85569,0 19.6875,8.83181 19.6875,19.6875c0,10.85569 -8.83181,19.6875 -19.6875,19.6875c-10.85569,0 -19.6875,-8.83181 -19.6875,-19.6875c0,-10.85569 8.83181,-19.6875 19.6875,-19.6875zM114.1875,43.3125c0,-6.51262 5.29988,-11.8125 11.8125,-11.8125c6.51262,0 11.8125,5.29988 11.8125,11.8125c0,6.51263 -5.29988,11.8125 -11.8125,11.8125c-6.51262,0 -11.8125,-5.29987 -11.8125,-11.8125zM43.3125,63c0,-10.85569 8.83181,-19.6875 19.6875,-19.6875c10.85569,0 19.6875,8.83181 19.6875,19.6875c0,10.85569 -8.83181,19.6875 -19.6875,19.6875c-10.85569,0 -19.6875,-8.83181 -19.6875,-19.6875zM63,208.6875c-10.85569,0 -19.6875,-8.83181 -19.6875,-19.6875c0,-10.85569 8.83181,-19.6875 19.6875,-19.6875c10.85569,0 19.6875,8.83181 19.6875,19.6875c0,10.85569 -8.83181,19.6875 -19.6875,19.6875zM78.75,126c0,-26.05444 21.19556,-47.25 47.25,-47.25c26.05444,0 47.25,21.19556 47.25,47.25c0,26.05444 -21.19556,47.25 -47.25,47.25c-26.05444,0 -47.25,-21.19556 -47.25,-47.25zM137.8125,208.6875c0,6.51262 -5.29988,11.8125 -11.8125,11.8125c-6.51262,0 -11.8125,-5.29988 -11.8125,-11.8125c0,-6.51262 5.29988,-11.8125 11.8125,-11.8125c6.51262,0 11.8125,5.29987 11.8125,11.8125zM189,208.6875c-10.85569,0 -19.6875,-8.83181 -19.6875,-19.6875c0,-10.85569 8.83181,-19.6875 19.6875,-19.6875c10.85569,0 19.6875,8.83181 19.6875,19.6875c0,10.85569 -8.83181,19.6875 -19.6875,19.6875z" fill="url(#color-1)"/><circle cx="48" cy="16" transform="scale(3.9375,3.9375)" r="3" fill="url(#color-2)"/><circle cx="16" cy="16" transform="scale(3.9375,3.9375)" r="3" fill="url(#color-3)"/><circle cx="48" cy="48" transform="scale(3.9375,3.9375)" r="3" fill="url(#color-4)"/><circle cx="16" cy="48" transform="scale(3.9375,3.9375)" r="3" fill="url(#color-5)"/><path d="M141.75,114.1875v-7.875h-11.8125v-7.875h-7.875v7.875h-3.89419c-4.36669,0 -7.91831,3.55163 -7.91831,7.91831v7.79231c0,4.36275 3.55163,7.91438 7.91831,7.91438l15.70669,0.04331l-0.04331,7.83169h-23.58169v7.875h11.8125v7.875h7.875v-7.875h3.89419c4.36669,0 7.91831,-3.55163 7.91831,-7.91831v-7.79231c0,-4.36275 -3.55163,-7.91437 -7.91831,-7.91437l-15.70669,-0.04331l0.04331,-7.83169z" fill="url(#color-6)"/></g></g></g></svg>
