<?xml version="1.0"?>
<svg xmlns="http://www.w3.org/2000/svg" xmlns:xlink="http://www.w3.org/1999/xlink" version="1.1" viewBox="0 0 252 252" width="80px" height="80px"><g transform="translate(-22.68,-22.68) scale(1.18,1.18)"><g fill="none" fill-rule="nonzero" stroke="none" stroke-width="1" stroke-linecap="butt" stroke-linejoin="miter" stroke-miterlimit="10" stroke-dasharray="" stroke-dashoffset="0" font-family="none" font-weight="none" font-size="none" text-anchor="none" style="mix-blend-mode: normal"><path d="M0,252v-252h252v252z" fill="none"/><g id="&#xD0;&#xA1;&#xD0;&#xBB;&#xD0;&#xBE;&#xD0;&#xB9;_1"><g><g fill="#f48884"><path d="M158.48438,96.46875h-55.125c-22.05,0 -41.14687,12.00938 -51.1875,29.72812c-3.34687,6.10312 -10.04063,9.64688 -16.93125,9.64688h-6.69375v39.375h6.69375c6.89063,0 13.3875,3.54375 16.93125,9.64688c10.2375,17.71875 29.33437,29.72812 51.1875,29.72812h55.125c32.68125,0 59.0625,-26.38125 59.0625,-59.0625v0c0,-32.68125 -26.57812,-59.0625 -59.0625,-59.0625z"/></g><g fill="#454b54"><path d="M158.48438,220.5h-55.125c-23.23125,0 -44.8875,-12.6 -56.50312,-32.68125c-2.3625,-4.13438 -6.89062,-6.69375 -11.8125,-6.69375h-6.69375c-3.34688,0 -5.90625,-2.55937 -5.90625,-5.90625v-39.375c0,-3.34688 2.55937,-5.90625 5.90625,-5.90625h6.69375c4.92188,0 9.45,-2.55937 11.8125,-6.69375c11.61562,-20.08125 33.075,-32.68125 56.50313,-32.68125h55.125c35.83125,0 64.96875,29.1375 64.96875,64.96875c0,35.83125 -29.33438,64.96875 -64.96875,64.96875zM34.45313,169.3125h0.7875c9.05625,0 17.52188,4.725 22.05,12.6c9.45,16.5375 27.16875,26.775 46.06875,26.775h55.125c29.33438,0 53.15625,-23.82187 53.15625,-53.15625c0,-29.33438 -23.82187,-53.15625 -53.15625,-53.15625h-55.125c-19.09688,0 -36.61875,10.2375 -46.06875,26.775c-4.52813,7.67813 -12.79687,12.6 -22.05,12.6h-0.7875z"/></g><g fill="#454b54"><path d="M70.48125,141.75c-1.575,0 -3.15,-0.59062 -4.13437,-1.77188c-1.18125,-1.18125 -1.77188,-2.55937 -1.77188,-4.13437c0,-1.575 0.59063,-3.15 1.77188,-4.13437c2.16562,-2.16563 6.10312,-2.16563 8.26875,0c1.18125,1.18125 1.77187,2.55937 1.77187,4.13437c0,1.575 -0.59062,3.15 -1.77187,4.13437c-0.98437,1.18125 -2.55937,1.77188 -4.13438,1.77188z"/></g><g fill="#f48884"><path d="M121.07813,198.84375v0c-4.33125,0 -1.96875,3.54375 -1.96875,7.875l-5.90625,25.59375c0,3.34688 -2.55937,5.90625 -5.90625,5.90625h-13.78125c-3.34688,0 -5.90625,-2.55937 -5.90625,-5.90625v-25.59375"/></g><g fill="#f48884"><path d="M142.73438,206.71875l7.875,25.59375c0,3.34688 2.55937,5.90625 5.90625,5.90625h13.78125c3.34688,0 5.90625,-2.55937 5.90625,-5.90625v-25.59375"/></g><g fill="#454b54"><path d="M170.29688,244.125h-13.78125c-6.10312,0 -11.22188,-4.725 -11.8125,-10.63125l-5.70938,-16.93125c-0.98437,-3.15 0.59063,-6.49687 3.74063,-7.48125c3.15,-0.98437 6.49687,0.59062 7.48125,3.74062l5.90625,17.71875c0.19688,0.59063 0.39375,1.18125 0.39375,1.77188h13.78125v-20.475c0,-3.34687 2.55937,-5.90625 5.90625,-5.90625c3.34688,0 5.90625,2.55938 5.90625,5.90625v20.475c0,6.49687 -5.31563,11.8125 -11.8125,11.8125z"/></g><g fill="#454b54"><path d="M107.29688,244.125h-13.78125c-6.49687,0 -11.8125,-5.31563 -11.8125,-11.8125v-19.88437c0,-3.34688 2.55937,-5.90625 5.90625,-5.90625c3.34688,0 5.90625,2.55937 5.90625,5.90625v19.88437h13.78125c0,-0.39375 0,-0.98437 0.19688,-1.37813l5.90625,-25.59375c0.7875,-3.15 3.9375,-5.11875 7.0875,-4.33125c3.15,0.7875 5.11875,3.9375 4.33125,7.0875l-5.70937,25.00313c-0.59063,6.10313 -5.70938,11.025 -11.8125,11.025z"/></g><g fill="#f48884"><path d="M67.92188,82.6875v0c16.34062,0 29.53125,7.28438 29.53125,23.625v9.84375h-29.53125z"/></g><g fill="#454b54"><path d="M67.92188,122.0625c-3.34688,0 -5.90625,-2.55937 -5.90625,-5.90625v-33.46875c0,-3.34688 2.55937,-5.90625 5.90625,-5.90625c21.45937,0 35.4375,11.61562 35.4375,29.53125c0,3.34688 -2.55937,5.90625 -5.90625,5.90625c-3.34688,0 -5.90625,-2.55937 -5.90625,-5.90625c0,-12.40312 -10.04063,-16.14375 -17.71875,-17.325v27.16875c0,3.34688 -2.75625,5.90625 -5.90625,5.90625z"/></g><g fill="#454b54"><path d="M227.39063,161.4375h-10.04062c-3.34688,0 -5.90625,-2.55937 -5.90625,-5.90625c0,-3.34688 2.55937,-5.90625 5.90625,-5.90625h10.04062c3.34688,0 5.90625,2.55937 5.90625,5.90625c0,3.34688 -2.55937,5.90625 -5.90625,5.90625z"/></g><g fill="#f8e390"><ellipse cx="87.5" cy="49" transform="scale(1.96875,1.96875)" rx="23.6" ry="24.5"/></g><g fill="#454b54"><path d="M172.26563,150.60938c-28.94063,0 -52.36875,-24.21562 -52.36875,-54.14062c0,-29.925 23.42812,-54.14062 52.36875,-54.14062c28.94063,0 52.36875,24.21562 52.36875,54.14063c0,29.925 -23.625,54.14063 -52.36875,54.14063zM172.26563,54.14063c-22.44375,0 -40.55625,18.9 -40.55625,42.32813c0,23.42812 18.1125,42.32813 40.55625,42.32813c22.44375,0 40.55625,-18.9 40.55625,-42.32812c0,-23.42812 -18.30937,-42.32812 -40.55625,-42.32812z"/></g><g fill="#ffffff"><ellipse cx="87.5" cy="49" transform="scale(1.96875,1.96875)" rx="14.2" ry="14.7"/></g><g fill="#f48884"><path d="M119.10938,120.09375h35.4375c21.65625,0 39.375,17.71875 39.375,39.375l-32.48437,2.95313c-24.80625,2.3625 -42.32812,-17.325 -42.32812,-42.32812z"/></g></g></g></g></g></svg>
