<?xml version="1.0"?>
<svg xmlns="http://www.w3.org/2000/svg" xmlns:xlink="http://www.w3.org/1999/xlink" version="1.1" viewBox="0 0 252 252" width="80px" height="80px"><g transform="translate(-37.8,-37.8) scale(1.3,1.3)"><g fill="none" fill-rule="nonzero" stroke="none" stroke-width="none" stroke-linecap="none" stroke-linejoin="miter" stroke-miterlimit="none" stroke-dasharray="" stroke-dashoffset="0" font-family="none" font-weight="none" font-size="none" text-anchor="none" style="mix-blend-mode: normal"><path d="M0,252v-252h252v252z" fill="none" stroke="none" stroke-width="1" stroke-linecap="butt" stroke-miterlimit="10"/><g><g id="surface1"><path d="M220.5,183.75c0,42.04102 -42.30762,42 -94.5,42c-52.19238,0 -94.5,0.04102 -94.5,-42c0,-42.04101 42.30762,-94.5 94.5,-94.5c52.19238,0 94.5,52.45899 94.5,94.5z" fill="#43a047" stroke="none" stroke-width="1" stroke-linecap="butt" stroke-miterlimit="10"/><path d="M157.5,44.99414c-9.94629,11.01269 -5.25,-23.21484 -26.25,0c-9.96679,11.01269 -5.25,-23.21484 -26.25,0c-8.87988,9.82324 -6.11133,-16.28321 -20.28223,-5.61914l15.03223,55.125h52.5l15.70899,-57.62695c-2.50196,0.67676 -5.84473,3.03516 -10.45899,8.12109z" fill="#43a047" stroke="none" stroke-width="1" stroke-linecap="butt" stroke-miterlimit="10"/><path d="M133.66992,177.14649c0,-2.50196 -0.71777,-4.51172 -2.0918,-6.00879c-1.41504,-1.49707 -3.79394,-2.87109 -7.13672,-4.12207c-3.34277,-1.27148 -6.23437,-2.52246 -8.67481,-3.77344c-2.41992,-1.25098 -4.51172,-2.66601 -6.25488,-4.28613c-1.74316,-1.62012 -3.09668,-3.50684 -4.06054,-5.70117c-0.96387,-2.17383 -1.45606,-4.77832 -1.45606,-7.79297c0,-5.18848 1.66113,-9.4541 4.9834,-12.77636c3.32226,-3.32227 7.75195,-5.27051 13.24804,-5.82422v-9.86426h7.38281v10.00781c5.43457,0.75879 9.70019,3.03516 12.77637,6.80859c3.07617,3.77344 4.61426,8.6543 4.61426,14.64258h-13.33008c0,-3.69141 -0.7793,-6.45996 -2.29687,-8.28516c-1.51758,-1.82519 -3.54786,-2.74805 -6.11133,-2.74805c-2.52246,0 -4.4707,0.71777 -5.86523,2.15332c-1.37402,1.43554 -2.07129,3.40429 -2.07129,5.92676c0,2.33789 0.67676,4.22461 2.03027,5.61914c1.35352,1.41504 3.87598,2.87109 7.54688,4.34766c3.6709,1.47656 6.70606,2.87109 9.06446,4.18359c2.37891,1.29199 4.36816,2.76856 6.00879,4.42969c1.62012,1.64063 2.87109,3.52734 3.73242,5.61914c0.86133,2.11231 1.29199,4.55273 1.29199,7.36231c0,5.22949 -1.64062,9.47461 -4.90137,12.73535c-3.26074,3.26074 -7.75195,5.18848 -13.45312,5.7832v9.16699h-7.34179v-9.12598c-6.31641,-0.67676 -11.19727,-2.93262 -14.66309,-6.72656c-3.46582,-3.79394 -5.18848,-8.83887 -5.18848,-15.15527h13.33008c0,3.65039 0.88184,6.45996 2.625,8.42871c1.72266,1.94824 4.22461,2.93262 7.48536,2.93262c2.70703,0 4.86035,-0.71777 6.41894,-2.15332c1.5791,-1.43554 2.3584,-3.36328 2.3584,-5.80371z" fill="#ffffff" stroke="none" stroke-width="1" stroke-linecap="butt" stroke-miterlimit="10"/><path d="M73.5,204.72949c-2.29687,-11.66894 -2.64551,-23.64551 -1.16894,-35.4375c2.85059,-22.88672 10.39746,-46.47071 23.25586,-65.48144c1.37402,-2.05078 3.17871,-5.96777 5.22949,-7.36231c1.78418,-1.20996 2.19434,-0.75879 4.34766,-0.22559c3.95801,1.00488 7.93652,1.84571 11.99707,2.33789c11.8125,1.43554 23.99414,0.36914 35.08887,-4.06055" fill="none" stroke="#fdd835" stroke-width="10.5" stroke-linecap="round" stroke-miterlimit="4"/><path d="M57.75,152.25c0,-15.75 20.03613,-53.36133 42,-57.75" fill="none" stroke="#fdd835" stroke-width="10.5" stroke-linecap="round" stroke-miterlimit="4"/></g></g></g></g></svg>
