<?xml version="1.0"?>
<svg xmlns="http://www.w3.org/2000/svg" xmlns:xlink="http://www.w3.org/1999/xlink" version="1.1" viewBox="0 0 252 252" width="80px" height="80px"><g transform="translate(1.26,1.26) scale(0.99,0.99)"><g fill="none" fill-rule="nonzero" stroke="none" stroke-width="1" stroke-linecap="butt" stroke-linejoin="miter" stroke-miterlimit="10" stroke-dasharray="" stroke-dashoffset="0" font-family="none" font-weight="none" font-size="none" text-anchor="none" style="mix-blend-mode: normal"><path d="M0,252v-252h252v252z" fill="none"/><g><g id="surface1"><path d="M208.6875,169.3125h-196.875c-4.3374,0 -7.875,-3.5376 -7.875,-7.875v-109.8501c0,-4.3374 3.5376,-7.875 7.875,-7.875h196.875c4.3374,0 7.875,3.5376 7.875,7.875v109.8501c0,4.3374 -3.5376,7.875 -7.875,7.875z" fill="#72caaf"/><path d="M232.3125,74.8125v110.25h-196.875v7.875c0,4.3374 3.5376,7.875 7.875,7.875h196.875c4.3374,0 7.875,-3.5376 7.875,-7.875v-110.25c0,-4.3374 -3.5376,-7.875 -7.875,-7.875z" fill="#97e0bb"/><path d="M216.5625,59.0625v110.25h-196.875v7.875c0,4.3374 3.5376,7.875 7.875,7.875h196.875c4.3374,0 7.875,-3.5376 7.875,-7.875v-110.25c0,-4.3374 -3.5376,-7.875 -7.875,-7.875z" fill="#97e0bb"/><path d="M51.1875,110.25c0,6.52148 -5.29102,11.8125 -11.8125,11.8125c-6.52148,0 -11.8125,-5.29102 -11.8125,-11.8125c0,-6.52148 5.29102,-11.8125 11.8125,-11.8125c6.52148,0 11.8125,5.29102 11.8125,11.8125z" fill="#fadb6f"/><path d="M192.9375,110.25c0,6.52148 -5.29102,11.8125 -11.8125,11.8125c-6.52148,0 -11.8125,-5.29102 -11.8125,-11.8125c0,-6.52148 5.29102,-11.8125 11.8125,-11.8125c6.52148,0 11.8125,5.29102 11.8125,11.8125z" fill="#fadb6f"/><path d="M141.75,106.3125c0,-21.74853 -14.10425,-39.375 -31.5,-39.375c-17.39575,0 -31.5,17.62647 -31.5,39.375c0,21.74854 14.10425,39.375 31.5,39.375c17.39575,0 31.5,-17.62646 31.5,-39.375z" fill="#bbdef9"/><path d="M110.25,145.6875c17.31885,0 31.5,-17.71875 31.5,-39.375c0,-7.875 -1.96875,-14.96558 -5.12183,-21.25635l-43.3125,54.3252c5.12183,3.9375 10.62817,6.30615 16.93433,6.30615z" fill="#def0ff"/><path d="M87.0249,133.09058l44.09692,-55.90942c-1.96875,-2.36865 -4.3374,-4.3374 -7.09058,-5.90625l-41.74365,53.15625c1.18433,3.1377 2.76855,5.90625 4.7373,8.65942z" fill="#def0ff"/><path d="M79.93433,117.34058l38.59058,-48.83423c-1.18433,-0.38452 -1.96875,-0.78442 -3.15308,-0.78442l-36.22192,45.68115c0.38452,1.18433 0.38452,2.35327 0.78442,3.9375z" fill="#def0ff"/><path d="M204.75,63h-192.9375c-6.69067,0 -11.8125,-5.12183 -11.8125,-11.8125c0,-4.3374 3.5376,-7.875 7.875,-7.875h200.8125c4.3374,0 7.875,3.5376 7.875,7.875c0,6.69067 -5.12183,11.8125 -11.8125,11.8125z" fill="#97e0bb"/><path d="M240.1875,70.875h-3.9375v-3.9375c0,-6.69067 -5.12183,-11.8125 -11.8125,-11.8125h-3.9375v-3.9375c0,-6.69067 -5.12183,-11.8125 -11.8125,-11.8125h-196.875c-6.69067,0 -11.8125,5.12183 -11.8125,11.8125v110.25c0,6.69067 5.12183,11.8125 11.8125,11.8125h3.9375v3.9375c0,6.69067 5.12183,11.8125 11.8125,11.8125h3.9375v3.9375c0,6.69067 5.12183,11.8125 11.8125,11.8125h196.875c6.69067,0 11.8125,-5.12183 11.8125,-11.8125v-110.25c0,-6.69067 -5.12183,-11.8125 -11.8125,-11.8125zM7.875,161.4375v-110.25c0,-2.36865 1.56885,-3.9375 3.9375,-3.9375h196.875c2.36865,0 3.9375,1.56885 3.9375,3.9375v110.25c0,2.36865 -1.56885,3.9375 -3.9375,3.9375h-196.875c-2.36865,0 -3.9375,-1.56885 -3.9375,-3.9375zM23.625,177.1875v-3.9375h185.0625c6.69067,0 11.8125,-5.12183 11.8125,-11.8125v-98.4375h3.9375c2.36865,0 3.9375,1.56885 3.9375,3.9375v110.25c0,2.36865 -1.56885,3.9375 -3.9375,3.9375h-196.875c-2.36865,0 -3.9375,-1.56885 -3.9375,-3.9375zM244.125,192.9375c0,2.36865 -1.56885,3.9375 -3.9375,3.9375h-196.875c-2.36865,0 -3.9375,-1.56885 -3.9375,-3.9375v-3.9375h185.0625c6.69067,0 11.8125,-5.12183 11.8125,-11.8125v-98.4375h3.9375c2.36865,0 3.9375,1.56885 3.9375,3.9375z" fill="#8d6c9f"/><path d="M59.0625,55.125c-2.36865,0 -3.9375,1.56885 -3.9375,3.9375v7.875c0,2.36865 1.56885,3.9375 3.9375,3.9375c2.36865,0 3.9375,-1.56885 3.9375,-3.9375v-7.875c0,-2.36865 -1.56885,-3.9375 -3.9375,-3.9375z" fill="#8d6c9f"/><path d="M78.75,70.875c2.36865,0 3.9375,-1.56885 3.9375,-3.9375v-7.875c0,-2.36865 -1.56885,-3.9375 -3.9375,-3.9375c-2.36865,0 -3.9375,1.56885 -3.9375,3.9375v7.875c0,2.36865 1.56885,3.9375 3.9375,3.9375z" fill="#8d6c9f"/><path d="M141.75,55.125c-2.36865,0 -3.9375,1.56885 -3.9375,3.9375v7.875c0,2.36865 1.56885,3.9375 3.9375,3.9375c2.36865,0 3.9375,-1.56885 3.9375,-3.9375v-7.875c0,-2.36865 -1.56885,-3.9375 -3.9375,-3.9375z" fill="#8d6c9f"/><path d="M161.4375,70.875c2.36865,0 3.9375,-1.56885 3.9375,-3.9375v-7.875c0,-2.36865 -1.56885,-3.9375 -3.9375,-3.9375c-2.36865,0 -3.9375,1.56885 -3.9375,3.9375v7.875c0,2.36865 1.56885,3.9375 3.9375,3.9375z" fill="#8d6c9f"/><path d="M59.0625,141.75c-2.36865,0 -3.9375,1.56885 -3.9375,3.9375v7.875c0,2.36865 1.56885,3.9375 3.9375,3.9375c2.36865,0 3.9375,-1.56885 3.9375,-3.9375v-7.875c0,-2.36865 -1.56885,-3.9375 -3.9375,-3.9375z" fill="#8d6c9f"/><path d="M78.75,141.75c-2.36865,0 -3.9375,1.56885 -3.9375,3.9375v7.875c0,2.36865 1.56885,3.9375 3.9375,3.9375c2.36865,0 3.9375,-1.56885 3.9375,-3.9375v-7.875c0,-2.36865 -1.56885,-3.9375 -3.9375,-3.9375z" fill="#8d6c9f"/><path d="M141.75,141.75c-2.36865,0 -3.9375,1.56885 -3.9375,3.9375v7.875c0,2.36865 1.56885,3.9375 3.9375,3.9375c2.36865,0 3.9375,-1.56885 3.9375,-3.9375v-7.875c0,-2.36865 -1.56885,-3.9375 -3.9375,-3.9375z" fill="#8d6c9f"/><path d="M161.4375,141.75c-2.36865,0 -3.9375,1.56885 -3.9375,3.9375v7.875c0,2.36865 1.56885,3.9375 3.9375,3.9375c2.36865,0 3.9375,-1.56885 3.9375,-3.9375v-7.875c0,-2.36865 -1.56885,-3.9375 -3.9375,-3.9375z" fill="#8d6c9f"/><path d="M19.6875,66.9375h19.6875c2.36865,0 3.9375,-1.56885 3.9375,-3.9375c0,-2.36865 -1.56885,-3.9375 -3.9375,-3.9375h-19.6875c-2.36865,0 -3.9375,1.56885 -3.9375,3.9375c0,2.36865 1.56885,3.9375 3.9375,3.9375z" fill="#8d6c9f"/><path d="M39.375,145.6875h-19.6875c-2.36865,0 -3.9375,1.56885 -3.9375,3.9375c0,2.36865 1.56885,3.9375 3.9375,3.9375h19.6875c2.36865,0 3.9375,-1.56885 3.9375,-3.9375c0,-2.36865 -1.56885,-3.9375 -3.9375,-3.9375z" fill="#8d6c9f"/><path d="M200.8125,145.6875h-19.6875c-2.36865,0 -3.9375,1.56885 -3.9375,3.9375c0,2.36865 1.56885,3.9375 3.9375,3.9375h19.6875c2.36865,0 3.9375,-1.56885 3.9375,-3.9375c0,-2.36865 -1.56885,-3.9375 -3.9375,-3.9375z" fill="#8d6c9f"/><path d="M200.8125,59.0625h-19.6875c-2.36865,0 -3.9375,1.56885 -3.9375,3.9375c0,2.36865 1.56885,3.9375 3.9375,3.9375h19.6875c2.36865,0 3.9375,-1.56885 3.9375,-3.9375c0,-2.36865 -1.56885,-3.9375 -3.9375,-3.9375z" fill="#8d6c9f"/><path d="M126,67.3374v-0.3999v-7.875c0,-2.36865 -1.56885,-3.9375 -3.9375,-3.9375c-2.36865,0 -3.9375,1.56885 -3.9375,3.9375v5.12183c-2.36865,-0.78442 -5.12183,-1.18433 -7.875,-1.18433c-2.75317,0 -5.50635,0.3999 -7.875,1.18433v-5.12183c0,-2.36865 -1.56885,-3.9375 -3.9375,-3.9375c-2.36865,0 -3.9375,1.56885 -3.9375,3.9375v7.875c0,0.3999 0,0.3999 0,0.3999c-11.8125,7.0752 -19.6875,21.65625 -19.6875,38.9751c0,17.31885 8.2749,31.8999 19.6875,38.9751v0.3999v7.875c0,2.36865 1.56885,3.9375 3.9375,3.9375c2.36865,0 3.9375,-1.56885 3.9375,-3.9375v-5.12183c2.36865,0.78442 5.12183,1.18433 7.875,1.18433c2.75317,0 5.50635,-0.3999 7.875,-1.18433v5.12183c0,2.36865 1.56885,3.9375 3.9375,3.9375c2.36865,0 3.9375,-1.56885 3.9375,-3.9375v-7.875c0,-0.3999 0,-0.3999 0,-0.3999c11.8125,-7.0752 19.6875,-21.65625 19.6875,-38.9751c0,-17.31885 -8.2749,-31.8999 -19.6875,-38.9751zM110.25,142.53442c-15.3501,0 -27.9624,-16.13452 -27.9624,-36.22192c0,-20.0874 12.6123,-36.22192 27.9624,-36.22192c15.3501,0 27.9624,16.13452 27.9624,36.22192c0,20.0874 -12.6123,36.22192 -27.9624,36.22192z" fill="#8d6c9f"/><path d="M196.875,110.25c0,-8.65942 -7.09058,-15.75 -15.75,-15.75c-8.65942,0 -15.75,7.09058 -15.75,15.75c0,8.65942 7.09058,15.75 15.75,15.75c8.65942,0 15.75,-7.09058 15.75,-15.75zM172.46558,110.25c0,-4.72192 3.9375,-8.65942 8.65942,-8.65942c4.72192,0 8.65942,3.9375 8.65942,8.65942c0,4.72192 -3.9375,8.65942 -8.65942,8.65942c-4.72192,0 -8.65942,-3.9375 -8.65942,-8.65942z" fill="#8d6c9f"/><path d="M39.375,94.5c-8.65942,0 -15.75,7.09058 -15.75,15.75c0,8.65942 7.09058,15.75 15.75,15.75c8.65942,0 15.75,-7.09058 15.75,-15.75c0,-8.65942 -7.09058,-15.75 -15.75,-15.75zM39.375,118.90942c-4.72192,0 -8.65942,-3.9375 -8.65942,-8.65942c0,-4.72192 3.9375,-8.65942 8.65942,-8.65942c4.72192,0 8.65942,3.9375 8.65942,8.65942c0,4.72192 -3.9375,8.65942 -8.65942,8.65942z" fill="#8d6c9f"/></g></g></g></g></svg>
