<?xml version="1.0"?>
<svg xmlns="http://www.w3.org/2000/svg" xmlns:xlink="http://www.w3.org/1999/xlink" version="1.1" viewBox="0 0 252 252" width="80px" height="80px"><g transform="translate(-10.08,-10.08) scale(1.08,1.08)"><g fill="none" fill-rule="nonzero" stroke="none" stroke-width="none" stroke-linecap="none" stroke-linejoin="none" stroke-miterlimit="10" stroke-dasharray="" stroke-dashoffset="0" font-family="none" font-weight="none" font-size="none" text-anchor="none" style="mix-blend-mode: normal"><path d="M0,252v-252h252v252z" fill="none" stroke="none" stroke-width="1" stroke-linecap="butt" stroke-linejoin="miter"/><g id="&#xD0;&#xA1;&#xD0;&#xBB;&#xD0;&#xBE;&#xD0;&#xB9;_1"><g><rect x="9" y="49" transform="scale(1.96875,1.96875)" width="110" height="60" fill="#ffffff" stroke="none" stroke-width="1" stroke-linecap="butt" stroke-linejoin="miter"/><path d="M234.28125,214.59375v-118.125l-79.34062,7.875c-66.74063,6.69375 -117.53438,43.11563 -117.53438,110.25v0z" fill="#cbded6" stroke="none" stroke-width="1" stroke-linecap="butt" stroke-linejoin="miter"/><path d="M133.48125,150.80625l-12.20625,-3.15c-3.74062,-0.98437 -6.10313,-4.13437 -6.10313,-7.875c0,-4.52812 3.74062,-8.26875 8.26875,-8.26875h5.90625c4.13437,0 7.48125,3.34688 7.48125,7.48125c0,3.34688 2.55937,5.90625 5.90625,5.90625c3.34688,0 5.90625,-2.55937 5.90625,-5.90625c0,-9.84375 -7.28438,-17.91562 -16.73437,-19.09687v-2.55937c0,-3.34688 -2.55937,-5.90625 -5.90625,-5.90625c-3.34688,0 -5.90625,2.55937 -5.90625,5.90625v2.75625c-9.45,1.575 -16.73437,9.84375 -16.73437,19.6875c0,9.25313 6.3,17.12813 15.15938,19.49063l12.20625,2.95313c3.74062,0.98438 6.10312,4.13437 6.10312,7.875c0,4.52812 -3.74063,8.26875 -8.26875,8.26875h-5.90625c-4.13437,0 -7.48125,-3.34687 -7.48125,-7.48125c0,-3.34688 -2.55937,-5.90625 -5.90625,-5.90625c-3.34688,0 -5.90625,2.55937 -5.90625,5.90625c0,9.84375 7.28438,17.91563 16.73438,19.09688v2.55937c0,3.34688 2.55937,5.90625 5.90625,5.90625c3.34688,0 5.90625,-2.55937 5.90625,-5.90625v-2.75625c9.45,-1.575 16.73438,-9.84375 16.73438,-19.6875c0,-9.25313 -6.3,-17.12813 -15.15938,-19.29375z" fill="#ffffff" stroke="none" stroke-width="1" stroke-linecap="butt" stroke-linejoin="miter"/><path d="M234.28125,220.5h-216.5625c-3.34688,0 -5.90625,-2.55937 -5.90625,-5.90625v-118.125c0,-3.34688 2.55937,-5.90625 5.90625,-5.90625h216.5625c3.34688,0 5.90625,2.55937 5.90625,5.90625v118.125c0,3.34688 -2.55937,5.90625 -5.90625,5.90625zM23.625,208.6875h204.75v-106.3125h-204.75z" fill="#454b54" stroke="none" stroke-width="1" stroke-linecap="butt" stroke-linejoin="miter"/><path d="M234.28125,84.65625c-72.64688,0 -125.60625,-6.69375 -190.96875,-18.50625v12.6c0,3.34688 -2.55938,5.90625 -5.90625,5.90625c-3.34687,0 -5.90625,-2.55937 -5.90625,-5.90625v-19.6875c0,-1.77187 0.7875,-3.34687 2.16563,-4.52813c1.37812,-1.18125 3.15,-1.575 4.92188,-1.18125l1.77187,0.39375c66.9375,12.00937 120.29062,19.09688 193.92188,19.09688c3.34688,0 5.90625,2.55937 5.90625,5.90625c0,3.34688 -2.55937,5.90625 -5.90625,5.90625z" fill="#454b54" stroke="none" stroke-width="1" stroke-linecap="butt" stroke-linejoin="miter"/><path d="M116.15625,194.90625" fill="none" stroke="#f05686" stroke-width="11.8125" stroke-linecap="round" stroke-linejoin="round"/></g></g></g></g></svg>
