<?xml version="1.0" encoding="UTF-8"?>
<svg xmlns="http://www.w3.org/2000/svg" xmlns:xlink="http://www.w3.org/1999/xlink" viewBox="0 0 64 64" version="1.1" width="80px" height="80px">
<g id="surface1">
<path style=" fill:#5DBC9D;" d="M 57 51 L 7 51 C 5.894531 51 5 50.105469 5 49 L 5 21.078125 C 5 19.976563 5.894531 19.078125 7 19.078125 L 57 19.078125 C 58.105469 19.078125 59 19.976563 59 21.078125 L 59 37 L 55 41 L 59 44.5 L 59 49 C 59 50.105469 58.105469 51 57 51 Z "/>
<path style=" fill:#72CAAF;" d="M 3 13.078125 L 53 13.078125 C 54.105469 13.078125 55 13.976563 55 15.078125 L 55 43 C 55 44.105469 54.105469 45 53 45 L 3 45 C 1.894531 45 1 44.105469 1 43 L 1 15.078125 C 1 13.976563 1.894531 13.078125 3 13.078125 Z "/>
<path style=" fill:#C5E4FA;" d="M 60 47.609375 L 61.289063 51 L 43 51 L 44.75 46.421875 C 45.363281 44.761719 46.511719 43.355469 48.011719 42.421875 L 48.300781 42.238281 C 48.734375 41.976563 48.996094 41.507813 49 41 C 49 40.488281 48.734375 40.015625 48.300781 39.75 L 48 39.53125 C 46.5 38.59375 45.355469 37.1875 44.738281 35.53125 L 43 31 L 61.289063 31 L 59.589844 35.429688 C 58.929688 37.113281 57.722656 38.523438 56.160156 39.429688 L 56.078125 39.429688 L 55.738281 39.621094 C 55.285156 39.886719 55.003906 40.371094 55.003906 40.898438 C 55.003906 41.425781 55.285156 41.914063 55.738281 42.179688 L 55.941406 42.289063 L 56.078125 42.371094 C 56.71875 42.734375 57.300781 43.1875 57.808594 43.71875 C 58.390625 44.308594 58.875 44.984375 59.25 45.71875 C 59.371094 45.96875 59.488281 46.230469 59.589844 46.5 Z "/>
<path style=" fill:#FADB6F;" d="M 13 29.039063 C 13 30.695313 11.65625 32.039063 10 32.039063 C 8.34375 32.039063 7 30.695313 7 29.039063 C 7 27.382813 8.34375 26.039063 10 26.039063 C 11.65625 26.039063 13 27.382813 13 29.039063 Z "/>
<path style=" fill:#DEF0FF;" d="M 61.289063 51 L 55.121094 51 L 59.25 45.789063 C 59.371094 46.039063 59.488281 46.300781 59.589844 46.570313 L 59.988281 47.570313 Z "/>
<path style=" fill:#DEF0FF;" d="M 57.808594 43.820313 L 52.121094 51 L 49.121094 54.78125 C 48.617188 54.09375 48.199219 53.347656 47.878906 52.558594 L 49.121094 51 L 55.941406 42.390625 L 56.078125 42.46875 C 56.71875 42.835938 57.300781 43.289063 57.808594 43.820313 Z "/>
<path style=" fill:#DEF0FF;" d="M 62.800781 31 L 47.320313 50.761719 C 47.238281 50.421875 47.179688 50.078125 47.128906 49.761719 L 55.5 39 L 58.390625 37 L 61.800781 31 Z "/>
<path style=" fill:#BBDEF9;" d="M 36 29 C 36 23.476563 32.417969 19 28 19 C 23.582031 19 20 23.476563 20 29 C 20 34.523438 23.582031 39 28 39 C 32.417969 39 36 34.523438 36 29 Z "/>
<path style=" fill:#DEF0FF;" d="M 28 39 C 32.421875 39 36 34.519531 36 29 C 36.007813 27.140625 35.574219 25.300781 34.738281 23.640625 L 23.738281 37.488281 C 24.949219 38.460938 26.449219 38.996094 28 39 Z "/>
<path style=" fill:#DEF0FF;" d="M 22.128906 35.78125 L 33.359375 21.589844 C 32.839844 20.996094 32.238281 20.480469 31.570313 20.058594 L 20.890625 33.558594 C 21.210938 34.347656 21.625 35.09375 22.128906 35.78125 Z "/>
<path style=" fill:#DEF0FF;" d="M 20.320313 31.761719 L 30.128906 19.371094 C 29.863281 19.277344 29.585938 19.207031 29.308594 19.148438 L 20.128906 30.730469 C 20.179688 31.078125 20.238281 31.421875 20.320313 31.761719 Z "/>
<path style=" fill:#97E0BB;" d="M 3 13 L 53 13 C 54.105469 13 55 13.894531 55 15 C 55 16.65625 53.65625 18 52 18 L 4 18 C 2.34375 18 1 16.65625 1 15 C 1 13.894531 1.894531 13 3 13 Z "/>
<path style=" fill:#CDA1A7;" d="M 43 27 L 61 27 C 62.105469 27 63 27.894531 63 29 C 63 30.105469 62.105469 31 61 31 L 43 31 C 41.894531 31 41 30.105469 41 29 C 41 27.894531 41.894531 27 43 27 Z "/>
<path style=" fill:#CDA1A7;" d="M 43 51 L 61 51 C 62.105469 51 63 51.894531 63 53 C 63 54.105469 62.105469 55 61 55 L 43 55 C 41.894531 55 41 54.105469 41 53 C 41 51.894531 41.894531 51 43 51 Z "/>
<path style=" fill:#8D6C9F;" d="M 15 16 C 14.449219 16 14 16.449219 14 17 L 14 19 C 14 19.550781 14.449219 20 15 20 C 15.550781 20 16 19.550781 16 19 L 16 17 C 16 16.449219 15.550781 16 15 16 Z "/>
<path style=" fill:#8D6C9F;" d="M 20 20 C 20.550781 20 21 19.550781 21 19 L 21 17 C 21 16.449219 20.550781 16 20 16 C 19.449219 16 19 16.449219 19 17 L 19 19 C 19 19.550781 19.449219 20 20 20 Z "/>
<path style=" fill:#8D6C9F;" d="M 36 16 C 35.449219 16 35 16.449219 35 17 L 35 19 C 35 19.550781 35.449219 20 36 20 C 36.550781 20 37 19.550781 37 19 L 37 17 C 37 16.449219 36.550781 16 36 16 Z "/>
<path style=" fill:#8D6C9F;" d="M 41 20 C 41.550781 20 42 19.550781 42 19 L 42 17 C 42 16.449219 41.550781 16 41 16 C 40.449219 16 40 16.449219 40 17 L 40 19 C 40 19.550781 40.449219 20 41 20 Z "/>
<path style=" fill:#8D6C9F;" d="M 15 38 C 14.449219 38 14 38.449219 14 39 L 14 41 C 14 41.550781 14.449219 42 15 42 C 15.550781 42 16 41.550781 16 41 L 16 39 C 16 38.449219 15.550781 38 15 38 Z "/>
<path style=" fill:#8D6C9F;" d="M 20 38 C 19.449219 38 19 38.449219 19 39 L 19 41 C 19 41.550781 19.449219 42 20 42 C 20.550781 42 21 41.550781 21 41 L 21 39 C 21 38.449219 20.550781 38 20 38 Z "/>
<path style=" fill:#8D6C9F;" d="M 36 38 C 35.449219 38 35 38.449219 35 39 L 35 41 C 35 41.550781 35.449219 42 36 42 C 36.550781 42 37 41.550781 37 41 L 37 39 C 37 38.449219 36.550781 38 36 38 Z "/>
<path style=" fill:#8D6C9F;" d="M 41 38 C 40.449219 38 40 38.449219 40 39 L 40 41 C 40 41.550781 40.449219 42 41 42 C 41.550781 42 42 41.550781 42 41 L 42 39 C 42 38.449219 41.550781 38 41 38 Z "/>
<path style=" fill:#8D6C9F;" d="M 5 19 L 10 19 C 10.550781 19 11 18.550781 11 18 C 11 17.449219 10.550781 17 10 17 L 5 17 C 4.449219 17 4 17.449219 4 18 C 4 18.550781 4.449219 19 5 19 Z "/>
<path style=" fill:#8D6C9F;" d="M 10 39 L 5 39 C 4.449219 39 4 39.449219 4 40 C 4 40.550781 4.449219 41 5 41 L 10 41 C 10.550781 41 11 40.550781 11 40 C 11 39.449219 10.550781 39 10 39 Z "/>
<path style=" fill:#8D6C9F;" d="M 46 19 L 51 19 C 51.550781 19 52 18.550781 52 18 C 52 17.449219 51.550781 17 51 17 L 46 17 C 45.449219 17 45 17.449219 45 18 C 45 18.550781 45.449219 19 46 19 Z "/>
<path style=" fill:#8D6C9F;" d="M 32 19.140625 C 32.003906 19.09375 32.003906 19.046875 32 19 L 32 17 C 32 16.449219 31.550781 16 31 16 C 30.449219 16 30 16.449219 30 17 L 30 18.28125 C 28.695313 17.902344 27.304688 17.902344 26 18.28125 L 26 17 C 26 16.449219 25.550781 16 25 16 C 24.449219 16 24 16.449219 24 17 L 24 19 C 23.996094 19.046875 23.996094 19.09375 24 19.140625 C 20.75 21.347656 18.859375 25.074219 19 29 C 18.859375 32.925781 20.75 36.652344 24 38.859375 C 23.996094 38.90625 23.996094 38.953125 24 39 L 24 41 C 24 41.550781 24.449219 42 25 42 C 25.550781 42 26 41.550781 26 41 L 26 39.71875 C 27.304688 40.097656 28.695313 40.097656 30 39.71875 L 30 41 C 30 41.550781 30.449219 42 31 42 C 31.550781 42 32 41.550781 32 41 L 32 39 C 32.003906 38.953125 32.003906 38.90625 32 38.859375 C 35.25 36.652344 37.140625 32.925781 37 29 C 37.140625 25.074219 35.25 21.347656 32 19.140625 Z M 28 38 C 24.140625 38 21 34 21 29 C 21 24 24.140625 20 28 20 C 31.859375 20 35 24 35 29 C 35 34 31.859375 38 28 38 Z "/>
<path style=" fill:#8D6C9F;" d="M 10 25 C 7.789063 25 6 26.789063 6 29 C 6 31.210938 7.789063 33 10 33 C 12.210938 33 14 31.210938 14 29 C 14 26.789063 12.210938 25 10 25 Z M 10 31 C 8.894531 31 8 30.105469 8 29 C 8 27.894531 8.894531 27 10 27 C 11.105469 27 12 27.894531 12 29 C 12 30.105469 11.105469 31 10 31 Z "/>
<path style=" fill:#8D6C9F;" d="M 62.050781 50.199219 L 60.53125 46.199219 C 59.769531 44.246094 58.355469 42.617188 56.53125 41.589844 L 56.191406 41.398438 C 56.042969 41.316406 55.949219 41.160156 55.949219 40.988281 C 55.949219 40.820313 56.042969 40.664063 56.191406 40.578125 L 56.53125 40.390625 C 58.355469 39.363281 59.769531 37.734375 60.53125 35.78125 L 62.050781 31.78125 C 63.367188 31.246094 64.128906 29.863281 63.875 28.460938 C 63.621094 27.0625 62.421875 26.035156 61 26 L 60 26 L 60 21 C 60 19.34375 58.65625 18 57 18 L 56 18 L 56 15 C 56 13.34375 54.65625 12 53 12 L 3 12 C 1.34375 12 0 13.34375 0 15 L 0 43 C 0 44.65625 1.34375 46 3 46 L 4 46 L 4 49 C 4 50.65625 5.34375 52 7 52 L 40.179688 52 C 40.058594 52.320313 39.996094 52.660156 40 53 C 40 54.65625 41.34375 56 43 56 L 61 56 C 62.441406 55.988281 63.667969 54.953125 63.925781 53.535156 C 64.183594 52.117188 63.394531 50.71875 62.050781 50.199219 Z M 58.660156 35.070313 C 58.140625 36.429688 57.210938 37.59375 56 38.398438 L 55.589844 38.660156 L 55.25 38.851563 C 54.476563 39.289063 53.996094 40.109375 53.996094 41 C 53.996094 41.890625 54.476563 42.710938 55.25 43.148438 L 55.589844 43.339844 C 55.710938 43.40625 55.828125 43.480469 55.941406 43.558594 C 56.925781 44.203125 57.730469 45.082031 58.28125 46.121094 C 58.425781 46.378906 58.554688 46.652344 58.660156 46.929688 L 59.820313 50 L 44.449219 50 L 45.691406 46.769531 C 45.777344 46.507813 45.882813 46.25 46 46 C 46.398438 45.242188 46.933594 44.5625 47.578125 44 C 47.867188 43.75 48.175781 43.523438 48.5 43.320313 L 48.789063 43.140625 C 49.542969 42.6875 50 41.875 50 41 C 50 40.144531 49.558594 39.347656 48.828125 38.898438 L 48.539063 38.71875 C 47.238281 37.914063 46.238281 36.699219 45.691406 35.269531 L 44.449219 32 L 59.828125 32 L 58.691406 35 Z M 61 28 C 61.550781 28 62 28.449219 62 29 C 62 29.550781 61.550781 30 61 30 L 43 30 C 42.449219 30 42 29.550781 42 29 C 42 28.449219 42.449219 28 43 28 Z M 57 20 C 57.550781 20 58 20.449219 58 21 L 58 26 L 56 26 L 56 20 Z M 2 43 L 2 15 C 2 14.449219 2.449219 14 3 14 L 53 14 C 53.550781 14 54 14.449219 54 15 L 54 26 L 43 26 C 41.488281 26.003906 40.214844 27.136719 40.03125 28.636719 C 39.847656 30.140625 40.8125 31.542969 42.28125 31.910156 L 43.820313 35.910156 C 44.527344 37.746094 45.808594 39.304688 47.480469 40.351563 L 47.78125 40.53125 C 47.933594 40.636719 48.015625 40.816406 48 41 C 48 41.164063 47.914063 41.316406 47.769531 41.398438 L 47.480469 41.578125 C 46.484375 42.210938 45.621094 43.035156 44.941406 44 L 3 44 C 2.449219 44 2 43.550781 2 43 Z M 7 50 C 6.449219 50 6 49.550781 6 49 L 6 46 L 43.851563 46 L 43.851563 46.058594 L 42.308594 50 Z M 61 54 L 43 54 C 42.449219 54 42 53.550781 42 53 C 42 52.449219 42.449219 52 43 52 L 61 52 C 61.550781 52 62 52.449219 62 53 C 62 53.550781 61.550781 54 61 54 Z "/>
</g>
</svg>
