<?xml version="1.0" encoding="UTF-8"?>
<svg xmlns="http://www.w3.org/2000/svg" xmlns:xlink="http://www.w3.org/1999/xlink" viewBox="0 0 64 64" version="1.1" width="96px" height="96px">
<g id="surface1">
<path style=" fill:#FAEFDE;" d="M 35 25 L 35 52 L 39 48 L 43 52 L 32 63 L 21 52 L 25 48 L 29 52 L 29 25 Z "/>
<path style=" fill:#8D6C9F;" d="M 32.710938 63.710938 L 43.710938 52.710938 C 44.097656 52.320313 44.097656 51.691406 43.710938 51.300781 L 39.710938 47.300781 C 39.320313 46.914063 38.691406 46.914063 38.300781 47.300781 L 36 49.589844 L 36 25 C 36 24.449219 35.550781 24 35 24 L 29 24 C 28.449219 24 28 24.449219 28 25 L 28 49.589844 L 25.710938 47.300781 C 25.320313 46.914063 24.691406 46.914063 24.300781 47.300781 L 20.300781 51.300781 C 19.914063 51.691406 19.914063 52.320313 20.300781 52.710938 L 31.300781 63.710938 C 31.691406 64.097656 32.320313 64.097656 32.710938 63.710938 Z M 22.410156 52 L 25 49.410156 L 28.289063 52.699219 C 28.574219 52.988281 29.003906 53.074219 29.378906 52.921875 C 29.753906 52.769531 30 52.40625 30 52 L 30 26 L 34 26 L 34 52 C 33.996094 52.40625 34.242188 52.773438 34.617188 52.929688 C 34.992188 53.085938 35.425781 53 35.710938 52.710938 L 39 49.410156 L 41.589844 52 L 32 61.589844 Z "/>
<path style=" fill:#5DBC9D;" d="M 11 11 L 61 11 C 62.105469 11 63 11.894531 63 13 L 63 41 C 63 42.105469 62.105469 43 61 43 L 11 43 C 9.894531 43 9 42.105469 9 41 L 9 13 C 9 11.894531 9.894531 11 11 11 Z "/>
<path style=" fill:#5DBC9D;" d="M 7 7 L 57 7 C 58.105469 7 59 7.894531 59 9 L 59 37 C 59 38.105469 58.105469 39 57 39 L 7 39 C 5.894531 39 5 38.105469 5 37 L 5 9 C 5 7.894531 5.894531 7 7 7 Z "/>
<path style=" fill:#72CAAF;" d="M 3 3 L 53 3 C 54.105469 3 55 3.894531 55 5 L 55 33 C 55 34.105469 54.105469 35 53 35 L 3 35 C 1.894531 35 1 34.105469 1 33 L 1 5 C 1 3.894531 1.894531 3 3 3 Z "/>
<path style=" fill:#BBDEF9;" d="M 36 19 C 36 13.476563 32.417969 9 28 9 C 23.582031 9 20 13.476563 20 19 C 20 24.523438 23.582031 29 28 29 C 32.417969 29 36 24.523438 36 19 Z "/>
<path style=" fill:#DEF0FF;" d="M 28 29 C 32.421875 29 36 24.519531 36 19 C 36.007813 17.140625 35.574219 15.300781 34.738281 13.640625 L 23.738281 27.488281 C 24.949219 28.460938 26.449219 28.996094 28 29 Z "/>
<path style=" fill:#DEF0FF;" d="M 22.128906 25.78125 L 33.359375 11.589844 C 32.839844 10.996094 32.238281 10.480469 31.570313 10.058594 L 20.890625 23.558594 C 21.210938 24.347656 21.625 25.09375 22.128906 25.78125 Z "/>
<path style=" fill:#DEF0FF;" d="M 20.320313 21.761719 L 30.128906 9.371094 C 29.863281 9.277344 29.585938 9.207031 29.308594 9.148438 L 20.128906 20.730469 C 20.179688 21.078125 20.238281 21.421875 20.320313 21.761719 Z "/>
<path style=" fill:#97E0BB;" d="M 3 3 L 53 3 C 54.105469 3 55 3.894531 55 5 C 55 6.65625 53.65625 8 52 8 L 4 8 C 2.34375 8 1 6.65625 1 5 C 1 3.894531 1.894531 3 3 3 Z "/>
<path style=" fill:#FADB6F;" d="M 49 20 C 49 21.65625 47.65625 23 46 23 C 44.34375 23 43 21.65625 43 20 C 43 18.34375 44.34375 17 46 17 C 47.65625 17 49 18.34375 49 20 Z "/>
<path style=" fill:#FADB6F;" d="M 13 20 C 13 21.65625 11.65625 23 10 23 C 8.34375 23 7 21.65625 7 20 C 7 18.34375 8.34375 17 10 17 C 11.65625 17 13 18.34375 13 20 Z "/>
<path style=" fill:#8D6C9F;" d="M 61 10 L 60 10 L 60 9 C 60 7.34375 58.65625 6 57 6 L 56 6 L 56 5 C 56 3.34375 54.65625 2 53 2 L 3 2 C 1.34375 2 0 3.34375 0 5 L 0 33 C 0 34.65625 1.34375 36 3 36 L 4 36 L 4 37 C 4 38.65625 5.34375 40 7 40 L 8 40 L 8 41 C 8 42.65625 9.34375 44 11 44 L 61 44 C 62.65625 44 64 42.65625 64 41 L 64 13 C 64 11.34375 62.65625 10 61 10 Z M 2 33 L 2 5 C 2 4.449219 2.449219 4 3 4 L 53 4 C 53.550781 4 54 4.449219 54 5 L 54 33 C 54 33.550781 53.550781 34 53 34 L 3 34 C 2.449219 34 2 33.550781 2 33 Z M 6 37 L 6 36 L 53 36 C 54.65625 36 56 34.65625 56 33 L 56 8 L 57 8 C 57.550781 8 58 8.449219 58 9 L 58 37 C 58 37.550781 57.550781 38 57 38 L 7 38 C 6.449219 38 6 37.550781 6 37 Z M 62 41 C 62 41.550781 61.550781 42 61 42 L 11 42 C 10.449219 42 10 41.550781 10 41 L 10 40 L 57 40 C 58.65625 40 60 38.65625 60 37 L 60 12 L 61 12 C 61.550781 12 62 12.449219 62 13 Z "/>
<path style=" fill:#8D6C9F;" d="M 15 10 C 15.550781 10 16 9.550781 16 9 L 16 7 C 16 6.449219 15.550781 6 15 6 C 14.449219 6 14 6.449219 14 7 L 14 9 C 14 9.550781 14.449219 10 15 10 Z "/>
<path style=" fill:#8D6C9F;" d="M 20 10 C 20.550781 10 21 9.550781 21 9 L 21 7 C 21 6.449219 20.550781 6 20 6 C 19.449219 6 19 6.449219 19 7 L 19 9 C 19 9.550781 19.449219 10 20 10 Z "/>
<path style=" fill:#8D6C9F;" d="M 36 10 C 36.550781 10 37 9.550781 37 9 L 37 7 C 37 6.449219 36.550781 6 36 6 C 35.449219 6 35 6.449219 35 7 L 35 9 C 35 9.550781 35.449219 10 36 10 Z "/>
<path style=" fill:#8D6C9F;" d="M 41 10 C 41.550781 10 42 9.550781 42 9 L 42 7 C 42 6.449219 41.550781 6 41 6 C 40.449219 6 40 6.449219 40 7 L 40 9 C 40 9.550781 40.449219 10 41 10 Z "/>
<path style=" fill:#8D6C9F;" d="M 15 28 C 14.449219 28 14 28.449219 14 29 L 14 31 C 14 31.550781 14.449219 32 15 32 C 15.550781 32 16 31.550781 16 31 L 16 29 C 16 28.449219 15.550781 28 15 28 Z "/>
<path style=" fill:#8D6C9F;" d="M 20 32 C 20.550781 32 21 31.550781 21 31 L 21 29 C 21 28.449219 20.550781 28 20 28 C 19.449219 28 19 28.449219 19 29 L 19 31 C 19 31.550781 19.449219 32 20 32 Z "/>
<path style=" fill:#8D6C9F;" d="M 36 28 C 35.449219 28 35 28.449219 35 29 L 35 31 C 35 31.550781 35.449219 32 36 32 C 36.550781 32 37 31.550781 37 31 L 37 29 C 37 28.449219 36.550781 28 36 28 Z "/>
<path style=" fill:#8D6C9F;" d="M 41 32 C 41.550781 32 42 31.550781 42 31 L 42 29 C 42 28.449219 41.550781 28 41 28 C 40.449219 28 40 28.449219 40 29 L 40 31 C 40 31.550781 40.449219 32 41 32 Z "/>
<path style=" fill:#8D6C9F;" d="M 5 9 L 10 9 C 10.550781 9 11 8.550781 11 8 C 11 7.449219 10.550781 7 10 7 L 5 7 C 4.449219 7 4 7.449219 4 8 C 4 8.550781 4.449219 9 5 9 Z "/>
<path style=" fill:#8D6C9F;" d="M 10 31 C 10.550781 31 11 30.550781 11 30 C 11 29.449219 10.550781 29 10 29 L 5 29 C 4.449219 29 4 29.449219 4 30 C 4 30.550781 4.449219 31 5 31 Z "/>
<path style=" fill:#8D6C9F;" d="M 51 29 L 46 29 C 45.449219 29 45 29.449219 45 30 C 45 30.550781 45.449219 31 46 31 L 51 31 C 51.550781 31 52 30.550781 52 30 C 52 29.449219 51.550781 29 51 29 Z "/>
<path style=" fill:#8D6C9F;" d="M 46 9 L 51 9 C 51.550781 9 52 8.550781 52 8 C 52 7.449219 51.550781 7 51 7 L 46 7 C 45.449219 7 45 7.449219 45 8 C 45 8.550781 45.449219 9 46 9 Z "/>
<path style=" fill:#8D6C9F;" d="M 24 28.859375 C 23.996094 28.90625 23.996094 28.953125 24 29 L 24 31 C 24 31.550781 24.449219 32 25 32 C 25.550781 32 26 31.550781 26 31 L 26 29.71875 C 27.304688 30.097656 28.695313 30.097656 30 29.71875 L 30 31 C 30 31.550781 30.449219 32 31 32 C 31.550781 32 32 31.550781 32 31 L 32 29 C 32.003906 28.953125 32.003906 28.90625 32 28.859375 C 35.25 26.652344 37.140625 22.925781 37 19 C 37.140625 15.074219 35.25 11.347656 32 9.140625 C 32.003906 9.09375 32.003906 9.046875 32 9 L 32 7 C 32 6.449219 31.550781 6 31 6 C 30.449219 6 30 6.449219 30 7 L 30 8.28125 C 28.695313 7.902344 27.304688 7.902344 26 8.28125 L 26 7 C 26 6.449219 25.550781 6 25 6 C 24.449219 6 24 6.449219 24 7 L 24 9 C 23.996094 9.046875 23.996094 9.09375 24 9.140625 C 20.75 11.347656 18.859375 15.074219 19 19 C 18.859375 22.925781 20.75 26.652344 24 28.859375 Z M 28 10 C 31.859375 10 35 14 35 19 C 35 24 31.859375 28 28 28 C 24.140625 28 21 24 21 19 C 21 14 24.140625 10 28 10 Z "/>
<path style=" fill:#8D6C9F;" d="M 46 24 C 48.210938 24 50 22.210938 50 20 C 50 17.789063 48.210938 16 46 16 C 43.789063 16 42 17.789063 42 20 C 42 22.210938 43.789063 24 46 24 Z M 46 18 C 47.105469 18 48 18.894531 48 20 C 48 21.105469 47.105469 22 46 22 C 44.894531 22 44 21.105469 44 20 C 44 18.894531 44.894531 18 46 18 Z "/>
<path style=" fill:#8D6C9F;" d="M 6 20 C 6 22.210938 7.789063 24 10 24 C 12.210938 24 14 22.210938 14 20 C 14 17.789063 12.210938 16 10 16 C 7.789063 16 6 17.789063 6 20 Z M 12 20 C 12 21.105469 11.105469 22 10 22 C 8.894531 22 8 21.105469 8 20 C 8 18.894531 8.894531 18 10 18 C 11.105469 18 12 18.894531 12 20 Z "/>
</g>
</svg>
