<?xml version="1.0"?>
<svg xmlns="http://www.w3.org/2000/svg" xmlns:xlink="http://www.w3.org/1999/xlink" version="1.1" viewBox="0 0 252 252" width="80px" height="80px"><g transform="translate(-22.68,-22.68) scale(1.18,1.18)"><g fill="none" fill-rule="nonzero" stroke="none" stroke-width="1" stroke-linecap="butt" stroke-linejoin="miter" stroke-miterlimit="10" stroke-dasharray="" stroke-dashoffset="0" font-family="none" font-weight="none" font-size="none" text-anchor="none" style="mix-blend-mode: normal"><path d="M0,252v-252h252v252z" fill="none"/><g><g id="surface1"><path d="M199.5,68.25c-17.3291,0 -31.5,-4.71679 -31.5,-10.5c0,2.0918 0,8.40821 0,10.5c0,5.78321 14.1709,10.5 31.5,10.5c17.3291,0 31.5,-4.71679 31.5,-10.5c0,-2.09179 0,-8.4082 0,-10.5c0,5.78321 -14.1709,10.5 -31.5,10.5z" fill="#ffa000"/><path d="M199.5,52.5c-17.3291,0 -31.5,-4.71679 -31.5,-10.5c0,2.0918 0,8.40821 0,10.5c0,5.78321 14.1709,10.5 31.5,10.5c17.3291,0 31.5,-4.71679 31.5,-10.5c0,-2.09179 0,-8.4082 0,-10.5c0,5.78321 -14.1709,10.5 -31.5,10.5z" fill="#ffa000"/><path d="M199.5,84c-17.3291,0 -31.5,-4.71679 -31.5,-10.5c0,2.0918 0,8.40821 0,10.5c0,5.78321 14.1709,10.5 31.5,10.5c17.3291,0 31.5,-4.71679 31.5,-10.5c0,-2.09179 0,-8.4082 0,-10.5c0,5.78321 -14.1709,10.5 -31.5,10.5z" fill="#ffa000"/><path d="M199.5,99.75c-17.3291,0 -31.5,-4.71679 -31.5,-10.5c0,2.0918 0,8.40821 0,10.5c0,5.78321 14.1709,10.5 31.5,10.5c17.3291,0 31.5,-4.71679 31.5,-10.5c0,-2.09179 0,-8.4082 0,-10.5c0,5.78321 -14.1709,10.5 -31.5,10.5z" fill="#ffa000"/><path d="M199.5,115.5c-17.3291,0 -31.5,-4.71679 -31.5,-10.5c0,2.0918 0,8.40821 0,10.5c0,5.78321 14.1709,10.5 31.5,10.5c17.3291,0 31.5,-4.71679 31.5,-10.5c0,-2.09179 0,-8.4082 0,-10.5c0,5.78321 -14.1709,10.5 -31.5,10.5z" fill="#ffa000"/><path d="M199.5,131.25c-17.3291,0 -31.5,-4.71679 -31.5,-10.5c0,2.0918 0,8.40821 0,10.5c0,5.78321 14.1709,10.5 31.5,10.5c17.3291,0 31.5,-4.71679 31.5,-10.5c0,-2.09179 0,-8.4082 0,-10.5c0,5.78321 -14.1709,10.5 -31.5,10.5z" fill="#ffa000"/><path d="M199.5,147c-17.3291,0 -31.5,-4.71679 -31.5,-10.5c0,2.0918 0,8.40821 0,10.5c0,5.78321 14.1709,10.5 31.5,10.5c17.3291,0 31.5,-4.71679 31.5,-10.5c0,-2.09179 0,-8.4082 0,-10.5c0,5.78321 -14.1709,10.5 -31.5,10.5z" fill="#ffa000"/><path d="M199.5,162.75c-17.3291,0 -31.5,-4.71679 -31.5,-10.5c0,2.0918 0,8.40821 0,10.5c0,5.78321 14.1709,10.5 31.5,10.5c17.3291,0 31.5,-4.71679 31.5,-10.5c0,-2.09179 0,-8.4082 0,-10.5c0,5.78321 -14.1709,10.5 -31.5,10.5z" fill="#ffa000"/><path d="M199.5,178.5c-17.3291,0 -31.5,-4.71679 -31.5,-10.5c0,2.0918 0,8.40821 0,10.5c0,5.78321 14.1709,10.5 31.5,10.5c17.3291,0 31.5,-4.71679 31.5,-10.5c0,-2.09179 0,-8.4082 0,-10.5c0,5.78321 -14.1709,10.5 -31.5,10.5z" fill="#ffa000"/><path d="M199.5,194.25c-17.3291,0 -31.5,-4.71679 -31.5,-10.5c0,2.0918 0,8.40821 0,10.5c0,5.78321 14.1709,10.5 31.5,10.5c17.3291,0 31.5,-4.71679 31.5,-10.5c0,-2.09179 0,-8.4082 0,-10.5c0,5.78321 -14.1709,10.5 -31.5,10.5z" fill="#ffa000"/><path d="M199.5,210c-17.3291,0 -31.5,-4.71679 -31.5,-10.5c0,2.0918 0,8.40821 0,10.5c0,5.78321 14.1709,10.5 31.5,10.5c17.3291,0 31.5,-4.71679 31.5,-10.5c0,-2.09179 0,-8.4082 0,-10.5c0,5.78321 -14.1709,10.5 -31.5,10.5z" fill="#ffa000"/><path d="M231,42c0,-5.80371 -14.10937,-10.5 -31.5,-10.5c-17.39062,0 -31.5,4.69629 -31.5,10.5c0,5.80371 14.10938,10.5 31.5,10.5c17.39063,0 31.5,-4.69629 31.5,-10.5z" fill="#ffc107"/><path d="M199.5,63c-14.7041,0 -26.7832,-3.1582 -30.4541,-7.875c-0.51269,1.0459 -1.0459,1.5791 -1.0459,2.625c0,5.78321 14.1709,10.5 31.5,10.5c17.3291,0 31.5,-4.71679 31.5,-10.5c0,-1.0459 -0.5332,-1.5791 -1.0459,-2.625c-3.67089,4.7168 -15.75,7.875 -30.4541,7.875z" fill="#ffc107"/><path d="M199.5,78.75c-14.7041,0 -26.7832,-3.1582 -30.4541,-7.875c-0.51269,1.0459 -1.0459,1.5791 -1.0459,2.625c0,5.78321 14.1709,10.5 31.5,10.5c17.3291,0 31.5,-4.71679 31.5,-10.5c0,-1.0459 -0.5332,-1.5791 -1.0459,-2.625c-3.67089,4.7168 -15.75,7.875 -30.4541,7.875z" fill="#ffc107"/><path d="M199.5,94.5c-14.7041,0 -26.7832,-3.1582 -30.4541,-7.875c-0.51269,1.0459 -1.0459,1.5791 -1.0459,2.625c0,5.78321 14.1709,10.5 31.5,10.5c17.3291,0 31.5,-4.71679 31.5,-10.5c0,-1.0459 -0.5332,-1.5791 -1.0459,-2.625c-3.67089,4.7168 -15.75,7.875 -30.4541,7.875z" fill="#ffc107"/><path d="M199.5,110.25c-14.7041,0 -26.7832,-3.1582 -30.4541,-7.875c-0.51269,1.0459 -1.0459,1.5791 -1.0459,2.625c0,5.78321 14.1709,10.5 31.5,10.5c17.3291,0 31.5,-4.71679 31.5,-10.5c0,-1.0459 -0.5332,-1.5791 -1.0459,-2.625c-3.67089,4.7168 -15.75,7.875 -30.4541,7.875z" fill="#ffc107"/><path d="M199.5,126c-14.7041,0 -26.7832,-3.1582 -30.4541,-7.875c-0.51269,1.0459 -1.0459,1.5791 -1.0459,2.625c0,5.78321 14.1709,10.5 31.5,10.5c17.3291,0 31.5,-4.71679 31.5,-10.5c0,-1.0459 -0.5332,-1.5791 -1.0459,-2.625c-3.67089,4.7168 -15.75,7.875 -30.4541,7.875z" fill="#ffc107"/><path d="M199.5,141.75c-14.7041,0 -26.7832,-3.1582 -30.4541,-7.875c-0.51269,1.0459 -1.0459,1.5791 -1.0459,2.625c0,5.78321 14.1709,10.5 31.5,10.5c17.3291,0 31.5,-4.71679 31.5,-10.5c0,-1.0459 -0.5332,-1.5791 -1.0459,-2.625c-3.67089,4.7168 -15.75,7.875 -30.4541,7.875z" fill="#ffc107"/><path d="M199.5,157.5c-14.7041,0 -26.7832,-3.1582 -30.4541,-7.875c-0.51269,1.0459 -1.0459,1.5791 -1.0459,2.625c0,5.78321 14.1709,10.5 31.5,10.5c17.3291,0 31.5,-4.71679 31.5,-10.5c0,-1.0459 -0.5332,-1.5791 -1.0459,-2.625c-3.67089,4.7168 -15.75,7.875 -30.4541,7.875z" fill="#ffc107"/><path d="M199.5,173.25c-14.7041,0 -26.7832,-3.1582 -30.4541,-7.875c-0.51269,1.0459 -1.0459,1.5791 -1.0459,2.625c0,5.78321 14.1709,10.5 31.5,10.5c17.3291,0 31.5,-4.71679 31.5,-10.5c0,-1.0459 -0.5332,-1.5791 -1.0459,-2.625c-3.67089,4.7168 -15.75,7.875 -30.4541,7.875z" fill="#ffc107"/><path d="M199.5,189c-14.7041,0 -26.7832,-3.1582 -30.4541,-7.875c-0.51269,1.0459 -1.0459,1.5791 -1.0459,2.625c0,5.78321 14.1709,10.5 31.5,10.5c17.3291,0 31.5,-4.71679 31.5,-10.5c0,-1.0459 -0.5332,-1.5791 -1.0459,-2.625c-3.67089,4.7168 -15.75,7.875 -30.4541,7.875z" fill="#ffc107"/><path d="M199.5,204.75c-14.7041,0 -26.7832,-3.1582 -30.4541,-7.875c-0.51269,1.0459 -1.0459,1.5791 -1.0459,2.625c0,5.78321 14.1709,10.5 31.5,10.5c17.3291,0 31.5,-4.71679 31.5,-10.5c0,-1.0459 -0.5332,-1.5791 -1.0459,-2.625c-3.67089,4.7168 -15.75,7.875 -30.4541,7.875z" fill="#ffc107"/><path d="M52.5,99.75c-17.3291,0 -31.5,-4.71679 -31.5,-10.5c0,2.0918 0,8.40821 0,10.5c0,5.78321 14.1709,10.5 31.5,10.5c17.3291,0 31.5,-4.71679 31.5,-10.5c0,-2.09179 0,-8.4082 0,-10.5c0,5.78321 -14.1709,10.5 -31.5,10.5z" fill="#ffa000"/><path d="M52.5,84c-17.3291,0 -31.5,-4.71679 -31.5,-10.5c0,2.0918 0,8.40821 0,10.5c0,5.78321 14.1709,10.5 31.5,10.5c17.3291,0 31.5,-4.71679 31.5,-10.5c0,-2.09179 0,-8.4082 0,-10.5c0,5.78321 -14.1709,10.5 -31.5,10.5z" fill="#ffa000"/><path d="M52.5,115.5c-17.3291,0 -31.5,-4.71679 -31.5,-10.5c0,2.0918 0,8.40821 0,10.5c0,5.78321 14.1709,10.5 31.5,10.5c17.3291,0 31.5,-4.71679 31.5,-10.5c0,-2.09179 0,-8.4082 0,-10.5c0,5.78321 -14.1709,10.5 -31.5,10.5z" fill="#ffa000"/><path d="M52.5,131.25c-17.3291,0 -31.5,-4.71679 -31.5,-10.5c0,2.0918 0,8.40821 0,10.5c0,5.78321 14.1709,10.5 31.5,10.5c17.3291,0 31.5,-4.71679 31.5,-10.5c0,-2.09179 0,-8.4082 0,-10.5c0,5.78321 -14.1709,10.5 -31.5,10.5z" fill="#ffa000"/><path d="M52.5,147c-17.3291,0 -31.5,-4.71679 -31.5,-10.5c0,2.0918 0,8.40821 0,10.5c0,5.78321 14.1709,10.5 31.5,10.5c17.3291,0 31.5,-4.71679 31.5,-10.5c0,-2.09179 0,-8.4082 0,-10.5c0,5.78321 -14.1709,10.5 -31.5,10.5z" fill="#ffa000"/><path d="M52.5,162.75c-17.3291,0 -31.5,-4.71679 -31.5,-10.5c0,2.0918 0,8.40821 0,10.5c0,5.78321 14.1709,10.5 31.5,10.5c17.3291,0 31.5,-4.71679 31.5,-10.5c0,-2.09179 0,-8.4082 0,-10.5c0,5.78321 -14.1709,10.5 -31.5,10.5z" fill="#ffa000"/><path d="M52.5,178.5c-17.3291,0 -31.5,-4.71679 -31.5,-10.5c0,2.0918 0,8.40821 0,10.5c0,5.78321 14.1709,10.5 31.5,10.5c17.3291,0 31.5,-4.71679 31.5,-10.5c0,-2.09179 0,-8.4082 0,-10.5c0,5.78321 -14.1709,10.5 -31.5,10.5z" fill="#ffa000"/><path d="M52.5,194.25c-17.3291,0 -31.5,-4.71679 -31.5,-10.5c0,2.0918 0,8.40821 0,10.5c0,5.78321 14.1709,10.5 31.5,10.5c17.3291,0 31.5,-4.71679 31.5,-10.5c0,-2.09179 0,-8.4082 0,-10.5c0,5.78321 -14.1709,10.5 -31.5,10.5z" fill="#ffa000"/><path d="M52.5,210c-17.3291,0 -31.5,-4.71679 -31.5,-10.5c0,2.0918 0,8.40821 0,10.5c0,5.78321 14.1709,10.5 31.5,10.5c17.3291,0 31.5,-4.71679 31.5,-10.5c0,-2.09179 0,-8.4082 0,-10.5c0,5.78321 -14.1709,10.5 -31.5,10.5z" fill="#ffa000"/><path d="M84,73.5c0,-5.80371 -14.10937,-10.5 -31.5,-10.5c-17.39062,0 -31.5,4.69629 -31.5,10.5c0,5.80371 14.10938,10.5 31.5,10.5c17.39063,0 31.5,-4.69629 31.5,-10.5z" fill="#ffc107"/><path d="M52.5,94.5c-14.7041,0 -26.7832,-3.1582 -30.4541,-7.875c-0.51269,1.0459 -1.0459,1.5791 -1.0459,2.625c0,5.78321 14.1709,10.5 31.5,10.5c17.3291,0 31.5,-4.71679 31.5,-10.5c0,-1.0459 -0.5332,-1.5791 -1.0459,-2.625c-3.67089,4.7168 -15.75,7.875 -30.4541,7.875z" fill="#ffc107"/><path d="M52.5,110.25c-14.7041,0 -26.7832,-3.1582 -30.4541,-7.875c-0.51269,1.0459 -1.0459,1.5791 -1.0459,2.625c0,5.78321 14.1709,10.5 31.5,10.5c17.3291,0 31.5,-4.71679 31.5,-10.5c0,-1.0459 -0.5332,-1.5791 -1.0459,-2.625c-3.67089,4.7168 -15.75,7.875 -30.4541,7.875z" fill="#ffc107"/><path d="M52.5,126c-14.7041,0 -26.7832,-3.1582 -30.4541,-7.875c-0.51269,1.0459 -1.0459,1.5791 -1.0459,2.625c0,5.78321 14.1709,10.5 31.5,10.5c17.3291,0 31.5,-4.71679 31.5,-10.5c0,-1.0459 -0.5332,-1.5791 -1.0459,-2.625c-3.67089,4.7168 -15.75,7.875 -30.4541,7.875z" fill="#ffc107"/><path d="M52.5,141.75c-14.7041,0 -26.7832,-3.1582 -30.4541,-7.875c-0.51269,1.0459 -1.0459,1.5791 -1.0459,2.625c0,5.78321 14.1709,10.5 31.5,10.5c17.3291,0 31.5,-4.71679 31.5,-10.5c0,-1.0459 -0.5332,-1.5791 -1.0459,-2.625c-3.67089,4.7168 -15.75,7.875 -30.4541,7.875z" fill="#ffc107"/><path d="M52.5,157.5c-14.7041,0 -26.7832,-3.1582 -30.4541,-7.875c-0.51269,1.0459 -1.0459,1.5791 -1.0459,2.625c0,5.78321 14.1709,10.5 31.5,10.5c17.3291,0 31.5,-4.71679 31.5,-10.5c0,-1.0459 -0.5332,-1.5791 -1.0459,-2.625c-3.67089,4.7168 -15.75,7.875 -30.4541,7.875z" fill="#ffc107"/><path d="M52.5,173.25c-14.7041,0 -26.7832,-3.1582 -30.4541,-7.875c-0.51269,1.0459 -1.0459,1.5791 -1.0459,2.625c0,5.78321 14.1709,10.5 31.5,10.5c17.3291,0 31.5,-4.71679 31.5,-10.5c0,-1.0459 -0.5332,-1.5791 -1.0459,-2.625c-3.67089,4.7168 -15.75,7.875 -30.4541,7.875z" fill="#ffc107"/><path d="M52.5,189c-14.7041,0 -26.7832,-3.1582 -30.4541,-7.875c-0.51269,1.0459 -1.0459,1.5791 -1.0459,2.625c0,5.78321 14.1709,10.5 31.5,10.5c17.3291,0 31.5,-4.71679 31.5,-10.5c0,-1.0459 -0.5332,-1.5791 -1.0459,-2.625c-3.67089,4.7168 -15.75,7.875 -30.4541,7.875z" fill="#ffc107"/><path d="M52.5,204.75c-14.7041,0 -26.7832,-3.1582 -30.4541,-7.875c-0.51269,1.0459 -1.0459,1.5791 -1.0459,2.625c0,5.78321 14.1709,10.5 31.5,10.5c17.3291,0 31.5,-4.71679 31.5,-10.5c0,-1.0459 -0.5332,-1.5791 -1.0459,-2.625c-3.67089,4.7168 -15.75,7.875 -30.4541,7.875z" fill="#ffc107"/><path d="M126,147c-17.3291,0 -31.5,-4.71679 -31.5,-10.5c0,2.0918 0,8.40821 0,10.5c0,5.78321 14.1709,10.5 31.5,10.5c17.3291,0 31.5,-4.71679 31.5,-10.5c0,-2.09179 0,-8.4082 0,-10.5c0,5.78321 -14.1709,10.5 -31.5,10.5z" fill="#ffa000"/><path d="M126,131.25c-17.3291,0 -31.5,-4.71679 -31.5,-10.5c0,2.0918 0,8.40821 0,10.5c0,5.78321 14.1709,10.5 31.5,10.5c17.3291,0 31.5,-4.71679 31.5,-10.5c0,-2.09179 0,-8.4082 0,-10.5c0,5.78321 -14.1709,10.5 -31.5,10.5z" fill="#ffa000"/><path d="M126,162.75c-17.3291,0 -31.5,-4.71679 -31.5,-10.5c0,2.0918 0,8.40821 0,10.5c0,5.78321 14.1709,10.5 31.5,10.5c17.3291,0 31.5,-4.71679 31.5,-10.5c0,-2.09179 0,-8.4082 0,-10.5c0,5.78321 -14.1709,10.5 -31.5,10.5z" fill="#ffa000"/><path d="M126,178.5c-17.3291,0 -31.5,-4.71679 -31.5,-10.5c0,2.0918 0,8.40821 0,10.5c0,5.78321 14.1709,10.5 31.5,10.5c17.3291,0 31.5,-4.71679 31.5,-10.5c0,-2.09179 0,-8.4082 0,-10.5c0,5.78321 -14.1709,10.5 -31.5,10.5z" fill="#ffa000"/><path d="M126,194.25c-17.3291,0 -31.5,-4.71679 -31.5,-10.5c0,2.0918 0,8.40821 0,10.5c0,5.78321 14.1709,10.5 31.5,10.5c17.3291,0 31.5,-4.71679 31.5,-10.5c0,-2.09179 0,-8.4082 0,-10.5c0,5.78321 -14.1709,10.5 -31.5,10.5z" fill="#ffa000"/><path d="M126,210c-17.3291,0 -31.5,-4.71679 -31.5,-10.5c0,2.0918 0,8.40821 0,10.5c0,5.78321 14.1709,10.5 31.5,10.5c17.3291,0 31.5,-4.71679 31.5,-10.5c0,-2.09179 0,-8.4082 0,-10.5c0,5.78321 -14.1709,10.5 -31.5,10.5z" fill="#ffa000"/><path d="M157.5,120.75c0,-5.80371 -14.10937,-10.5 -31.5,-10.5c-17.39062,0 -31.5,4.69629 -31.5,10.5c0,5.80371 14.10938,10.5 31.5,10.5c17.39063,0 31.5,-4.69629 31.5,-10.5z" fill="#ffc107"/><path d="M126,141.75c-14.7041,0 -26.7832,-3.1582 -30.4541,-7.875c-0.51269,1.0459 -1.0459,1.5791 -1.0459,2.625c0,5.78321 14.1709,10.5 31.5,10.5c17.3291,0 31.5,-4.71679 31.5,-10.5c0,-1.0459 -0.5332,-1.5791 -1.0459,-2.625c-3.67089,4.7168 -15.75,7.875 -30.4541,7.875z" fill="#ffc107"/><path d="M126,157.5c-14.7041,0 -26.7832,-3.1582 -30.4541,-7.875c-0.51269,1.0459 -1.0459,1.5791 -1.0459,2.625c0,5.78321 14.1709,10.5 31.5,10.5c17.3291,0 31.5,-4.71679 31.5,-10.5c0,-1.0459 -0.5332,-1.5791 -1.0459,-2.625c-3.67089,4.7168 -15.75,7.875 -30.4541,7.875z" fill="#ffc107"/><path d="M126,173.25c-14.7041,0 -26.7832,-3.1582 -30.4541,-7.875c-0.51269,1.0459 -1.0459,1.5791 -1.0459,2.625c0,5.78321 14.1709,10.5 31.5,10.5c17.3291,0 31.5,-4.71679 31.5,-10.5c0,-1.0459 -0.5332,-1.5791 -1.0459,-2.625c-3.67089,4.7168 -15.75,7.875 -30.4541,7.875z" fill="#ffc107"/><path d="M126,189c-14.7041,0 -26.7832,-3.1582 -30.4541,-7.875c-0.51269,1.0459 -1.0459,1.5791 -1.0459,2.625c0,5.78321 14.1709,10.5 31.5,10.5c17.3291,0 31.5,-4.71679 31.5,-10.5c0,-1.0459 -0.5332,-1.5791 -1.0459,-2.625c-3.67089,4.7168 -15.75,7.875 -30.4541,7.875z" fill="#ffc107"/><path d="M126,204.75c-14.7041,0 -26.7832,-3.1582 -30.4541,-7.875c-0.51269,1.0459 -1.0459,1.5791 -1.0459,2.625c0,5.78321 14.1709,10.5 31.5,10.5c17.3291,0 31.5,-4.71679 31.5,-10.5c0,-1.0459 -0.5332,-1.5791 -1.0459,-2.625c-3.67089,4.7168 -15.75,7.875 -30.4541,7.875z" fill="#ffc107"/></g></g></g></g></svg>
