<?xml version="1.0"?>
<svg xmlns="http://www.w3.org/2000/svg" xmlns:xlink="http://www.w3.org/1999/xlink" version="1.1" viewBox="0 0 252 252" width="80px" height="80px"><g transform="translate(-6.3,-6.3) scale(1.05,1.05)"><g fill="none" fill-rule="nonzero" stroke="none" stroke-width="none" stroke-linecap="none" stroke-linejoin="none" stroke-miterlimit="10" stroke-dasharray="" stroke-dashoffset="0" font-family="none" font-weight="none" font-size="none" text-anchor="none" style="mix-blend-mode: normal"><path d="M0,252v-252h252v252z" fill="none" stroke="none" stroke-width="1" stroke-linecap="butt" stroke-linejoin="miter"/><g id="Layer_1"><g stroke="none" stroke-width="1" stroke-linecap="butt" stroke-linejoin="miter"><path d="M126,244.125c-72.92565,0 -118.125,-9.74925 -118.125,-58.275c0,-50.5512 73.96515,-135.22635 118.125,-135.22635c44.15985,0 118.125,84.67515 118.125,135.22635c0,48.52575 -45.19935,58.275 -118.125,58.275z" fill="#f5ce85"/><path d="M126,52.19865c43.5708,0 116.55,83.68605 116.55,133.65135c0,47.21535 -44.59455,56.7 -116.55,56.7c-71.95545,0 -116.55,-9.48465 -116.55,-56.7c0,-49.96215 72.9792,-133.65135 116.55,-133.65135M126,49.04865c-45.0828,0 -119.7,84.85785 -119.7,136.80135c0,51.9435 52.24905,59.85 119.7,59.85c67.45095,0 119.7,-7.9065 119.7,-59.85c0,-51.9435 -74.6172,-136.80135 -119.7,-136.80135z" fill="#967a44"/></g><g stroke="none" stroke-width="1" stroke-linecap="butt" stroke-linejoin="miter"><path d="M92.14695,61.425c-2.7153,-1.2915 -23.3415,-11.61405 -24.381,-27.4239c6.06375,-1.38285 33.2136,-7.2261 58.23405,-7.2261c25.02045,0 52.1703,5.84325 58.23405,7.2261c-1.0395,15.80985 -21.6657,26.1324 -24.381,27.4239z" fill="#f5ce85"/><path d="M126,28.35c23.3163,0 48.52575,5.11875 56.5236,6.88275c-1.95615,13.70565 -19.59615,22.94145 -23.0328,24.61725h-66.9816c-3.43665,-1.6758 -21.07665,-10.91475 -23.0328,-24.61725c7.9947,-1.76715 33.1884,-6.88275 56.5236,-6.88275M126,25.2c-28.7595,0 -59.85,7.56 -59.85,7.56c0,18.8055 25.65045,30.24 25.65045,30.24h68.3991c0,0 25.65045,-11.4345 25.65045,-30.24c0,0 -31.0905,-7.56 -59.85,-7.56z" fill="#967a44"/></g><g stroke="none" stroke-width="1" stroke-linecap="butt" stroke-linejoin="miter"><path d="M109.84995,61.425l-24.4566,-46.3365c4.1202,-1.91205 17.6148,-7.2135 40.60665,-7.2135c23.06745,0 36.50535,5.29515 40.6098,7.21035l-24.45975,46.33965z" fill="#f5ce85"/><path d="M126,9.45c20.39625,0 33.1758,4.2147 38.4237,6.39765l-23.2218,44.00235h-30.40065l-23.22495,-43.9992c5.2542,-2.1861 18.0306,-6.4008 38.4237,-6.4008M126,6.3c-28.7595,0 -42.74865,8.09865 -42.74865,8.09865l25.6473,48.60135h34.19955l25.65045,-48.60135c0,0 -13.98915,-8.09865 -42.74865,-8.09865z" fill="#967a44"/></g><path d="M162.44865,59.85h-63.5985c0,0 -19.8765,18.95985 -19.8765,72.67365" fill="none" stroke="#66798f" stroke-width="1" stroke-linecap="round" stroke-linejoin="round"/><path d="M99.0234,59.85c0,0 -28.15785,13.82535 -39.4002,55.57545" fill="none" stroke="#66798f" stroke-width="1" stroke-linecap="round" stroke-linejoin="round"/><path d="M144.9,138.6v-2.48535c0,-9.0657 -7.34895,-16.41465 -16.41465,-16.41465h-4.9707c-9.0657,0 -16.41465,7.34895 -16.41465,16.41465v0c0,5.4873 2.74365,10.61235 7.308,13.6584l23.18085,15.4539c4.5675,3.0429 7.308,8.1711 7.308,13.6584v0c0.00315,9.0657 -7.3458,16.41465 -16.4115,16.41465h-4.9707c-9.0657,0 -16.41465,-7.34895 -16.41465,-16.41465v-2.48535" fill="#f5ce85" stroke="#967a44" stroke-width="12.6" stroke-linecap="butt" stroke-linejoin="miter"/><path d="M126,119.7v-18.9" fill="none" stroke="#967a44" stroke-width="12.6" stroke-linecap="butt" stroke-linejoin="miter"/><path d="M126,214.2v-18.9" fill="none" stroke="#967a44" stroke-width="12.6" stroke-linecap="butt" stroke-linejoin="miter"/></g></g></g></svg>
