<?xml version="1.0" encoding="iso-8859-1"?>
<!-- Generator: Adobe Illustrator 21.0.2, SVG Export Plug-In . SVG Version: 6.00 Build 0)  -->
<svg xmlns="http://www.w3.org/2000/svg" xmlns:xlink="http://www.w3.org/1999/xlink" version="1.1" id="Layer_1" x="0px" y="0px" viewBox="0 0 128 128" style="enable-background:new 0 0 128 128;" xml:space="preserve" width="80px" height="80px">
<g>
	<path style="fill:#6EC6AF;" d="M106,95H22c-5.523,0-10-4.477-10-10V43c0-5.523,4.477-10,10-10h84c5.523,0,10,4.477,10,10v42   C116,90.523,111.523,95,106,95z"/>
</g>
<g style="opacity:0.7;">
	
		<rect x="43" y="22" transform="matrix(-1.836970e-16 1 -1 -1.836970e-16 128 1.421085e-14)" style="fill:#FFFFFF;" width="42" height="84"/>
</g>
<g>
	<circle style="fill:#FFFFFF;" cx="64" cy="64" r="17"/>
</g>
<g>
	<path style="fill:#444B54;" d="M70.213,65.246c-0.507-0.83-1.174-1.515-1.982-2.036c-0.667-0.432-1.428-0.778-2.26-1.029   c-0.615-0.187-1.244-0.366-1.888-0.542c-0.533-0.146-1.053-0.319-1.548-0.514c-0.303-0.119-0.568-0.275-0.788-0.465   c-0.146-0.125-0.275-0.31-0.385-0.547c-0.036-0.078-0.154-0.389-0.154-1.096c0-0.299,0.055-0.599,0.163-0.89   c0.094-0.252,0.237-0.48,0.428-0.683c0.183-0.194,0.443-0.362,0.773-0.499c0.676-0.281,2.031-0.28,2.653-0.003   c0.303,0.136,0.546,0.31,0.722,0.517c0.2,0.234,0.354,0.518,0.458,0.838c0.35,1.098,1.571,1.738,2.689,1.387   c0.548-0.175,0.994-0.552,1.256-1.062c0.261-0.507,0.308-1.085,0.134-1.624c-0.276-0.864-0.706-1.641-1.274-2.307   c-0.594-0.696-1.346-1.251-2.235-1.647c-0.28-0.125-0.588-0.231-0.92-0.318c-0.115-1.071-1.026-1.908-2.129-1.908   c-1.1,0-2.009,0.831-2.128,1.897c-0.313,0.079-0.604,0.174-0.874,0.286c-0.888,0.369-1.643,0.879-2.245,1.514   c-0.588,0.622-1.034,1.34-1.325,2.13c-0.285,0.766-0.43,1.563-0.43,2.372c0,1.126,0.184,2.095,0.546,2.882   c0.367,0.796,0.864,1.467,1.475,1.992c0.586,0.506,1.265,0.912,2.018,1.208c0.641,0.252,1.309,0.474,1.984,0.658   c0.608,0.166,1.201,0.337,1.778,0.511c0.451,0.137,0.847,0.313,1.177,0.527c0.264,0.17,0.483,0.396,0.654,0.676   c0.107,0.174,0.234,0.515,0.234,1.15c0,0.403-0.058,0.785-0.173,1.137c-0.1,0.305-0.249,0.568-0.442,0.783   c-0.178,0.197-0.422,0.36-0.724,0.484c-0.607,0.247-1.737,0.264-2.501,0.021c-0.316-0.1-0.602-0.263-0.847-0.486   c-0.261-0.237-0.485-0.569-0.668-0.986c-0.459-1.048-1.75-1.564-2.817-1.104c-0.526,0.229-0.931,0.648-1.14,1.181   c-0.208,0.531-0.197,1.11,0.032,1.633c0.425,0.972,0.999,1.79,1.705,2.432c0.708,0.646,1.532,1.118,2.445,1.405   c0.042,0.014,0.084,0.026,0.127,0.038c0.06,1.126,0.997,2.022,2.139,2.022c1.1,0,2.009-0.831,2.128-1.897   c0.378-0.078,0.713-0.179,1.022-0.305c0.904-0.371,1.673-0.903,2.285-1.583c0.597-0.662,1.043-1.44,1.329-2.313   c0.255-0.78,0.384-1.608,0.384-2.461C71.075,67.314,70.785,66.178,70.213,65.246z"/>
</g>
<path style="opacity:0.15;fill:#444B54;" d="M87,60h-2c-4.963,0-9,4.037-9,9c0,3.527,2.039,6.586,5,8.061V82  c0,4.698,1.372,9.186,3.835,13H106c5.523,0,10-4.477,10-10V60H87z"/>
<g>
	<path style="fill:none;stroke:#444B54;stroke-width:6;stroke-linecap:round;stroke-miterlimit:10;" d="M81,95H22   c-5.523,0-10-4.477-10-10V43c0-5.523,4.477-10,10-10h84c5.523,0,10,4.477,10,10v14"/>
</g>
<path style="fill:#444B54;" d="M125,72H85c-1.657,0-3-1.343-3-3v0c0-1.657,1.343-3,3-3h40c1.657,0,3,1.343,3,3v0  C128,70.657,126.657,72,125,72z"/>
<path style="fill:#444B54;" d="M85,122h40c1.657,0,3,1.343,3,3l0,0c0,1.657-1.343,3-3,3H85c-1.657,0-3-1.343-3-3l0,0  C82,123.343,83.343,122,85,122z"/>
<path style="fill:#FFFFFF;" d="M120,82V69H90v13c0,6.222,3.794,11.547,9.19,13.818C99.672,96.021,100,96.476,100,97v0  c0,0.524-0.328,0.979-0.81,1.182C93.794,100.453,90,105.778,90,112v13h30v-13c0-6.222-3.794-11.547-9.19-13.818  C110.328,97.979,110,97.524,110,97v0c0-0.524,0.328-0.979,0.81-1.182C116.206,93.547,120,88.222,120,82z"/>
<path style="fill:#F8E390;" d="M114,122H96v-4c0-4.971,4.029-9,9-9h0c4.971,0,9,4.029,9,9V122z"/>
<path style="fill:#F8E390;" d="M96,82h18v0c0,4.971-4.029,9-9,9h0C100.029,91,96,86.971,96,82L96,82z"/>
<path style="fill:none;stroke:#444B54;stroke-width:6;stroke-miterlimit:10;" d="M120,82V69H90v9v4  c0,6.222,3.794,11.547,9.19,13.818C99.672,96.021,100,96.476,100,97v0c0,0.524-0.328,0.979-0.81,1.182  C93.794,100.453,90,105.778,90,112v13h30v-8v-5c0-6.222-3.794-11.547-9.19-13.818C110.328,97.979,110,97.524,110,97v0  c0-0.524,0.328-0.979,0.81-1.182C116.206,93.547,120,88.222,120,82z"/>
</svg>
