<?xml version="1.0" encoding="UTF-8"?>
<svg xmlns="http://www.w3.org/2000/svg" xmlns:xlink="http://www.w3.org/1999/xlink" viewBox="0 0 64 64" version="1.1" width="80px" height="80px">
<g id="surface1">
<path style=" fill:#8B8E98;" d="M 39.820313 11.308594 C 39.578125 8.578125 35.71875 6.398438 31 6.398438 C 26.28125 6.398438 22.421875 8.578125 22.179688 11.308594 "/>
<path style=" fill:#8B8E98;" d="M 12.660156 21.101563 C 13.398438 14.929688 21.328125 10.101563 31 10.101563 C 40.53125 10.101563 48.359375 14.808594 49.308594 20.839844 "/>
<path style=" fill:#8B8E98;" d="M 49.308594 20.820313 L 38 20.910156 L 33.699219 20.910156 L 27.199219 21 L 12.660156 21 C 13.320313 15.410156 19.910156 10.898438 28.351563 10.109375 C 29.230469 10.054688 30.117188 10.042969 31 10.078125 C 31.90625 10.078125 32.808594 10.121094 33.710938 10.210938 C 34.941406 10.328125 36.164063 10.53125 37.371094 10.820313 C 39.007813 11.203125 40.597656 11.769531 42.109375 12.511719 C 43.046875 12.96875 43.9375 13.507813 44.78125 14.121094 C 47.121094 15.660156 48.75 18.074219 49.308594 20.820313 Z "/>
<path style=" fill:#ED7899;" d="M 12.800781 21.121094 C 11.132813 21.128906 9.675781 22.25 9.238281 23.859375 C 8.414063 26.863281 7.996094 29.964844 8 33.078125 C 8 48.828125 18.300781 61.601563 31 61.601563 C 43.699219 61.601563 54 48.828125 54 33.078125 C 54.007813 29.964844 53.59375 26.863281 52.769531 23.859375 C 52.335938 22.25 50.878906 21.128906 49.210938 21.121094 Z "/>
<path style=" fill:#F283A5;" d="M 54 33.078125 C 54.027344 38.226563 52.871094 43.3125 50.621094 47.941406 C 50.304688 48.578125 49.703125 49.027344 49 49.148438 C 48.296875 49.265625 47.578125 49.039063 47.070313 48.539063 C 46.371094 47.859375 46.207031 46.800781 46.660156 45.941406 C 48.886719 41.660156 50.035156 36.902344 50 32.078125 C 50 29.421875 49.671875 26.800781 48.070313 21.5 L 50.828125 21.5 C 51.78125 21.976563 52.488281 22.832031 52.769531 23.859375 C 53.589844 26.863281 54.003906 29.964844 54 33.078125 Z "/>
<path style=" fill:#ED7899;" d="M 50 32.078125 C 50.054688 37.453125 48.621094 42.738281 45.859375 47.351563 L 49.148438 50.578125 C 45 57.289063 38.378906 61.601563 31 61.601563 C 18.300781 61.601563 8 48.828125 8 33.078125 C 7.996094 29.964844 8.410156 26.863281 9.230469 23.859375 C 9.664063 22.246094 11.128906 21.121094 12.800781 21.121094 L 49.199219 21.121094 C 49.765625 21.121094 50.324219 21.25 50.828125 21.5 L 48.070313 21.5 C 49.671875 26.800781 50 29.421875 50 32.078125 Z "/>
<path style=" fill:#E0678F;" d="M 26.300781 56.769531 L 26.300781 57.019531 C 26.167969 57.984375 25.574219 58.828125 24.710938 59.277344 C 23.84375 59.726563 22.816406 59.726563 21.949219 59.28125 C 13.730469 54.921875 8 44.828125 8 33.078125 C 7.996094 31.042969 8.171875 29.007813 8.519531 27 C 8.644531 26.34375 9.042969 25.769531 9.613281 25.425781 C 10.1875 25.078125 10.878906 24.992188 11.519531 25.191406 C 12.597656 25.523438 13.289063 26.578125 13.160156 27.699219 C 13.042969 28.824219 12.992188 29.953125 13 31.078125 C 13 41.261719 17.820313 50 24.671875 53.710938 C 25.808594 54.28125 26.460938 55.507813 26.300781 56.769531 Z "/>
<path style=" fill:#989BA3;" d="M 42.109375 12.511719 L 33.679688 20.941406 L 27.199219 21 L 37.371094 10.820313 C 39.007813 11.203125 40.597656 11.769531 42.109375 12.511719 Z "/>
<path style=" fill:#989BA3;" d="M 49.308594 20.820313 L 38 20.910156 L 44.800781 14.121094 C 47.132813 15.664063 48.757813 18.078125 49.308594 20.820313 Z "/>
<path style=" fill:#989BA3;" d="M 33.710938 10.210938 L 22.898438 21 L 17.5 21 L 28.351563 10.210938 C 29.230469 10.121094 30.113281 10.078125 31 10.078125 C 31.90625 10.078125 32.808594 10.121094 33.710938 10.210938 Z "/>
<path style=" fill:#8D6C9F;" d="M 14.058594 33.199219 L 14.148438 33.199219 C 14.703125 33.222656 15.167969 32.792969 15.191406 32.238281 C 15.210938 31.6875 14.78125 31.222656 14.230469 31.199219 L 12.230469 31.03125 C 11.679688 30.984375 11.199219 31.390625 11.148438 31.941406 C 11.117188 32.480469 11.519531 32.953125 12.058594 33 Z "/>
<path style=" fill:#8D6C9F;" d="M 22.210938 50.660156 L 21.070313 52.300781 C 20.753906 52.753906 20.863281 53.378906 21.316406 53.695313 C 21.769531 54.011719 22.390625 53.902344 22.710938 53.449219 L 23.859375 51.808594 C 24.175781 51.355469 24.066406 50.734375 23.613281 50.414063 C 23.164063 50.097656 22.539063 50.207031 22.21875 50.660156 Z "/>
<path style=" fill:#8D6C9F;" d="M 18.339844 46.761719 L 16.808594 48.050781 C 16.386719 48.40625 16.332031 49.039063 16.691406 49.460938 C 17.046875 49.882813 17.675781 49.9375 18.101563 49.578125 L 19.628906 48.289063 C 20.050781 47.933594 20.105469 47.300781 19.75 46.878906 C 19.394531 46.457031 18.761719 46.402344 18.339844 46.761719 Z "/>
<path style=" fill:#8D6C9F;" d="M 16.941406 42.480469 C 16.707031 41.984375 16.117188 41.773438 15.621094 42 L 13.808594 42.851563 C 13.320313 43.089844 13.113281 43.679688 13.347656 44.171875 C 13.578125 44.664063 14.164063 44.882813 14.660156 44.660156 L 16.46875 43.808594 C 16.964844 43.570313 17.175781 42.976563 16.941406 42.480469 Z "/>
<path style=" fill:#8D6C9F;" d="M 15.371094 37.511719 C 15.273438 36.964844 14.753906 36.601563 14.210938 36.699219 L 12.210938 37.050781 C 11.65625 37.097656 11.25 37.582031 11.296875 38.136719 C 11.34375 38.6875 11.828125 39.097656 12.378906 39.050781 L 12.558594 39.050781 L 14.558594 38.699219 C 14.828125 38.652344 15.066406 38.5 15.21875 38.277344 C 15.371094 38.050781 15.425781 37.777344 15.371094 37.511719 Z "/>
<path style=" fill:#8D6C9F;" d="M 48.441406 28.261719 C 48.519531 28.75 48.945313 29.105469 49.441406 29.101563 L 49.601563 29.101563 C 50.144531 29.007813 50.511719 28.492188 50.421875 27.949219 C 50.28125 27.121094 50.109375 26.289063 49.910156 25.480469 C 49.710938 25.023438 49.210938 24.78125 48.730469 24.914063 C 48.25 25.042969 47.9375 25.507813 48 26 C 48.148438 26.710938 48.308594 27.488281 48.441406 28.261719 Z "/>
<path style=" fill:#8D6C9F;" d="M 49.828125 32 C 49.277344 32 48.828125 32.449219 48.828125 33 C 48.84375 36.351563 48.257813 39.675781 47.101563 42.820313 C 47.007813 43.070313 47.015625 43.34375 47.125 43.585938 C 47.238281 43.828125 47.441406 44.019531 47.691406 44.109375 C 47.800781 44.152344 47.921875 44.171875 48.039063 44.171875 C 48.457031 44.171875 48.832031 43.910156 48.980469 43.519531 C 50.222656 40.152344 50.847656 36.589844 50.828125 33 C 50.828125 32.449219 50.382813 32 49.828125 32 Z "/>
<path style=" fill:#8D6C9F;" d="M 31 50 C 30.449219 50 30 50.449219 30 51 L 30 55 C 30 55.550781 30.449219 56 31 56 C 31.550781 56 32 55.550781 32 55 L 32 51 C 32 50.449219 31.550781 50 31 50 Z "/>
<path style=" fill:#8D6C9F;" d="M 61.949219 55 L 58.949219 46.101563 C 58.289063 44.121094 56.941406 42.441406 55.148438 41.371094 L 54.148438 40.761719 C 54.710938 38.238281 54.996094 35.664063 55 33.078125 C 55 32.839844 55 32.589844 55 32.351563 L 60.898438 33.089844 L 61 33.089844 C 61.550781 33.125 62.027344 32.703125 62.058594 32.148438 C 62.09375 31.597656 61.671875 31.125 61.121094 31.089844 L 54.878906 30.308594 C 54.738281 28.421875 54.441406 26.550781 54 24.710938 L 56.078125 23.820313 C 58.511719 22.796875 60.351563 20.726563 61.078125 18.191406 L 62 15 C 62.164063 14.449219 61.851563 13.867188 61.300781 13.699219 C 60.746094 13.535156 60.164063 13.847656 60 14.398438 L 59.078125 17.628906 C 58.539063 19.582031 57.148438 21.1875 55.289063 22 L 53.421875 22.800781 C 52.789063 21.507813 51.605469 20.570313 50.199219 20.261719 C 49.359375 16.199219 45.769531 12.789063 40.75 10.851563 C 40.394531 9.359375 39.445313 8.078125 38.121094 7.308594 L 41.699219 3.730469 C 42.039063 3.332031 42.015625 2.742188 41.648438 2.371094 C 41.277344 2.003906 40.6875 1.980469 40.289063 2.320313 L 36.289063 6.320313 C 32.890625 5.074219 29.160156 5.074219 25.761719 6.320313 L 21.761719 2.320313 C 21.363281 1.980469 20.773438 2.003906 20.402344 2.371094 C 20.03125 2.742188 20.011719 3.332031 20.351563 3.730469 L 23.929688 7.308594 C 22.613281 8.082031 21.664063 9.355469 21.308594 10.839844 C 16.308594 12.769531 12.699219 16.179688 11.859375 20.269531 C 10.457031 20.582031 9.269531 21.515625 8.640625 22.808594 L 6.710938 22 C 4.84375 21.207031 3.4375 19.609375 2.878906 17.660156 L 2 14.398438 C 1.835938 13.847656 1.253906 13.535156 0.699219 13.699219 C 0.148438 13.867188 -0.164063 14.449219 0 15 L 1 18.191406 C 1.726563 20.726563 3.566406 22.796875 6 23.820313 L 8 24.710938 C 7.554688 26.554688 7.257813 28.429688 7.109375 30.320313 L 0.878906 31.101563 C 0.328125 31.132813 -0.09375 31.609375 -0.0585938 32.160156 C -0.0273438 32.710938 0.449219 33.132813 1 33.101563 L 1.128906 33.101563 L 7 32.351563 C 7 32.589844 7 32.828125 7 33.078125 C 7 35.664063 7.277344 38.242188 7.828125 40.769531 L 6.828125 41.378906 C 5.027344 42.449219 3.667969 44.125 3 46.109375 L 0.0507813 55 C -0.125 55.523438 0.160156 56.089844 0.683594 56.265625 C 1.210938 56.4375 1.777344 56.15625 1.949219 55.628906 L 4.949219 46.730469 C 5.460938 45.203125 6.5 43.910156 7.878906 43.078125 L 8.378906 42.78125 C 11.609375 54.308594 20.53125 62.601563 31 62.601563 C 41.46875 62.601563 50.390625 54.308594 53.660156 42.789063 L 54.160156 43.089844 C 55.539063 43.917969 56.578125 45.210938 57.089844 46.738281 L 60.089844 55.640625 C 60.265625 56.164063 60.832031 56.449219 61.355469 56.273438 C 61.878906 56.101563 62.164063 55.535156 61.988281 55.011719 Z M 31 7.398438 C 34.199219 7.398438 37 8.488281 38.21875 10 C 35.863281 9.382813 33.4375 9.074219 31 9.078125 C 28.566406 9.070313 26.144531 9.375 23.789063 9.980469 C 25 8.480469 27.808594 7.398438 31 7.398438 Z M 31 11.078125 C 39.378906 11.078125 46.648438 14.988281 48.121094 20.078125 L 13.871094 20.078125 C 15.339844 15 22.539063 11.078125 31 11.078125 Z M 31 60.601563 C 18.871094 60.601563 9 48.25 9 33.078125 C 8.992188 30.039063 9.394531 27.011719 10.199219 24.078125 C 10.523438 22.90625 11.582031 22.089844 12.800781 22.078125 L 30 22.078125 L 30 47 C 30 47.550781 30.449219 48 31 48 C 31.550781 48 32 47.550781 32 47 L 32 22.121094 L 49.199219 22.121094 C 50.417969 22.128906 51.476563 22.945313 51.800781 24.121094 C 52.605469 27.050781 53.007813 30.078125 53 33.121094 C 53 48.25 43.128906 60.601563 31 60.601563 Z "/>
</g>
</svg>
