<?xml version="1.0"?>
<svg xmlns="http://www.w3.org/2000/svg" xmlns:xlink="http://www.w3.org/1999/xlink" version="1.1" viewBox="0 0 252 252" width="80px" height="80px"><g transform="translate(-7.56,-7.56) scale(1.06,1.06)"><g fill="none" fill-rule="nonzero" stroke="none" stroke-width="1" stroke-linecap="butt" stroke-linejoin="miter" stroke-miterlimit="10" stroke-dasharray="" stroke-dashoffset="0" font-family="none" font-weight="none" font-size="none" text-anchor="none" style="mix-blend-mode: normal"><path d="M0,252v-252h252v252z" fill="none"/><g fill="#000000"><g id="surface1"><path d="M136.5,0c-15.75,47.25 -52.5,10.5 -52.5,73.5h21c0,-49.3418 31.5,-16.8164 31.5,-73.5zM157.5,10.5c-8.4082,47.25 -31.5,27.31641 -31.5,63h21c0,-32.5664 10.5,-12.5918 10.5,-63zM42,84l21,168h105l21,-168zM198.51563,115.5l-2.29687,21h17.0625c4.1836,0 8.20313,3.28125 8.20313,8.53125v12.46875c0,5.25 -2.17383,31.5 -30.51562,31.5l-2.95312,21h0.98438c42,0 52.5,-34.6582 52.5,-52.5v-12.46875c0,-16.8164 -12.71484,-29.53125 -29.53125,-29.53125z"/></g></g></g></g></svg>
