<?xml version="1.0"?>
<svg xmlns="http://www.w3.org/2000/svg" xmlns:xlink="http://www.w3.org/1999/xlink" version="1.1" viewBox="0 0 252 252" width="80px" height="80px"><g transform="translate(-7.56,-7.56) scale(1.06,1.06)"><g fill="none" fill-rule="nonzero" stroke="none" stroke-width="none" stroke-linecap="butt" stroke-linejoin="miter" stroke-miterlimit="10" stroke-dasharray="" stroke-dashoffset="0" font-family="none" font-weight="none" font-size="none" text-anchor="none" style="mix-blend-mode: normal"><path d="M0,252v-252h252v252z" fill="none" stroke="none" stroke-width="1"/><g id="Layer_1"><g stroke="none" stroke-width="1"><g fill="#8bb7f0"><path d="M63,203.175c-19.97415,0 -36.225,-16.25085 -36.225,-36.225v-89.775h212.625c2.60505,0 4.725,2.11995 4.725,4.725v53.55c0,13.0284 -10.5966,23.625 -23.625,23.625h-7.875v7.875c0,19.97415 -16.25085,36.225 -36.225,36.225zM212.625,149.625h7.875c7.81515,0 14.175,-6.35985 14.175,-14.175v-48.825h-22.05z"/></g><g fill="#4e7ab5"><path d="M239.4,78.75c1.73565,0 3.15,1.41435 3.15,3.15v53.55c0,12.159 -9.891,22.05 -22.05,22.05h-6.3h-3.15v3.15v6.3c0,19.10475 -15.54525,34.65 -34.65,34.65h-113.4c-19.10475,0 -34.65,-15.54525 -34.65,-34.65v-88.2h211.05M211.05,151.2h3.15h6.3c8.68455,0 15.75,-7.06545 15.75,-15.75v-47.25v-3.15h-3.15h-18.9h-3.15v3.15v59.85v3.15M239.4,75.6h-214.2v91.35c0,20.87505 16.92495,37.8 37.8,37.8h113.4c20.87505,0 37.8,-16.92495 37.8,-37.8v-6.3h6.3c13.9167,0 25.2,-11.2833 25.2,-25.2v-53.55c0,-3.48075 -2.81925,-6.3 -6.3,-6.3zM214.2,148.05v-59.85h18.9v47.25c0,6.95835 -5.64165,12.6 -12.6,12.6h-6.3z"/></g></g><g fill="none" stroke="#f78f8f" stroke-width="6.3"><path d="M85.05,63v-44.1"/></g><g fill="none" stroke="#f78f8f" stroke-width="6.3"><path d="M110.25,63v-31.5"/></g><g fill="none" stroke="#f78f8f" stroke-width="6.3"><path d="M135.45,63v-44.1"/></g><g fill="none" stroke="#f78f8f" stroke-width="6.3"><path d="M160.65,63v-31.5"/></g><g stroke="none" stroke-width="1"><path d="M31.5,231.525c-13.0284,0 -23.625,-10.5966 -23.625,-23.625v-4.725h223.65v4.725c0,13.0284 -10.5966,23.625 -23.625,23.625z" fill="#8bb7f0"/><g fill="#4e7ab5"><path d="M229.95,204.75v3.15c0,12.159 -9.891,22.05 -22.05,22.05h-176.4c-12.159,0 -22.05,-9.891 -22.05,-22.05v-3.15h220.5M233.1,201.6h-226.8v6.3c0,13.9167 11.2833,25.2 25.2,25.2h176.4c13.9167,0 25.2,-11.2833 25.2,-25.2v-6.3z"/></g></g></g></g></g></svg>
