<?xml version="1.0"?>
<svg xmlns="http://www.w3.org/2000/svg" xmlns:xlink="http://www.w3.org/1999/xlink" version="1.1" viewBox="0 0 252 252" width="80px" height="80px"><g transform="translate(-22.68,-22.68) scale(1.18,1.18)"><g fill="none" fill-rule="nonzero" stroke="none" stroke-width="none" stroke-linecap="butt" stroke-linejoin="miter" stroke-miterlimit="10" stroke-dasharray="" stroke-dashoffset="0" font-family="none" font-weight="none" font-size="none" text-anchor="none" style="mix-blend-mode: normal"><path d="M0,252v-252h252v252z" fill="none" stroke="none" stroke-width="1"/><g id="Layer_1"><path d="M231,126c0,57.981 -47.019,105 -105,105c-57.981,0 -105,-47.019 -105,-105c0,-57.981 47.019,-105 105,-105c57.981,0 105,47.019 105,105z" fill="#ffca28" stroke="none" stroke-width="1"/><path d="M115.5,115.5c0,5.80125 0,31.5 -31.5,31.5c-21,0 -36.75,-21 -36.75,-31.5c0,-10.5 5.25,-15.75 15.75,-15.75h36.75c5.80125,0 15.75,5.25 15.75,15.75z" fill="#37474f" stroke="none" stroke-width="1"/><path d="M136.5,115.5c0,5.80125 0,31.5 31.5,31.5c21,0 36.75,-21 36.75,-31.5c0,-10.5 -5.25,-15.75 -15.75,-15.75h-36.75c-5.80125,0 -15.75,5.25 -15.75,15.75z" fill="#37474f" stroke="none" stroke-width="1"/><path d="M110.25,120.75c0,0 0,-10.5 15.75,-10.5c15.75,0 15.75,10.5 15.75,10.5" fill="none" stroke="#37474f" stroke-width="10.5"/><path d="M157.5,162.75c0,0 -5.51775,26.25 -31.5,26.25c-21.14175,0 -21,-15.75 -21,-15.75" fill="none" stroke="#b76c09" stroke-width="10.5"/></g></g></g></svg>
