<?xml version="1.0"?>
<svg xmlns="http://www.w3.org/2000/svg" xmlns:xlink="http://www.w3.org/1999/xlink" version="1.1" viewBox="0 0 252 252" width="80px" height="80px"><g transform="translate(-32.76,-32.76) scale(1.26,1.26)"><g fill="none" fill-rule="nonzero" stroke="none" stroke-width="1" stroke-linecap="butt" stroke-linejoin="miter" stroke-miterlimit="10" stroke-dasharray="" stroke-dashoffset="0" font-family="none" font-weight="none" font-size="none" text-anchor="none" style="mix-blend-mode: normal"><path d="M0,252v-252h252v252z" fill="none"/><g><g id="surface1"><path d="M147,199.5c0,11.60742 -9.39258,21 -21,21c-11.60742,0 -21,-9.39258 -21,-21c0,-11.58691 9.39258,-21 21,-21c11.60742,0 21,9.41309 21,21z" fill="#db8509"/><path d="M136.5,57.75c0,5.80371 -4.69629,10.5 -10.5,10.5c-5.80371,0 -10.5,-4.69629 -10.5,-10.5v-21c0,-5.80371 4.69629,-10.5 10.5,-10.5c5.80371,0 10.5,4.69629 10.5,10.5z" fill="#db8509"/><path d="M146.40527,204.27832c0.34863,-1.53808 0.59473,-3.13769 0.59473,-4.77832c0,-2.00976 -0.36914,-3.91699 -0.90234,-5.76269c-6.39844,0.32813 -13.10449,0.51269 -20.09766,0.51269c-6.99316,0 -13.69922,-0.18457 -20.09766,-0.51269c-0.5332,1.8457 -0.90234,3.75293 -0.90234,5.76269c0,1.64063 0.24609,3.24024 0.59473,4.77832c7.73145,0.36914 14.76563,0.47168 20.40527,0.47168c5.63965,0 12.67383,-0.10254 20.40527,-0.47168z" fill="#bc6f0a"/><path d="M173.25,173.25v-85.0459c0,-26.08594 -21.14356,-47.25 -47.25,-47.25c-26.10644,0 -47.25,21.16406 -47.25,47.25v85.0459z" fill="#ffc107"/><path d="M215.25,173.25c0,11.60742 -37.05762,21 -89.25,21c-52.19238,0 -89.25,-9.39258 -89.25,-21c0,-11.60742 37.05762,-21 89.25,-21c52.19238,0 89.25,9.39258 89.25,21z" fill="#ffc107"/><path d="M36.75,173.25c0,-10.5 42,-47.25 42,-63c0,-15.75 94.5,-15.75 94.5,0c0,15.75 42,52.5 42,63c0,10.5 -178.5,10.5 -178.5,0z" fill="#ffc107"/><path d="M48.68555,154.48535c-2.56348,3.09668 -4.86036,6.00879 -6.78809,8.6543c8.51074,3.44531 42.77929,16.07813 86.95312,16.07813c24.91699,0 52.97168,-4.10156 81.25195,-16.09863c-1.90723,-2.60449 -4.18359,-5.47559 -6.72656,-8.55176c-68.45508,27.72656 -136.70508,6.50098 -154.69043,-0.08203z" fill="#ffe082"/></g></g></g></g></svg>
