<?xml version="1.0"?>
<svg xmlns="http://www.w3.org/2000/svg" xmlns:xlink="http://www.w3.org/1999/xlink" version="1.1" viewBox="0 0 252 252" width="96px" height="96px"><g transform="translate(-12.6,-12.6) scale(1.1,1.1)"><g fill="none" fill-rule="nonzero" stroke="none" stroke-width="1" stroke-linecap="butt" stroke-linejoin="miter" stroke-miterlimit="10" stroke-dasharray="" stroke-dashoffset="0" font-family="none" font-weight="none" font-size="none" text-anchor="none" style="mix-blend-mode: normal"><path d="M0,252v-252h252v252z" fill="none"/><g id="Layer_1"><path d="M126,10.5l23.6565,26.40225l34.0935,-10.65225l7.69125,34.30875l34.30875,7.69125l-10.5,34.0935l26.25,23.6565l-26.25,23.6565l10.5,34.0935l-34.30875,7.69125l-7.69125,34.30875l-34.0935,-10.65225l-23.6565,26.40225l-23.6565,-26.40225l-34.0935,10.65225l-7.69125,-34.30875l-34.30875,-7.69125l10.5,-34.0935l-26.25,-23.6565l26.25,-23.6565l-10.5,-34.0935l34.30875,-7.69125l7.69125,-34.30875l34.0935,10.65225z" fill="#f44336"/><path d="M116.54475,138.5895h-11.54475l-2.0895,8.4105h-8.94075l13.125,-42h7.875l13.125,42h-8.91975zM106.58025,131.25h7.875l-3.66975,-14.70525z" fill="#ffffff"/><path d="M142.79475,139.6605h14.70525v7.3395h-23.0895v-42h8.3895v34.6605z" fill="#ffffff"/><path d="M186.9105,128.625h-13.125v11.0355h15.75v7.3395h-24.1605v-42h24.1605v6.83025h-15.75v9.9645h13.125z" fill="#ffffff"/><path d="M79.2855,135.9645c0,-8.91975 -17.8605,-5.7645 -17.8605,-19.93425c0,-4.20525 2.625,-11.56575 13.125,-11.56575c11.54475,0 13.125,9.9855 13.125,13.125h-8.3895c0,-3.1395 -1.58025,-5.7645 -4.7355,-5.7645c-4.7145,0 -4.7145,4.20525 -4.7145,4.7145c0,7.875 17.8395,4.7355 17.8395,19.41975c0,6.31575 -4.20525,11.56575 -13.125,11.56575c-7.3395,0 -14.70525,-4.7355 -14.70525,-13.6605h8.40525c0,2.625 0.5355,6.83025 5.7855,6.83025c2.625,0.0105 5.25,-0.525 5.25,-4.73025z" fill="#ffffff"/></g></g></g></svg>
