<?xml version="1.0"?>
<svg xmlns="http://www.w3.org/2000/svg" xmlns:xlink="http://www.w3.org/1999/xlink" version="1.1" viewBox="0 0 252 252" width="80px" height="80px"><defs><linearGradient x1="126" y1="19.6875" x2="126" y2="232.23611" gradientUnits="userSpaceOnUse" id="color-1"><stop offset="0" stop-color="#1a6dff"/><stop offset="1" stop-color="#c822ff"/></linearGradient><linearGradient x1="126" y1="49.21875" x2="126" y2="198.2799" gradientUnits="userSpaceOnUse" id="color-2"><stop offset="0" stop-color="#6dc7ff"/><stop offset="1" stop-color="#e6abff"/></linearGradient><linearGradient x1="126" y1="19.6875" x2="126" y2="232.23611" gradientUnits="userSpaceOnUse" id="color-3"><stop offset="0" stop-color="#1a6dff"/><stop offset="1" stop-color="#c822ff"/></linearGradient><linearGradient x1="104.34375" y1="19.6875" x2="104.34375" y2="232.23611" gradientUnits="userSpaceOnUse" id="color-4"><stop offset="0" stop-color="#1a6dff"/><stop offset="1" stop-color="#c822ff"/></linearGradient><linearGradient x1="120.09375" y1="19.6875" x2="120.09375" y2="232.23611" gradientUnits="userSpaceOnUse" id="color-5"><stop offset="0" stop-color="#1a6dff"/><stop offset="1" stop-color="#c822ff"/></linearGradient><linearGradient x1="135.84375" y1="19.6875" x2="135.84375" y2="232.23611" gradientUnits="userSpaceOnUse" id="color-6"><stop offset="0" stop-color="#1a6dff"/><stop offset="1" stop-color="#c822ff"/></linearGradient><linearGradient x1="151.59375" y1="19.6875" x2="151.59375" y2="232.23611" gradientUnits="userSpaceOnUse" id="color-7"><stop offset="0" stop-color="#1a6dff"/><stop offset="1" stop-color="#c822ff"/></linearGradient></defs><g transform="translate(-27.72,-27.72) scale(1.22,1.22)"><g fill="none" fill-rule="nonzero" stroke="none" stroke-width="1" stroke-linecap="butt" stroke-linejoin="miter" stroke-miterlimit="10" stroke-dasharray="" stroke-dashoffset="0" font-family="none" font-weight="none" font-size="none" text-anchor="none" style="mix-blend-mode: normal"><path d="M0,252v-252h252v252z" fill="none"/><g id="&#x421;&#x43B;&#x43E;&#x439;_1"><path d="M126,228.375c-8.04038,0 -14.97038,-4.84312 -18.02194,-11.76525c-5.47706,5.229 -13.73006,7.05206 -21.15619,3.97294c-4.85494,-2.01206 -8.63887,-5.796 -10.65488,-10.65094c-0.94894,-2.29556 -1.449,-4.70138 -1.50413,-7.11506c-7.05206,2.71687 -15.372,1.25212 -21.05381,-4.42575c-5.68181,-5.68181 -7.15837,-14.00175 -4.42969,-21.05381c-2.40975,-0.05513 -4.81556,-0.55519 -7.11113,-1.50412c-4.85494,-2.016 -8.63887,-5.79994 -10.65094,-10.65488c-2.016,-4.85888 -2.016,-10.20994 -0.00394,-15.06881c0.95287,-2.29556 2.29556,-4.347 3.96506,-6.09131c-6.91425,-3.0555 -11.75344,-9.98156 -11.75344,-18.018c0,-8.03644 4.83919,-14.9625 11.75344,-18.018c-1.6695,-1.74038 -3.01219,-3.79575 -3.96506,-6.09131c-2.01206,-4.85887 -2.01206,-10.20994 0.00394,-15.06881c2.01206,-4.85494 5.796,-8.63887 10.65094,-10.65488c2.29556,-0.94894 4.69744,-1.449 7.11113,-1.50413c-2.72869,-7.05206 -1.25212,-15.36806 4.42969,-21.05381c5.67788,-5.67394 13.99781,-7.15444 21.05381,-4.42969c0.05512,-2.40975 0.55519,-4.81556 1.50413,-7.11113c2.016,-4.85494 5.79994,-8.63887 10.65488,-10.65094c4.85887,-2.016 10.20994,-2.01206 15.06881,-0.00394c2.29556,0.95287 4.347,2.29556 6.09131,3.96506c3.0555,-6.91425 9.98156,-11.75344 18.018,-11.75344c8.03644,0 14.9625,4.83919 18.018,11.75344c1.74038,-1.6695 3.79575,-3.01219 6.09131,-3.96506c4.85888,-2.00812 10.20994,-2.01206 15.06881,0.00394c4.85494,2.01206 8.63888,5.796 10.65488,10.65094c0.94894,2.29556 1.449,4.69744 1.50412,7.11113c7.06387,-2.72475 15.37594,-1.24425 21.05381,4.42969c5.68181,5.68181 7.15838,14.00175 4.42969,21.05381c2.40975,0.05512 4.81556,0.55519 7.11113,1.50413c4.85494,2.016 8.63887,5.79994 10.65094,10.65488c2.016,4.85887 2.016,10.20994 0.00394,15.06881c-0.95288,2.29556 -2.29556,4.347 -3.96506,6.09131c6.91425,3.0555 11.75344,9.98156 11.75344,18.018c0,8.03644 -4.83919,14.9625 -11.75344,18.018c1.6695,1.74038 3.01219,3.79575 3.96506,6.09131c2.01206,4.85888 2.01206,10.20994 -0.00394,15.06881c-2.01206,4.85494 -5.796,8.63888 -10.65094,10.65488c-2.29556,0.94894 -4.69744,1.449 -7.11113,1.50412c2.72869,7.05206 1.25213,15.36806 -4.42969,21.05381c-5.67394,5.67394 -13.98994,7.16231 -21.05381,4.42575c-0.05513,2.40975 -0.55519,4.8195 -1.50412,7.11506c-2.016,4.85494 -5.79994,8.63887 -10.65488,10.65094c-7.43006,3.07913 -15.67912,1.25606 -21.15619,-3.97294c-3.05156,6.92213 -9.98156,11.76525 -18.02194,11.76525zM106.61175,203.67506l7.57575,1.50413v3.50831c0,6.51262 5.29988,11.8125 11.8125,11.8125c6.51262,0 11.8125,-5.29988 11.8125,-11.8125v-3.50831l7.57575,-1.50806l1.34269,3.24056c2.49638,6.0165 9.42244,8.89481 15.435,6.39056c2.91375,-1.20881 5.18569,-3.47681 6.39056,-6.39056c1.20881,-2.91375 1.20881,-6.12675 0,-9.0405l-1.34269,-3.24056l6.42206,-4.29188l2.48063,2.48063c4.61081,4.60294 12.10387,4.59506 16.70681,0c4.60688,-4.60688 4.60688,-12.09994 0,-16.70681l-2.48063,-2.48063l4.29188,-6.42206l3.24056,1.34269c2.91375,1.20881 6.12675,1.20881 9.0405,0c2.91375,-1.20488 5.18175,-3.47681 6.39056,-6.39056c2.49244,-6.0165 -0.37406,-12.94256 -6.39056,-15.435l-3.24056,-1.34269l1.50412,-7.57181h3.50831c6.51262,0 11.8125,-5.29988 11.8125,-11.8125c0,-6.51262 -5.29988,-11.8125 -11.8125,-11.8125h-3.50831l-1.50806,-7.57575l3.24056,-1.34269c6.0165,-2.49244 8.883,-9.4185 6.39056,-15.435c-1.20881,-2.91375 -3.47681,-5.18569 -6.39056,-6.39056c-2.91375,-1.20881 -6.12675,-1.20881 -9.0405,0l-3.24056,1.34269l-4.29188,-6.42206l2.48063,-2.48062c4.60688,-4.60688 4.60688,-12.09994 0,-16.70681c-4.60294,-4.60294 -12.096,-4.61081 -16.70681,0l-2.48063,2.48063l-6.42206,-4.29187l1.34269,-3.24056c1.20881,-2.91375 1.20881,-6.12675 0,-9.0405c-1.20488,-2.91375 -3.47681,-5.18175 -6.39056,-6.39056c-6.0165,-2.49638 -12.93863,0.37012 -15.435,6.39056l-1.34269,3.24056l-7.57181,-1.50412v-3.50831c0,-6.51262 -5.29988,-11.8125 -11.8125,-11.8125c-6.51262,0 -11.8125,5.29988 -11.8125,11.8125v3.50831l-7.57575,1.50806l-1.34269,-3.24056c-2.49244,-6.02044 -9.42244,-8.883 -15.435,-6.39056c-2.91375,1.20881 -5.18569,3.47681 -6.39056,6.39056c-1.20881,2.91375 -1.20881,6.12675 0,9.0405l1.34269,3.24056l-6.42206,4.29188l-2.48062,-2.48063c-4.60688,-4.61081 -12.09994,-4.60294 -16.70681,0c-4.60688,4.60687 -4.60688,12.09994 0,16.70681l2.48063,2.48062l-4.29187,6.42206l-3.24056,-1.34269c-2.91375,-1.20881 -6.12675,-1.20881 -9.0405,0c-2.91375,1.20488 -5.18175,3.47681 -6.39056,6.39056c-2.49244,6.0165 0.37406,12.94256 6.39056,15.435l3.24056,1.34269l-1.50412,7.57181h-3.50831c-6.51262,0 -11.8125,5.29988 -11.8125,11.8125c0,6.51262 5.29988,11.8125 11.8125,11.8125h3.50831l1.50806,7.57575l-3.24056,1.34269c-6.0165,2.49244 -8.883,9.4185 -6.39056,15.435c1.20881,2.91375 3.47681,5.18569 6.39056,6.39056c2.91375,1.20881 6.12675,1.20881 9.0405,0l3.24056,-1.34269l4.29188,6.42206l-2.48063,2.48063c-4.60688,4.60688 -4.60688,12.09994 0,16.70681c4.60687,4.60294 12.09994,4.59506 16.70681,0l2.48062,-2.48063l6.42206,4.29188l-1.34269,3.24056c-1.20881,2.91375 -1.20881,6.12675 0,9.0405c1.20488,2.91375 3.47681,5.18175 6.39056,6.39056c6.00075,2.49244 12.93863,-0.37406 15.435,-6.39056z" fill="url(#color-1)"/><path d="M126,196.875c-39.07969,0 -70.875,-31.79531 -70.875,-70.875c0,-39.07969 31.79531,-70.875 70.875,-70.875c39.07969,0 70.875,31.79531 70.875,70.875c0,39.07969 -31.79531,70.875 -70.875,70.875zM126,63c-34.73663,0 -63,28.26337 -63,63c0,34.73663 28.26337,63 63,63c34.73663,0 63,-28.26337 63,-63c0,-34.73663 -28.26337,-63 -63,-63z" fill="url(#color-2)"/><path d="M129.9375,118.125v-35.4375h-15.75v7.875h7.875v27.5625h-7.875v7.875h23.625v-7.875z" fill="url(#color-3)"/><path d="M98.4375,141.75v11.8125v3.9375v7.875h3.9375v-7.875h3.9375v-3.9375h-3.9375v-7.875h7.875v-3.9375h-7.875z" fill="url(#color-4)"/><path d="M118.125,141.75h-3.9375v23.625h3.9375v-3.9375l3.9375,3.9375h3.9375l-3.9375,-7.875h3.9375v-3.9375v-7.875v-3.9375h-3.9375zM122.0625,153.5625h-3.9375v-7.875h3.9375z" fill="url(#color-5)"/><path d="M129.9375,141.75v11.8125v3.9375v3.9375v3.9375h3.9375h7.875v-3.9375h-7.875v-3.9375h3.9375v-3.9375h-3.9375v-7.875h7.875v-3.9375h-7.875z" fill="url(#color-6)"/><path d="M157.5,145.6875v-3.9375h-7.875h-3.9375v11.8125v3.9375v3.9375v3.9375h3.9375h7.875v-3.9375h-7.875v-3.9375h3.9375v-3.9375h-3.9375v-7.875z" fill="url(#color-7)"/></g></g></g></svg>
