<?xml version="1.0"?>
<svg xmlns="http://www.w3.org/2000/svg" xmlns:xlink="http://www.w3.org/1999/xlink" version="1.1" viewBox="0 0 252 252" width="80px" height="80px"><g transform="translate(-10.08,-10.08) scale(1.08,1.08)"><g fill="none" fill-rule="nonzero" stroke="none" stroke-width="1" stroke-linecap="butt" stroke-linejoin="miter" stroke-miterlimit="10" stroke-dasharray="" stroke-dashoffset="0" font-family="none" font-weight="none" font-size="none" text-anchor="none" style="mix-blend-mode: normal"><path d="M0,252v-252h252v252z" fill="none"/><g id="Layer_1"><path d="M126,10.5l23.6565,26.40225l34.0935,-10.65225l7.69125,34.30875l34.30875,7.69125l-10.5,34.0935l26.25,23.6565l-26.25,23.6565l10.5,34.0935l-34.30875,7.69125l-7.69125,34.30875l-34.0935,-10.65225l-23.6565,26.40225l-23.6565,-26.40225l-34.0935,10.65225l-7.69125,-34.30875l-34.30875,-7.69125l10.5,-34.0935l-26.25,-23.6565l26.25,-23.6565l-10.5,-34.0935l34.30875,-7.69125l7.69125,-34.30875l34.0935,10.65225z" fill="#00b8d4"/><g id="surface1_120_" fill="#ffffff"><path d="M91.875,158.54475h-11.0355v14.70525h-7.3395v-35.70525h19.95525v6.29475h-12.6105v9.45525h11.03025z"/><path d="M110.7855,160.125h-3.69075v13.125h-7.34475v-35.70525h11.54475c6.29475,0 11.54475,3.1605 11.54475,11.0355c0,7.3395 -4.18425,9.45525 -5.25,9.9645l6.321,14.70525h-7.875zM107.0895,153.83025h4.20525c4.20525,0 4.20525,-3.66975 4.20525,-5.25c0,-1.04475 0,-5.25 -4.20525,-5.25h-4.20525z"/><path d="M149.0895,157.5h-11.54475v9.45525h13.125v6.29475h-20.4645v-35.70525h20.4645v6.29475h-13.125v8.4105h11.54475z"/><path d="M176.4105,157.5h-11.56575v9.45525h13.65525v6.29475h-20.4645v-35.70525h20.4645v6.29475h-13.125v8.4105h11.54475v5.25z"/><path d="M135.9645,124.41975h-14.16975v-44.0895l-16.79475,5.25v-11.54475l29.4105,-10.5h1.55925v60.88425z"/></g></g></g></g></svg>
