<?xml version="1.0"?>
<svg xmlns="http://www.w3.org/2000/svg" xmlns:xlink="http://www.w3.org/1999/xlink" version="1.1" viewBox="0 0 252 252" width="100px" height="100px"><g transform="translate(-6.3,-6.3) scale(1.05,1.05)"><g fill="none" fill-rule="nonzero" stroke="none" stroke-width="1" stroke-linecap="butt" stroke-linejoin="miter" stroke-miterlimit="10" stroke-dasharray="" stroke-dashoffset="0" font-family="none" font-weight="none" font-size="none" text-anchor="none" style="mix-blend-mode: normal"><path d="M0,252v-252h252v252z" fill="none"/><g><g id="surface1"><path d="M126,241.73789c-1.03359,0 -1.99336,-0.34453 -2.80547,-0.98437l-21.5086,-17.64492l-27.3164,5.61094c-0.31993,0.07382 -0.61524,0.09844 -0.91055,0.09844c-1.74726,0 -3.32226,-1.0582 -4.03594,-2.70703l-10.87734,-25.61836l-26.75039,-7.72735c-1.99336,-0.56601 -3.32227,-2.51015 -3.15,-4.57734l2.26406,-27.75938l-20.10586,-19.26914c-1.50117,-1.45195 -1.79648,-3.76523 -0.66445,-5.53711l14.91328,-23.50195l-8.85937,-26.43047c-0.66445,-1.96875 0.17226,-4.15899 1.99336,-5.19258l24.11719,-13.9043l4.42969,-27.48868c0.34453,-2.06719 2.0918,-3.61757 4.15898,-3.71601l27.8332,-1.08281l16.70977,-22.2961c0.81211,-1.08281 2.14101,-1.74727 3.51914,-1.74727c0.66445,0 1.27969,0.14766 1.89493,0.41836l25.15078,11.96015l25.15078,-11.96015c0.59062,-0.2707 1.23047,-0.41836 1.87031,-0.41836c1.37813,0 2.70703,0.63985 3.54375,1.74727l16.68515,22.2961l27.8332,1.08281c2.06719,0.09844 3.83906,1.64882 4.18359,3.71601l4.42969,27.46406l24.1418,13.92891c1.79648,1.03359 2.6332,3.22383 1.96875,5.19258l-8.83477,26.40586l14.88867,23.52656c1.13203,1.74727 0.83672,4.08515 -0.66445,5.5125l-20.10586,19.29375l2.26406,27.75938c0.17227,2.06719 -1.15664,4.01133 -3.17461,4.57734l-26.75039,7.72735l-10.87734,25.61836c-0.68906,1.62422 -2.28868,2.70703 -4.01133,2.70703c-0.29531,0 -0.59063,-0.04922 -0.88594,-0.09844l-27.34102,-5.61094l-21.5332,17.64492c-0.7875,0.63984 -1.74726,0.98438 -2.78086,0.98438z" fill="#98ccfd"/><path d="M153.0211,13.41211c0.39375,0 0.76289,0.17227 1.00898,0.49219l15.79922,21.09024l1.79649,2.38711l3.00234,0.12305l26.30742,1.0336c0.61524,0.02461 1.10743,0.49219 1.20586,1.0582l4.2082,26.01211l0.46758,2.95313l2.6086,1.50117l22.8375,13.16602c0.5168,0.29531 0.73828,0.91055 0.56601,1.47656l-8.36719,24.97851l-0.95976,2.83008l1.59961,2.53477l14.10117,22.24687c0.31992,0.5168 0.2461,1.18125 -0.19688,1.59961l-19.02305,18.21094l-2.16563,2.0918l0.24609,2.97774l2.14102,26.2582c0.07383,0.61524 -0.31992,1.13203 -0.88594,1.3043l-25.29844,7.30898l-2.8793,0.81211l-1.18125,2.78086l-10.28672,24.24024c-0.22148,0.49219 -0.66445,0.73828 -1.27969,0.73828c-0.04922,0 -0.07382,0 -0.12305,0l-25.83984,-5.29102l-2.92852,-0.59063l-2.31328,1.89493l-20.37656,16.66055c-0.24609,0.19688 -0.5168,0.29531 -0.81211,0.29531c-0.29531,0 -0.56602,-0.09844 -0.7875,-0.29531l-20.37656,-16.66055l-2.31328,-1.89493l-2.95312,0.59063l-26.11055,5.31562c-0.46757,0 -0.91055,-0.31992 -1.10742,-0.76289l-10.31133,-24.24024l-1.15664,-2.78086l-2.8793,-0.81211l-25.29844,-7.30898c-0.56601,-0.17227 -0.95976,-0.71368 -0.91055,-1.3043l2.14102,-26.2582l0.24609,-3.00235l-2.19023,-2.06719l-19.02305,-18.23555c-0.41836,-0.39375 -0.49219,-1.0582 -0.17227,-1.55039l14.10117,-22.27148l1.59961,-2.53477l-0.93516,-2.83008l-8.3918,-24.97851c-0.17227,-0.56602 0.04922,-1.18125 0.56602,-1.47656l22.8375,-13.16602l2.60859,-1.50117l0.46758,-2.95312l4.2082,-26.01211c0.09844,-0.59063 0.56601,-1.03359 1.18125,-1.0582l26.30742,-1.0336l3.00234,-0.12305l1.79649,-2.38711l15.79922,-21.06562c0.2461,-0.34453 0.61523,-0.5168 1.00898,-0.5168c0.19688,0 0.36914,0.02461 0.54141,0.12305l23.79727,11.32031l2.70703,1.27969l2.70703,-1.27969l23.82187,-11.34493c0.14765,-0.07382 0.31992,-0.09844 0.49219,-0.09844M153.0211,7.11211c-1.10743,0 -2.19024,0.22149 -3.22383,0.73828l-23.79727,11.32031l-23.79727,-11.32031c-1.03359,-0.5168 -2.14101,-0.73828 -3.22382,-0.73828c-2.33789,0 -4.60195,1.08281 -6.07852,3.02695l-15.79922,21.06562l-26.33203,1.0336c-3.56836,0.14765 -6.5707,2.80547 -7.13672,6.34922l-4.2082,26.01211l-22.81289,13.16602c-3.12539,1.79648 -4.55273,5.53711 -3.3961,8.9332l8.36719,24.97852l-14.10117,22.27148c-1.91953,3.02695 -1.45195,6.98906 1.15664,9.47461l19.02305,18.23555l-2.14102,26.2582c-0.29531,3.59297 1.96875,6.89063 5.41406,7.875l25.32305,7.30898l10.28672,24.24024c1.20586,2.80547 3.96211,4.62656 6.91523,4.62656c0.5168,0 1.0336,-0.07383 1.55039,-0.17227l25.83985,-5.29102l20.37656,16.68516c1.40273,1.13203 3.07617,1.69805 4.77422,1.69805c1.69805,0 3.3961,-0.56602 4.79883,-1.69805l20.37656,-16.68516l25.83984,5.29102c0.5168,0.09844 1.0336,0.17227 1.52578,0.17227c2.97773,0 5.73398,-1.79649 6.93984,-4.62656l10.28672,-24.24024l25.32305,-7.30898c3.44531,-0.98437 5.70937,-4.28203 5.41406,-7.85039l-2.14102,-26.28281l19.02305,-18.21094c2.58398,-2.48555 3.07617,-6.47226 1.15664,-9.49922l-14.10117,-22.27148l8.36719,-24.97852c1.13203,-3.3961 -0.29531,-7.13672 -3.39609,-8.9332l-22.8375,-13.16602l-4.2082,-26.01211c-0.56602,-3.54375 -3.56836,-6.17695 -7.16133,-6.32461l-26.30742,-1.0582l-15.82383,-21.09023c-1.47656,-1.94414 -3.74062,-3.00235 -6.0539,-3.00235z" fill="#4788c7"/><path d="M132.3,157.5h-9.81914l-4.87265,-13.97813h-21.23789l-4.67578,13.97813h-9.79453l20.22891,-54.8789h10.08984zM115.2457,136.11445l-7.50586,-21.87773c-0.22149,-0.71368 -0.46758,-1.87031 -0.71368,-3.44531h-0.14765c-0.22148,1.45195 -0.46758,2.58398 -0.73828,3.44531l-7.43203,21.87773z" fill="#ffffff"/><path d="M168.96797,157.5h-30.36797v-54.8789h9.10547v47.20078h21.2625z" fill="#ffffff"/><path d="M207.21094,157.5h-30.81094v-54.8789h29.58047v7.72734h-20.475v15.55312h18.87539v7.67813h-18.87539v16.24219h21.70547z" fill="#ffffff"/><path d="M44.14922,154.39922v-9.37618c0.83672,0.76289 6.69375,4.94649 14.175,4.94649c3.83906,0 11.36953,-0.66445 11.36953,-7.45664c0,-10.18828 -25.59375,-10.04062 -25.59375,-26.62735c0,-4.2082 2.75625,-15.08555 20.25352,-15.08555c5.73398,0 9.91758,0.63985 12.52617,1.94414v9.00703c-3.10078,-2.23945 -7.11211,-3.37148 -12.00938,-3.37148c-10.55742,0 -11.19727,5.93086 -11.19727,7.23516c0,10.31132 25.59375,9.9914 25.59375,26.775c0,7.75195 -5.38945,15.11015 -20.62265,15.11015c-7.72735,0 -13.73203,-2.60859 -14.49492,-3.10078z" fill="#ffffff"/></g></g></g></g></svg>
