<?xml version="1.0"?>
<svg xmlns="http://www.w3.org/2000/svg" xmlns:xlink="http://www.w3.org/1999/xlink" version="1.1" viewBox="0 0 252 252" width="80px" height="80px"><g transform="translate(-6.3,-6.3) scale(1.05,1.05)"><g fill="none" fill-rule="nonzero" stroke="none" stroke-width="1" stroke-linecap="butt" stroke-linejoin="miter" stroke-miterlimit="10" stroke-dasharray="none" stroke-dashoffset="0" font-family="none" font-weight="none" font-size="none" text-anchor="none" style="mix-blend-mode: normal"><path d="M0,252v-252h252v252z" fill="none" stroke="none" stroke-dasharray=""/><g id="&#x421;&#x43B;&#x43E;&#x439;_1"><g stroke="none" stroke-dasharray=""><path d="M42.525,163.8c0.6363,-12.69135 4.9329,-16.947 10.8801,-22.83435l85.1949,-85.1886l22.9572,22.96035l-119.0322,115.97985z" fill="#f5ce85"/><g fill="#967a44"><path d="M138.6,58.0041l20.71755,20.71755l-115.21755,112.26285l-0.00315,-27.027c0.60795,-12.159 4.5108,-16.02405 10.41705,-21.8736l1.2663,-1.25685l82.8198,-82.82295M138.6,53.55l-85.05,85.05c-6.5961,6.5961 -11.88495,10.899 -12.6,25.2c0,28.35 0,34.65 0,34.65l122.85,-119.7l-25.2,-25.2z"/></g></g><g stroke="none" stroke-dasharray=""><rect x="2.5" y="38.5" transform="scale(3.15,3.15)" width="74" height="39" fill="#bae0bd"/><path d="M239.4,122.85v119.7h-229.95v-119.7h229.95M242.55,119.7h-236.25v126h236.25v-126z" fill="#5e9c76"/></g><g stroke="none" stroke-dasharray=""><path d="M124.425,231.525c-26.05365,0 -47.25,-21.90195 -47.25,-48.825c0,-26.92305 21.19635,-48.825 47.25,-48.825c26.05365,0 47.25,21.90195 47.25,48.825c0,26.92305 -21.19635,48.825 -47.25,48.825z" fill="#ffffff"/><g fill="#5e9c76"><path d="M124.425,135.45c25.18425,0 45.675,21.19635 45.675,47.25c0,26.05365 -20.49075,47.25 -45.675,47.25c-25.18425,0 -45.675,-21.19635 -45.675,-47.25c0,-26.05365 20.49075,-47.25 45.675,-47.25M124.425,132.3c-26.964,0 -48.825,22.56345 -48.825,50.4c0,27.83655 21.861,50.4 48.825,50.4c26.964,0 48.825,-22.56345 48.825,-50.4c0,-27.83655 -21.861,-50.4 -48.825,-50.4z"/></g></g><g stroke="none" stroke-dasharray=""><circle cx="14" cy="58" transform="scale(3.15,3.15)" r="5.5" fill="#ffffff"/><g fill="#5e9c76"><path d="M44.1,166.95c8.68455,0 15.75,7.06545 15.75,15.75c0,8.68455 -7.06545,15.75 -15.75,15.75c-8.68455,0 -15.75,-7.06545 -15.75,-15.75c0,-8.68455 7.06545,-15.75 15.75,-15.75M44.1,163.8c-10.4391,0 -18.9,8.4609 -18.9,18.9c0,10.4391 8.4609,18.9 18.9,18.9c10.4391,0 18.9,-8.4609 18.9,-18.9c0,-10.4391 -8.4609,-18.9 -18.9,-18.9z"/></g></g><g stroke="none" stroke-dasharray=""><circle cx="65" cy="58" transform="scale(3.15,3.15)" r="5.5" fill="#ffffff"/><g fill="#5e9c76"><path d="M204.75,166.95c8.68455,0 15.75,7.06545 15.75,15.75c0,8.68455 -7.06545,15.75 -15.75,15.75c-8.68455,0 -15.75,-7.06545 -15.75,-15.75c0,-8.68455 7.06545,-15.75 15.75,-15.75M204.75,163.8c-10.4391,0 -18.9,8.4609 -18.9,18.9c0,10.4391 8.4609,18.9 18.9,18.9c10.4391,0 18.9,-8.4609 18.9,-18.9c0,-10.4391 -8.4609,-18.9 -18.9,-18.9z"/></g></g><path d="M124.425,119.7v126" fill="none" stroke="#66798f" stroke-dasharray="4,2"/><g stroke="none" stroke-dasharray=""><path d="M80.97705,75.6l22.97295,-22.97295l80.7849,80.7849c5.3046,5.3046 17.71875,19.19925 18.4401,33.61365v30.7692z" fill="#fff7d1"/><g fill="#ba9b48"><path d="M103.95,54.8541l79.67295,79.67295c5.17545,5.17545 17.2872,18.711 17.97705,32.42295v27.0459l-118.3959,-118.3959l20.7459,-20.7459M103.95,50.4l-25.2,25.2l126,126c0,0 0,-9.45 0,-34.65c-0.71505,-14.301 -12.3039,-28.0539 -18.9,-34.65l-81.9,-81.9z"/></g></g><g stroke="none" stroke-dasharray=""><circle cx="39" cy="30" transform="scale(3.15,3.15)" r="1.5" fill="#fff7d1"/><path d="M122.85,91.35c1.73565,0 3.15,1.41435 3.15,3.15c0,1.73565 -1.41435,3.15 -3.15,3.15c-1.73565,0 -3.15,-1.41435 -3.15,-3.15c0,-1.73565 1.41435,-3.15 3.15,-3.15M122.85,88.2c-3.48075,0 -6.3,2.81925 -6.3,6.3c0,3.48075 2.81925,6.3 6.3,6.3c3.48075,0 6.3,-2.81925 6.3,-6.3c0,-3.48075 -2.81925,-6.3 -6.3,-6.3z" fill="#ba9b48"/></g><g stroke="none" stroke-dasharray=""><path d="M134.52705,59.85l10.0296,-10.0296l-0.2142,-0.8631c-0.6741,-2.71845 -1.01745,-5.4117 -1.01745,-8.0073c0,-18.2385 14.8365,-33.075 33.075,-33.075c18.2385,0 33.075,14.8365 33.075,33.075c0,18.2385 -14.8365,33.075 -33.075,33.075c-2.5956,0 -5.28885,-0.34335 -8.0073,-1.01745l-0.8631,-0.2142l-10.0296,10.0296zM176.4,26.775c-7.81515,0 -14.175,6.35985 -14.175,14.175c0,7.81515 6.35985,14.175 14.175,14.175c7.81515,0 14.175,-6.35985 14.175,-14.175c0,-7.81515 -6.35985,-14.175 -14.175,-14.175z" fill="#ffc49c"/><path d="M176.4,9.45c17.3691,0 31.5,14.1309 31.5,31.5c0,17.3691 -14.1309,31.5 -31.5,31.5c-2.47275,0 -5.03685,-0.3276 -7.623,-0.9702l-1.72935,-0.43155l-1.26,1.26l-8.28765,8.28765l-20.7459,-20.7459l8.28765,-8.28765l1.26,-1.26l-0.43155,-1.72935c-0.6426,-2.58615 -0.9702,-5.15025 -0.9702,-7.623c0,-17.3691 14.1309,-31.5 31.5,-31.5M176.4,56.7c8.68455,0 15.75,-7.06545 15.75,-15.75c0,-8.68455 -7.06545,-15.75 -15.75,-15.75c-8.68455,0 -15.75,7.06545 -15.75,15.75c0,8.68455 7.06545,15.75 15.75,15.75M176.4,6.3c-19.13625,0 -34.65,15.51375 -34.65,34.65c0,2.898 0.39375,5.6952 1.0647,8.3853l-10.5147,10.5147l25.2,25.2l10.5147,-10.5147c2.6901,0.67095 5.4873,1.0647 8.3853,1.0647c19.13625,0 34.65,-15.51375 34.65,-34.65c0,-19.13625 -15.51375,-34.65 -34.65,-34.65zM176.4,53.55c-6.95835,0 -12.6,-5.64165 -12.6,-12.6c0,-6.95835 5.64165,-12.6 12.6,-12.6c6.95835,0 12.6,5.64165 12.6,12.6c0,6.95835 -5.64165,12.6 -12.6,12.6z" fill="#a16a4a"/></g><g stroke="none" stroke-dasharray=""><path d="M78.1704,72.79335l-0.8631,0.2142c-2.71845,0.6741 -5.4117,1.01745 -8.0073,1.01745c-18.2385,0 -33.075,-14.8365 -33.075,-33.075c0,-18.2385 14.8365,-33.075 33.075,-33.075c18.2385,0 33.075,14.8365 33.075,33.075c0,2.5956 -0.34335,5.28885 -1.01745,8.0073l-0.2142,0.8631l10.0296,10.0296l-22.97295,22.97295zM69.3,26.775c-7.81515,0 -14.175,6.35985 -14.175,14.175c0,7.81515 6.35985,14.175 14.175,14.175c7.81515,0 14.175,-6.35985 14.175,-14.175c0,-7.81515 -6.35985,-14.175 -14.175,-14.175z" fill="#ffc49c"/><path d="M69.3,9.45c17.3691,0 31.5,14.1309 31.5,31.5c0,2.47275 -0.3276,5.03685 -0.9702,7.623l-0.43155,1.72935l1.26,1.26l8.28765,8.28765l-20.7459,20.7459l-8.28765,-8.28765l-1.26,-1.26l-1.72935,0.43155c-2.58615,0.6426 -5.15025,0.9702 -7.623,0.9702c-17.3691,0 -31.5,-14.1309 -31.5,-31.5c0,-17.3691 14.1309,-31.5 31.5,-31.5M69.3,56.7c8.68455,0 15.75,-7.06545 15.75,-15.75c0,-8.68455 -7.06545,-15.75 -15.75,-15.75c-8.68455,0 -15.75,7.06545 -15.75,15.75c0,8.68455 7.06545,15.75 15.75,15.75M69.3,6.3c-19.13625,0 -34.65,15.51375 -34.65,34.65c0,19.13625 15.51375,34.65 34.65,34.65c2.898,0 5.6952,-0.39375 8.3853,-1.0647l10.5147,10.5147l25.2,-25.2l-10.5147,-10.5147c0.67095,-2.6901 1.0647,-5.4873 1.0647,-8.3853c0,-19.13625 -15.51375,-34.65 -34.65,-34.65zM69.3,53.55c-6.95835,0 -12.6,-5.64165 -12.6,-12.6c0,-6.95835 5.64165,-12.6 12.6,-12.6c6.95835,0 12.6,5.64165 12.6,12.6c0,6.95835 -5.64165,12.6 -12.6,12.6z" fill="#a16a4a"/></g></g></g></g></svg>
