<?xml version="1.0"?>
<svg xmlns="http://www.w3.org/2000/svg" xmlns:xlink="http://www.w3.org/1999/xlink" version="1.1" viewBox="0 0 252 252" width="96px" height="96px"><g transform="translate(-17.64,-17.64) scale(1.14,1.14)"><g fill="none" fill-rule="nonzero" stroke="none" stroke-width="1" stroke-linecap="butt" stroke-linejoin="miter" stroke-miterlimit="10" stroke-dasharray="" stroke-dashoffset="0" font-family="none" font-weight="none" font-size="none" text-anchor="none" style="mix-blend-mode: normal"><path d="M0,252v-252h252v252z" fill="none"/><g id="Layer_1"><path d="M173.25,183.75l-47.25,52.5l-47.25,-52.5z" fill="#ffc400"/><rect x="21.003" y="19" transform="scale(5.25,5.25)" width="5.997" height="20" fill="#ffc400"/><rect x="4" y="6" transform="scale(5.25,5.25)" width="39" height="22" fill="#a5d6a7"/><path d="M21,147h210v-115.5h-210zM220.5,42v94.5h-189v-94.5z" fill="#388e3c"/><circle cx="12" cy="17" transform="scale(5.25,5.25)" r="2" fill="#388e3c"/><circle cx="36" cy="17" transform="scale(5.25,5.25)" r="2" fill="#388e3c"/><circle cx="24" cy="17" transform="scale(5.25,5.25)" r="7" fill="#388e3c"/><path d="M203.58975,36.75c-2.51475,2.793 -4.08975,6.447 -4.08975,10.5c0,8.69925 7.05075,15.75 15.75,15.75c4.053,0 7.707,-1.575 10.5,-4.08975v-22.16025z" fill="#388e3c"/><path d="M48.41025,36.75h-22.16025v22.16025c2.793,2.51475 6.447,4.08975 10.5,4.08975c8.69925,0 15.75,-7.05075 15.75,-15.75c0,-4.053 -1.575,-7.707 -4.08975,-10.5z" fill="#388e3c"/><path d="M48.41025,141.75c2.51475,-2.793 4.08975,-6.447 4.08975,-10.5c0,-8.69925 -7.05075,-15.75 -15.75,-15.75c-4.053,0 -7.707,1.575 -10.5,4.08975v22.16025z" fill="#388e3c"/><path d="M225.75,141.75v-22.16025c-2.793,-2.51475 -6.447,-4.08975 -10.5,-4.08975c-8.69925,0 -15.75,7.05075 -15.75,15.75c0,4.053 1.575,7.707 4.08975,10.5z" fill="#388e3c"/></g></g></g></svg>
