<?xml version="1.0" encoding="iso-8859-1"?>
<!-- Generator: Adobe Illustrator 19.2.1, SVG Export Plug-In . SVG Version: 6.00 Build 0)  -->
<svg xmlns="http://www.w3.org/2000/svg" xmlns:xlink="http://www.w3.org/1999/xlink" version="1.1" id="Layer_1" x="0px" y="0px" viewBox="0 0 80 80" style="enable-background:new 0 0 80 80;" xml:space="preserve" width="80px" height="80px">
<g>
	<path style="fill:#E8D47B;" d="M65,75.5c-6.775,0-12.5-2.519-12.5-5.5v-5.5h25V70C77.5,72.981,71.775,75.5,65,75.5z"/>
	<g>
		<path style="fill:#BA9B48;" d="M77,65v5c0,2.365-4.928,5-12,5s-12-2.635-12-5v-5H77 M78,64H52c0,0,0,4.906,0,6    c0,3.314,5.82,6,13,6s13-2.686,13-6C78,68.906,78,64,78,64L78,64z"/>
	</g>
</g>
<g>
	<path style="fill:#FFEEA3;" d="M70,73.483c0.728-0.155,1.39-0.338,2-0.543v-6.615h-2V73.483z"/>
	<path style="fill:#FFEEA3;" d="M60,73.483c0.627,0.133,1.294,0.24,2,0.324v-7.482h-2V73.483z"/>
</g>
<g>
	<path style="fill:#E8D47B;" d="M65,69.5c-6.775,0-12.5-2.519-12.5-5.5v-5.5h25V64C77.5,66.981,71.775,69.5,65,69.5z"/>
	<g>
		<path style="fill:#BA9B48;" d="M77,59v5c0,2.365-4.928,5-12,5s-12-2.635-12-5v-5H77 M78,58H52c0,0,0,4.906,0,6    c0,3.314,5.82,6,13,6s13-2.686,13-6C78,62.906,78,58,78,58L78,58z"/>
	</g>
</g>
<g>
	<path style="fill:#FFEEA3;" d="M70,67.483c0.728-0.155,1.39-0.338,2-0.543v-6.615h-2V67.483z"/>
	<path style="fill:#FFEEA3;" d="M60,67.483c0.627,0.133,1.294,0.24,2,0.324v-7.482h-2V67.483z"/>
</g>
<g>
	<path style="fill:#E8D47B;" d="M65,63.5c-6.775,0-12.5-2.519-12.5-5.5v-5.5h25V58C77.5,60.981,71.775,63.5,65,63.5z"/>
	<g>
		<path style="fill:#BA9B48;" d="M77,53v5c0,2.365-4.928,5-12,5s-12-2.635-12-5v-5H77 M78,52H52c0,0,0,4.906,0,6    c0,3.314,5.82,6,13,6s13-2.686,13-6C78,56.906,78,52,78,52L78,52z"/>
	</g>
</g>
<g>
	<path style="fill:#FFEEA3;" d="M70,61.483c0.728-0.155,1.39-0.338,2-0.543v-6.615h-2V61.483z"/>
	<path style="fill:#FFEEA3;" d="M60,61.483c0.627,0.133,1.294,0.24,2,0.324v-7.482h-2V61.483z"/>
</g>
<g>
	<path style="fill:#E8D47B;" d="M65,57.5c-6.775,0-12.5-2.519-12.5-5.5v-5.5h25V52C77.5,54.981,71.775,57.5,65,57.5z"/>
	<g>
		<path style="fill:#BA9B48;" d="M77,47v5c0,2.365-4.928,5-12,5s-12-2.635-12-5v-5H77 M78,46H52c0,0,0,4.906,0,6    c0,3.314,5.82,6,13,6s13-2.686,13-6C78,50.906,78,46,78,46L78,46z"/>
	</g>
</g>
<g>
	<path style="fill:#FFEEA3;" d="M70,55.483c0.728-0.155,1.39-0.338,2-0.543v-6.615h-2V55.483z"/>
	<path style="fill:#FFEEA3;" d="M60,55.483c0.627,0.133,1.294,0.24,2,0.324v-7.482h-2V55.483z"/>
</g>
<g>
	<path style="fill:#E8D47B;" d="M65,51.5c-6.775,0-12.5-2.519-12.5-5.5v-5.5h25V46C77.5,48.981,71.775,51.5,65,51.5z"/>
	<g>
		<path style="fill:#BA9B48;" d="M77,41v5c0,2.365-4.928,5-12,5s-12-2.635-12-5v-5H77 M78,40H52c0,0,0,4.906,0,6    c0,3.314,5.82,6,13,6s13-2.686,13-6C78,44.906,78,40,78,40L78,40z"/>
	</g>
</g>
<g>
	<path style="fill:#FFEEA3;" d="M70,49.483c0.728-0.155,1.39-0.338,2-0.543v-6.615h-2V49.483z"/>
	<path style="fill:#FFEEA3;" d="M60,49.483c0.627,0.133,1.294,0.24,2,0.324v-7.482h-2V49.483z"/>
</g>
<g>
	<path style="fill:#E8D47B;" d="M65,45.5c-6.775,0-12.5-2.519-12.5-5.5v-5.5h25V40C77.5,42.981,71.775,45.5,65,45.5z"/>
	<g>
		<path style="fill:#BA9B48;" d="M77,35v5c0,2.365-4.928,5-12,5s-12-2.635-12-5v-5H77 M78,34H52c0,0,0,4.906,0,6    c0,3.314,5.82,6,13,6s13-2.686,13-6C78,38.906,78,34,78,34L78,34z"/>
	</g>
</g>
<g>
	<path style="fill:#FFEEA3;" d="M70,43.483c0.728-0.155,1.39-0.338,2-0.543v-6.615h-2V43.483z"/>
	<path style="fill:#FFEEA3;" d="M60,43.483c0.627,0.133,1.294,0.24,2,0.324v-7.482h-2V43.483z"/>
</g>
<g>
	<path style="fill:#E8D47B;" d="M65,39.5c-6.775,0-12.5-2.519-12.5-5.5v-5.5h25V34C77.5,36.981,71.775,39.5,65,39.5z"/>
	<g>
		<path style="fill:#BA9B48;" d="M77,29v5c0,2.365-4.928,5-12,5s-12-2.635-12-5v-5H77 M78,28H52c0,0,0,4.906,0,6    c0,3.314,5.82,6,13,6s13-2.686,13-6C78,32.906,78,28,78,28L78,28z"/>
	</g>
</g>
<g>
	<path style="fill:#FFEEA3;" d="M70,37.483c0.728-0.155,1.39-0.338,2-0.543v-6.615h-2V37.483z"/>
	<path style="fill:#FFEEA3;" d="M60,37.483c0.627,0.133,1.294,0.24,2,0.324v-7.482h-2V37.483z"/>
</g>
<g>
	<path style="fill:#E8D47B;" d="M65,33.5c-6.775,0-12.5-2.519-12.5-5.5v-5.5h25V28C77.5,30.981,71.775,33.5,65,33.5z"/>
	<g>
		<path style="fill:#BA9B48;" d="M77,23v5c0,2.365-4.928,5-12,5s-12-2.635-12-5v-5H77 M78,22H52c0,0,0,4.906,0,6    c0,3.314,5.82,6,13,6s13-2.686,13-6C78,26.906,78,22,78,22L78,22z"/>
	</g>
</g>
<g>
	<path style="fill:#FFEEA3;" d="M70,31.483c0.728-0.155,1.39-0.338,2-0.543v-6.615h-2V31.483z"/>
	<path style="fill:#FFEEA3;" d="M60,31.483c0.627,0.133,1.294,0.24,2,0.324v-7.482h-2V31.483z"/>
</g>
<g>
	<path style="fill:#E8D47B;" d="M65,27.5c-6.775,0-12.5-2.519-12.5-5.5v-5.5h25V22C77.5,24.981,71.775,27.5,65,27.5z"/>
	<g>
		<path style="fill:#BA9B48;" d="M77,17v5c0,2.365-4.928,5-12,5s-12-2.635-12-5v-5H77 M78,16H52c0,0,0,4.906,0,6    c0,3.314,5.82,6,13,6s13-2.686,13-6C78,20.906,78,16,78,16L78,16z"/>
	</g>
</g>
<g>
	<path style="fill:#FFEEA3;" d="M70,25.483c0.728-0.155,1.39-0.338,2-0.543v-6.615h-2V25.483z"/>
	<path style="fill:#FFEEA3;" d="M60,25.483c0.627,0.133,1.294,0.24,2,0.324v-7.482h-2V25.483z"/>
</g>
<g>
	<path style="fill:#E8D47B;" d="M65,21.5c-6.775,0-12.5-2.519-12.5-5.5v-5.5h25V16C77.5,18.981,71.775,21.5,65,21.5z"/>
	<g>
		<path style="fill:#BA9B48;" d="M77,11v5c0,2.365-4.928,5-12,5s-12-2.635-12-5v-5H77 M78,10H52c0,0,0,4.906,0,6    c0,3.314,5.82,6,13,6s13-2.686,13-6C78,14.906,78,10,78,10L78,10z"/>
	</g>
</g>
<g>
	<path style="fill:#FFEEA3;" d="M70,19.483c0.728-0.155,1.39-0.338,2-0.543v-6.615h-2V19.483z"/>
	<path style="fill:#FFEEA3;" d="M60,19.483c0.627,0.133,1.294,0.24,2,0.324v-7.482h-2V19.483z"/>
</g>
<g>
	<path style="fill:#FFEEA3;" d="M65,15.5c-6.775,0-12.5-2.519-12.5-5.5S58.225,4.5,65,4.5S77.5,7.019,77.5,10S71.775,15.5,65,15.5z"/>
	<path style="fill:#BA9B48;" d="M65,5c7.072,0,12,2.635,12,5s-4.928,5-12,5s-12-2.635-12-5S57.928,5,65,5 M65,4   c-7.18,0-13,2.686-13,6s5.82,6,13,6s13-2.686,13-6S72.18,4,65,4L65,4z"/>
</g>
<g>
	<path style="fill:#E8D47B;" d="M15,75.5c-6.775,0-12.5-2.519-12.5-5.5v-5.5h25V70C27.5,72.981,21.775,75.5,15,75.5z"/>
	<g>
		<path style="fill:#BA9B48;" d="M27,65v5c0,2.365-4.928,5-12,5S3,72.365,3,70v-5H27 M28,64H2c0,0,0,4.906,0,6c0,3.314,5.82,6,13,6    s13-2.686,13-6C28,68.906,28,64,28,64L28,64z"/>
	</g>
</g>
<g>
	<path style="fill:#FFEEA3;" d="M20,73.483c0.728-0.155,1.39-0.338,2-0.543v-6.615h-2V73.483z"/>
	<path style="fill:#FFEEA3;" d="M10,73.483c0.627,0.133,1.294,0.24,2,0.324v-7.482h-2V73.483z"/>
</g>
<g>
	<path style="fill:#E8D47B;" d="M15,69.5c-6.775,0-12.5-2.519-12.5-5.5v-5.5h25V64C27.5,66.981,21.775,69.5,15,69.5z"/>
	<g>
		<path style="fill:#BA9B48;" d="M27,59v5c0,2.365-4.928,5-12,5S3,66.365,3,64v-5H27 M28,58H2c0,0,0,4.906,0,6c0,3.314,5.82,6,13,6    s13-2.686,13-6C28,62.906,28,58,28,58L28,58z"/>
	</g>
</g>
<g>
	<path style="fill:#FFEEA3;" d="M20,67.483c0.728-0.155,1.39-0.338,2-0.543v-6.615h-2V67.483z"/>
	<path style="fill:#FFEEA3;" d="M10,67.483c0.627,0.133,1.294,0.24,2,0.324v-7.482h-2V67.483z"/>
</g>
<g>
	<path style="fill:#E8D47B;" d="M15,63.5c-6.775,0-12.5-2.519-12.5-5.5v-5.5h25V58C27.5,60.981,21.775,63.5,15,63.5z"/>
	<g>
		<path style="fill:#BA9B48;" d="M27,53v5c0,2.365-4.928,5-12,5S3,60.365,3,58v-5H27 M28,52H2c0,0,0,4.906,0,6c0,3.314,5.82,6,13,6    s13-2.686,13-6C28,56.906,28,52,28,52L28,52z"/>
	</g>
</g>
<g>
	<path style="fill:#FFEEA3;" d="M20,61.483c0.728-0.155,1.39-0.338,2-0.543v-6.615h-2V61.483z"/>
	<path style="fill:#FFEEA3;" d="M10,61.483c0.627,0.133,1.294,0.24,2,0.324v-7.482h-2V61.483z"/>
</g>
<g>
	<path style="fill:#E8D47B;" d="M15,57.5c-6.775,0-12.5-2.519-12.5-5.5v-5.5h25V52C27.5,54.981,21.775,57.5,15,57.5z"/>
	<g>
		<path style="fill:#BA9B48;" d="M27,47v5c0,2.365-4.928,5-12,5S3,54.365,3,52v-5H27 M28,46H2c0,0,0,4.906,0,6c0,3.314,5.82,6,13,6    s13-2.686,13-6C28,50.906,28,46,28,46L28,46z"/>
	</g>
</g>
<g>
	<path style="fill:#FFEEA3;" d="M20,55.483c0.728-0.155,1.39-0.338,2-0.543v-6.615h-2V55.483z"/>
	<path style="fill:#FFEEA3;" d="M10,55.483c0.627,0.133,1.294,0.24,2,0.324v-7.482h-2V55.483z"/>
</g>
<g>
	<path style="fill:#E8D47B;" d="M15,51.5c-6.775,0-12.5-2.519-12.5-5.5v-5.5h25V46C27.5,48.981,21.775,51.5,15,51.5z"/>
	<g>
		<path style="fill:#BA9B48;" d="M27,41v5c0,2.365-4.928,5-12,5S3,48.365,3,46v-5H27 M28,40H2c0,0,0,4.906,0,6c0,3.314,5.82,6,13,6    s13-2.686,13-6C28,44.906,28,40,28,40L28,40z"/>
	</g>
</g>
<g>
	<path style="fill:#FFEEA3;" d="M20,49.483c0.728-0.155,1.39-0.338,2-0.543v-6.615h-2V49.483z"/>
	<path style="fill:#FFEEA3;" d="M10,49.483c0.627,0.133,1.294,0.24,2,0.324v-7.482h-2V49.483z"/>
</g>
<g>
	<path style="fill:#E8D47B;" d="M15,45.5c-6.775,0-12.5-2.519-12.5-5.5v-5.5h25V40C27.5,42.981,21.775,45.5,15,45.5z"/>
	<g>
		<path style="fill:#BA9B48;" d="M27,35v5c0,2.365-4.928,5-12,5S3,42.365,3,40v-5H27 M28,34H2c0,0,0,4.906,0,6c0,3.314,5.82,6,13,6    s13-2.686,13-6C28,38.906,28,34,28,34L28,34z"/>
	</g>
</g>
<g>
	<path style="fill:#FFEEA3;" d="M20,43.483c0.728-0.155,1.39-0.338,2-0.543v-6.615h-2V43.483z"/>
	<path style="fill:#FFEEA3;" d="M10,43.483c0.627,0.133,1.294,0.24,2,0.324v-7.482h-2V43.483z"/>
</g>
<g>
	<path style="fill:#E8D47B;" d="M15,39.5c-6.775,0-12.5-2.519-12.5-5.5v-5.5h25V34C27.5,36.981,21.775,39.5,15,39.5z"/>
	<g>
		<path style="fill:#BA9B48;" d="M27,29v5c0,2.365-4.928,5-12,5S3,36.365,3,34v-5H27 M28,28H2c0,0,0,4.906,0,6c0,3.314,5.82,6,13,6    s13-2.686,13-6C28,32.906,28,28,28,28L28,28z"/>
	</g>
</g>
<g>
	<path style="fill:#FFEEA3;" d="M20,37.483c0.728-0.155,1.39-0.338,2-0.543v-6.615h-2V37.483z"/>
	<path style="fill:#FFEEA3;" d="M10,37.483c0.627,0.133,1.294,0.24,2,0.324v-7.482h-2V37.483z"/>
</g>
<g>
	<path style="fill:#E8D47B;" d="M15,33.5c-6.775,0-12.5-2.519-12.5-5.5v-5.5h25V28C27.5,30.981,21.775,33.5,15,33.5z"/>
	<g>
		<path style="fill:#BA9B48;" d="M27,23v5c0,2.365-4.928,5-12,5S3,30.365,3,28v-5H27 M28,22H2c0,0,0,4.906,0,6c0,3.314,5.82,6,13,6    s13-2.686,13-6C28,26.906,28,22,28,22L28,22z"/>
	</g>
</g>
<g>
	<path style="fill:#FFEEA3;" d="M20,31.483c0.728-0.155,1.39-0.338,2-0.543v-6.615h-2V31.483z"/>
	<path style="fill:#FFEEA3;" d="M10,31.483c0.627,0.133,1.294,0.24,2,0.324v-7.482h-2V31.483z"/>
</g>
<g>
	<path style="fill:#E8D47B;" d="M15,27.5c-6.775,0-12.5-2.519-12.5-5.5v-5.5h25V22C27.5,24.981,21.775,27.5,15,27.5z"/>
	<g>
		<path style="fill:#BA9B48;" d="M27,17v5c0,2.365-4.928,5-12,5S3,24.365,3,22v-5H27 M28,16H2c0,0,0,4.906,0,6c0,3.314,5.82,6,13,6    s13-2.686,13-6C28,20.906,28,16,28,16L28,16z"/>
	</g>
</g>
<g>
	<path style="fill:#FFEEA3;" d="M20,25.483c0.728-0.155,1.39-0.338,2-0.543v-6.615h-2V25.483z"/>
	<path style="fill:#FFEEA3;" d="M10,25.483c0.627,0.133,1.294,0.24,2,0.324v-7.482h-2V25.483z"/>
</g>
<g>
	<path style="fill:#FFEEA3;" d="M15,21.5c-6.775,0-12.5-2.519-12.5-5.5s5.725-5.5,12.5-5.5s12.5,2.519,12.5,5.5S21.775,21.5,15,21.5   z"/>
	<path style="fill:#BA9B48;" d="M15,11c7.072,0,12,2.635,12,5s-4.928,5-12,5S3,18.365,3,16S7.928,11,15,11 M15,10   c-7.18,0-13,2.686-13,6s5.82,6,13,6s13-2.686,13-6S22.18,10,15,10L15,10z"/>
</g>
<g>
	<path style="fill:#E8D47B;" d="M40,75.5c-6.775,0-12.5-2.519-12.5-5.5v-5.5h25V70C52.5,72.981,46.775,75.5,40,75.5z"/>
	<g>
		<path style="fill:#BA9B48;" d="M52,65v5c0,2.365-4.928,5-12,5s-12-2.635-12-5v-5H52 M53,64H27c0,0,0,4.906,0,6    c0,3.314,5.82,6,13,6s13-2.686,13-6C53,68.906,53,64,53,64L53,64z"/>
	</g>
</g>
<g>
	<path style="fill:#FFEEA3;" d="M45,73.483c0.728-0.155,1.39-0.338,2-0.543v-6.615h-2V73.483z"/>
	<path style="fill:#FFEEA3;" d="M35,73.483c0.627,0.133,1.294,0.24,2,0.324v-7.482h-2V73.483z"/>
</g>
<g>
	<path style="fill:#E8D47B;" d="M40,69.5c-6.775,0-12.5-2.519-12.5-5.5v-5.5h25V64C52.5,66.981,46.775,69.5,40,69.5z"/>
	<g>
		<path style="fill:#BA9B48;" d="M52,59v5c0,2.365-4.928,5-12,5s-12-2.635-12-5v-5H52 M53,58H27c0,0,0,4.906,0,6    c0,3.314,5.82,6,13,6s13-2.686,13-6C53,62.906,53,58,53,58L53,58z"/>
	</g>
</g>
<g>
	<path style="fill:#FFEEA3;" d="M45,67.483c0.728-0.155,1.39-0.338,2-0.543v-6.615h-2V67.483z"/>
	<path style="fill:#FFEEA3;" d="M35,67.483c0.627,0.133,1.294,0.24,2,0.324v-7.482h-2V67.483z"/>
</g>
<g>
	<path style="fill:#E8D47B;" d="M40,63.5c-6.775,0-12.5-2.519-12.5-5.5v-5.5h25V58C52.5,60.981,46.775,63.5,40,63.5z"/>
	<g>
		<path style="fill:#BA9B48;" d="M52,53v5c0,2.365-4.928,5-12,5s-12-2.635-12-5v-5H52 M53,52H27c0,0,0,4.906,0,6    c0,3.314,5.82,6,13,6s13-2.686,13-6C53,56.906,53,52,53,52L53,52z"/>
	</g>
</g>
<g>
	<path style="fill:#FFEEA3;" d="M45,61.483c0.728-0.155,1.39-0.338,2-0.543v-6.615h-2V61.483z"/>
	<path style="fill:#FFEEA3;" d="M35,61.483c0.627,0.133,1.294,0.24,2,0.324v-7.482h-2V61.483z"/>
</g>
<g>
	<path style="fill:#E8D47B;" d="M40,57.5c-6.775,0-12.5-2.519-12.5-5.5v-5.5h25V52C52.5,54.981,46.775,57.5,40,57.5z"/>
	<g>
		<path style="fill:#BA9B48;" d="M52,47v5c0,2.365-4.928,5-12,5s-12-2.635-12-5v-5H52 M53,46H27c0,0,0,4.906,0,6    c0,3.314,5.82,6,13,6s13-2.686,13-6C53,50.906,53,46,53,46L53,46z"/>
	</g>
</g>
<g>
	<path style="fill:#FFEEA3;" d="M45,55.483c0.728-0.155,1.39-0.338,2-0.543v-6.615h-2V55.483z"/>
	<path style="fill:#FFEEA3;" d="M35,55.483c0.627,0.133,1.294,0.24,2,0.324v-7.482h-2V55.483z"/>
</g>
<g>
	<path style="fill:#E8D47B;" d="M40,51.5c-6.775,0-12.5-2.519-12.5-5.5v-5.5h25V46C52.5,48.981,46.775,51.5,40,51.5z"/>
	<g>
		<path style="fill:#BA9B48;" d="M52,41v5c0,2.365-4.928,5-12,5s-12-2.635-12-5v-5H52 M53,40H27c0,0,0,4.906,0,6    c0,3.314,5.82,6,13,6s13-2.686,13-6C53,44.906,53,40,53,40L53,40z"/>
	</g>
</g>
<g>
	<path style="fill:#FFEEA3;" d="M45,49.483c0.728-0.155,1.39-0.338,2-0.543v-6.615h-2V49.483z"/>
	<path style="fill:#FFEEA3;" d="M35,49.483c0.627,0.133,1.294,0.24,2,0.324v-7.482h-2V49.483z"/>
</g>
<g>
	<path style="fill:#E8D47B;" d="M40,45.5c-6.775,0-12.5-2.519-12.5-5.5v-5.5h25V40C52.5,42.981,46.775,45.5,40,45.5z"/>
	<g>
		<path style="fill:#BA9B48;" d="M52,35v5c0,2.365-4.928,5-12,5s-12-2.635-12-5v-5H52 M53,34H27c0,0,0,4.906,0,6    c0,3.314,5.82,6,13,6s13-2.686,13-6C53,38.906,53,34,53,34L53,34z"/>
	</g>
</g>
<g>
	<path style="fill:#FFEEA3;" d="M45,43.483c0.728-0.155,1.39-0.338,2-0.543v-6.615h-2V43.483z"/>
	<path style="fill:#FFEEA3;" d="M35,43.483c0.627,0.133,1.294,0.24,2,0.324v-7.482h-2V43.483z"/>
</g>
<g>
	<path style="fill:#E8D47B;" d="M40,39.5c-6.775,0-12.5-2.519-12.5-5.5v-5.5h25V34C52.5,36.981,46.775,39.5,40,39.5z"/>
	<g>
		<path style="fill:#BA9B48;" d="M52,29v5c0,2.365-4.928,5-12,5s-12-2.635-12-5v-5H52 M53,28H27c0,0,0,4.906,0,6    c0,3.314,5.82,6,13,6s13-2.686,13-6C53,32.906,53,28,53,28L53,28z"/>
	</g>
</g>
<g>
	<path style="fill:#FFEEA3;" d="M45,37.483c0.728-0.155,1.39-0.338,2-0.543v-6.615h-2V37.483z"/>
	<path style="fill:#FFEEA3;" d="M35,37.483c0.627,0.133,1.294,0.24,2,0.324v-7.482h-2V37.483z"/>
</g>
<g>
	<path style="fill:#FFEEA3;" d="M40,33.5c-6.775,0-12.5-2.519-12.5-5.5s5.725-5.5,12.5-5.5s12.5,2.519,12.5,5.5S46.775,33.5,40,33.5   z"/>
	<path style="fill:#BA9B48;" d="M40,23c7.072,0,12,2.635,12,5s-4.928,5-12,5s-12-2.635-12-5S32.928,23,40,23 M40,22   c-7.18,0-13,2.686-13,6s5.82,6,13,6s13-2.686,13-6S47.18,22,40,22L40,22z"/>
</g>
</svg>
