<?xml version="1.0"?>
<svg xmlns="http://www.w3.org/2000/svg" xmlns:xlink="http://www.w3.org/1999/xlink" version="1.1" viewBox="0 0 252 252" width="80px" height="80px"><g transform="translate(2.52,2.52) scale(0.98,0.98)"><g fill="none" fill-rule="nonzero" stroke="none" stroke-width="1" stroke-linecap="butt" stroke-linejoin="miter" stroke-miterlimit="10" stroke-dasharray="" stroke-dashoffset="0" font-family="none" font-weight="none" font-size="none" text-anchor="none" style="mix-blend-mode: normal"><path d="M0,252v-252h252v252z" fill="none"/><g><g id="surface1"><path d="M241.17188,129.07617l-13.62744,-1.69189c-1.23047,-0.16919 -2.30713,-0.89209 -2.90699,-1.96875c-3.81445,-6.5061 -8.73633,-12.28931 -14.53491,-17.08814c-0.89209,-0.75366 -1.39966,-1.8457 -1.41504,-2.99927v-38.11377c-11.07422,-1.47656 -22.10229,3.10693 -28.85449,12.01245c-19.2876,-13.33521 -42.20508,-20.37964 -65.64551,-20.16431c-35.74512,0 -67.21435,15.51929 -85.51758,39.02124c-0.69214,0.95362 -1.78418,1.53809 -2.95312,1.59961c-1.16895,0.07691 -2.32251,-0.38452 -3.12232,-1.24585c-5.58325,-6.95215 -7.92114,-15.98071 -6.36767,-24.76318c-7.25977,5.59863 -11.72022,14.07348 -12.2124,23.2251c-0.50757,9.15161 2.99927,18.05713 9.61304,24.40942c1.07666,1.01513 1.49194,2.52246 1.09204,3.9375c-1.90723,6.64453 -2.8916,13.51978 -2.90698,20.44116c0.26147,21.39478 9.18237,41.77441 24.73242,56.46314c0.84595,0.81518 1.27661,1.98413 1.16895,3.15308l-2.75317,27.36255c-0.38452,3.82983 2.07642,7.38281 5.79859,8.38257l18.30322,4.92188c3.29151,0.87671 6.76758,-0.44604 8.62866,-3.30689l8.78247,-13.42749c0.93823,-1.4458 2.73779,-2.10718 4.39893,-1.61499c21.61011,6.1831 44.51221,6.1831 66.10693,0c1.66113,-0.46143 3.42993,0.18457 4.38354,1.61499l8.73633,13.39673c1.86109,2.84546 5.33716,4.18359 8.62867,3.30689l18.42627,-4.92187c3.72217,-0.99976 6.16772,-4.55273 5.7832,-8.39795l-1.89185,-19.99512c-0.13843,-1.67651 0.78442,-3.26074 2.32251,-3.9375c12.82764,-5.66016 23.65576,-15.05786 31.06934,-26.97803c0.61523,-1.03052 1.67651,-1.72266 2.87622,-1.87647l14.0581,-1.78418c3.95288,-0.49219 6.92139,-3.87598 6.89063,-7.875v-33.2688c0,-4.04516 -3.06079,-7.42895 -7.09058,-7.82886z" fill="#f9e3ae"/><path d="M222.54565,184.35498c-4.44507,-4.46045 -10.53589,-6.87525 -16.82666,-6.65992c-6.29077,0.21533 -12.19702,3.04541 -16.31909,7.7981c-15.75,18.22632 -41.69751,30.16186 -71.2749,30.16186c-32.05371,0 -60.00073,-14.0581 -74.8125,-34.92993c-2.61474,-3.75293 -6.7522,-6.16773 -11.30493,-6.58301c-4.56811,-0.43066 -9.07471,1.19971 -12.32007,4.42969c4.27588,8.78247 10.02832,16.78051 17.01123,23.625c0.84594,0.81518 1.27661,1.96875 1.18433,3.1377l-2.75317,27.37793c-0.38452,3.82983 2.06104,7.38281 5.7832,8.38257l18.14941,4.87573c3.29151,0.87671 6.76758,-0.44604 8.62866,-3.30689l8.78247,-13.42749c0.93823,-1.4458 2.73779,-2.10718 4.39893,-1.61499c21.61011,6.1831 44.51221,6.1831 66.10693,0c1.66113,-0.46143 3.42993,0.18457 4.38354,1.61499l8.73633,13.39673c1.86109,2.84546 5.33716,4.18359 8.62867,3.30689l18.42627,-4.92187c3.72217,-0.99976 6.16772,-4.55273 5.7832,-8.39795l-1.89185,-19.99512c-0.13843,-1.67651 0.78442,-3.26074 2.32251,-3.9375c11.78174,-5.3064 21.87158,-13.75049 29.17749,-24.40942z" fill="#f6d397"/><path d="M169.3125,33.46875c0,16.30371 -13.22754,29.53125 -29.53125,29.53125c-16.30371,0 -29.53125,-13.22754 -29.53125,-29.53125c0,-16.30371 13.22754,-29.53125 29.53125,-29.53125c16.30371,0 29.53125,13.22754 29.53125,29.53125z" fill="#c2cde7"/><path d="M114.1875,59.0625c-24.65552,-0.24609 -48.72656,7.59815 -68.50635,22.33301l1.56885,2.12256c4.72192,6.39844 13.47363,8.25952 20.39502,4.36816c14.18115,-8.07495 30.22339,-12.25855 46.54248,-12.16626c21.56397,-0.27686 42.5127,7.18286 59.0625,21.02564l3.9375,-21.93311c-16.68823,-9.99756 -40.98999,-15.75 -63,-15.75z" fill="#faefde"/><path d="M78.75,55.125c0.01538,-16.44214 11.32031,-30.71558 27.31641,-34.48388c15.99609,-3.75293 32.48438,3.96826 39.83643,18.67236c7.33667,14.71948 3.59912,32.5459 -9.02857,43.06641c-18.74927,-3.62988 -30.56177,-3.62988 -45.37354,-0.04614c-8.07495,-6.72143 -12.75073,-16.70361 -12.75073,-27.20874z" fill="#ced8ed"/><path d="M137.8125,153.5625c0,-8.70556 -7.04443,-15.75 -15.75,-15.75v-15.75c0,-2.1687 -1.7688,-3.9375 -3.9375,-3.9375c-2.1687,0 -3.9375,1.7688 -3.9375,3.9375v15.75c-4.35278,0 -7.875,-3.52222 -7.875,-7.875v-7.875c0,-4.35278 3.52222,-7.875 7.875,-7.875h7.875c4.35278,0 7.875,3.52222 7.875,7.875c0,2.1687 1.7688,3.9375 3.9375,3.9375c2.1687,0 3.9375,-1.7688 3.9375,-3.9375c0,-8.70556 -7.04443,-15.75 -15.75,-15.75v-3.9375c0,-2.1687 -1.7688,-3.9375 -3.9375,-3.9375c-2.1687,0 -3.9375,1.7688 -3.9375,3.9375v3.9375c-8.70556,0 -15.75,7.04444 -15.75,15.75v7.875c0,8.70557 7.04444,15.75 15.75,15.75h7.875c4.35278,0 7.875,3.52222 7.875,7.875v7.875c0,4.35278 -3.52222,7.875 -7.875,7.875v-15.75c0,-2.1687 -1.7688,-3.9375 -3.9375,-3.9375c-2.1687,0 -3.9375,1.7688 -3.9375,3.9375v15.75c-4.35278,0 -7.875,-3.52222 -7.875,-7.875c0,-2.1687 -1.7688,-3.9375 -3.9375,-3.9375c-2.1687,0 -3.9375,1.7688 -3.9375,3.9375c0,8.70557 7.04444,15.75 15.75,15.75v3.9375c0,2.1687 1.7688,3.9375 3.9375,3.9375c2.1687,0 3.9375,-1.7688 3.9375,-3.9375v-3.9375c8.70557,0 15.75,-7.04443 15.75,-15.75z" fill="#8d6c9f"/><path d="M204.90381,133.875c0,4.35278 -3.52222,7.875 -7.875,7.875c-4.35278,0 -7.875,-3.52222 -7.875,-7.875c0,-4.35278 3.52222,-7.875 7.875,-7.875c4.35278,0 7.875,3.52222 7.875,7.875z" fill="#8d6c9f"/><path d="M118.125,200.8125c-2.1687,0 -3.9375,1.7688 -3.9375,3.9375v7.875c0,2.1687 1.7688,3.9375 3.9375,3.9375c2.1687,0 3.9375,-1.7688 3.9375,-3.9375v-7.875c0,-2.1687 -1.7688,-3.9375 -3.9375,-3.9375z" fill="#8d6c9f"/><path d="M99.29883,198.84375c-1.01513,-0.21533 -2.0918,-0.03076 -2.9685,0.53833c-0.87671,0.56909 -1.49194,1.47656 -1.70728,2.4917l-1.66113,7.875c-0.21533,1.03052 -0.03076,2.0918 0.53833,2.96851c0.56909,0.89209 1.47656,1.50732 2.4917,1.72266h0.83057c1.89185,0.03076 3.5376,-1.26123 3.9375,-3.10694l1.66113,-7.875c0.3999,-2.13794 -0.98437,-4.19897 -3.12232,-4.61426z" fill="#8d6c9f"/><path d="M81.30322,192.9375c-0.95362,-0.43066 -2.03027,-0.44604 -3.01465,-0.0769c-0.969,0.38452 -1.75342,1.1228 -2.18408,2.0918l-3.18384,7.19824c-0.87671,1.98413 0.01538,4.32202 2.01489,5.19873c1.98413,0.87671 4.30664,-0.01538 5.19873,-2.01489l3.18383,-7.19824c0.43066,-0.95362 0.44605,-2.04566 0.07691,-3.01465c-0.38452,-0.969 -1.12281,-1.7688 -2.0918,-2.18408z" fill="#8d6c9f"/><path d="M59.37012,184.38574l-4.64502,6.38306c-1.27661,1.7688 -0.89209,4.22974 0.87671,5.52173c1.75342,1.27661 4.22974,0.89209 5.50635,-0.87671l4.64502,-6.41382c1.29199,-1.7688 0.89209,-4.22974 -0.86133,-5.50635c-1.7688,-1.29199 -4.22974,-0.90747 -5.52173,0.86133z" fill="#8d6c9f"/><path d="M141.75,201.87378c-0.46142,-2.1687 -2.58398,-3.56836 -4.76806,-3.10693c-2.1687,0.46142 -3.56836,2.58398 -3.10694,4.76806l1.66113,7.875c0.38452,1.8457 2.04565,3.15308 3.9375,3.10694h0.81518c1.03052,-0.21533 1.92261,-0.83057 2.4917,-1.70728c0.56909,-0.89209 0.76904,-1.95337 0.53833,-2.98388z" fill="#8d6c9f"/><path d="M160.17627,194.98315c-0.87671,-1.98413 -3.19922,-2.8916 -5.19873,-1.99951c-1.98413,0.87671 -2.8916,3.19922 -1.99951,5.18335l3.18383,7.21362c0.87671,1.98413 3.2146,2.8916 5.19873,2.01489c1.98413,-0.89209 2.8916,-3.2146 1.99951,-5.19873z" fill="#8d6c9f"/><path d="M176.87988,184.38574c-1.30737,-1.64575 -3.69141,-1.98413 -5.41406,-0.75366c-1.70728,1.24585 -2.13794,3.59912 -0.969,5.36792l4.64502,6.38306c1.27661,1.75342 3.75293,2.13794 5.50635,0.86133c1.7688,-1.27661 2.15332,-3.75293 0.87671,-5.50635z" fill="#8d6c9f"/><path d="M241.64868,125.16944l-13.62744,-1.72266c-4.02978,-6.90601 -9.2439,-13.02759 -15.39624,-18.11865v-38.11377c0.01538,-1.99951 -1.47656,-3.69141 -3.46069,-3.9375c-9.65918,-1.24585 -19.39526,1.61499 -26.85498,7.875h-0.19995l-0.30762,0.27685l-0.44604,0.38452c-0.78442,0.67676 -1.52271,1.38428 -2.27637,2.13794c-7.18286,-4.67578 -14.85791,-8.50561 -22.91748,-11.42798c12.1355,-6.87524 18.71851,-20.56421 16.51904,-34.33008c-2.18408,-13.78125 -12.70459,-24.73242 -26.36279,-27.51636c-13.67358,-2.76855 -27.62402,3.24536 -35.00684,15.07324c-11.05883,0.69214 -21.30249,6.07544 -28.16235,14.76563c-6.85987,8.70557 -9.68994,19.91821 -7.78272,30.82324c-19.62598,6.32153 -36.92944,18.3186 -49.69556,34.49927c-3.89136,-4.84497 -5.99853,-10.87427 -5.98315,-17.08814c0.01538,-1.53809 0.16919,-3.06079 0.43066,-4.56811c0.36914,-1.63037 -0.33838,-3.30689 -1.75342,-4.19897c-1.41504,-0.89209 -3.24536,-0.78442 -4.53735,0.26147c-8.18262,6.30615 -13.21216,15.85767 -13.76587,26.17822c-0.55371,10.30518 3.42993,20.34888 10.88965,27.4856c-2.04565,7.0752 -3.09155,14.41186 -3.07617,21.7793c0.323,22.37915 9.65918,43.66626 25.90137,59.0625l-2.70703,27.5625c-0.58447,5.76782 3.10694,11.10498 8.70557,12.59692l18.45703,4.96802c4.93725,1.32275 10.16675,-0.67676 12.95068,-4.96802l8.78247,-13.38135c22.33301,6.36768 45.98877,6.36768 68.32178,0l8.73633,13.35059c2.79932,4.27588 8.02881,6.27539 12.96607,4.95264l18.42627,-4.92187c5.49097,-1.58423 9.05933,-6.906 8.45947,-12.59692l-2.01489,-19.88745c13.51978,-6.01392 24.88623,-15.99609 32.60742,-28.62378l14.05811,-1.7688c5.95239,-0.73828 10.39746,-5.81397 10.35132,-11.8125v-33.31494c0.01538,-5.92163 -4.35278,-10.93579 -10.22827,-11.73559zM139.78125,7.875c11.45874,-0.12305 21.61011,7.39819 24.80933,18.39551c3.2146,11.0127 -1.29199,22.79444 -11.02808,28.85449c-0.10767,-19.08765 -13.87353,-35.34521 -32.68433,-38.59058c4.78345,-5.44483 11.65869,-8.5979 18.90308,-8.65942zM114.1875,23.625c12.79688,0.01538 24.30176,7.78272 29.13135,19.62598c4.81421,11.85864 1.98413,25.45532 -7.16748,34.3916c-14.44263,-3.36841 -29.48511,-3.36841 -43.92773,0c-9.15161,-8.93628 -11.98169,-22.53296 -7.16748,-34.3916c4.82959,-11.84326 16.33447,-19.6106 29.13135,-19.62598zM244.125,170.21997c0.01538,1.99951 -1.47656,3.69141 -3.46069,3.9375l-14.05811,1.7688c-2.43017,0.35376 -4.55273,1.79956 -5.75244,3.9375c-6.93677,11.24341 -17.10352,20.11816 -29.17749,25.4707c-3.04541,1.39966 -4.87574,4.55273 -4.56812,7.875l1.89185,19.81055c0.19995,1.93799 -1.03052,3.72217 -2.90698,4.21435l-18.44165,4.92188c-1.64575,0.44604 -3.39917,-0.21533 -4.32202,-1.66113l-8.73633,-13.38135c-1.46118,-2.19946 -3.90674,-3.52222 -6.53686,-3.5376c-0.75367,0 -1.49195,0.10767 -2.21484,0.30762c-20.88721,5.93701 -43.02027,5.93701 -63.90747,0c-3.30689,-0.969 -6.87525,0.33838 -8.78247,3.22998l-8.58252,13.42749c-0.92285,1.43042 -2.67627,2.10718 -4.32202,1.66113l-18.47241,-4.96802c-1.87646,-0.49219 -3.10693,-2.27637 -2.90698,-4.21435l2.75317,-27.36255c0.23071,-2.33789 -0.58447,-4.67578 -2.24561,-6.33691c-14.79638,-13.96582 -23.31738,-33.29956 -23.625,-53.63306c0,-6.58301 0.92285,-13.13525 2.75317,-19.45679c0.7998,-2.8147 -0.03076,-5.86011 -2.1687,-7.875c-9.42847,-9.07471 -11.18189,-23.5481 -4.16821,-34.60694c0.92285,6.24463 3.52222,12.12012 7.52124,17.01123c1.4458,1.79956 3.62988,2.84546 5.95239,2.83008c2.46094,-0.01538 4.78345,-1.15357 6.29077,-3.10694c11.8125,-14.73486 27.67017,-25.68603 45.63501,-31.5c1.50732,3.98364 3.64526,7.69043 6.33691,10.98194c-1.96875,0.67676 -3.9375,1.38428 -5.82935,2.1687c-1.99951,0.84595 -2.95312,3.15308 -2.12256,5.16797c0.84594,1.99951 3.15308,2.95313 5.16797,2.12256c21.62549,-8.82862 45.8811,-8.65942 67.39892,0.43066c1.87647,0.43066 3.78369,-0.53833 4.53735,-2.32251c0.73828,-1.7688 0.09228,-3.81445 -1.53809,-4.84497c-2.29175,-0.98437 -4.56811,-1.8457 -6.93677,-2.64551c2.69165,-3.27612 4.82959,-6.96753 6.33691,-10.93579c8.22876,2.75317 16.073,6.52148 23.36353,11.21265c-3.26074,5.49097 -4.96802,11.75098 -4.96802,18.11865c0,2.1687 1.7688,3.9375 3.9375,3.9375c2.1687,0 3.9375,-1.7688 3.9375,-3.9375c0,-6.04468 1.99951,-11.93555 5.67554,-16.73437c5.21411,-6.8291 13.30445,-10.82812 21.88696,-10.82812v34.45313c0.01538,2.32251 1.0459,4.53735 2.83008,6.0293c5.44483,4.50659 10.05908,9.93604 13.62744,16.02686c1.21508,2.15332 3.36841,3.6145 5.82934,3.9375l13.62744,1.69189c1.98413,0.23071 3.47607,1.92261 3.46069,3.9375z" fill="#8d6c9f"/><path d="M94.5,59.0625c2.1687,0 3.9375,-1.7688 3.9375,-3.9375c0,-8.70556 7.04444,-15.75 15.75,-15.75c2.1687,0 3.9375,-1.7688 3.9375,-3.9375c0,-2.1687 -1.7688,-3.9375 -3.9375,-3.9375c-13.04297,0 -23.625,10.58203 -23.625,23.625c0,2.1687 1.7688,3.9375 3.9375,3.9375z" fill="#8d6c9f"/></g></g></g></g></svg>
