<?xml version="1.0" encoding="iso-8859-1"?>
<!-- Generator: Adobe Illustrator 21.0.2, SVG Export Plug-In . SVG Version: 6.00 Build 0)  -->
<svg xmlns="http://www.w3.org/2000/svg" xmlns:xlink="http://www.w3.org/1999/xlink" version="1.1" id="Layer_1" x="0px" y="0px" viewBox="0 0 80 80" style="enable-background:new 0 0 80 80;" xml:space="preserve" width="80px" height="80px">
<g>
	<rect x="2.5" y="18.5" style="fill:#BAE0BD;" width="75" height="43"/>
	<path style="fill:#5E9C76;" d="M77,19v42H3V19H77 M78,18H2v44h76V18L78,18z"/>
</g>
<g>
	<circle style="fill:#5E9C76;" cx="40" cy="40" r="16"/>
</g>
<g>
	<circle style="fill:#5E9C76;" cx="66" cy="40" r="6"/>
</g>
<g>
	<circle style="fill:#FFFFFF;" cx="14" cy="40" r="5.5"/>
	<g>
		<path style="fill:#5E9C76;" d="M14,35c2.757,0,5,2.243,5,5s-2.243,5-5,5s-5-2.243-5-5S11.243,35,14,35 M14,34    c-3.314,0-6,2.686-6,6s2.686,6,6,6s6-2.686,6-6S17.314,34,14,34L14,34z"/>
	</g>
</g>
<g>
	<path style="fill:#FFEEA3;" d="M54.5,79.5V72c0-1.096,0.523-2.143,1.4-2.8l6.6-4.95v-2.5l-6.6-4.95c-0.876-0.658-1.4-1.704-1.4-2.8   v-7.5h23V54c0,1.096-0.523,2.143-1.4,2.8l-6.6,4.95v2.5l6.6,4.95c0.876,0.658,1.4,1.704,1.4,2.8v7.5H54.5z"/>
	<path style="fill:#BA9B48;" d="M77,47v7c0,0.939-0.449,1.836-1.2,2.4l-6.4,4.8L69,61.5V62v2v0.5l0.4,0.3l6.4,4.8   c0.751,0.564,1.2,1.461,1.2,2.4v7H55v-7c0-0.939,0.449-1.836,1.2-2.4l6.4-4.8l0.4-0.3V64v-2v-0.5l-0.4-0.3l-6.4-4.8   C55.449,55.836,55,54.939,55,54v-7H77 M78,46H54v8c0,1.259,0.593,2.445,1.6,3.2L62,62v2l-6.4,4.8C54.593,69.555,54,70.741,54,72v8   h24v-8c0-1.259-0.593-2.445-1.6-3.2L70,64v-2l6.4-4.8c1.007-0.755,1.6-1.941,1.6-3.2V46L78,46z"/>
</g>
<g>
	<polygon style="fill:#F5CE85;" points="62.934,54.5 69.066,54.5 66,59.099  "/>
	<g>
		<path style="fill:#967A44;" d="M68.131,55L66,58.197L63.869,55H68.131 M70,54h-8l4,6L70,54L70,54z"/>
	</g>
</g>
<g>
	<polygon style="fill:#F5CE85;" points="58.934,79.5 66,68.901 73.066,79.5  "/>
	<g>
		<path style="fill:#967A44;" d="M66,69.803L72.131,79H59.869L66,69.803 M66,68l-8,12h16L66,68L66,68z"/>
	</g>
</g>
<g>
	<path style="fill:#BAE0BD;" d="M50,54c0,2.505,1.196,4.897,3.2,6.4l2.133,1.6H62l-6.4-4.8C54.593,56.445,54,55.259,54,54v-6h-2v-2   h2h24v-4H54h-2h-4v4v2v4v2H50z"/>
</g>
<g>
	<circle style="fill:#FFFFFF;" cx="40" cy="40" r="15"/>
</g>
<rect x="52" y="78" style="fill:#967A44;" width="28" height="2"/>
<rect x="52" y="46" style="fill:#967A44;" width="28" height="2"/>
<g>
	<circle style="fill:#FFFFFF;" cx="66" cy="40" r="5"/>
</g>
<g>
	<path style="fill:#BAE0BD;" d="M78,54c0,1.259-0.593,2.445-1.6,3.2L70,62h8V54z"/>
</g>
</svg>
