<?xml version="1.0"?>
<svg xmlns="http://www.w3.org/2000/svg" xmlns:xlink="http://www.w3.org/1999/xlink" version="1.1" viewBox="0 0 252 252" width="96px" height="96px"><g transform="translate(-17.64,-17.64) scale(1.14,1.14)"><g fill="none" fill-rule="nonzero" stroke="none" stroke-width="1" stroke-linecap="butt" stroke-linejoin="miter" stroke-miterlimit="10" stroke-dasharray="" stroke-dashoffset="0" font-family="none" font-weight="none" font-size="none" text-anchor="none" style="mix-blend-mode: normal"><path d="M0,252v-252h252v252z" fill="none"/><g><g id="surface1"><path d="M15.75,63v126c0,11.60742 9.39258,21 21,21c0,0 168,0 173.25,0c5.25,0 5.25,-5.22949 5.25,-5.22949v-141.77051z" fill="#f57c00"/><path d="M210,42h-173.25c-11.60742,0 -21,9.39258 -21,21c0,11.58691 9.39258,21 21,21c0,0 168,0 173.25,0c5.25,0 5.25,5.25 5.25,5.25v-42c0,-2.8916 -2.33789,-5.25 -5.25,-5.25z" fill="#942a09"/><path d="M36.75,63v21c38.34961,0 168.7793,0 173.25,0c5.25,0 5.25,5.27051 5.25,5.27051v110.22949h10.5v-136.5z" fill="#4caf50"/><path d="M36.75,73.5v10.5c28.91602,0 110.5166,0 150.58887,0c-1.55859,-3.26074 -2.60449,-6.80859 -3.15821,-10.5z" fill="#c8e6c9"/><path d="M236.25,120.75h-47.25c-11.60742,0 -21,9.39258 -21,21c0,11.60742 9.39258,21 21,21h47.25z" fill="#bf360c"/><path d="M199.5,141.75c0,5.80371 -4.69629,10.5 -10.5,10.5c-5.80371,0 -10.5,-4.69629 -10.5,-10.5c0,-5.80371 4.69629,-10.5 10.5,-10.5c5.80371,0 10.5,4.69629 10.5,10.5z" fill="#ffecb3"/></g></g></g></g></svg>
